<?xml version="1.0" encoding="UTF-8" standalone="no"?>
<!-- Generator: Adobe Illustrator 23.0.2, SVG Export Plug-In . SVG Version: 6.00 Build 0)  -->

<svg
   version="1.1"
   id="svg1"
   x="0px"
   y="0px"
   viewBox="0 0 320 100"
   style="enable-background:new 0 0 320 100;"
   xml:space="preserve"
   sodipodi:docname="catalogo.svg"
   inkscape:version="1.1.2 (0a00cf5339, 2022-02-04)"
   xmlns:inkscape="http://www.inkscape.org/namespaces/inkscape"
   xmlns:sodipodi="http://sodipodi.sourceforge.net/DTD/sodipodi-0.dtd"
   xmlns="http://www.w3.org/2000/svg"
   xmlns:svg="http://www.w3.org/2000/svg"><defs
   id="defs24" />
<style
   type="text/css"
   id="style2">
	.st0{enable-background:new    ;}
	.st1{fill:#1E1007;}
</style>
<sodipodi:namedview
   bordercolor="#000000"
   borderopacity="0.25"
   id="namedview1"
   inkscape:current-layer="g21"
   inkscape:cx="166.30302"
   inkscape:cy="120.1895"
   inkscape:deskcolor="#d1d1d1"
   inkscape:document-units="mm"
   inkscape:pagecheckerboard="0"
   inkscape:pageopacity="0.0"
   inkscape:showpageshadow="2"
   inkscape:window-height="1008"
   inkscape:window-maximized="1"
   inkscape:window-width="1920"
   inkscape:window-x="0"
   inkscape:window-y="0"
   inkscape:zoom="2.0384476"
   pagecolor="#ffffff"
   inkscape:pageshadow="2"
   showgrid="false">
	</sodipodi:namedview>
<g
   class="st0"
   id="g21">
	<path
   class="st1"
   d="M39.4,52c0-11.2,7.3-19.4,16.6-19.4c8.6,0,11.5,4.4,11.5,7.8c0,7.8-10.6,10.5-10.6,15c0,1.2,0.4,1.8,1.1,2.4   c-2,0.4-3.2-1.8-3.2-3.5c0-6.6,10.5-8.8,10.5-14.2c0-4.4-3-7.1-9.3-7.1c-7.7,0-13.3,8.1-13.3,19c0,10.9,6,19,13.3,19   c8.3,0,10.6-6.3,10.6-6.3h0.4v5c-3,1-6.3,1.7-11.1,1.7C46.8,71.4,39.4,63.2,39.4,52z"
   id="path5"
   style="fill:#241a23;fill-opacity:1" />
	<path
   class="st1"
   d="M84.3,47.6c0-0.7-0.4-1-0.9-1c-1.8,0-2.9,3.9-5,3.9c-1,0-1.2-1-0.9-2c2.3-6,3.7-9.7,6-15.9h0.4l11.9,31.6   c1.6,4.1,2.8,6.2,5.1,6.2v0.4H88.7v-0.4c5.3,0,5.1-3,3.7-6.8l-4.6-12.2c0.1,1.2,0.2,2.7,0.2,4.5c0,9.1-4.4,15.6-11.8,15.6   c-4.3,0-6.8-3.4-6.8-7.3C69.4,55,84.3,51.5,84.3,47.6z M78.4,69.6c6.2,0,9.2-7.7,9.2-13.8c0-2.8-0.1-4.8-0.8-7l-4.5-11.9L78,48.4   c-0.5,1.3-0.2,1.8,0.4,1.8c1.7,0,3.1-3.9,5.1-3.9c0.7,0,1.2,0.5,1.2,1.5c0,5-12.2,6.6-12.2,15.8C72.6,67,74.8,69.6,78.4,69.6z"
   id="path7"
   style="fill:#241a23;fill-opacity:1" />
	<path
   class="st1"
   d="M123.3,33.4v5H123c0-0.1,0,0,0-0.1c0-2.5-4.7-4.5-11.1-4.5v26.6c0,7.4-0.1,10,3.1,10v0.4h-9.7v-0.4   c3.2,0,3.4-2.7,3.4-10V33.7c-6.4,0-11.1,2-11.1,4.5c0,0.1,0,0,0,0.1h-0.4v-5H123.3z"
   id="path9"
   style="fill:#241a23;fill-opacity:1" />
	<path
   class="st1"
   d="M135.7,47.6c0-0.7-0.4-1-0.9-1c-1.8,0-2.9,3.9-5,3.9c-1,0-1.2-1-0.9-2c2.3-6,3.7-9.7,6-15.9h0.4l11.9,31.6   c1.6,4.1,2.8,6.2,5.1,6.2v0.4h-12.2v-0.4c5.3,0,5.1-3,3.7-6.8l-4.6-12.2c0.1,1.2,0.2,2.7,0.2,4.5c0,9.1-4.4,15.6-11.8,15.6   c-4.3,0-6.8-3.4-6.8-7.3C120.7,55,135.7,51.5,135.7,47.6z M123.9,63.4c0,3.5,2.2,6.2,5.9,6.2c6.2,0,9.2-7.7,9.2-13.8   c0-2.8-0.1-4.8-0.8-7l-4.5-11.9l-4.3,11.4c-0.5,1.3-0.2,1.8,0.4,1.8c1.7,0,3.1-3.9,5.1-3.9c0.7,0,1.2,0.5,1.2,1.5   C136.1,52.7,123.9,54.2,123.9,63.4z M131.4,30.4V30h1.2c3.2,0,3.2-3.2,5-3.2c0.7,0,1,0.5,1,1c0,1.5-2.5,2.5-4.4,2.5H131.4z"
   id="path11"
   style="fill:#241a23;fill-opacity:1" />
	<path
   class="st1"
   d="M163.5,33.4v0.4c-3.2,0-3.4,2.7-3.4,10v26.6h4.7c3.5,0,14.9-0.4,14.9-5.8h0.4v6.2h-26.7v-0.4   c3.2,0,3.4-2.7,3.4-10V43.7c0-7.4-0.2-10-3.4-10v-0.4H163.5z"
   id="path13"
   style="fill:#241a23;fill-opacity:1" />
	<path
   class="st1"
   d="M181.2,52c0-11.2,7.3-19.4,16.6-19.4s16.6,8.2,16.6,19.4c0,11.2-7.3,19.4-16.6,19.4S181.2,63.2,181.2,52z    M184.6,52c0,10.9,6,19,13.3,19c7.2,0,13.3-8.1,13.3-19c0-10.9-5.5-19-13.3-19C190.1,33.1,184.6,41.1,184.6,52z"
   id="path15"
   style="fill:#241a23;fill-opacity:1" />
	<path
   class="st1"
   d="M235.6,32.6c4.6,0,7.8,0.7,10.6,1.7v5h-0.4c0,0-2.3-6.3-10.3-6.3c-7.7,0-13.3,8.1-13.3,19c0,10.9,6,19,13.3,19   c6.6,0,9.4-5.7,9.4-7.1v-5.3c0-7.3-7.1-6.2-12.1-6.2c-2.7,0-4.9-0.3-4.9-2.5c0-3.2,3.4-4.7,5.7-4.7c5.6,0,8.6,3.4,13.4,3.4   c2.6,0,2.7-1.1,2.7-1.1c0.6,2.4-1.5,3.7-3.8,3.7c-4.5,0-9.5-3.6-13.2-3.6c-2.3,0-4.4,0.8-4.4,2.5c0,2.5,4.6,1.9,9.3,1.9   c5.1,0,10.5,0.7,10.5,6.6V64c-2.8,4.7-7.3,7.4-12.6,7.4c-9.3,0-16.6-8.2-16.6-19.4C218.9,40.8,226.3,32.6,235.6,32.6z"
   id="path17"
   style="fill:#241a23;fill-opacity:1" />
	<path
   class="st1"
   d="M253.3,52c0-11.2,7.3-19.4,16.6-19.4c9.3,0,16.6,8.2,16.6,19.4c0,11.2-7.3,19.4-16.6,19.4   C260.6,71.4,253.3,63.2,253.3,52z M256.7,52c0,10.9,6,19,13.3,19s13.3-8.1,13.3-19c0-10.9-5.5-19-13.3-19S256.7,41.1,256.7,52z"
   id="path19"
   style="fill:#241a23;fill-opacity:1" />
</g>
</svg>
