<?xml version="1.0" encoding="UTF-8" standalone="no"?>
<!-- Created with Inkscape (http://www.inkscape.org/) -->

<svg
   width="320"
   height="160"
   viewBox="0 0 84.666667 42.333334"
   version="1.1"
   id="svg1"
   xml:space="preserve"
   inkscape:version="1.3.2 (091e20e, 2023-11-25)"
   sodipodi:docname="espora.svg"
   xmlns:inkscape="http://www.inkscape.org/namespaces/inkscape"
   xmlns:sodipodi="http://sodipodi.sourceforge.net/DTD/sodipodi-0.dtd"
   xmlns="http://www.w3.org/2000/svg"
   xmlns:svg="http://www.w3.org/2000/svg"><sodipodi:namedview
     id="namedview1"
     pagecolor="#ffffff"
     bordercolor="#000000"
     borderopacity="0.25"
     inkscape:showpageshadow="2"
     inkscape:pageopacity="0.0"
     inkscape:pagecheckerboard="0"
     inkscape:deskcolor="#d1d1d1"
     inkscape:document-units="mm"
     inkscape:zoom="2.8828002"
     inkscape:cx="194.25557"
     inkscape:cy="76.488131"
     inkscape:window-width="1920"
     inkscape:window-height="1006"
     inkscape:window-x="0"
     inkscape:window-y="0"
     inkscape:window-maximized="1"
     inkscape:current-layer="layer-MC0"><inkscape:page
       x="0"
       y="0"
       width="84.666664"
       height="42.333336"
       id="page1"
       margin="0"
       bleed="0" /></sodipodi:namedview><defs
     id="defs1"><clipPath
       clipPathUnits="userSpaceOnUse"
       id="clipPath2"><path
         d="M 0,540 H 1080 V 0 H 0 Z"
         transform="translate(-265.105,-418.74801)"
         id="path2" /></clipPath><clipPath
       clipPathUnits="userSpaceOnUse"
       id="clipPath4"><path
         d="M 0,540 H 1080 V 0 H 0 Z"
         transform="translate(-153.4492,-197.124)"
         id="path4" /></clipPath><clipPath
       clipPathUnits="userSpaceOnUse"
       id="clipPath6"><path
         d="M 0,540 H 1080 V 0 H 0 Z"
         transform="translate(-120.5137,-325.05371)"
         id="path6" /></clipPath><clipPath
       clipPathUnits="userSpaceOnUse"
       id="clipPath8"><path
         d="M 0,540 H 1080 V 0 H 0 Z"
         transform="translate(-314.43261,-401.59621)"
         id="path8" /></clipPath><clipPath
       clipPathUnits="userSpaceOnUse"
       id="clipPath10"><path
         d="M 0,540 H 1080 V 0 H 0 Z"
         transform="translate(-268.0366,-88.986302)"
         id="path10" /></clipPath><clipPath
       clipPathUnits="userSpaceOnUse"
       id="clipPath12"><path
         d="M 0,540 H 1080 V 0 H 0 Z"
         transform="translate(-281.11911,-305.87891)"
         id="path12" /></clipPath><clipPath
       clipPathUnits="userSpaceOnUse"
       id="clipPath14"><path
         d="M 0,540 H 1080 V 0 H 0 Z"
         transform="translate(-72.046902,-197.0566)"
         id="path14" /></clipPath><clipPath
       clipPathUnits="userSpaceOnUse"
       id="clipPath16"><path
         d="M 0,540 H 1080 V 0 H 0 Z"
         transform="translate(-112.582,-238.37991)"
         id="path16" /></clipPath><clipPath
       clipPathUnits="userSpaceOnUse"
       id="clipPath18"><path
         d="M 0,540 H 1080 V 0 H 0 Z"
         transform="translate(-341.13771,-309.44381)"
         id="path18" /></clipPath><clipPath
       clipPathUnits="userSpaceOnUse"
       id="clipPath20"><path
         d="M 0,540 H 1080 V 0 H 0 Z"
         transform="translate(-173.6709,-333.48881)"
         id="path20" /></clipPath><clipPath
       clipPathUnits="userSpaceOnUse"
       id="clipPath22"><path
         d="M 0,540 H 1080 V 0 H 0 Z"
         transform="translate(-401.20361,-257.68461)"
         id="path22" /></clipPath><clipPath
       clipPathUnits="userSpaceOnUse"
       id="clipPath24"><path
         d="M 0,540 H 1080 V 0 H 0 Z"
         transform="translate(-368.80521,-261.80181)"
         id="path24" /></clipPath><clipPath
       clipPathUnits="userSpaceOnUse"
       id="clipPath26"><path
         d="M 0,540 H 1080 V 0 H 0 Z"
         transform="translate(-175.86081,-433.51661)"
         id="path26" /></clipPath><clipPath
       clipPathUnits="userSpaceOnUse"
       id="clipPath28"><path
         d="M 0,540 H 1080 V 0 H 0 Z"
         transform="translate(-42.493201,-250.67871)"
         id="path28" /></clipPath><clipPath
       clipPathUnits="userSpaceOnUse"
       id="clipPath30"><path
         d="M 0,540 H 1080 V 0 H 0 Z"
         transform="translate(-272.02341,-273.9175)"
         id="path30" /></clipPath><clipPath
       clipPathUnits="userSpaceOnUse"
       id="clipPath32"><path
         d="M 0,540 H 1080 V 0 H 0 Z"
         transform="translate(-67.681202,-303.96441)"
         id="path32" /></clipPath><clipPath
       clipPathUnits="userSpaceOnUse"
       id="clipPath34"><path
         d="M 0,540 H 1080 V 0 H 0 Z"
         transform="translate(-357.71481,-176.1426)"
         id="path34" /></clipPath><clipPath
       clipPathUnits="userSpaceOnUse"
       id="clipPath36"><path
         d="M 0,540 H 1080 V 0 H 0 Z"
         transform="translate(-168.4492,-416.94821)"
         id="path36" /></clipPath><clipPath
       clipPathUnits="userSpaceOnUse"
       id="clipPath38"><path
         d="M 0,540 H 1080 V 0 H 0 Z"
         transform="translate(-44.961901,-278.0527)"
         id="path38" /></clipPath><clipPath
       clipPathUnits="userSpaceOnUse"
       id="clipPath40"><path
         d="M 0,540 H 1080 V 0 H 0 Z"
         transform="translate(-152.55081,-286.06401)"
         id="path40" /></clipPath><clipPath
       clipPathUnits="userSpaceOnUse"
       id="clipPath42"><path
         d="M 0,540 H 1080 V 0 H 0 Z"
         transform="translate(-318.10211,-114.84771)"
         id="path42" /></clipPath><clipPath
       clipPathUnits="userSpaceOnUse"
       id="clipPath44"><path
         d="M 0,540 H 1080 V 0 H 0 Z"
         transform="translate(-402.90621,-280.21291)"
         id="path44" /></clipPath><clipPath
       clipPathUnits="userSpaceOnUse"
       id="clipPath46"><path
         d="M 0,540 H 1080 V 0 H 0 Z"
         transform="translate(-287.18461,-182.4951)"
         id="path46" /></clipPath><clipPath
       clipPathUnits="userSpaceOnUse"
       id="clipPath48"><path
         d="M 0,540 H 1080 V 0 H 0 Z"
         transform="translate(-42.426301,-269.50051)"
         id="path48" /></clipPath><clipPath
       clipPathUnits="userSpaceOnUse"
       id="clipPath50"><path
         d="M 0,540 H 1080 V 0 H 0 Z"
         transform="translate(-362.66501,-302.62111)"
         id="path50" /></clipPath><clipPath
       clipPathUnits="userSpaceOnUse"
       id="clipPath52"><path
         d="M 0,540 H 1080 V 0 H 0 Z"
         transform="translate(-322.65481,-389.42241)"
         id="path52" /></clipPath><clipPath
       clipPathUnits="userSpaceOnUse"
       id="clipPath54"><path
         d="M 0,540 H 1080 V 0 H 0 Z"
         transform="translate(-328.63091,-164.8965)"
         id="path54" /></clipPath><clipPath
       clipPathUnits="userSpaceOnUse"
       id="clipPath56"><path
         d="M 0,540 H 1080 V 0 H 0 Z"
         transform="translate(-42.815401,-318.56691)"
         id="path56" /></clipPath><clipPath
       clipPathUnits="userSpaceOnUse"
       id="clipPath58"><path
         d="M 0,540 H 1080 V 0 H 0 Z"
         transform="translate(-74.951702,-343.75781)"
         id="path58" /></clipPath><clipPath
       clipPathUnits="userSpaceOnUse"
       id="clipPath60"><path
         d="M 0,540 H 1080 V 0 H 0 Z"
         transform="translate(-214.23291,-337.30081)"
         id="path60" /></clipPath><clipPath
       clipPathUnits="userSpaceOnUse"
       id="clipPath62"><path
         d="M 0,540 H 1080 V 0 H 0 Z"
         transform="translate(-106.02051,-199.73541)"
         id="path62" /></clipPath><clipPath
       clipPathUnits="userSpaceOnUse"
       id="clipPath64"><path
         d="M 0,540 H 1080 V 0 H 0 Z"
         transform="translate(-228.31101,-157.585)"
         id="path64" /></clipPath><clipPath
       clipPathUnits="userSpaceOnUse"
       id="clipPath66"><path
         d="M 0,540 H 1080 V 0 H 0 Z"
         transform="translate(-136.645,-105.33981)"
         id="path66" /></clipPath><clipPath
       clipPathUnits="userSpaceOnUse"
       id="clipPath68"><path
         d="M 0,540 H 1080 V 0 H 0 Z"
         transform="translate(-335.88871,-171.91701)"
         id="path68" /></clipPath><clipPath
       clipPathUnits="userSpaceOnUse"
       id="clipPath70"><path
         d="M 0,540 H 1080 V 0 H 0 Z"
         transform="translate(-371.53961,-178.1631)"
         id="path70" /></clipPath><clipPath
       clipPathUnits="userSpaceOnUse"
       id="clipPath72"><path
         d="M 0,540 H 1080 V 0 H 0 Z"
         transform="translate(-287.3545,-227.78121)"
         id="path72" /></clipPath><clipPath
       clipPathUnits="userSpaceOnUse"
       id="clipPath74"><path
         d="M 0,540 H 1080 V 0 H 0 Z"
         transform="translate(-117.457,-368.56591)"
         id="path74" /></clipPath><clipPath
       clipPathUnits="userSpaceOnUse"
       id="clipPath76"><path
         d="M 0,540 H 1080 V 0 H 0 Z"
         transform="translate(-223.2871,-81.847705)"
         id="path76" /></clipPath><clipPath
       clipPathUnits="userSpaceOnUse"
       id="clipPath78"><path
         d="M 0,540 H 1080 V 0 H 0 Z"
         transform="translate(-369.35601,-352.57131)"
         id="path78" /></clipPath><clipPath
       clipPathUnits="userSpaceOnUse"
       id="clipPath80"><path
         d="M 0,540 H 1080 V 0 H 0 Z"
         transform="translate(-180.33981,-141.18651)"
         id="path80" /></clipPath><clipPath
       clipPathUnits="userSpaceOnUse"
       id="clipPath82"><path
         d="M 0,540 H 1080 V 0 H 0 Z"
         transform="translate(-273.32671,-348.68211)"
         id="path82" /></clipPath><clipPath
       clipPathUnits="userSpaceOnUse"
       id="clipPath84"><path
         d="M 0,540 H 1080 V 0 H 0 Z"
         transform="translate(-360.66891,-301.06881)"
         id="path84" /></clipPath><clipPath
       clipPathUnits="userSpaceOnUse"
       id="clipPath86"><path
         d="M 0,540 H 1080 V 0 H 0 Z"
         transform="translate(-206.62551,-118.2568)"
         id="path86" /></clipPath><clipPath
       clipPathUnits="userSpaceOnUse"
       id="clipPath88"><path
         d="M 0,540 H 1080 V 0 H 0 Z"
         transform="translate(-815.12702,-238.97361)"
         id="path88" /></clipPath><clipPath
       clipPathUnits="userSpaceOnUse"
       id="clipPath90"><path
         d="M 0,540 H 1080 V 0 H 0 Z"
         transform="translate(-722.96682,-207.1123)"
         id="path90" /></clipPath><clipPath
       clipPathUnits="userSpaceOnUse"
       id="clipPath92"><path
         d="M 0,540 H 1080 V 0 H 0 Z"
         transform="translate(-479.21291,-289.52541)"
         id="path92" /></clipPath><clipPath
       clipPathUnits="userSpaceOnUse"
       id="clipPath94"><path
         d="M 0,540 H 1080 V 0 H 0 Z"
         transform="translate(-654.33502,-282.40381)"
         id="path94" /></clipPath><clipPath
       clipPathUnits="userSpaceOnUse"
       id="clipPath96"><path
         d="M 0,540 H 1080 V 0 H 0 Z"
         transform="translate(-577.73831,-254.46291)"
         id="path96" /></clipPath><clipPath
       clipPathUnits="userSpaceOnUse"
       id="clipPath98"><path
         d="M 0,540 H 1080 V 0 H 0 Z"
         transform="translate(-1045.8535,-241.3105)"
         id="path98" /></clipPath><clipPath
       clipPathUnits="userSpaceOnUse"
       id="clipPath100"><path
         d="M 0,540 H 1080 V 0 H 0 Z"
         transform="translate(-1039.9561,-315.94041)"
         id="path100" /></clipPath><clipPath
       clipPathUnits="userSpaceOnUse"
       id="clipPath102"><path
         d="M 0,540 H 1080 V 0 H 0 Z"
         transform="translate(-977.02052,-209.42091)"
         id="path102" /></clipPath><clipPath
       clipPathUnits="userSpaceOnUse"
       id="clipPath104"><path
         d="M 0,540 H 1080 V 0 H 0 Z"
         transform="translate(-887.33402,-253.51461)"
         id="path104" /></clipPath></defs><g
     inkscape:label="Capa 1"
     inkscape:groupmode="layer"
     id="layer1" /><g
     id="layer-MC0"
     inkscape:groupmode="layer"
     inkscape:label="Capa 1"
     transform="matrix(0.26458333,0,0,0.26458333,94.666664,0)"><g
       id="g2"
       style="fill:#f9eec8;fill-opacity:1"
       transform="matrix(1.0534945,0,0,1.0534945,11.670304,-95.155716)"><path
         id="path87"
         d="m 0,0 c -1.042,3.727 -2.887,7.371 -5.957,9.728 -3.962,3.042 -9.294,3.493 -14.287,3.459 -4.995,-0.036 -10.154,-0.413 -14.827,1.345 -0.405,0.154 -0.87,0.414 -0.87,0.846 0,0.447 0.492,0.706 0.911,0.861 5.512,2.052 11.103,3.907 16.75,5.556 3.888,1.136 7.897,2.219 11.178,4.59 7.223,5.215 8.957,16.295 4.385,23.942 -2.47,4.132 -6.412,7.248 -10.754,9.33 -10.966,5.26 -25.172,4.182 -37.777,4.19 h -5.025 c 0,0 0.037,-8.197 0.037,-8.918 0,-5.664 0.002,-11.325 0.002,-16.99 0.002,-5.664 0.002,-11.326 0.004,-16.99 0,-5.661 10e-4,-11.325 10e-4,-16.989 0.003,-5.662 0.003,-11.326 0.005,-16.988 0,-5.664 0.002,-11.328 0.002,-16.99 0,-1.416 0.002,-2.834 0.002,-4.249 v -2.123 c 0,-0.339 0.02,-1.391 0.02,-1.728 2.628,-0.041 8.137,0 11.015,0 0.074,32.625 0.119,65.976 0.192,98.595 6.079,1.609 12.638,1.758 18.591,-0.266 5.953,-2.023 11.229,-6.345 13.775,-12.096 2.544,-5.75 2.075,-12.892 -1.728,-17.9 -3.121,-4.104 -7.988,-6.424 -12.664,-8.594 -3.476,-1.612 -6.953,-3.226 -10.428,-4.84 -0.425,-0.196 -0.878,-0.421 -1.101,-0.833 -0.509,-0.952 0.542,-1.987 1.511,-2.465 6.041,-2.981 13.706,-1.367 19.481,-4.835 4.31,-2.588 6.674,-7.558 7.618,-12.495 0.943,-4.937 0.701,-10.014 1.106,-15.024 0.406,-5.008 1.778,-10.961 5.039,-14.785 3.262,-3.825 9.086,-5.811 13.512,-3.429 -4.806,4.23 -6.856,11.669 -7.537,18.035 C 1.5,-12.685 1.727,-6.167 0,0"
         style="fill:#f9eec8;fill-opacity:1;fill-rule:nonzero;stroke:none"
         transform="matrix(0.4926157,0,0,-0.4926157,-171.23115,177.27692)"
         clip-path="url(#clipPath88)" /><path
         id="path89"
         d="m 0,0 c -4.367,-2.712 -9.44,-2.358 -14.172,-0.798 -18.222,6.009 -26.743,34.163 -26.512,51.384 0.175,13.102 0.406,27.707 11.222,36.858 4.993,4.223 13.442,4.328 19.424,2.026 C -2.604,86.605 1.383,81.506 4.706,75.35 15.287,55.754 23.26,14.444 0,0 M -20.992,95.358 C -54.09,86.575 -58.85,37.704 -42.831,12.748 -35.663,1.584 -26.365,-7.177 -11.876,-6.257 -4.617,-5.796 1.267,-4.164 6.995,0.412 11.542,4.046 15.205,9.324 17.991,14.636 27.789,33.313 26.483,56 17.9,74.852 11.241,89.481 -4.613,99.707 -20.992,95.358"
         style="fill:#f9eec8;fill-opacity:1;fill-rule:nonzero;stroke:none"
         transform="matrix(0.4926157,0,0,-0.4926157,-216.63072,192.97231)"
         clip-path="url(#clipPath90)" /><path
         id="path91"
         d="m 0,0 c 3.873,5.137 9.962,8.823 16.396,8.827 6.277,0.002 12.043,-3.347 17.122,-7.03 2.225,-1.614 4.82,-3.409 7.479,-2.716 1.471,0.384 2.643,1.484 3.661,2.615 2.475,2.751 4.456,5.942 5.822,9.379 C 46.544,9.621 42.293,9.023 38.11,9.338 29.956,9.947 22.138,13.943 13.988,13.268 7.619,12.741 1.705,9.306 -2.622,4.6 -7.817,-1.051 -10.89,-8.426 -12.793,-15.788 c -2.266,-8.765 -2.792,-17.89 -1.94,-26.902 1.042,-11 3.975,-22.264 10.547,-31.247 2.363,-3.23 5.215,-6.113 8.448,-8.475 2.673,-1.955 5.614,-3.554 8.74,-4.654 10.123,-3.561 21.822,-1.071 29.803,6.247 5.938,5.445 8.163,16.257 4.699,23.531 -0.498,1.047 -1.108,2.069 -1.907,3.082 1.021,-5.776 -0.242,-15.816 -5.96,-20.783 -2.785,-2.419 -6.438,-3.645 -10.089,-4.182 -4.706,-0.693 -9.641,-0.303 -13.98,1.64 -5.459,2.444 -9.634,7.182 -12.48,12.443 -2.846,5.259 -4.499,11.069 -6.094,16.832 -0.832,3.008 -1.653,6.247 -0.613,9.191 0.915,2.59 3.131,4.501 5.44,5.994 10.295,6.667 24.326,7.059 34.979,0.979 -0.017,0.071 -0.034,0.14 -0.054,0.211 -1.008,3.843 -4.227,6.886 -7.938,8.329 -3.778,1.472 -7.999,1.461 -11.989,0.734 -8.997,-1.64 -17.272,-6.939 -22.526,-14.424 -0.598,6.406 -1.198,12.855 -0.608,19.263 C -5.729,-11.57 -3.873,-5.138 0,0"
         style="fill:#f9eec8;fill-opacity:1;fill-rule:nonzero;stroke:none"
         transform="matrix(0.4926157,0,0,-0.4926157,-336.70772,152.37431)"
         clip-path="url(#clipPath92)" /><path
         id="path93"
         d="m 0,0 c -0.608,-5.919 -3.2,-11.745 -6.967,-16.317 -3.323,-4.033 -8.163,-6.574 -12.566,-9.261 -4.834,-2.95 -9.988,-5.56 -13.954,-9.601 -0.771,-0.786 -2.234,-1.96 -2.489,-3.047 0,0.009 0.007,0.088 -0.002,0.097 -0.034,2.09 0,4.367 0,5.046 v 10.241 25.168 c 0,4.415 -0.004,11.084 -0.015,15.499 3.2,0.196 7.08,0.399 11.044,0.28 7.302,-0.218 17.731,-2.818 21.879,-7.273 C -0.744,8.333 0.499,4.842 0,0 m -22.073,20.196 c -7.509,0.41 -15.059,0.097 -22.374,0.097 l -3.03,0.123 0.022,-3.107 -0.041,-98.856 h 10.67 c 0.253,0 -0.073,15.359 -0.086,16.301 -0.059,4.826 -0.08,9.657 0.13,14.479 0.178,4.112 0.011,8.622 3.018,11.736 4.363,4.516 9.438,8.357 14.977,11.317 5.558,2.971 11.246,5.83 16.215,9.747 5.593,4.408 10.855,12.066 11.613,19.128 1.761,16.422 -20.043,18.431 -31.114,19.035"
         style="fill:#f9eec8;fill-opacity:1;fill-rule:nonzero;stroke:none"
         transform="matrix(0.4926157,0,0,-0.4926157,-250.43982,155.88254)"
         clip-path="url(#clipPath94)" /><path
         id="path95"
         d="m 0,0 c -5.196,4.503 -10.515,8.881 -15.722,13.38 -4.501,3.89 -9.957,8.635 -10.775,14.908 -0.708,5.422 2.408,12.747 7.637,14.944 3.728,1.564 8.585,0.723 12.378,-0.17 3.84,-0.905 7.174,-3.487 10.683,-5.196 2.248,-1.095 4.96,-0.453 6.57,1.461 l 5.591,6.718 C 11.74,44.958 8.963,44.535 5.487,44.686 c -8.709,0.382 -18.219,6.156 -26.816,2.851 -7.364,-2.829 -13.03,-6.931 -14.288,-15.219 -3.159,-20.809 22.587,-33.352 34.447,-45.947 7.17,-7.612 13.435,-18.552 5.505,-27.97 -3.905,-4.637 -10.103,-7.571 -16.202,-7.549 -3.923,0.012 -7.794,1.568 -11.03,3.622 -5.88,3.733 -9.46,10.122 -9.967,17.027 -0.24,3.247 0.023,6.924 1.352,9.934 0.898,2.037 4.301,7.314 6.407,7.986 -4.637,-1.479 -7.791,-4.374 -9.697,-6.832 -4.022,-5.19 -4.421,-14.183 -2.695,-20.315 3.097,-10.983 14.321,-15.841 25.493,-15.88 6.277,-0.022 12.552,1.851 17.324,4.11 9.553,4.52 14.997,13.897 13.29,24.477 C 16.625,-14.657 7.15,-6.199 0,0"
         style="fill:#f9eec8;fill-opacity:1;fill-rule:nonzero;stroke:none"
         transform="matrix(0.4926157,0,0,-0.4926157,-288.17256,169.64665)"
         clip-path="url(#clipPath96)" /><path
         id="path97"
         d="m 0,0 c 0,12.681 0.064,25.354 0,38.034 -0.023,4.421 0,16.916 0,23.577 h -9.901 -1.206 c -0.025,-0.494 -0.005,-2.169 -0.005,-2.624 0.008,-21.46 0.051,-42.924 -0.02,-64.386 -0.036,-11.789 3.276,-23.951 7.742,-34.653 0.077,-0.183 0.257,-0.301 0.455,-0.301 H 7.891 c 0.187,0 0.31,0.195 0.231,0.366 C 2.151,-27.145 -0.323,-13.356 0,0"
         style="fill:#f9eec8;fill-opacity:1;fill-rule:nonzero;stroke:none"
         transform="matrix(0.4926157,0,0,-0.4926157,-57.571667,176.12574)"
         clip-path="url(#clipPath98)" /><path
         id="path99"
         d="M 0,0 C 1.52,0.304 3.015,0.878 4.205,1.867 5.286,2.764 6.089,3.99 6.486,5.336 6.879,6.661 6.603,8.363 5.78,9.475 5.621,9.692 5.382,9.908 5.116,9.859 4.812,9.803 4.678,9.453 4.577,9.162 4.115,7.843 3.629,6.616 2.611,5.625 1.73,4.769 0.646,4.125 -0.384,3.498 -1.868,2.591 -3.741,2.063 -5.468,1.845 -5.748,1.811 -6.033,1.791 -6.298,1.689 -6.363,1.666 -6.428,1.633 -6.488,1.597 -6.672,1.484 -6.82,1.318 -6.87,1.111 -7.116,0.052 -4.423,-0.17 -3.834,-0.222 -2.555,-0.33 -1.26,-0.252 0,0"
         style="fill:#f9eec8;fill-opacity:1;fill-rule:nonzero;stroke:none"
         transform="matrix(0.4926157,0,0,-0.4926157,-60.47683,139.36187)"
         clip-path="url(#clipPath100)" /><path
         id="path101"
         d="m 0,0 c -8.06,4.846 -12.643,13.853 -15.627,22.449 -5.222,15.046 -6.423,33.104 -3.768,44.559 4.101,17.678 23.065,29.613 37.942,15.383 5.226,-5 8.791,-10.61 11.224,-17.297 2.885,-7.921 4.403,-16.615 5.678,-24.93 C 36.991,30.101 35.015,11.16 27.277,3.099 26.533,2.348 25.905,1.802 25.404,1.4 25.003,2.33 24.621,3.269 24.27,4.219 22.462,9.091 20.552,14.996 14.953,16.552 9.932,17.945 4.453,15.108 2.146,10.556 1.872,10.014 2.492,9.475 3.029,9.757 8.028,12.377 12.806,13.651 15.979,7.99 17.66,4.995 18.875,1.713 20.105,-1.562 13.639,-4.141 6.108,-3.673 0,0 m 58.72,-8.691 c -0.184,0.369 -0.741,0.183 -1.085,-0.039 -6.659,-4.302 -16.533,-5.458 -23.472,-1.057 -2.313,1.467 -4.217,3.486 -5.789,5.713 -0.59,0.835 -1.103,1.716 -1.589,2.613 3.434,2.535 6.431,5.598 8.897,9.089 2.679,3.791 4.762,7.987 6.32,12.356 0.826,2.314 1.506,4.681 2.05,7.076 3.264,14.355 2.121,30.543 -4.571,43.791 C 32.884,83.916 17.18,97.039 1.104,93.287 1.067,93.278 1.029,93.268 0.992,93.257 -15.067,88.057 -24.972,75.784 -28.165,59.072 -29.151,53.915 -29.708,48.67 -29.794,43.42 c -0.177,-10.879 1.635,-22.145 6.949,-31.76 2.583,-4.669 6.008,-8.864 10.188,-12.195 3.661,-2.917 7.86,-5.181 12.383,-6.426 4.249,-1.169 8.73,-1.409 13.076,-0.667 2.986,0.512 5.841,1.515 8.542,2.844 1.652,-4.143 3.586,-8.119 6.805,-11.317 4.54,-4.509 11.539,-6.432 17.825,-5.297 3.051,0.552 6.054,1.86 8.282,4.061 2.209,2.181 4.432,5.07 4.514,8.317 10e-4,0.113 10e-4,0.229 -0.05,0.329"
         style="fill:#f9eec8;fill-opacity:1;fill-rule:nonzero;stroke:none"
         transform="matrix(0.4926157,0,0,-0.4926157,-91.47987,191.83506)"
         clip-path="url(#clipPath102)" /><path
         id="path103"
         d="m 0,0 c -0.123,-1.318 -0.287,-2.637 -0.477,-3.958 -0.185,-1.285 -1.81,-1.72 -2.632,-0.712 -1.901,2.328 -4.79,4.588 -7.479,5.313 -0.162,0.043 -0.321,0.09 -0.483,0.133 -9.647,2.587 -19.176,-0.467 -26.489,-6.928 -0.955,-0.844 -3.316,-3.478 -4.804,-2.343 -2.71,2.064 6.995,31.289 14.352,44.993 2.76,5.139 7.432,12.07 14.229,10.669 2.826,-0.582 4.376,-2.427 6.117,-4.522 3.502,-4.218 5.396,-9.613 6.481,-14.916 C 0.685,18.612 0.863,9.243 0,0 m 5.828,-24.512 c 0.348,7.231 1.602,14.066 2.223,21.278 0.874,10.181 -0.689,20.133 -3.545,29.823 -1.938,6.577 -5.011,13.743 -9.876,18.708 -4.246,4.332 -10.438,5.271 -16.047,3.116 -7.405,-2.849 -12.502,-11.637 -16.345,-18.108 -7.023,-11.82 -11.103,-25.151 -13.509,-38.63 -1.194,-6.685 -2.361,-15.093 -1.839,-22.412 0.078,-1.083 0.335,-2.844 0.544,-3.909 0.142,-0.717 0.295,-1.433 0.46,-2.148 0.301,-1.318 0.647,-2.63 1.042,-3.925 0.383,-1.258 0.815,-2.503 1.307,-3.724 0.482,-1.198 1.019,-2.371 1.618,-3.513 0.596,-1.135 1.254,-2.237 1.975,-3.297 0.155,-0.226 0.312,-0.453 0.475,-0.678 0.17,-0.237 0.31,-0.546 0.582,-0.679 0.372,-0.181 0.796,-0.022 1.187,-0.041 0.464,-0.024 0.93,-0.026 1.396,-0.026 h 8.441 c 0.187,0 0.311,0.195 0.23,0.364 -3.27,7.045 -7.04,12.956 -8.177,20.835 -0.123,0.853 -0.233,1.706 -0.328,2.558 -0.923,8.221 2.304,16.304 8.67,21.588 3.189,2.647 6.652,4.721 9.269,5.547 1.395,0.306 7.648,2.549 13.775,-0.142 0.518,-0.16 1.23,-0.513 2.031,-1.055 4.595,-3.108 6.743,-8.756 5.817,-14.228 -0.296,-1.739 -0.561,-3.482 -0.768,-5.227 -0.375,-3.165 -0.557,-6.334 -0.367,-9.51 0.115,-1.904 0.386,-3.794 0.863,-5.641 0.497,-1.909 1.398,-3.636 1.992,-5.496 0.969,-3.044 3.441,-6.767 5.057,-9.293 0.123,-0.194 0.329,-0.3 0.557,-0.3 h 1.996 10.825 c 0.19,0 0.311,0.195 0.231,0.364 -6.529,7.55 -12.254,17.547 -11.762,27.801"
         style="fill:#f9eec8;fill-opacity:1;fill-rule:nonzero;stroke:none"
         transform="matrix(0.4926157,0,0,-0.4926157,-135.66085,170.1138)"
         clip-path="url(#clipPath104)" /></g></g></svg>
