<?xml version="1.0" encoding="utf-8"?>
<!-- Generator: Adobe Illustrator 23.0.2, SVG Export Plug-In . SVG Version: 6.00 Build 0)  -->
<svg version="1.1"
	 id="svg1" xmlns:inkscape="http://www.inkscape.org/namespaces/inkscape" xmlns:sodipodi="http://sodipodi.sourceforge.net/DTD/sodipodi-0.dtd" xmlns:svg="http://www.w3.org/2000/svg"
	 xmlns="http://www.w3.org/2000/svg" xmlns:xlink="http://www.w3.org/1999/xlink" x="0px" y="0px" viewBox="0 0 333 116"
	 style="enable-background:new 0 0 333 116;" xml:space="preserve">
<style type="text/css">
	.st0{fill:#330000;}
</style>
<sodipodi:namedview  bordercolor="#000000" borderopacity="0.25" id="namedview1" inkscape:current-layer="layer1" inkscape:cx="166.05774" inkscape:cy="120.43479" inkscape:deskcolor="#d1d1d1" inkscape:document-units="mm" inkscape:pagecheckerboard="0" inkscape:pageopacity="0.0" inkscape:showpageshadow="2" inkscape:window-height="1006" inkscape:window-maximized="1" inkscape:window-width="1920" inkscape:window-x="0" inkscape:window-y="0" inkscape:zoom="2.0384476" pagecolor="#ffffff">
	</sodipodi:namedview>
<g>
	<path class="st0" d="M76.4,46.9v-0.4c3.1,0,3.3-2.6,3.3-9.6v-16c0-7.1-0.2-9.6-3.3-9.6v-0.4h9.7v0.4c-3.1,0-3.3,2.6-3.3,9.6v6.3
		c0.4-1,2-2.1,4.2-2.1c3.6,0,6.6,2.2,9.7,2.2c1.4,0,2.7-0.8,2.7-2.1h0.4c0,2.1-1.8,4-4.6,4c-4.4,0-7.2-3.2-9.8-3.2
		c-1.9,0-2.5,1.5-2.5,3.2v7.7c0,7.1,0.2,9.6,3.3,9.6v0.4H76.4z M97.5,10.9h9.7v0.4c-3.1,0-3.3,2.6-3.3,9.6v16c0,7.1,0.2,9.6,3.3,9.6
		v0.4h-9.7v-0.4c3.1,0,3.3-2.6,3.3-9.6v-16c0-7.1-0.2-9.6-3.3-9.6V10.9z"/>
	<path class="st0" d="M110.4,34.2c0-7.4,4.6-13.5,12.3-13.5c7.7,0,12.4,6,12.4,13.5s-4.7,13.5-12.4,13.5
		C115,47.6,110.4,41.6,110.4,34.2z M122.8,47.2c5.6,0,9.4-5.1,9.4-13c0-7.9-3.8-13-9.4-13c-5.6,0-9.3,5.1-9.3,13
		C113.5,42.1,117.2,47.2,122.8,47.2z"/>
	<path class="st0" d="M141.7,36.9v-5.5c0-7.1-0.2-9.6-3.3-9.6v-0.4h4.1c3,0,7.5-0.7,9.5-0.7c3.2,0,9.6,0.5,9.6,8v8.2
		c0,7.1,0.2,9.6,3.3,9.6v0.4h-9.7v-0.4c3.1,0,3.3-2.6,3.3-9.6c0-1.1,0-7.4,0-7.4c0-8.1-5.7-8.3-8.1-8.3c-1.8,0-3.9,0.4-5.6,1v14.6
		c0,7.1,0.2,9.6,3.3,9.6v0.4h-9.7v-0.4C141.5,46.6,141.7,44,141.7,36.9z"/>
	<path class="st0" d="M166.4,54.5c0-3.2,2.8-5.3,5.6-5.3c3.3,0,4.6,1.6,8,1.6c0.9,0,2.5-0.5,2.2-1.8l0.1,0c1.4,1.7,0.1,4.8-3,4.8
		c-2.7,0-4.1-1.6-7.3-1.6c-1.6,0-3.4,1.2-3.4,3c0,4.2,3.9,7,9.3,7c5.5,0,10.7-4.5,10.7-10.6c0-3.7-3.2-6.5-8-6.5
		c-3,0-3.7,0.6-6.4,0.6c-1.4,0-3-0.6-3-2.1c0-5.3,15.3-0.7,15.3-13.1c0-4.9-2.9-9.4-7.8-9.4s-7.8,4.6-7.8,9.5c0,4.9,3.4,8.2,7.5,8.2
		v0.3c-0.6,0.1-1.2,0.1-1.8,0.1c-5.3,0-8.7-4-8.7-8.6c0-5.1,4.1-9.9,10.9-9.9h10.9v1.2l-7.8-0.8c4.9,1.2,7.8,5.3,7.8,9.6
		c0,13.1-18,8.5-18,13c0,1.2,1.4,1.8,2.6,1.8c3.4,0,5.8-1.7,9.2-1.7c4.2,0,8,3.3,8,7.6c0,6.3-5.1,11.3-13.4,11.3
		C171.2,62.6,166.4,59.8,166.4,54.5z"/>
	<path class="st0" d="M194.1,34.2c0-7.4,4.6-13.5,12.3-13.5c7.7,0,12.4,6,12.4,13.5s-4.7,13.5-12.4,13.5
		C198.7,47.6,194.1,41.6,194.1,34.2z M206.4,47.2c5.6,0,9.4-5.1,9.4-13c0-7.9-3.8-13-9.4-13c-5.6,0-9.3,5.1-9.3,13
		C197.1,42.1,200.8,47.2,206.4,47.2z"/>
	<path class="st0" d="M223.2,41h0.4c0,1.7,3.1,6.3,8.7,6.2c3.9-0.1,7.8-2.4,7.8-6.5c0-7.6-16.4-3.7-16.4-13.8c0-3.4,3-6.3,8.9-6.3
		c6.1,0,8.9,2.5,8.9,2.5v4.2h-0.1c-1.4-4.1-4.6-6.4-8.4-6.4c-4.5,0-7.1,2.5-7.1,5.2c0,7.5,17.2,4,17.2,14c0,5.3-5.1,7.3-10.7,7.3
		c-3.8,0-6.8-0.7-9.1-2.2V41z"/>
	<path class="st0" d="M36.5,67.8c0-0.7-0.4-1-0.9-1c-1.7,0-2.8,3.8-4.9,3.8c-1,0-1.2-1-0.8-1.9c2.2-5.8,3.5-9.4,5.8-15.3h0.4
		l11.5,30.4c1.6,4,2.7,5.9,4.9,5.9v0.4H40.7v-0.4c5.1,0,4.9-2.9,3.5-6.6l-4.5-11.8c0.1,1.2,0.2,2.6,0.2,4.3
		c0,8.7-4.2,15.1-11.4,15.1c-4.2,0-6.6-3.3-6.6-7C22.1,75,36.5,71.6,36.5,67.8z M30.8,89.1c6,0,8.9-7.4,8.9-13.3
		c0-2.7-0.1-4.6-0.8-6.8l-4.4-11.5l-4.1,11c-0.5,1.3-0.2,1.7,0.4,1.7c1.7,0,3-3.8,4.9-3.8c0.7,0,1.2,0.5,1.2,1.4
		c0,4.8-11.7,6.3-11.7,15.2C25.1,86.5,27.3,89.1,30.8,89.1z"/>
	<path class="st0" d="M52.5,77.4c0-7.4,4.6-13.5,12.3-13.5c3.8,0,6.1,0.7,8.4,2.2v-1.9c0-7.1-0.2-9.6-3.3-9.6v-0.4h6.4v26
		c0,7.1,0.2,9.6,3.3,9.6v0.4h-6.4v-2.8c-1.7,2.1-4.9,3.6-8.4,3.6C57.2,90.8,52.5,84.8,52.5,77.4z M55.6,77.4c0,7.9,3.7,13,9.3,13
		c3.9,0,8.4-2.9,8.4-6.7V68.9c-1.1-1.7-3.6-4.6-8.4-4.6C59.3,64.3,55.6,69.5,55.6,77.4z"/>
	<path class="st0" d="M100.8,68.4c0-2.9-3.4-4.1-6.3-4.1c-3.4,0-6.7,1.2-6.7,4.2c0,1.4,1.1,2,1.4,1.7c0.4,1.1-0.8,2.1-2,2.1
		c-1.5,0-2.6-1.3-2.6-2.9c0-3.6,4.2-5.4,9.9-5.4c4.1,0,9.4,1.7,9.4,4.5c0,5.8-18.1,0.5-18.1,14.6c0,3.7,2.4,6.6,5.9,6.6
		c3.9,0,8.8-4,8.8-14.5c0-0.8-0.1-1.6-0.6-1.8c0-0.2,0.4-0.5,1-0.5c2.6,0,3,2.7,3,5.6c0,3.2,0,3.7,0,7.6c0,3,1.8,3.7,2.7,3.7v0.4
		H104c-1.9,0-3.4-1.8-3.4-4.5v-6.2c-1.3,6.2-3.7,11.3-10,11.3c-4.6,0-8-3.3-8-8C82.6,70.2,100.8,74.3,100.8,68.4z"/>
	<path class="st0" d="M108,64.6h6.4v4.2c2.2-3.2,5.2-4.9,8.7-4.9c6,0,10.5,4.2,10.5,11.2c0,9.6-6.1,15-14.4,15c-1.8,0-2.4,0-4.9-0.6
		V95c0,7.1,0.2,9.6,3.3,9.6v0.4H108v-0.4c3.1,0,3.3-2.6,3.3-9.6V74.6c0-7.1-0.2-9.6-3.3-9.6V64.6z M114.4,88.7c1.2,0.6,2.7,1,4.4,1
		c6.2,0,11.7-5.7,11.7-13.9c0-8.1-4.7-11.1-9-11.1c-3.7,0-7.2,2.5-7.2,9.6V88.7z"/>
	<path class="st0" d="M142.6,55.9h0.4v8.7h2.7V65H143v17.3c0,5.6-0.2,7.6,1.2,7.6c1.1,0,2.1-1.7,2.1-1.7l0.4,0.2
		c-0.9,1.5-2.1,2.5-4,2.5c-2.1,0-2.7-1.7-2.7-4V65h-3.3v-0.4C142.6,64.6,142.6,58.4,142.6,55.9z"/>
	<path class="st0" d="M149.5,77.4c0-7.4,4.6-13.5,12.3-13.5c7.7,0,12.4,6,12.4,13.5s-4.7,13.5-12.4,13.5
		C154.1,90.8,149.5,84.8,149.5,77.4z M152.5,77.4c0,7.9,3.7,13,9.3,13c5.6,0,9.4-5.1,9.4-13s-3.8-13-9.4-13
		C156.2,64.3,152.5,69.5,152.5,77.4z M159.5,61.4c3.1,0,3.1-3.1,4.8-3.1c0.6,0,1,0.5,1,1c0,1.5-2.4,2.4-4.2,2.4h-2.7v-0.4H159.5z"/>
	<path class="st0" d="M177.1,97.7c0-3.2,2.8-5.3,5.6-5.3c3.3,0,4.6,1.6,8,1.6c0.9,0,2.5-0.5,2.2-1.8l0.1,0c1.4,1.7,0.1,4.8-3,4.8
		c-2.7,0-4.1-1.6-7.3-1.6c-1.6,0-3.4,1.2-3.4,3c0,4.2,3.9,7,9.3,7c5.5,0,10.7-4.5,10.7-10.6c0-3.7-3.2-6.5-8-6.5
		c-3,0-3.7,0.6-6.4,0.6c-1.4,0-3-0.6-3-2.1c0-5.3,15.3-0.7,15.3-13.1c0-4.9-2.9-9.4-7.8-9.4s-7.8,4.6-7.8,9.5c0,4.9,3.4,8.2,7.5,8.2
		v0.3c-0.6,0.1-1.2,0.1-1.8,0.1c-5.3,0-8.7-4-8.7-8.6c0-5.1,4.1-9.9,10.9-9.9h10.9v1.2l-7.8-0.8c4.9,1.2,7.8,5.3,7.8,9.6
		c0,13.1-18,8.5-18,13c0,1.2,1.4,1.8,2.6,1.8c3.4,0,5.8-1.7,9.2-1.7c4.2,0,8,3.3,8,7.6c0,6.3-5.1,11.3-13.4,11.3
		C181.9,105.8,177.1,103,177.1,97.7z"/>
	<path class="st0" d="M204.8,77.4c0-7.4,4.6-13.5,12.3-13.5s11,4.6,11,8.2c0,4.1-2.4,6.5-6.5,6.5c-5.8,0-7.6-3.2-11.1-3.2
		c-0.9,0-1.7,0.6-1.8,0.9l-0.1,0c0-1.5,1.3-2.9,3.8-2.9c3.8,0,6.6,4.8,9.5,4.8c5.3,0,5.5-13.9-4.8-13.9c-7.3,0-9.3,7.8-9.2,12.9
		c0.1,6.7,3.9,12.3,10.5,12.3c2.8,0,7.6-1.5,9.4-6.2l0.5,0.2c-1.9,4.3-5.8,7.2-11.2,7.2C209.4,90.8,204.8,84.8,204.8,77.4z"/>
	<path class="st0" d="M234.8,80.1v-5.5c0-7.1-0.2-9.6-3.3-9.6v-0.4h4.1c3,0,7.5-0.7,9.5-0.7c3.2,0,9.6,0.5,9.6,8v8.2
		c0,7.1,0.2,9.6,3.3,9.6v0.4h-9.7v-0.4c3.1,0,3.3-2.6,3.3-9.6c0-1.1,0-7.4,0-7.4c0-8.1-5.7-8.3-8.1-8.3c-1.8,0-3.9,0.4-5.6,1v14.6
		c0,7.1,0.2,9.6,3.3,9.6v0.4h-9.7v-0.4C234.6,89.8,234.8,87.2,234.8,80.1z"/>
	<path class="st0" d="M260.9,77.4c0-7.4,4.6-13.5,12.3-13.5c7.7,0,12.4,6,12.4,13.5s-4.7,13.5-12.4,13.5
		C265.6,90.8,260.9,84.8,260.9,77.4z M273.3,90.4c5.6,0,9.4-5.1,9.4-13s-3.8-13-9.4-13c-5.6,0-9.3,5.1-9.3,13S267.7,90.4,273.3,90.4
		z"/>
	<path class="st0" d="M290,84.3h0.4c0,1.7,3.1,6.3,8.7,6.2c3.9-0.1,7.8-2.4,7.8-6.5c0-7.6-16.4-3.7-16.4-13.8c0-3.4,3-6.3,8.9-6.3
		c6.1,0,8.9,2.5,8.9,2.5v4.2h-0.1c-1.4-4.1-4.6-6.4-8.4-6.4c-4.5,0-7.1,2.5-7.1,5.2c0,7.5,17.2,4,17.2,14c0,5.3-5.1,7.3-10.7,7.3
		c-3.8,0-6.8-0.7-9.1-2.2V84.3z"/>
</g>
</svg>
