<?xml version="1.0" encoding="UTF-8" standalone="no"?>
<!-- Generator: Adobe Illustrator 23.0.2, SVG Export Plug-In . SVG Version: 6.00 Build 0)  -->

<svg
   version="1.1"
   id="Capa_1"
   x="0px"
   y="0px"
   viewBox="0 0 1080 1080"
   style="enable-background:new 0 0 1080 1080;"
   xml:space="preserve"
   sodipodi:docname="ICON-0.svg"
   inkscape:version="1.3.2 (091e20e, 2023-11-25)"
   xmlns:inkscape="http://www.inkscape.org/namespaces/inkscape"
   xmlns:sodipodi="http://sodipodi.sourceforge.net/DTD/sodipodi-0.dtd"
   xmlns="http://www.w3.org/2000/svg"
   xmlns:svg="http://www.w3.org/2000/svg"><defs
   id="defs8" /><sodipodi:namedview
   id="namedview8"
   pagecolor="#ffffff"
   bordercolor="#000000"
   borderopacity="0.25"
   inkscape:showpageshadow="2"
   inkscape:pageopacity="0.0"
   inkscape:pagecheckerboard="0"
   inkscape:deskcolor="#d1d1d1"
   inkscape:zoom="0.74537037"
   inkscape:cx="539.32919"
   inkscape:cy="540"
   inkscape:window-width="1920"
   inkscape:window-height="1011"
   inkscape:window-x="0"
   inkscape:window-y="0"
   inkscape:window-maximized="1"
   inkscape:current-layer="g8" />
<g
   id="g8">
	<path
   d="M80.87,462.11c5.33-55.41,21.57-109.53,48.26-161.08c33.96-65.6,84.28-122.12,145.46-163.52   c59.13-40.02,127.68-65.69,198.5-74.59c71.47-9,144.88-0.74,212.31,24.73c18.39,6.95,36.31,15.16,53.6,24.54   c5.04,2.72,48.72,32.71,50.14,31.73c-23.41,16.13-46.44,31.98-71.38,49.14c-109.41-61.01-223.63-70.9-340.83-18.59   c-59.76,26.66-107.97,67.31-150.15,126.14c111.87-27.94,184.58,25.33,251.89,96.91c62.11,66.06,128.01,128.56,192.16,192.71   c48.9,48.88,104.28,60.6,157.1,33.07c50.33-26.24,76.43-86.77,65.15-150.46c-2.58-14.58-4.28-29.34-6.34-43.67   c24.52-11.99,48.12-23.52,71.71-35.05c40.21,109.66,19.81,308.94-129.03,443.61c-148.95,134.79-361.49,144.53-504.21,64.83   c9.49-23.75,19.16-47.9,29.66-74.12c103.64,50.98,207.87,57.93,313.63,14.81c64.23-26.2,116.08-68.43,160.45-129.44   c-32.66,5.16-60.69,8.78-88.42,4.19c-49.49-8.16-90.86-31.96-126.17-67.45c-77.1-77.47-154.53-154.59-232-231.67   c-43.3-43.07-94.88-54.99-144.74-34.05c-48.19,20.24-74.82,65.46-74.29,126.17c0.65,76.63,14.55,116.99,76.34,221.37   c-11.79,25.27-23.76,50.97-35.84,76.82c1.98-4.25-14.3-21.25-16.6-24.18c-20.04-25.61-41.68-49.02-58.15-77.36   C86.45,634.25,72.8,545.97,80.87,462.11"
   id="path1"
   style="fill:#ba9571;fill-opacity:1" />
	<path
   d="M221.21,608.44c8.58-79.29,60.02-128.36,126.12-167.36c19.9,53.23,27.06,110.6,22.94,174.01   c28.85-26.13,49.93-53.37,80.35-73.41c8.81,9.48,17.74,19.09,27.22,29.31c-110.5,131.26-192.13,276.67-217.66,453.26h-38.19h-42.93   c3.55-58.22,19.6-111.41,40.91-163.31c28.06-68.34,66.38-130.75,108.67-191.18c31.03-44.32,31.57-93.56,14.88-148.2   C307.42,563.84,269.11,596.59,221.21,608.44"
   id="path2"
   style="fill:#ba9571;fill-opacity:1" />
	<path
   d="M591.3,436.15c16.22-129.44,35.84-159.66,120.68-182.24c-25.52,32.35-30.19,68.87-39.66,104.04   C661.47,398.15,631.82,421.65,591.3,436.15"
   id="path3"
   style="fill:#ba9571;fill-opacity:1" />
	<path
   d="M721.46,350.24c5.19-82.22,14.32-160.75,118.61-180.3c-26.03,31.4-29.56,69.06-39.8,104.65   C788.79,314.4,759.18,336.95,721.46,350.24"
   id="path4"
   style="fill:#ba9571;fill-opacity:1" />
	<path
   d="M885.58,381.42c-26.66,29.85-55.41,55.92-97.55,59.53c-39.45,3.4-73.89-19.39-112.64-21.94   c18.92-31.92,62.62-52.04,100.93-46.61c18.31,2.58,36.38,7.11,54.74,8.69C848.62,382.59,866.4,381.42,885.58,381.42"
   id="path5"
   style="fill:#ba9571;fill-opacity:1" />
	<path
   d="M802.24,331.8c55.46-64.02,137.3-26.78,199.76-58.07C997.45,344.97,941.33,361.53,802.24,331.8"
   id="path6"
   style="fill:#ba9571;fill-opacity:1" />
	<path
   d="M969.7,149.03c-15.6,18.8-22.5,38.63-29.35,58.58c-15.11,44.16-40.44,57.18-87.35,45.63   C848.04,177.46,889.11,139.17,969.7,149.03"
   id="path7"
   style="fill:#ba9571;fill-opacity:1" />
	<path
   d="M608.67,467.97c64.2-39.21,117.87,21.67,178.82,12.76C755.96,532.06,646.42,523.96,608.67,467.97"
   id="path8"
   style="fill:#ba9571;fill-opacity:1" />
</g>
</svg>
