<?xml version="1.0" encoding="UTF-8" standalone="no"?>
<!-- Generator: Adobe Illustrator 23.0.2, SVG Export Plug-In . SVG Version: 6.00 Build 0)  -->

<svg
   version="1.1"
   x="0px"
   y="0px"
   viewBox="0 0 1080 1080"
   style="enable-background:new 0 0 1080 1080;"
   xml:space="preserve"
   id="svg12"
   sodipodi:docname="ICON-1.svg"
   inkscape:version="1.3.2 (091e20e, 2023-11-25)"
   xmlns:inkscape="http://www.inkscape.org/namespaces/inkscape"
   xmlns:sodipodi="http://sodipodi.sourceforge.net/DTD/sodipodi-0.dtd"
   xmlns="http://www.w3.org/2000/svg"
   xmlns:svg="http://www.w3.org/2000/svg"><defs
   id="defs12" /><sodipodi:namedview
   id="namedview12"
   pagecolor="#ffffff"
   bordercolor="#000000"
   borderopacity="0.25"
   inkscape:showpageshadow="2"
   inkscape:pageopacity="0.0"
   inkscape:pagecheckerboard="0"
   inkscape:deskcolor="#d1d1d1"
   inkscape:zoom="0.74537037"
   inkscape:cx="539.32919"
   inkscape:cy="540"
   inkscape:window-width="1920"
   inkscape:window-height="1011"
   inkscape:window-x="0"
   inkscape:window-y="0"
   inkscape:window-maximized="1"
   inkscape:current-layer="svg12" />
<style
   type="text/css"
   id="style1">
	.st0{display:none;}
	.st1{display:inline;}
</style>
<g
   id="Capa_1"
   class="st0">
	<g
   class="st1"
   id="g8">
		<path
   d="M80.87,462.11c5.33-55.41,21.57-109.53,48.26-161.08c33.96-65.6,84.28-122.12,145.46-163.52    c59.13-40.02,127.68-65.69,198.5-74.59c71.47-9,144.88-0.74,212.31,24.73c18.39,6.95,36.31,15.16,53.6,24.54    c5.04,2.72,48.72,32.71,50.14,31.73c-23.41,16.13-46.44,31.98-71.38,49.14c-109.41-61.01-223.63-70.9-340.83-18.59    c-59.76,26.66-107.97,67.31-150.15,126.14c111.87-27.94,184.58,25.33,251.89,96.91c62.11,66.06,128.01,128.56,192.16,192.71    c48.9,48.88,104.28,60.6,157.1,33.07c50.33-26.24,76.43-86.77,65.15-150.46c-2.58-14.58-4.28-29.34-6.34-43.67    c24.52-11.99,48.12-23.52,71.71-35.05c40.21,109.66,19.81,308.94-129.03,443.61c-148.95,134.79-361.49,144.53-504.21,64.83    c9.49-23.75,19.16-47.9,29.66-74.12c103.64,50.98,207.87,57.93,313.63,14.81c64.23-26.2,116.08-68.43,160.45-129.44    c-32.66,5.16-60.69,8.78-88.42,4.19c-49.49-8.16-90.86-31.96-126.17-67.45c-77.1-77.47-154.53-154.59-232-231.67    c-43.3-43.07-94.88-54.99-144.74-34.05c-48.19,20.24-74.82,65.46-74.29,126.17c0.65,76.63,14.55,116.99,76.34,221.37    c-11.79,25.27-23.76,50.97-35.84,76.82c1.98-4.25-14.3-21.25-16.6-24.18c-20.04-25.61-41.68-49.02-58.15-77.36    C86.45,634.25,72.8,545.97,80.87,462.11"
   id="path1" />
		<path
   d="M221.21,608.44c8.58-79.29,60.02-128.36,126.12-167.36c19.9,53.23,27.06,110.6,22.94,174.01    c28.85-26.13,49.93-53.37,80.35-73.41c8.81,9.48,17.74,19.09,27.22,29.31c-110.5,131.26-192.13,276.67-217.66,453.26h-38.19    h-42.93c3.55-58.22,19.6-111.41,40.91-163.31c28.06-68.34,66.38-130.75,108.67-191.18c31.03-44.32,31.57-93.56,14.88-148.2    C307.42,563.84,269.11,596.59,221.21,608.44"
   id="path2" />
		<path
   d="M591.3,436.15c16.22-129.44,35.84-159.66,120.68-182.24c-25.52,32.35-30.19,68.87-39.66,104.04    C661.47,398.15,631.82,421.65,591.3,436.15"
   id="path3" />
		<path
   d="M721.46,350.24c5.19-82.22,14.32-160.75,118.61-180.3c-26.03,31.4-29.56,69.06-39.8,104.65    C788.79,314.4,759.18,336.95,721.46,350.24"
   id="path4" />
		<path
   d="M885.58,381.42c-26.66,29.85-55.41,55.92-97.55,59.53c-39.45,3.4-73.89-19.39-112.64-21.94    c18.92-31.92,62.62-52.04,100.93-46.61c18.31,2.58,36.38,7.11,54.74,8.69C848.62,382.59,866.4,381.42,885.58,381.42"
   id="path5" />
		<path
   d="M802.24,331.8c55.46-64.02,137.3-26.78,199.76-58.07C997.45,344.97,941.33,361.53,802.24,331.8"
   id="path6" />
		<path
   d="M969.7,149.03c-15.6,18.8-22.5,38.63-29.35,58.58c-15.11,44.16-40.44,57.18-87.35,45.63    C848.04,177.46,889.11,139.17,969.7,149.03"
   id="path7" />
		<path
   d="M608.67,467.97c64.2-39.21,117.87,21.67,178.82,12.76C755.96,532.06,646.42,523.96,608.67,467.97"
   id="path8" />
	</g>
</g>
<g
   id="Capa_2"
   style="fill:#ba9571;fill-opacity:1">
	<g
   id="g12"
   style="fill:#ba9571;fill-opacity:1">
		<path
   d="M524.8,626.43c3.4-0.53,5.67-3.9,7.28-7c29.61-57.31,41.39-122.7,67.32-181.72c22.05-50.2,42.49-100.33,71.14-147.32    c15.6-25.56,29.63-52.3,48.79-75.49c9.23-11.18,18.19-20.74,29.33-29.72c8.55-6.88,16.24-14.45,18.63-25.7    c-36.83,4.31-67.09,26.91-90.27,54.69c-11.57,13.88-21.59,28.99-30.82,44.49c-8.21,13.8-18.78,28.53-22.18,44.44    c-5.58-21.33-5.69-42.9-3.31-64.76c9.36-85.6,82.16-139.55,163.47-152.2c47.24-7.36,93.45-20.23,140.72-27.25    c1.93-0.28,4.07-0.53,5.69,0.57c2.61,1.72,2.31,5.6,1.68,8.66c-9.08,45.72-12.84,92.6-26.25,137.36    c-12.06,40.35-40.18,68.98-77.58,88.06c-30.06,15.34-63.34,23.37-96.62,28.97c-8.7,1.47-17.7,2.89-25.13,7.64    c-7.09,4.52-12.06,11.65-16.6,18.74c-43.55,68.03-66.22,152.86-88.04,229.97c-15.37,54.36-21.08,109.94-31.82,164.83    c-1.23,6.32-2.33,12.67-3.78,18.95c-5.58,24.11-12.93,29.55-39.75,29.71c-30.88,0.17-31.46-1.76-39.8-27.7    c-16.41-51.05-23.79-104.3-38.88-155.55c-24.92-84.64-49.05-169.84-83.37-251.11c-34.7-82.12-82.56-157-142.39-224.05    c-16.05-17.98-36.27-32.6-50-56.37c30.39,4.86,52.19,21.48,73.99,36.63c30.78,21.37,56.94,48.48,82.48,75.67    c45.61,48.56,76.81,105.59,101.54,167.53c17.91,44.85,32.54,90.93,46.27,137.24c10.55,35.62,20.35,71.48,30.18,107.33    c2.25,8.19,4.86,16.94,11.53,22.2C520.02,625.56,522.19,626.67,524.8,626.43"
   id="path9"
   style="fill:#ba9571;fill-opacity:1" />
		<polygon
   points="158.73,986.91 120.82,897.86 89.64,897.86 143.44,1022.53 171.93,1022.53 225.9,897.86 197.23,897.86   "
   id="polygon9"
   style="fill:#ba9571;fill-opacity:1" />
		<polygon
   points="282.71,970.53 340.61,970.53 340.61,948.08 282.71,948.08 282.71,921.01 348.27,921.01 348.27,897.86     254.04,897.86 254.04,1022.53 350.57,1022.53 350.57,999.36 282.71,999.36   "
   id="polygon10"
   style="fill:#ba9571;fill-opacity:1" />
		<path
   d="M424.03,931.34c3.61-3.55,7.94-6.3,12.93-8.21c4.97-1.89,10.49-2.84,16.57-2.84c6.28,0,12.08,1.17,17.43,3.48    c5.35,2.31,10.27,5.84,14.79,10.59l18.51-17.09c-6.05-7-13.5-12.35-22.33-16.04c-8.85-3.67-18.81-5.52-29.86-5.52    c-9.96,0-19.1,1.57-27.42,4.71c-8.3,3.16-15.54,7.66-21.73,13.46c-6.16,5.82-10.95,12.63-14.33,20.48    c-3.39,7.83-5.09,16.43-5.09,25.81c0,9.38,1.7,18,5.09,25.85c3.39,7.83,8.13,14.65,14.26,20.48c6.11,5.81,13.29,10.31,21.56,13.44    c8.23,3.14,17.3,4.73,27.13,4.73c8.92,0,17.83-1.38,26.81-4.1c8.96-2.74,16.83-6.66,23.6-11.76v-50.58h-26.34v36.4    c-1.93,1-3.84,2.02-5.81,2.69c-5.41,1.85-10.95,2.78-16.66,2.78c-5.92,0-11.36-0.96-16.28-2.87c-4.93-1.87-9.23-4.65-12.84-8.26    c-3.61-3.63-6.41-7.87-8.36-12.74c-1.97-4.86-2.95-10.21-2.95-16.03c0-5.92,0.98-11.33,2.95-16.19    C417.62,939.11,420.42,934.9,424.03,931.34"
   id="path10"
   style="fill:#ba9571;fill-opacity:1" />
		<path
   d="M585.63,897.87l-55.56,124.65h29.56l11.12-26.72h57.79l11.08,26.72h30.25l-55.72-124.65H585.63z M579.87,973.91    l19.83-47.71l19.78,47.71H579.87z"
   id="path11"
   style="fill:#ba9571;fill-opacity:1" />
		<polygon
   points="786.55,973.5 724.58,897.86 700.72,897.86 700.72,1022.53 729.22,1022.53 729.22,946.85 791.37,1022.53     815.05,1022.53 815.05,897.86 786.55,897.86   "
   id="polygon11"
   style="fill:#ba9571;fill-opacity:1" />
		<path
   d="M985.84,934.46c-3.44-7.77-8.23-14.58-14.33-20.4c-6.11-5.8-13.29-10.32-21.56-13.54c-8.24-3.2-17.3-4.8-27.15-4.8    c-9.74,0-18.76,1.61-27.08,4.8c-8.3,3.21-15.54,7.73-21.73,13.54c-6.16,5.82-10.95,12.65-14.33,20.48    c-3.39,7.85-5.09,16.39-5.09,25.66c0,9.27,1.7,17.81,5.09,25.64c3.39,7.85,8.13,14.65,14.26,20.48    c6.11,5.82,13.35,10.34,21.71,13.54c8.4,3.21,17.49,4.82,27.36,4.82c9.72,0,18.72-1.61,26.96-4.82    c8.26-3.2,15.45-7.68,21.56-13.44c6.11-5.77,10.89-12.57,14.33-20.48c3.44-7.9,5.16-16.47,5.16-25.74    C991,950.8,989.28,942.23,985.84,934.46 M958.86,976.4c-1.97,4.88-4.71,9.08-8.26,12.65c-3.57,3.55-7.72,6.3-12.4,8.19    c-4.69,1.89-9.81,2.86-15.39,2.86s-10.76-0.96-15.51-2.86c-4.75-1.89-8.87-4.63-12.37-8.19c-3.5-3.57-6.24-7.81-8.19-12.74    c-1.97-4.94-2.95-10.31-2.95-16.11c0-5.94,0.98-11.35,2.95-16.2c1.95-4.88,4.73-9.08,8.28-12.65c3.55-3.55,7.68-6.3,12.37-8.19    c4.69-1.91,9.83-2.86,15.41-2.86s10.74,0.95,15.49,2.86c4.75,1.89,8.89,4.63,12.38,8.19c3.5,3.57,6.22,7.77,8.19,12.65    c1.97,4.86,2.93,10.27,2.93,16.2S960.82,971.52,958.86,976.4"
   id="path12"
   style="fill:#ba9571;fill-opacity:1" />
	</g>
</g>
</svg>
