<?xml version="1.0" encoding="UTF-8" standalone="no"?>
<!-- Generator: Adobe Illustrator 23.0.2, SVG Export Plug-In . SVG Version: 6.00 Build 0)  -->

<svg
   version="1.1"
   id="Capa_1"
   x="0px"
   y="0px"
   viewBox="0 0 1080 1080"
   style="enable-background:new 0 0 1080 1080;"
   xml:space="preserve"
   sodipodi:docname="logo.svg"
   inkscape:version="1.3.2 (091e20e, 2023-11-25)"
   xmlns:inkscape="http://www.inkscape.org/namespaces/inkscape"
   xmlns:sodipodi="http://sodipodi.sourceforge.net/DTD/sodipodi-0.dtd"
   xmlns="http://www.w3.org/2000/svg"
   xmlns:svg="http://www.w3.org/2000/svg"><defs
   id="defs42" /><sodipodi:namedview
   id="namedview42"
   pagecolor="#ffffff"
   bordercolor="#000000"
   borderopacity="0.25"
   inkscape:showpageshadow="2"
   inkscape:pageopacity="0.0"
   inkscape:pagecheckerboard="0"
   inkscape:deskcolor="#d1d1d1"
   showgrid="false"
   inkscape:zoom="0.74537037"
   inkscape:cx="539.32919"
   inkscape:cy="540"
   inkscape:window-width="1920"
   inkscape:window-height="1011"
   inkscape:window-x="0"
   inkscape:window-y="0"
   inkscape:window-maximized="1"
   inkscape:current-layer="Capa_1" />
<path
   d="M62.46,505.88c17.59,4.33,22.02,3.11,33.48,4.78c7.81,1.15,16.15,1.46,24.18,2.05c3.76,0.27,7.62,0.35,11.22,1.51  c3.98,1.27,7.59,3.47,11.57,4.75c4.91,1.58,9.92,2.83,14.97,3.85c20.02,4.02,40.56,4.25,60.62,7.94c3.16,0.58,6.31,1.24,9.42,2  c10.84,2.62,28.52-0.11,40.06-0.21c1.44-0.01,4.71,0.12,5.33,1.78c2.35,6.26-18.72,7.28-21.67,7.69  c-9.69,1.33-19.47,2.51-29.25,2.79c-28.53,0.78-57.12,0.75-85.65-0.15c-12.87-0.41-25.62-4.05-38.49-5.6  c-4.57-0.55-8.94-2.64-13.41-3.75c-4.94-1.22-9.97-2.08-15.02-2.71c-7.28-0.9-14.62-1.3-21.96-1.55c-3.3-0.11-14.8,1.3-16.2-3.24  c-0.97-3.11,4.11-4.68,6.35-4.8c9.95-0.5,16.83,0.79,26.79,1.08c6.5,0.18,17.44,0.91,23.94,1.35c3.11,0.21,15.59-0.49,18.71-0.55  c1.32-0.02,4.75-0.82,5.5-2.03c1.29-2.08-2.06-2.1-3.93-2.64c-8.11-2.34-27.37-2.14-35.7-2.98c-6-0.6-11.81-2.24-17.78-3.05  c-4.33-0.58-9.09,0.52-13.46,0.48c-1.68-0.02-5.14,0.34-6.58-0.78c-4.94-3.82,9.58-7.35,11.51-7.79  C52.03,504.96,57.42,504.64,62.46,505.88"
   id="path1"
   style="fill:#f9eec8;fill-opacity:1" />
<path
   d="M63.52,371.97c-1-0.58-1.88-1.35-2.52-2.5c-1.43-2.57-0.97-5.35,2.51-4.85c1.9,0.27,3.55,1.39,5.22,2.33  c9.83,5.54,22.56,5.38,33.34,8.26c1.22,0.33,3.2,0.28,3.21-1.49c0.01-1.64-3.74-3.28-4.78-3.95c-4.97-3.15-9.93-6.32-15.07-9.2  c-3.53-1.97-7.14-3.84-10.85-5.47c-3.34-1.45-6.79-2.31-8.4-5.97c-0.27-0.62-0.46-1.38-0.08-1.93c0.34-0.49,1-0.63,1.6-0.69  c3.84-0.39,7.66,0.94,11,2.72c5.06,2.7,10.11,5.41,15.15,8.15c10.26,5.58,20.45,11.32,30.38,17.47  c18.94,11.74,37.52,23.76,59.64,29.04c6.16,1.48,12.04,4.98,17.46,8.48c18.27,11.8,38.98,17.4,59.22,24.28  c1.83,0.63,8.69,2.06,10.33,3.08c3.6,2.24-9.48,2.39-10.81,2.13c-29.06-5.51-57.67-12.34-84.98-24.38  c-21.02-9.27-42.77-16.95-64.4-24.77c-2.94-1.06-5.61-2.78-8.56-3.82c-7.61-2.67-14.72-6.5-21.97-9.98  c-3.73-1.8-7.51-3.54-11.4-4.97C66.98,373.31,65.1,372.88,63.52,371.97"
   id="path2"
   style="fill:#f9eec8;fill-opacity:1" />
<path
   d="M151.22,303.23c3.37,1.92,6.62,4.04,9.58,6.7c2.43,2.19,4.42,4.82,6.66,7.23c4.61,4.93,9.46,9.64,14.48,14.16  c9.98,8.99,20.62,17.22,31.42,25.2c9.67,7.15,19.48,14.12,29.13,21.32c1.57,1.17,12.13,7.77,11.89,10.05  c-0.39,3.68-14.22-1.59-16.37-2.69c-24.68-12.45-49.09-25.41-73.36-38.62c-3.33-1.81-9.96-6.49-13.18-8.51  c-2.48-1.56-5.81-2.19-7.75-4.21c-8.67-9.08-19.1-16.35-30.83-20.88c-6.49-2.51-13.16-5.48-16.82-11.74  c-0.44-0.75-0.84-1.56-0.88-2.44c-0.06-1.02,0.4-2.06,1.2-2.7c2.66-2.14,7.55,0.72,10.11,1.83c2.71,1.17,5.39,2.39,8.07,3.62  c5.36,2.45,10.71,4.94,16.2,7.11c1.57,0.62,8.19,3.05,11.24,4.02c1.49,0.48,3.12-0.34,3.63-1.83c1.02-2.99-3.69-5.04-5.58-6.35  c-2.63-1.82-4.99-3.44-8.04-4.46c-1.9-0.63-3.78-1.46-5.62-2.26c-4.43-1.91-8.9-4.09-12.7-7.09c-2.45-1.93-5.3-4.7-5.15-8.09  c1.01-2.2,2.38-4.77,7.15-2.84c9.22,6.25,17.55,13.87,27.44,19.13C145.86,300.33,148.58,301.72,151.22,303.23"
   id="path3"
   style="fill:#f9eec8;fill-opacity:1" />
<path
   d="M670.16,98.58c0.01,0.11,0.04,0.21,0.06,0.31c0.17,0.65,0.65,1.25,1.3,1.36c3.34,0.6,6.56-6.45,7.62-8.73  c1.71-3.65,3.06-7.53,5.68-10.66c1.24-1.49,3.98-3.06,5.81-1.59c1.08,0.87,1.14,2.53,0.71,3.86c-1.23,3.77-2.9,7.55-4.33,11.27  c-16.63,43.24-21.77,93.76-46.83,132.72c-5.56,8.64-12.1,16.89-15.3,26.65c-2.44,7.46-2.8,15.42-4.04,23.17  c-5.04,31.75-24.57,59.4-33.76,90.12c-1.21,4.04,4.07,6.85,6.75,3.6c0.89-1.08,1.71-2.22,2.47-3.34  c18.17-26.92,26.76-58.94,38.56-89.2c9.47-24.29,25.99-45.27,34.82-69.81c4.59-12.75,5.75-27.49,9.34-40.69  c3.79-13.92,8.29-27.64,13.48-41.09c2.66-6.9,2.32-15.58,5.71-22.08c1.63-3.1,3.14-6.26,4.94-9.26c0.94-1.56,1.87-3.14,2.98-4.59  c0.9-1.19,2.28-4.46,4.29-3.28c3.93,2.31-0.85,9.32-2.47,11.67c-1.42,2.08-2.07,4.65-1.67,7.15c0.11,0.67,0.3,1.36,0.75,1.87  c1.06,1.2,3.02,0.92,4.43,0.18c2.99-1.58,4.8-4.55,6.75-7.18c1.64-2.22,3.87-5.71,6.86-5.15c1.65,0.31,1.46,2.05,0.82,3.7  c-0.52,1.32-1.03,2.63-1.55,3.94c-1.03,2.63-2.08,5.25-3.13,7.87c-2.11,5.24-4.26,10.46-6.46,15.67  c-4.31,10.19-8.8,20.31-13.45,30.35c-4.05,8.74-8.23,17.41-12.54,26.03c-4.39,8.78-7.53,19.1-12.04,27.84  c-8.2,15.88-17.73,30.18-24.95,46.52c-1.65,3.73-3.27,7.62-3.72,11.71c-0.14,1.24-0.4,3.37,0.23,4.5c1.18,2.14,3.4-0.01,5.08-0.94  c2.3-1.29,4.23-3.16,5.89-5.17c1.93-2.34,3.53-4.94,4.94-7.62c26.73-50.5,51.66-101.94,74.73-154.22c1.23-2.78,3.89-6.13,6.57-4.69  c4.18,2.23-1.26,10.73,2.98,12.85c3.24,0.21,5.17-3.34,7.09-5.95c1.92-2.61,6.57-4.32,7.88-1.36c0.6,1.35,0,2.92-0.63,4.26  c-11.15,24.06-29.96,43.67-43.7,66.34c-18.85,31.09-27.85,67.35-46.61,98.5c-15.4,25.58-37.25,47.51-48.01,75.36  c-8.34,21.61-9.56,45.79-20.34,66.3c-2.64,5.03-5.99,9.92-10.85,12.86c-4.86,2.94-11.52,3.49-16.05,0.05  c-3.94-3-5.45-8.17-6.5-13.01c-6.55-30.15-4.62-61.6,0.99-91.94c5.18-28.02,13.89-54.91,21.2-82.48  c13.69-27.47,22.04-77.34,27.95-106.35c4.49-22.04,2.41-24.19,5.92-46.41c0.49-3.11,1.62-6.15,2.73-9.09  c1.41-3.7,3.01-7.35,4.83-10.87c0.69-1.33,1.4-2.64,2.19-3.91c0.64-1.03,1.42-2.61,2.4-3.36c0.84-0.63,1.88-0.11,2.41,0.66  c1.36,1.94,0.63,5.03,1,7.24c0.22,1.34,0.79,2.66,2.23,2.99c4.4,2.76,10.09-8.25,12.24-5.97c2.28,3.27-1.73,8.97-3.25,11.77  c-3.18,5.81-4.53,12.1-6.21,18.43c-1.86,6.96-3.7,13.94-5.55,20.91c-3.75,14.1-7.51,28.19-11.39,42.25  c-7.72,27.94-15.86,55.79-25.27,83.22c-6.01,17.55-13.72,31.15-15.87,49.59c-0.62,5.3,0.21,10.24,1.21,15.39  c0.3,1.51,0.85,3.1,2.12,3.97c7.24,4.97,8.36-20.39,9.13-23.32c2.12-8.04,6.1-16.13,8.77-24.08c5.74-17.07,11.01-34.34,17.57-51.12  c5.04-13.09,9.85-26.25,13.72-39.73c5.81-20.23,9.45-40.99,14.5-61.41c1.9-7.66,4-15.29,6.48-22.79c1.26-3.79,2.61-7.56,4.08-11.27  c1.02-2.57,2.5-7.15,5.86-7.49c3.63-0.37,2.85,3.29,2.31,5.89c-1.32,6.28-3.66,12.4-4.81,18.68  C670.17,97.47,670.09,98.03,670.16,98.58"
   id="path4"
   style="fill:#f9eec8;fill-opacity:1" />
<path
   d="M365.45,703.4c-3.21-1.29-44.64,39.03-60.63,55.41c-14.42,14.78-26.45,32.14-40.45,47.13  c-21.1,22.6-47.94,44.52-69.71,66.77c-8.01,8.19-16.88,13.76-26.96,23.11c-2.93,0.55-0.55-3.34-1.83-5.13  c-0.91-1.27-2.24-0.39-3.43-0.84c-1.78-0.67-2.07-2.11-0.11-2.75c9.58-3.12,16.17-11.94,22.8-18.98  c8.06-8.55,17.37-15.64,25.64-23.9c10.62-9.93,20.86-20.26,31.57-30.09c0.85-0.79,1.71-1.56,2.57-2.35c2.44-2.21,4.9-4.4,7.36-6.57  c2.73-2.42,5.76-4.81,7.71-7.96c1.03-1.67,1.82-4.23,0.57-6c-2.09-2.97-5.71-0.71-8.08,0.57c-12.24,6.63-22.51,17.39-32.85,26.56  c-10.98,9.74-21.87,19.6-32.88,29.31c-8.32,7.36-16.72,14.63-25.27,21.72c-1.03,0.85-6.21,7.36-7.52,7.88  c-1.68,0.68-4.45,0.71-4.82-1.57c-0.38-2.3,3.12-3.86,4.01-5.83c1.47-3.21-0.91-6.69-4.3-6.37c-2.37,0.23-6.59,2.78-8.78,1.04  c-3.53-2.8,9.29-8.95,10.95-10.2c3.46-2.6,7.9-4.94,11.37-7.52c49.17-36.5,93.69-73.44,141.79-111.3  c32.17-25.33,63.82-52.51,94.66-79.54c12.46-10.91,25.67-21.94,38.16-32.83c8.05-7.02,14.47-14.95,22.38-22.13  c1.3-1.19,10.19-6.09,11.28-4.58c1.46,2.02-4.29,8.85-5.45,10.63c-7.43,11.46-14.72,24.05-23.44,34.49  c-17.43,20.86-37.71,38.87-55.46,59.48c-22.89,26.57-36.29,60.29-50.38,92.04c-10.16,22.89-25.95,42.62-42.77,60.94  c-8.3,9.04-16.41,18.68-25.67,26.64c-10.06,8.67-20.75,16.59-30.51,25.61c-5.79,5.35-11.49,10.79-17.04,16.38  c-1.54,1.54-2.63,3.51-4.18,5.06c-0.41,0.41-1.59,1.87-2.33,1.67c-1.09-0.3-0.38-3.3-1.32-4.22c-1.3-1.29-5.77,0.41-5.92-1.91  c-0.1-1.56,3.32-3.95,4.33-4.75c9.96-7.82,17.88-17.93,26.34-27.28c8.72-9.64,17.34-19.38,25.7-29.35c2.25-2.68,4.43-5.43,6.35-8.37  c2.28-3.49,3.7-7.8,6.62-10.97c4.56-4.94,8.89-10.11,13.53-14.97c-0.54-0.46,4.43-6.99-3.28-6.17c-3.97,1.95-6.92,3.59-10.02,8  c-1.31,1.86-2.23,4-3.49,5.89c-1.91,2.88-6.21,4.35-9.01,6.39c-2.78,2.02-5.64,4.15-8.04,6.62c-20.95,21.52-36.33,36.7-57.24,58.25  c-2.38,2.45-4.01,3.92-6.23,6.5c-1.91,2.22-3.94,3.16-4.72,0.58c-0.5-1.65,3.25-8.55,2.27-8.94c-2.36-0.94-6,1.83-8.47,1.84  c-4.96,0.05-0.99-4.61,0.9-6.34c10.55-9.71,21.3-19,32.77-27.54c9.13-6.8,17.3-14.62,25.06-22.93c5.71-6.1,11.3-12.3,17.12-18.3  c15.07-15.54,30.48-30.76,45.14-46.7c14.56-15.83,26.5-33.61,40.61-49.7c1.94-2.2,3.85-4.43,5.73-6.69  c2.29-2.74,6.09-7.18,8.68-9.64c1.95-1.85,3.81-3.82,5.51-5.88c1.52-1.83,4.88-5.49,4.23-8.23  C366.43,703.99,366.06,703.56,365.45,703.4"
   id="path5"
   style="fill:#f9eec8;fill-opacity:1" />
<path
   d="M275.56,354.27c0.46-1.89-4.46-4.34-5.66-5.29c-2.96-2.34-6.06-4.49-9.05-6.79c-10.6-8.17-19.59-18.23-30.16-26.35  c-10.55-8.11-22.12-14.84-32.39-23.32c-9.63-7.94-19.52-15.57-29.39-23.22c-4.94-3.82-9.87-7.65-14.77-11.53  c-3.28-2.6-7.4-5.12-9.45-8.91c-3.95-7.28,5.03-10.25,10.59-9.3c5.92,1.01,11.78,4.34,16.35,8.15  c15.46,12.9,30.21,26.67,44.98,40.38c22.74,21.13,45.74,42,67.75,63.87c22.95,22.8,44.67,46.84,67.3,69.97  c14.29,14.61,36.2,27.77,56.23,33.25c1.29,0.35,4.39,1.35,5.61,0.53c3.15-2.14-15.21-12.18-17.21-13.7  c-14.49-11-28.35-22.87-41.28-35.68c-13-12.89-24.91-26.82-38.32-39.31c-13.18-12.28-26.38-24.55-38.75-37.66  c-6.4-6.79-10.95-15.27-16.95-22.48c-4.57-5.48-9.99-10.28-15.22-15.19c-8.81-8.27-16.86-18.13-25.8-26.26  c-12.76-11.62-26.53-21.4-39.2-33.11c-5.3-4.89-10.37-10.06-15.14-15.45c-1.01-1.14-1.04-4.47-0.09-5.65  c0.97-1.22,3.96-1.86,5.57-1.3c2.62,0.91,5.16,2.66,7.16,4.63c16.4,16.17,32.74,31.56,49.28,47.58  c14.48,14.02,28.98,28.86,43.96,42.34c5.11,4.6,10.42,8.96,15.77,13.27c2.64,2.14,5.18,4.41,7.81,6.57  c1.77,1.45,9.61,7.86,11.65,8.99c3.11,1.71,3.26-1.55,1.84-3.94c-4.47-7.51-13.5-19.38-21.32-25.94  c-11.03-9.25-21.42-19.23-31.39-29.62c-9.25-9.64-19.18-18.94-27.87-29.08c-2.21-2.57-4.15-5.37-5.72-8.37  c-2.71-5.18-4.79-10.68-7.72-15.75c-2.47-4.26-5.51-8.18-8.45-12.11c-5.45-7.27-12.22-14.74-15.49-23.33  c-0.75-1.97,1.68-3.59,3.21-2.14c7.89,7.49,28.59,31.57,35.64,39.79c33.93,39.57,67.66,79.33,100.8,119.58  c13.65,16.58,25.94,34.18,38.16,51.84c18.73,27.08,50.18,39.15,70.65,64.22c4.94,6.05,15.1,11.81,22.81,13.07  c4.6,0.75,2.96,5.87,0.04,6.43c-3.6,0.68-12.3-3.24-15.73-4.04c-4.82-1.13-9.64-2.25-14.45-3.4c-9.6-2.29-19.17-4.69-28.64-7.46  c-18.91-5.54-37.29-13.04-54.21-23.2c-18.21-10.94-35.16-24.27-52.68-36.29c-19.53-13.4-39.13-26.69-58.48-40.35  c-9.98-7.04-18.59-15.97-28.21-23.54c-23.95-23.88-37.76-33-64.95-54.14c-2.85-2.22-11.21-6.97-16.51-12.66  c-6.89-7.4,2.26-16.91,10.13-11.04c14.41,10.76,29.68,20.67,42.68,32.96c12.79,12.1,26.7,22.99,41.37,32.71  c7.23,4.79,14.63,9.3,22.17,13.56c3.88,2.19,7.79,4.32,11.75,6.38C258.23,348.52,274.68,357.34,275.56,354.27"
   id="path6"
   style="fill:#f9eec8;fill-opacity:1" />
<path
   d="M804.78,145.38c-1.17,1.54-2.93,5.74-1.04,7.34c2.9,2.44,8.36-3.07,10.06-4.9c1.79-1.91,9.85-9.23,12.8-7.04  c2.36,1.75-2.9,7.15-4.33,8.67c-2.42,2.55-6.09,4.07-8.15,6.95c-24.17,33.8-48.64,67.38-73.38,100.75  c-6.82,9.2-15.51,17.02-22.26,26.25c-12.31,16.83-23.64,34.39-35.75,51.37c-5.29,7.43-11.41,14.29-17.3,21.27  c-4.81,5.71-9.71,11.34-14.55,17.02c-2.12,2.48-4.28,4.94-6.32,7.49c-1.65,2.06-3.88,3.78-5.11,6.14c-2.67,5.13,1.42,11.3,7.1,9.4  c3.98-1.33,8.33-4.9,10.38-8.58c12.81-22.99,36.02-31.59,56.32-44.76c22.35-14.5,44.6-27.97,56.91-53.25  c2.76-5.66,7.73-11.71,12.1-16.37c20.18-21.49,38.89-38.59,59.2-59.94c2.49-2.61,7.72-10.48,10.46-12.79  c5.42-4.56,18.71-17.43,22.57-17.24c4.56,3.85-15.3,14.15-18.2,19.73c-0.82,1.58-0.6,3.71-0.53,5.76c0.04,1.24,0.57,2.52,1.64,3.17  c5.23,3.17,12.35-7.37,17.56-11.59c5.78-4.68,6.7-8.25,11.37-9.72c3.85-0.46,2.11,3.57,1.74,4.49c-0.37,0.92-37.5,32.61-37.5,32.61  c-29.28,27.6-59.54,54.17-88.44,82.14c-11.75,11.37-20.21,26.09-31.51,38c-8.84,9.32-19.78,16.67-29.77,24.91  c-3.87,3.19-8.99,5.69-11.33,9.77c-15.77,27.47-45,39.74-67.11,60.16c-3.52,3.14-8.94,1.58-11.26-2.25  c-5.07-8.38,8.02-17.46,11.49-24.87c4.24-9.06,7.79-18.42,11.08-27.86c6.59-18.87,9.62-37.94,17.72-56.25  c2.03-4.59,4.07-9.5,7.33-13.18c25.87-29.12,38.64-65.75,55.21-99.97c5.31-10.96,9.74-22.07,16.44-32.23  c2.61-3.96,5.55-7.68,8.6-11.3c6.45-7.65,13.33-14.96,18.54-23.55c2.98-4.93,5.41-10.17,7.24-15.63c1.94-5.8,2.96-11.42,7.64-15.8  c1.42-1.32,6.11-5.97,8.02-3.26c0.78,1.11,0.37,3.62-0.15,4.72c-4.31,9.1-7.3,13.54,4.26,7.94c3.53-1.7,6.92-2.29,7.56,0.33  c0.27,1.11-1.7,4.59-2.39,5.57c-10.76,15.13-21.75,30.1-32.77,45.04c-4.4,5.96-9.37,11.51-13.62,17.58  c-3.94,5.63-6.86,12.05-10.25,18.02c-3.32,5.84-6.73,11.64-10.18,17.4c-6.93,11.58-14.01,23.07-20.84,34.71  c-3.3,5.61-7.11,10.99-8.25,17.53c-0.74,4.26,3.09,2.63,5.2,1.51c3.51-1.86,6.43-4.8,8.64-8.07c21.68-32.02,42.34-64.73,63.96-96.79  c0,0,34.08-48.09,34.99-49.19c0.92-1.1,3.49-2.93,4.96-1.65c1.47,1.29,1.65,3.67,0.37,5.14  C810.65,137.67,804.83,145.31,804.78,145.38"
   id="path7"
   style="fill:#f9eec8;fill-opacity:1" />
<path
   d="M678.16,998.51c-1.9-4-4.02-8.3-5.02-12.64c-1.26-5.52-1-11.24-2.35-16.81c-1.5-6.19-3.98-12.13-5.88-18.21  c-4.91-15.76-11.67-29.83-14.69-46.02c-8.01-42.89-23.88-83.7-37.2-125.1c-8.19-25.45-19.52-50.07-24.94-76.35  c-2.63-12.79-4-25.77-5.08-38.77c-0.48-5.84-6.35-29.58,3.56-28.99c3.24,0.2,5.29,4.24,7.05,6.44c5.28,6.59,10.59,13.21,14.89,20.5  c7.87,13.33,10.72,28.93,19.15,42.01c10.05,15.61,9.3,34.89,15.89,51.95c7.28,18.87,19.37,35.28,31.56,51.22  c12.6,16.47,24.58,33.36,35.94,50.71c11.3,17.25,22,34.89,32.23,52.79c5.12,8.96,10.11,17.98,15,27.06  c4.65,8.64,8.71,17.78,14.31,25.82c3.23,4.64,2.65,13.54-3.89,15.49c-3,0.9-7.88-2.18-9.34-4.85  c-10.28-18.91-17.91-37.18-26.22-56.96c-2.56-6.1-6.34-11.67-10.87-16.48c-2.83-3-6.57-5.48-9.83-8.18  c-1.69-1.39-6.97-9.09-8.99-8.47c-3.15,0.97,5.09,10.8,5.82,12.32c2.19,4.56,4.13,9.31,5.44,14.21c1.18,4.42,5.9,19.57,12.38,33.85  c2.82,6.2,6.08,12.17,9.35,18.13c2.25,4.1,7.73,10.22,6.04,15.28c-1.14,3.41-4.46,5.46-7.69,3.19c-2.96-2.09-4.82-7.51-5.33-10.76  c-0.76-4.9-1.4-9.99-3.48-14.55c-8.97-19.77-19.76-41.39-23.38-48.01c-14.69-26.9-32.12-56.56-46.22-83.77  c-4.39-8.46-10.57-22.74-13.46-31.82c-3.17-9.99-7.85-19.44-13.34-28.36c-3.61-5.87-6.78-12.06-10.27-18.02  c-1.15-1.97-2.46-4.07-4.59-4.88c-0.79-0.3-1.69-0.39-2.45-0.04c-1.22,0.55-1.74,2.07-1.55,3.39c0.6,4.3,4.32,9.12,5.97,13.16  c1.87,4.55,3.45,9.21,4.86,13.92c2.69,8.96,4.8,18.09,7.85,26.94c4.87,14.11,8.87,27.37,13.81,41.45c1.38,3.92,4.19,7.75,7.29,10.6  c18.08,16.61,27,41.73,38.61,62.25c6.2,10.95,9.69,23.39,10.18,37.15c0.28,8.06,5.46,15.24,9.47,21.9  c4.73,7.85,7.75,15.92,10.12,24.77c0.52,1.93,0.68,12.57-4.23,10.34c-3.46-2.8-5.15-9.95-6-16.01  c-1.67-11.71-10.39-15.42-15.96-25.62c-2.77-5.07-3.46-9.96-5.23-15.49c-1.92-6-3.01-11.77-6.06-17.49  c-2.06-3.88-4.91-7.27-7.71-10.63c-1.88-2.27-4.83-7.89-7.49-9.12c-3.95-1.83-0.07,14.43,0.52,16.19c2.1,6.31,5.07,12.3,7.1,18.64  c3.4,10.62,3.99,21.84,6.5,32.66c2.63,11.32,8.05,21.88,11.69,32.89c0.87,2.63-1.49,7.77-3.75,3.79  C684.76,1011,681.2,1004.89,678.16,998.51"
   id="path8"
   style="fill:#f9eec8;fill-opacity:1" />
<path
   d="M713.86,406.6c5.69,0.46,13.86-5.15,17.36-7.43c67.93-44.35,133.84-91.17,201.77-135.52c2.85-1.86,7.62-3.19,8.84-0.02  c0.97,2.5-1.69,4.8-3.98,6.18c-34.86,21.1-67.41,45.71-99.75,70.41c-32.5,24.82-64.93,49.87-99.53,71.75  c-28.01,17.72-57.31,35.89-88.6,47.2c-4.07,1.48-8.18,2.87-12.31,4.19c-1.32,0.42-4.25,1.06-5.48,0.15  c-2.41-1.77,0.49-4.58,1.84-6.22c4.64-5.6,11.59-8.58,17.4-12.73c13.02-9.31,22.83-22.51,33.57-34.39  c15.41-20.64,29.31-26.68,53.93-47.6c23.48-19.95,38.31-47.72,59.71-69.89c20.4-21.13,44.68-39.12,68.36-56.49  c5.67-4.17,11.01-8.76,16.61-13.02c2.81-2.14,5.68-4.2,8.69-6.06c1.47-0.91,6.27-4.65,8.04-3.76c2.48,1.24-2.15,5.98-3.08,6.95  c-6.5,6.75-14.46,11.93-21.49,18.1c-5.12,4.5-10.57,8.63-16.3,12.33c-2.29,1.47-14.76,6.85-13.01,10.56  c0.26,0.55,0.81,0.91,1.37,1.14c2.73,1.14,5.83,0.02,8.48-1.29c6.07-3,11.53-7.02,17.27-10.59c5.71-3.56,11.45-7.06,17.22-10.52  c5.17-3.1,10.39-6.18,15.76-8.93c2.35-1.2,6.44-3.97,9.26-3.57c0.24,0.04,0.49,0.05,0.68,0.22c1.68,3.69-2.33,5.75-5.07,8.74  c-2.73,2.99-6.44,4.85-9.95,6.87c-12.18,7.04-22.76,16.82-30.78,28.37c-1.38,2,0.53,4.66,2.86,3.98  c9.35-2.77,18.14-7.44,25.65-13.66c4.56-3.77,8.84-8.1,14.2-10.74c1.75-0.87,6.14-3.24,7.5-1.4c1.72,2.32-2.44,6.12-3.96,7.25  c-30.48,22.5-63.51,41.17-96.05,60.47c-32.45,19.24-64.76,39.25-93.17,64.24c-3.19,2.8-6.43,5.55-9.56,8.42  c-3.53,3.22-12.92,7.97-8.55,14.02C710.67,405.78,712.16,406.46,713.86,406.6"
   id="path9"
   style="fill:#f9eec8;fill-opacity:1" />
<path
   d="M143.29,703.58c-20.27,7.27-42.19,13.99-63.82,15.28c-2.5,0.15-5.28-0.45-6.75-2.47c-2.76-3.8,3.92-5.09,6.49-5.76  c3.65-0.95,7.36-1.61,11.07-2.28c40.17-7.32,63.31-21.43,99.02-30.74c10.92-2.85,39.92-10.47,55.84-19.58  c4.18-2.39,1.91-8.79-2.84-7.96c-12.7,2.22-30.43,7.75-34.34,9.86c-17.09,9.22-36.16,14.04-55.01,18.76  c-7.19,1.81-14.71,2.5-21.98,3.96c-4.93,1-10.11,1.85-14.88,3.49c-4.92,1.69-9.49,4.3-14.5,5.74c-6.31,1.82-12.91,1.36-19.29,2.73  c-3.77,0.81-7.43,1.98-10.98,3.47c-1.66,0.69-5.33,2.95-7.04,1.56c-2.29-1.87,0.53-6.22,2.61-8.33c1.37-1.39,4.55-1.8,6.33-2.25  c4.32-1.1,8.76-1.91,13.2-2.34c11.56-1.13,23.91-5.17,34.49-9.92c7.25-3.26,10.82-5.51,9.83-8.71c-0.44-1.27-1.65-2.12-2.87-2.71  c-6.09-2.92-12.7-0.53-18.54,1.82c-6.21,2.5-12.15,5.71-18.59,7.6c-5.41,1.58-11.1,1.29-16.66,1.6c-5.48,0.31-10.33,2.45-15.68,2.98  c-1.52,0.15-3.25,0.18-4.31-0.92c-2.47-2.56,2.71-4.48,6.12-5.51c8.76-2.66,17.95-3.43,26.98-4.64c8.48-1.13,15.76-6.37,24.2-7.78  c30.14-5.03,60.1-4.18,90.39-8.15c27.4-3.59,55.06-10.57,81.49-18.67c29.26-8.98,59.13-19.37,86.04-33.95  c12.78-6.92,24.69-15.35,37.47-22.28c6.38-3.45,12.98-6.57,19.89-8.77c2.86-0.91,18.06-5.9,19.98-2.55c0.39,0.68,0.08,1.59-0.5,2.11  c-1.72,1.55-4.73,2.72-6.8,3.71c-3.35,1.59-6.69,3.19-10.03,4.81c-6.68,3.24-13.33,6.53-19.95,9.88  c-18.9,9.55-37.69,19.6-54.45,32.56c-17.47,13.51-31.4,31.65-51.27,41.3c-24.83,12.05-55.83,10.44-80.18,23.44  c-10.11,5.4-18.98,12.92-29.09,18.33c-8.67,4.64-18.1,7.66-27.46,10.65L98.1,734.92c-2.41,0.77-4.9,1.21-7.38,1.67  c-2.74,0.51-5.41,1.64-8.23,1.68c-0.88,0.01-2.99,0.19-3.66-0.5c-2.37-2.39,3.17-5.12,4.88-5.75c9.7-3.56,19.6-6.97,29.51-9.9  c13.02-3.86,21.56-7.31,32.47-12.12c2.34-1.03,17.6-4.14,14.14-9.27C157.79,697.71,145.96,702.63,143.29,703.58"
   id="path10"
   style="fill:#f9eec8;fill-opacity:1" />
<path
   d="M253.92,590.81c-6.94,1.83-13.78,4.08-20.44,6.53c-10.58,3.9-21.35,7.3-32.39,9.6c-28.02,5.84-56.56,7.45-84.78,11.65  c-11.03,1.64-22.19,2.1-33.33,2.25c-5.6,0.07-11.2,0.07-16.8,0.08c-2.8,0.01-5.6,0.03-8.4,0.07c-2.26,0.03-4.77,0.47-6.74-0.91  c-1.48-1.03-2.22-2.87-1.83-4.65c0.14-0.59,0.39-1.16,0.8-1.61c1.5-1.65,6.32-1.52,8.46-1.54c21.08-0.28,26.88-4.82,41.27-7.97  c4.91-1.08,19.01-4.14,23.82-5.6c1.45-0.44,4.97-2.15,2.64-3.35c-5.49-0.47-12.73,0.36-17.72,0.33c-4.07-0.03-8.15,0.01-12.2,0.46  c-14.71,1.68-29.38,3.84-44.12,5.07c-2.47,0.21-4.97-0.53-6.35-2.53c-1.18-1.71-0.04-4.07,1.64-5.01c1.55-0.87,3.49-0.97,5.27-0.92  c1.69,0.05,3.38,0.08,5.07,0.01c5.32-0.24,10.64-0.63,15.93-1.27c6.43-0.79,12.76-2.06,19.05-3.63c5.19-1.3,10.44-2.39,15.78-2.68  c23.35-1.26,46.05,6.02,69.2,8.28c12.29,1.2,24.69,1.55,37.01,0.43c19.63-1.79,38.62-7.28,57.79-11.54  c9.34-2.08,18.33-3.69,27.84-3.89c10.11-0.23,20.29,0.55,30.21,2.58c13.73,2.82,27.14-2.02,39.26-8.15  c6.09-3.08,11.99-6.52,18.03-9.72c3.48-1.84,7.11-3.36,10.89-4.46c13.94-4.05,30.54-10.81,46.4-10.76c1.9,0.01,7.83-0.27,5.92,2.47  c-1.13,1.61-5.6,2.12-7.3,2.55c-9.48,2.35-19.07,4.1-28.44,6.91c-12.26,3.66-24.98,10.25-36.07,16.39  c-29.08,17.36-59.47,31.53-92.91,39c-16.55,3.69-32.22,11.14-48.59,15.8c-13.81,3.92-27.95,7.14-42.16,9.14  c-37.07,5.2-74.28,9.37-111.38,14.4c-8.2,1.11-15.94,5.07-24.14,5.88c-1.92,0.19-7.09,0.02-8-2.18c-1.8-4.34,6.95-5,9.22-5.15  c3.42-0.23,8.79-1.92,12.17-2.53c3.39-0.6,6.46-2.09,9.8-2.87c4.18-0.98,8.74-0.89,13.02-1.35c2.38-0.25,4.84-0.56,7.08-1.45  c1.03-0.41,2.54-1.05,3.24-1.94c3.02-3.89-6.41-4.87-8.26-4.9c-3.81-0.06-7.6,0.33-11.4,0.55c-5.67,0.33-11.33-0.68-16.99-0.36  c-4.85,0.28-9.62,3.46-14.5,2.77c-2.87-0.41-3.82-2.74-1.43-4.37c5.01-3.43,14.13-5.7,20.29-6.29c53.38,2.83,67.57-5.47,101.07-9.45  c19.93-2.37,39.65-6.94,58.5-13.88c9.04-3.33,17.45-7.92,26.71-10.53c5.89-1.66,11.9-2.91,17.95-3.74  c5.41-0.75,11.91-0.05,17.01-2.16c0.74-0.3,3.5-1.7,3.5-2.61c-0.02-1.68-4.59-1.83-5.97-1.9  C279.92,585.44,266.73,587.42,253.92,590.81"
   id="path11"
   style="fill:#f9eec8;fill-opacity:1" />
<path
   d="M877.66,396.87c-0.6-3.48,6.85-8.73,11.33-11.09c19.07-10.05,38.6-19.22,57.84-28.94c4.19-2.12,32.35-13.82,42.3-22.33  c2.1-1.79,0.15-5.17-2.45-4.29c-12.38,4.2-42.41,20.85-47.25,21.16c-1.63,0.1-4.12-1.04-4.66-2.7c-0.98-3.01,3.37-6.42,5.38-8.04  c3.3-2.65,7.17-4.47,10.86-6.48c6.7-3.65,13.54-7.1,19.98-11.21c1.01-0.65,3.91-2.94,3.91-4.26c-0.01-4.96-24.29,8.1-25.56,8.94  c-17.94,11.93-36.12,24.36-54.94,34.64c-37.24,20.34-75.47,38.87-113.38,57.98c-1.06,0.53-7.04,2.16-7.41,0.3  c-0.37-1.92,1.12-5.03,2.42-6.33c4.85-4.09,10.01-8.05,15.61-11c13.92-7.33,28.7-13.18,42.18-21.21  c39.01-23.22,79.27-47.15,117.9-71.01c1.55-0.95,3.39-1.94,4.53-3.39c1.35-1.72,0.62-3.69-1.59-3.76c-4.9-0.15-10.42,3-14.62,5.16  c-3.25,1.67-6.49,3.38-9.72,5.12c-6.77,3.65-13.49,7.4-20.25,11.06c-4.93,2.67-13.76,11.41-18.89,12.51  c-31.51,6.7-57.14,26.6-82,44.85c-17.83,13.09-33.69,29.34-55.03,37.42c-3.94,1.49-7.43,4.27-10.71,6.84  c-2.58,2.02-5.19,4.07-7.36,6.53c-2.29,2.58-3.44,5.81-5.98,8.12c-5.03,4.59-11.84,6.53-17.96,9.15  c-16.47,7.05-21.54,6.18-41.42,11.69c-7.98,3.18-15.81,6.81-23.51,10.62c-1.29,0.63-3.56,2.92-3.17,4.58  c1.56,6.62,14.18,1.51,18.25,0.82c3.75-0.64,7.49-1.27,11.24-1.9c7.49-1.27,14.98-2.53,22.48-3.79c14.99-2.52,29.98-5.05,44.95-7.64  c5.39-0.94,10.78-1.87,16.17-2.83c26.04-4.61,51.92-12.3,73-28.87c4.44-3.5,8.35-7.87,12.87-11.19c4.21-3.09,9.54-4.59,14.2-6.89  c11.51-5.74,35.45-14.85,35.45-14.85s61.45-19.45,64.57-20.91c3.12-1.47,48.78-19.99,50.08-22.56c1.03-2.04,1.79-4.79-0.54-6.21  c-4.67-2.84-10.58,1.16-14.65,3.31c-3.41,1.8-7.01,3.31-10.51,4.94c-8.73,4.04-17.48,8.03-26.26,11.96  c-21.87,9.79-43.66,19.68-67.08,25.21C886.88,396.42,878.5,399.01,877.66,396.87"
   id="path12"
   style="fill:#f9eec8;fill-opacity:1" />
<path
   d="M420.63,331.25c-0.09-9.1-3.82-23.89-9.15-31.14c-22.86-31.18-29.58-70.02-46.36-104.21  c-6.27-12.77-15.19-24.01-21.43-36.79c-10.74-21.97-21.37-44-31.85-66.1c-0.68-1.45-0.65-6.08,1.89-5.81  c2.45,0.27,6.12,4.46,7.19,6.56c1.71,3.37,2.35,7.18,4,10.57c13.15,27.01,26.4,53.96,39.64,80.93c1.21,2.47,7.34,13.89,11.22,10.13  c2.74-2.67-0.99-9.19-1.96-11.9c-1.4-3.94-2.76-7.9-4.11-11.86c-2.73-7.98-5.49-15.95-8.85-23.69  c-4.81-11.09-11.63-21.48-15.76-31.76c-2.95-7.34-6.16-14.61-8.52-22.13c-0.64-2.03-3.57-13.64,0.89-12.55  c1.13,0.27,1.91,1.29,2.45,2.32c1.2,2.26,2.12,4.49,3.12,6.86c13.26,31.03,27.14,61.85,38.91,93.45  c18.35,49.27,33.38,99.85,53.37,148.42c10.69,25.97,26.98,48.53,40.62,72.87c2.57,4.58,5.38,8.71,8.84,12.77  c3.6,4.22,6.51,9.22,7.57,14.71c0.72,3.75-3.49,6.46-6.61,4.26c-1.56-1.1-2.99-2.31-4.12-3.76c-8.93-11.51-16.89-23.74-25.19-35.71  c-5.26-7.59-10.1-15.49-15.84-22.75c-5.7-7.21-12.87-12.6-19.21-19.18c-13.43-13.95-23.18-30.77-34.16-46.58  c-2.54-3.66-5.15-7.26-7.88-10.76c-15.39-19.74-22.92-43.51-31.7-66.39c-5.69-14.82-12.71-28.41-24.01-40.25  c-3.4-3.57-5.99-8.25-7.86-12.86c-4.54-11.16-9.98-21.98-16.6-32.06c-3.31-5.03-6.91-9.89-10.78-14.5  c-3.49-4.16-9.44-8.53-11.26-13.72c-0.81-2.31-4.7-8.69-1.23-10.37c3.51-1.7,8.74,4.52,11,6.71c5.2,5.06,9.44,11.96,13.47,17.97  c5.52,8.23,10.47,16.84,14.81,25.75c3.95,8.12,7.04,16.4,12.5,23.7c0.87,1.17,3.59,4.66,5.38,4.08c2.89-0.94,1.94-8.57,1.1-10.18  c-2.15-4.1-8.4-11.26-10.68-15.28c-4.68-8.23-9.44-16.43-13.77-24.86c-3.3-6.4-6.23-12.98-9.05-19.6  c-1.58-3.72-3.33-7.36-4.55-11.23c-0.66-2.09-2.22-7.78,1.15-7.89c4.39-0.14,8.29,9.58,9.61,12.66  c6.06,14.08,16.09,33.26,24.27,48.05c2.96,5.35,7.2,9.93,9.76,15.51c4.01,8.75,3.95,18.64,8.03,27.45  c4.36,9.44,9.79,18.35,13.96,27.88c3.44,7.87,5.51,16.34,8.62,24.36c2.85,7.33,5.79,14.7,9.58,21.55  c6.25,11.3,12.96,22.36,20.05,33.15c3.17,4.82,5.76,10.09,8.65,15.09c0.96,1.65,10.75,16.67,10.84,8.79  C420.63,331.7,420.63,331.48,420.63,331.25"
   id="path13"
   style="fill:#f9eec8;fill-opacity:1" />
<path
   d="M1041.58,538.12c-1.19-1.45-4.58-1.14-5.95-1.1c-2.99,0.08-5.93,0.73-8.91,0.92c-4.33,0.27-8.23,1.75-12.36,2.95  c-4.55,1.32-9.13,2.49-13.77,3.42c-25.37,5.09-52.5,4.72-77.47,11.23c-35.03,9.13-69.38,15.68-105.33,17.7  c-16.46,0.93-33.06,0.19-49.34-2.28c-14.43-2.19-29.75-6.07-44.18-8.31c-0.47-0.07-0.95-0.14-1.43-0.22  c-14.57-2.26-29.09-5.88-43.64-8.46c-7.13-1.26-35.96-10.89-31.81,5.98c1.9,7.72,9.43,9.81,15.92,12.23c3.2,1.19,6.4,2.58,9.6,3.83  c6.82,2.66,13.62,5.35,20.46,7.95c13.6,5.19,27.36,10.08,41.47,13.71c0.42,0.11,0.84,0.22,1.27,0.33  c31.33,7.88,63.73,11.59,95.68,16.98c28.37,4.78,56.72,9.83,85.2,13.86c12.25,1.74,24.6,2.42,36.96,2.66  c13.3,0.25,26.93,2.07,40.13,0.53c6.47-0.75,28.14,3.65,34.12,0.38c2.74-4.58-9.73-3.58-8.62-9.23c1.1-3.05,9.41-1.69,11.36-2.5  c1.86-0.78,7.54-0.64,7.16-3.49c0.02-3.85-8.61-3.6-10.46-3.67c-7.14-0.26-13.04,2.71-20.18,3.3c-12.9,1.06-27.2-1.35-36.69-0.45  c-21.09-0.47-36.05-0.97-51.72-3.22c-5.17-0.74-15.96-2.87-20.73-5.27c-1.74-0.88-1.46-3.42,0.42-3.91  c4.21-1.08,8.49-1.89,12.74-2.82c4.29-0.94,8.66-2.47,13.09-1.66c4.49,0.82,8.8,2.37,13.27,3.3c27.14,5.7,55.92,2.55,82.83-2.86  c5.93-1.19,15.23,5.32,15.04-3.49c-1.1-6.6-13.54-6.28-20.18-5.87c-20.12,1.25-27.15,6.24-59.07,4.4  c-7.11,0.04-14.21-0.17-21.3-0.46c-12.16-0.48-24.34-1.08-36.49-0.05c-5.35,0.46-10.68,1.22-15.94,2.26  c-7.44,1.47-15.01,2.16-22.6,2.06c-4.24-0.06-8.48-0.11-12.71-0.2c-14.72-0.31-29.51-1.03-43.98-3.91  c-14.15-2.82-28.16-6.27-42.14-9.82c-4.87-1.23-11.91-6.46-16.72-7.98c-5.32-1.68-13.42-0.17-17.73-4.23  c-3.24-3.05,0.89-3.97,3.24-3.79c2.73,0.21,5.33,1.06,8.02,1.51c14.91,2.49,29.78,5.22,44.6,8.17c14.29,2.85,28.6,5.91,43.15,7.05  c7.27,0.58,14.59,0.66,21.85-0.01c7.2-0.65,14.12-2.44,21.2-3.74c10.57-1.94,21.34-2.12,32.06-1.96  c36.77,0.57,73.55,1.08,110.32,0.63c9.07-0.11,18.19-3.66,27.05-6.4c5.86-1.81,4.5-11.11-2.07-10.27  c-5.8,0.74-11.17,2.87-16.67,4.74c-5.9,2.01-12.03,3.1-18.2,3.94c-17.38,2.37-34.71,1.62-51.81-2.11c-3.69-0.81-7.13-2.37-10.4-4.2  c-1.42-0.8-2.79-2.04-2.98-3.66c-0.52-4.34,6.25-2.86,8.55-2.92c3.35-0.09,6.71,0.16,10.06,0.14c6.83-0.05,13.67-0.07,20.5-0.12  c13.2-0.09,26.41-0.27,39.6-0.82c4.78-0.2,13-0.87,17.54-2.29c2.23-0.7,4.44-1.46,6.66-2.19c1.68-0.56,4.19-0.85,5.2-2.47  c1.64-2.64-0.4-4.42-2.94-4.68c-2.36-0.24-4.2,1.89-6.07,2.93c-2.29,1.28-5.23,1.74-7.82,1.65c-1.75-0.06-3.59-0.44-4.85-1.67  c-2.07-2.02-0.96-4.61,1.01-6.13c4.76-3.69,11.33-0.07,16.5-2.25c0.82-0.34,1.55-1,1.77-1.85  C1042.14,539.17,1041.97,538.59,1041.58,538.12"
   id="path14"
   style="fill:#f9eec8;fill-opacity:1" />
<path
   d="M953.17,526.89c-2.54-1.56-5.97-2.71-5.52-6.33c0.15-1.23,0.63-2.51,1.63-3.25c0.87-0.65,2.01-0.79,3.09-0.91  c22.96-2.61,46.24-5.31,68.88-10.01c4.97-1.03,9.58-3.33,14.01-5.75c2.28-1.25,4.52-2.57,6.79-3.84c2.98-1.67,6.48-3.98,4.35-8.01  c-1.26-2.39-5.06,0.25-6.47,1.13c-2.9,1.81-5.54,3.57-8.97,4.2c-3.63,0.66-7.35,0.84-10.88,2.01c-5.97,1.97-12.03,3.68-18.14,5.15  c-19.32,4.65-39.13,5.75-58.66,9.15c-53.91,9.4-83.41,21.04-138.68,19.26c-9.37-0.3-41.43-0.4-50.81,0  c-8.85,0.39-20.38,0.37-29.23,0.63c-4.59,0.14-9.19,0.14-13.78-0.19c-3.97-0.28-8-0.25-11.7-1.91c-2.28-1.02-4.39-2.55-6.78-3.29  c-5.43-1.67-11.19-0.1-16.83-0.19c-4.88-0.08-10.17-1.83-15.01-0.85c-2.32,0.46-4.2,2.82-4.2,5.18c0.01,1.46,0.71,2.84,1.65,3.95  c2.39,2.81,6,3.94,9.33,5.2c3.51,1.34,6.89,2.65,10.59,3.45c8.35,1.81,17.86,2.21,26.26,3.8c7.85,1.49,14.6,4.18,22.47,5.6  c18.9,3.39,37.95,6.1,57.12,7.3c17.43,1.09,36.9,3.01,54.17-0.06c29.71-5.28,59.19-11.75,88.68-18.13c9.8-2.12,19.28-4.9,29.35-5.38  c7.84-0.38,15.7-1,23.56-0.71c9.72,0.37,62.37-6.97,67.5-12.47c3.67-1.84,0.92-6.42,0-6.97c-0.92-0.55-4.77-2.39-9.9,0  c-6.05,2.57-24.95,6.24-31,6.6s-22.56,5.13-26.6,6.24c-4.65,1.27-9.67,1.8-14.47,1.89c-2.75,0.05-5.65-0.01-8.31-0.82  C955.42,528.18,954.28,527.57,953.17,526.89"
   id="path15"
   style="fill:#f9eec8;fill-opacity:1" />
<path
   d="M426.61,58.27c3.03-1.24,3.44,4.96,3.7,6.73c0.52,3.52,0.92,7.06,1.35,10.59c0.41,3.42,0.82,6.85,1.4,10.24  c0.28,1.62,1.93,9.26,4.9,7.56c0.82-0.47,1.18-1.49,1.28-2.44c0.3-2.86-0.35-5.7-0.38-8.55c-0.04-3.52,0.4-7.3,0.43-10.92  c0.03-3.75-0.98-7.22-1.28-10.91c-0.14-1.72-0.07-7.35,2.08-7.98c4.39-1.3,5.43,10.3,6,12.54c1.43,5.53,2.64,11.11,3.62,16.75  c2.35,13.59,1.32,27.27,3.3,40.76c1.31,8.92,4.2,17.59,4.8,26.62c0.62,9.18-1.98,18.17,0.21,27.34c1.49,6.22,5.31,12.3,7.24,18.5  c1.58,5.07,2.75,10.26,3.38,15.54c1.11,9.34-0.28,18.81,0.91,28.13c1.18,9.25,5.56,17.56,8.22,26.4  c3.41,11.35,5.83,23.75,8.32,35.31c0.7,3.24,0.73,21.09,6.5,20.3c4.5-0.62,2.83-17.92,2.65-21.48c-0.45-8.81-1.56-17.58-2.99-26.29  c-2.75-16.7-3.19-28.16-6.73-44.71c-7.15-16.23-13.59-41.39-13.65-59.62c-0.05-13.4,3.39-26.61,1.9-39.62  c-1.5-13.08-7.94-25.93-12.89-38.7c-2.79-7.21-2.88-15.5-3.27-23.12c-0.28-5.74-2.55-11.35-2.12-17.14  c0.57-7.44,4.89-3.33,4.71,2.69c-0.11,3.67,0.42,6.57,1.92,10.06c0.66,1.56,1.89,6.65,4.21,6.03c3.02-0.81,5.24-6.24,5.69-8.97  c1.74-10.64,3.97-11.32,6.05-8.8c1.35,1.62,1.27,7.58,1.38,9.56c1.26,21.53,0.55,46.19,2.47,67.67c1.33,14.87,3.54,29.82,4.88,44.68  c2.9,32.23,12.34,67.58,17.13,99.5c4.24,28.21,3.8,49.1,2.94,77.77c-0.73,24.38,7.45,37.16,11,51.73  c1.33,5.43,6.28,12.91,4.05,18.84c-2.04,5.44-9.35,6.25-13.32,2.45c-0.17-0.16-3.5-3.69-3.67-3.85  c-18.99-17.59-21.55-36.89-22.28-71.74c-7.22-50.83-17.98-97.96-24.95-150.42c-5.29-24.17-14.17-44.85-18.9-70.06  c-1.71-9.12-6.36-17.65-8.7-26.7c-1.95-7.55-3.12-15.28-4.08-23.01c-0.47-3.87-0.9-7.75-1.33-11.62c-0.21-1.88-0.74-5.8,1.09-7.15  C426.08,58.53,426.35,58.38,426.61,58.27"
   id="path16"
   style="fill:#f9eec8;fill-opacity:1" />
<path
   d="M62.64,557.25c-0.09,0.02-0.18,0.03-0.28,0.05c-7.11,1.21-13.89,3.35-21.18,1.89c-2.35-0.47-5.33-3.23-4.66-5.94  c0.77-3.13,6.41-3.91,9.08-4.45c20.9-4.24,43.45-0.96,64.47,1.06c22.71,2.18,45.35,5.15,68.04,7.47c3.63,0.37,7.27,0.73,10.89,1.1  c21.11,2.07,41.7-0.21,61.43-8.81c11.91-5.19,24.11-7.1,37.57-7.03c27.29,0.15,53.9-7.95,81.01-10.69  c12.44-1.26,24.96-1.69,37.46-2.07c6.61-0.2,13.22-0.36,19.82-0.54c3.56-0.09,12.58-1.06,16.13-0.53c2.8,0.42,3.36,3.79-2.48,5.3  c-9.69,2.49-26.51,5.29-36.35,6.98c-12.14,2.1-23.57,4.55-34.17,12.03c-15.36,10.84-33.89,11.03-52.17,9.7  c-10.68,1.13-21.43,1.74-32,3.49c-25.42,4.23-50.61,10.25-76.17,13.12c-19.06,2.14-38.75,2.28-57.79,0.07  c-23.07-2.68-45.65-2.44-68.67-0.18c-12.99,1.27-18.38-2.39-39.01-2.49c-1.1-0.12-2.26-0.26-3.09-0.99  c-0.94-0.81-1.2-2.25-0.75-3.41c1.9-5.01,13.14-4.81,17.34-4.33c1.61,0.19,3.21,0.51,4.84,0.58c2.27,0.1,4.52-0.28,6.78-0.57  c6.55-0.84,13.27-0.34,19.85-0.05c4.68,0.21,10.65,2,15.04-0.36c3.64-1.95,1.6-5.13-1.12-6.75c-2.69-1.59-5.86-1.43-8.87-1.34  c-3.32,0.11-6.34-0.37-9.65-0.95C76.94,557.38,69.76,556.1,62.64,557.25"
   id="path17"
   style="fill:#f9eec8;fill-opacity:1" />
<path
   d="M689.04,493.83c5.96-0.94,11.42-3.47,17.27-4.81c11.17-2.57,22.82-2.43,34.15-3.91c9.44-1.23,17.88-5.37,27.08-7.52  c11.5-2.69,20.82-6.91,32.46-8.91c17.65-3.05,39.06-1.3,56.32-5.03c9.21-1.99,17.71-6.05,25.94-10.5  c7.12-3.84,14.05-8.94,22.28-10.02c8.87-1.17,17.94,0.1,26.83-1.3c29.55-4.67,58.94-16.85,85.1-31.18c5.63-3.08,12.7-7.34,16.49-3.9  c2.71,2.46,1.2,7.36-1.23,9.2c-1.43,1.07-3.18,1.71-4.86,2.26c-2.45,0.8-4.81,1.86-7.23,2.87c-12.95,5.44-26.54,7.92-39.77,12.37  c-13.03,4.38-25.46,10.29-37.78,16.32c-10.83,5.31-21.62,10.73-32.78,15.33c-25.76,10.64-51.09,24.01-79.42,26.6  c-25.48,2.33-48.32,13.6-72.82,18.89c-8.97,1.93-18.39,3.43-27.47,2.92c-24.46-1.37-48.87-3.7-73.25-6.26  c-3.47-0.37-9.86-1.49-9.46-6.23c0.37-4.45,6.79-6.18,10.36-6.68c4.34-0.6,8.75-0.26,13.11,0.01  C676.56,494.74,682.84,494.8,689.04,493.83"
   id="path18"
   style="fill:#f9eec8;fill-opacity:1" />
<path
   d="M131.38,411.83c6.54,3.57,12.76,5.42,19.31,9c5.05,2.76,8.74,7.71,13.9,10.23c5.29,2.58,11.61,2.08,17.32,2.15  c20.94,0.23,39.6,9.89,59.8,14.04c5.45,1.12,10.75,2.92,16.16,4.18c9.25,2.15,18.55,0.43,27.91,0.99  c9.13,0.54,18.12,2.37,26.87,5.03c17.57,5.34,34.1,13.54,51.54,19.29c9.98,3.29,20.22,11.48,32.17,15.44  c7.86,2.6,15.54,3.04,23.67,3.78c2.03,0.18,4.12,0.77,5.57,2.2c3.46,3.41-0.5,5.26-3.74,5.06c-28.51-1.73-64.09-5.37-92.59-7.32  c-14.18-0.97-24.39-4.96-34.07-15.83c-7.79-8.75-13.59-12.38-31.17-11.17c-14.7,0.46-30.3-2.49-44.25-7.47  c-40.63-14.51-80.5-31.5-122.38-42.22c-8.26-2.11-16.61-3.84-24.94-5.62c-7.78-1.67-14.08-2.4-18.75-9.49  c-1.07-1.62-1.99-3.54-1.62-5.46c0.7-3.69,4.67-2.95,7.22-2.08c6.99,2.38,13.69,5.96,20.81,7.79c6.88,1.77,13.81,3.33,20.63,5.34  c3.49,1.03,6.56,3.19,10,4.37c1.77,0.6,3.78,1.22,5.67,0.86c7.7-1.45-4.14-5.52-5.82-6.38c-2.77-1.42-5.49-2.58-8.38-3.67  c-8.06-3.04-16.08-6.2-24.08-9.39c-3.94-1.56-7.87-3.14-11.8-4.71c-3.3-1.32-7.66-2.22-10.35-4.61c-2.9-2.57-3.64-7.66,0.88-8.14  c5.99-0.62,12.01,3.54,17.03,6.24c6.44,3.46,12.71,7,19.51,9.72C93.41,393.99,118.91,405.01,131.38,411.83"
   id="path19"
   style="fill:#f9eec8;fill-opacity:1" />
<path
   d="M922.9,760.66c-0.96,0.04-1.69,0.47-1.91,1.6c-0.29,1.47,1.55,2.64,2.57,3.31c4.93,3.26,10.36,7.82,15.81,10.28  c5.63,2.54,11.55,3.56,16.57,7.47c3.33,2.6-1.7,3.54-3.53,3.24c-2.34-0.38-4.45-1.4-6.69-2.09c-6.94-2.13-14.05-3.66-20.97-5.84  c-6.22-1.96-13.58-4.42-18.08-9.4c-4.82-5.34-11.22-7.99-17.95-10.26c-7.49-2.53-15.24-4.12-23.03-5.47  c-32.99-5.72-59.61-24.58-86.96-41.63c-25.56-15.94-51.05-32.01-76.35-48.36c-9.87-6.38-19.71-12.8-29.51-19.26  c-4.71-3.11-9.38-6.28-14.06-9.41c-4.5-3.02-9.18-5.64-13.21-9.3c-7.05-6.41-12.23-14.51-19.38-20.87  c-3.05-2.71-17.64-13.28-12.41-18.51c5.84-5.83,17.95,10.17,23.12,13.43c11.93,10.09,26.92,13.3,35.95,22.54  c25.07,25.63,56.17,39.26,87.91,52.43c11.43,4.74,22.96,9.79,32.55,17.77c4.89,4.07,8.89,8.93,13.88,12.92  c5.25,4.18,10.89,7.87,16.85,10.97c0.72,0.37,1.43,0.74,2.16,1.09c9.03,4.43,18.72,7.56,27.35,12.74c3.92,2.35,7.59,5.1,11.49,7.46  c4.53,2.74,9.41,4.94,14.49,6.44c5.22,1.54,10.52,1.75,15.84,2.69c8.45,1.48,16.08,5.01,24.19,7.56c0.15,0.04,0.29,0.09,0.43,0.15  c3.85,1.64,7.71,3.24,11.59,4.81c5.55,2.24,11.07,4.72,16.95,6.02c3.35,0.74,6.78,0.97,10.17,1.48c1.93,0.29,8.23,0.8,8.87,3.18  c0.15,0.55-0.08,1.14-0.46,1.57c-1.06,1.2-2.52,1.58-4.07,1.64c-4.21,0.13-10.99-1-15-2.28c-6.07-1.92-11.85-4.85-17.73-7.24  C929.18,763.02,925.3,760.58,922.9,760.66"
   id="path20"
   style="fill:#f9eec8;fill-opacity:1" />
<path
   d="M406.38,103.49c0.72,2.33,1.52,4.65,2.41,6.95c1.62,4.18,8.03,5.36,7.65-0.46c-0.58-8.99-7.17-30.89-8.99-41.82  c-0.36-2.16-0.63-4.55,0.91-5.15c1.39-0.55,2.03,0.23,3.31,1.66c2.4,2.67,3.25,9.21,4.58,12.47c2.02,4.95,3.51,9.85,4.77,15.04  c2.66,10.98,5.48,19.19,6.97,30.37c1.08,8.07,2.06,16.2,3.79,24.16c8.55,39.39,14.19,79.4,21.91,118.99  c5.77,29.59,15.43,61.68,21.93,91.13c0.76,3.44,1.83,6.87,2.04,10.4c0.13,2.16,0.28,7.75-1.87,9.06c-3.08,1.89-7.68-5.69-8.87-7.82  c-20.74-37.35-33.83-77.79-47.74-117.95c-3.65-10.52-6.15-21.4-8.85-32.2c-1.74-6.98-3.17-14.07-5.63-20.85  c-2.47-6.83-6.41-13-9.33-19.65c-6.01-13.66-10.06-28.02-13.91-42.41c-2.12-5.88-7.42-10.97-9.52-16.85  c-3.81-10.65-5.75-19.65-9.85-30.19c-0.97-2.51-1.92-5.28-2.75-7.84c-0.4-1.23-2.78-6.17-0.38-6.13c2.07,0.04,2.58,2.5,3.22,4.01  c2.85,6.69,5.65,13.3,8.26,20.1c1.22,3.17,2.25,6.41,3.57,9.54c1.53,3.64,4.14,6.75,6.76,9.66c0.46,0.5,0.95,1.02,1.6,1.23  c2.02,0.66,0.6-7.73,0.43-8.68c-0.7-3.92-1.82-7.76-2.66-11.65c-1.2-5.51-2.47-11.02-3.67-16.54c-0.46-2.12-1.04-4.21-1.47-6.34  c-0.25-1.21-1.47-5.15-0.33-6.09c2.19-1.82,2.85,2.66,3.13,3.92c2.16,9.43,5.5,18.64,8.26,27.91c1.25,4.23,4.1,7.84,5.8,11.92  c1.79,4.32,3.09,8.83,4.17,13.37c2.18,9.15,3.4,18.51,5.68,27.64c0.3,1.22,0.62,2.42,0.97,3.63c9.59,33.15,21.32,65.68,32.4,98.38  c0.74,2.19,2.32,7.1,4.62,8.11c4.65,2.04,1.68-9.47,1.25-11.11c-7.08-27.19-14.53-54.28-21.84-81.41  c-3.3-12.19-6.52-24.41-9.81-36.6c-1.58-5.84-2.9-11.87-4.87-17.58c-1.4-4.07-2.85-8.14-4.16-12.25c-4.05-12.72-6.5-26.1-9.69-39.09  c-0.26-1.04-0.66-2.42,0.16-3.31c1.41-1.53,3.45,0.17,4.23,1.49c3.1,5.22,4.24,12.26,5.82,18.06  C402.7,89.7,404.25,96.64,406.38,103.49"
   id="path21"
   style="fill:#f9eec8;fill-opacity:1" />
<path
   d="M69.38,482.54c5.03,2.26,10.44,3.65,15.77,4.99c5.81,1.45,11.01,2.89,17.05,1.8c3.12-0.56,5.61-0.77,8.73-0.3  c1.45,0.22,2.89,0.62,4.36,0.62c2.04,0,3.02-0.99,1.62-2.32c-1.75-1.67-5.18-3.12-7.54-3.5c-5.24-1.84-12.21-4.74-17.61-5.8  c-5.87-1.15-11.85-1.74-17.68-3.28c-5.26-1.39-10.39-3.25-15.55-4.96c-4.53-1.51-9.54-0.87-13.73-3.57  c-2.16-1.39-2.74-4.4-0.08-5.67c1.3-0.62,2.82-0.53,4.25-0.4c6.56,0.57,13.4,1.26,19.67,3.32c25.96,8.38,50.06,16.86,75.94,25.49  c3.38,1.13,13.71,4.2,17.24,4.77c40.4,6.5,73.79,9.5,114.29,15.39c7.45,1.08,14.97,1.72,22.48,2.29c3.78,0.28,7.53,0.74,11.31,1.01  c2.2,0.15,4.39,0.55,6.6,0.52c2.66-0.04,5.38-0.6,2.91-3.1c-1.72-1.75-5.49-2.5-7.74-3.21c-5.83-1.85-12.22-2.47-17.85-4.81  c-2.06-0.85-3.96-2.04-5.99-2.96c-8.16-3.73-16.76-2.33-25.34-3.44c-23.59-3.08-46.92-8.01-70.5-11.16  c-43.12-5.76-84.42-19.92-126.5-30.34c-6.73-1.67-15.74-2.21-21.66-5.9c-0.98-0.62-1.98-1.61-1.78-2.75  c0.2-1.16,1.49-1.74,2.61-2.07c8.31-2.45,16.53-0.72,24.81,0.74c8.23,1.45,16.45,2.97,24.64,4.65c4.63,0.95,9.25,2.13,13.97,2.53  c0.97,0.08,11.65,0.45,10.91-1.29c-0.82-6.33-20.36-8.31-23.15-8.92c-9.6-2.09-19.29-3.69-28.97-5.41c-4.8-0.85-9.77-0.93-14.46-2.4  c-3.6-1.13-14.56-9.03-5.5-10.6c9.91-1.72,19.55,1.67,28.93,4.43c10.03,2.95,20.09,5.79,30.15,8.65  c19.68,5.61,39.33,11.35,58.59,18.29c20.05,7.22,39.93,14.93,60.2,21.55c10.22,3.33,20.53,6.39,30.98,8.94  c9.46,2.32,19.99,2.82,29.09,6.14c7.04,2.57,13.27,6.89,20.19,9.7c1.99,0.8,4,1.4,6.01,1.88c5.55,1.3,11.2,1.59,16.96,2.19  c12.79,1.33,26.12,6.34,38.9,7.75c13.5,1.48,23.95,0.79,37.42,2.48c2.89,0.36,8.26-0.72,11.14-0.34c4.02,0.55,8.38,0.7,12.12,2.35  c0.44,0.2,0.88,0.42,1.18,0.78c0.31,0.37,0.44,0.91,0.22,1.33c-0.17,0.31-0.5,0.5-0.83,0.63c-2.54,1.04-6.28,0.47-9.03,0.55  c-2.92,0.08-5.83,0.2-8.74,0.33c-7.06,0.31-14.12,0.69-21.17,1.04c-15.56,0.78-31.14,1.52-46.73,1.4  c-8.77-0.07-17.74-0.21-26.38-1.89c-18.67-3.63-38.72,0.47-58.1-0.38c-16.43-0.72-32.76-3.59-49.13-5.59  c-4.96-0.6-9.88-1.96-14.85-2.12c-27.78-0.95-55.61-2.2-81.35-13.76c-2.8-1.26-5.37-3.11-8.36-3.97  c-5.39-1.54-10.06,2.09-15.28,2.98c-4.91,0.84-9.88,0.34-14.68-0.86c-9.75-2.42-18.87-7.12-29.08-7.43  c-2.65-0.08-5.75-2.64-5.77-5.43c-0.01-2.29,2.76-3.33,4.61-3.72c5.26-1.14,10.73-0.15,15.97,0.6  C62.85,481.37,66.84,481.4,69.38,482.54"
   id="path22"
   style="fill:#f9eec8;fill-opacity:1" />
<path
   d="M362.99,460.68c-6.43-2.69-12.72-5.68-18.63-9.41c-10.62-6.69-20.17-15.22-30.33-22.6c-15.55-11.29-32.17-21.31-50.78-26.63  c-24.63-7.04-48.4-18.21-71.23-30.07c-22.86-11.88-44.33-25.27-66.38-38.75c-7-4.29-14.99-9.03-22.16-13.03  c-2.5-1.39-14.67-10.09-15.35-4.73c-0.62,4.34,7.43,8.62,10.33,10.66c3.44,2.41,7.1,4.45,10.61,6.73c1.42,0.91,9.11,6.66,9.11,8.03  c0,2.03-3.64,1.24-4.68,1.2c-2.35-0.09-4.71-0.34-6.98-0.95c-3.9-1.06-7.68-2.47-11.52-3.7c-3.3-1.06-6.69-1.85-9.79-3.46  c-2.47-1.28-4.5-3.23-7.25-3.96c-2.03-0.54-5.98-0.46-4,2.61c1.81,2.79,5.83,5.27,8.54,7.17c3.13,2.19,6.46,4.1,9.86,5.83  c6.62,3.36,13.67,6.15,20.31,9.24c26.29,12.26,52.82,24.18,77.99,38.67c44.01,25.34,92.49,39.56,138.41,60  c8.35,3.72,17.01,6.83,25.58,9.98c8.1,2.97,15.81,6.52,23.78,9.8c8.83,3.64,17.72,7.22,26.82,10.14c3.33,1.07,6.75,2.16,10.24,2.59  c5.19,0.64,10.56,1.04,15.57,2.67c5.11,1.67,9.16,5.5,14.44,6.77c1.74,0.42,10.59,1.79,7.23-2.47c-4.03-2.75-3.85-1.46-9.35-5.13  c-7.58-5.06-15.69-8.76-24.85-9.56c-13.24-1.16-25.71-6.17-38.02-10.82C374.68,465.26,368.78,463.1,362.99,460.68"
   id="path23"
   style="fill:#f9eec8;fill-opacity:1" />
<path
   d="M814.79,927.94c-4.95-6.64-10.08-13.15-15.22-19.66c-13.95-17.66-28.13-35.16-42.06-52.84c-2.71-3.44-5.42-6.89-8.11-10.36  c-6.6-8.49-13.37-16.86-19.66-25.58c-5.41-7.51-9.7-19.15-18.26-23.4c-3.16-1.56-9.63-1.06-7.06,4.39  c3.04,6.44,6.02,13.05,10.12,18.82c11.59,16.31,23.8,32.18,35.55,48.38c4.35,6,8.89,11.89,13.33,17.83  c7.53,10.08,15.04,20.15,22.47,30.3c1.82,2.48,3.66,4.94,5.45,7.44c1.04,1.45,16.76,21.45,17.76,22.92  c0.94,1.39,1.63,4.04-1.13,3.92c-3.23-0.14-19.22-22.32-21.11-24.63c-3.06-3.72-5.49-7.92-8.58-11.62  c-4.42-5.3-7.44-11.88-11.86-17.2c-2.27-2.73-4.29-5.66-6.6-8.36c-2.37-2.77-5.8-7.46-8.71-9.58c-0.59-0.43-1.4-1.25-2.16-1.38  c-1.96-0.31-1.45,1.99-1.21,3.37c2.3,13.09,14.34,25.79,19.26,38.24c4.53,11.47,11.66,21.33,18.71,31.31  c1.16,1.65,13.14,17.85,9.63,19.32c-3.74,1.57-32.93-47.76-33.75-50.32c-1.17-3.65-2.59-7.27-4.88-10.36  c-9.79-13.21-19.01-27.29-27.41-41.36c-3.79-6.35-7.92-12.47-12.04-18.6c-7.02-10.46-13.19-21.59-21.16-31.26  c-20.08-24.32-31.68-53.08-44.6-81.28c-1.67-3.76,2.53-7.81,6.29-6.15c0.71,0.31,1.33,0.72,1.78,1.25  c25.47,30.19,57.7,53.68,80.5,87.05c15.48,22.67,39.81,39.18,59.51,59.11c1.83,1.86,4.11,3.38,6.08,5.1  c1.88,1.64,3.73,3.33,5.54,5.04c3.3,3.14,6.47,6.43,9.51,9.82c5.74,6.41,10.98,13.25,16.21,20.08c1.48,1.93,3.41,3.85,4.52,6.01  c1.13,2.2,1.17,5.98-2.07,6.19c-2.63,0.18-3.8-0.97-5.54-2.75c-1.83-1.86-3.58-3.79-5.3-5.74c-3.46-3.92-6.8-7.95-10.36-11.78  c-1.42-1.52-2.86-3.02-4.36-4.45c-0.98-0.93-4.16-1.65-5.23-0.63c-1.1,1.03,0.04,4.44,0.78,5.48c2.04,2.93,3.41,6.19,5.7,8.95  c2.7,3.26,4.9,6.84,7.44,10.21c1.44,1.9,5.36,5.47,3.73,8.19c-2.1,3.5-9.32-6.66-10.34-8.03  C815.49,928.87,815.14,928.4,814.79,927.94"
   id="path24"
   style="fill:#f9eec8;fill-opacity:1" />
<path
   d="M1046.23,476.65c-0.5,0.48-1.23,0.79-1.92,1.06c-2.92,1.13-6.06,1.6-9.11,2.25c-21.13,4.49-42.16,10.26-63.55,12.47  c-43.7,4.51-86.42,14.27-129.63,21.32c-17.04,2.77-34.29,4.27-51.49,6.02c-1.41,0.15-4.49-0.06-5.46-1.33  c-1.88-2.44,2.7-4.45,4.43-5.22c2.2-0.97,4.84-1.21,7.18-1.67c5.67-1.13,11.37-2.11,17.07-3.13c11.32-2.03,22.66-4.21,33.56-7.94  c31.89-10.91,66.16-22.59,97.3-35.55c7.68-3.19,15.14-6.88,22.73-10.28c8.85-3.97,18.36-6.28,26.95-10.84  c6.57-3.5,12.84-7.57,19.59-10.74c3.38-1.59,6.89-2.96,10.53-3.84c2-0.49,13.11-3.22,10.28,2.45c-0.94,1.88-3.43,1.9-5.23,2.05  c-3.08,0.25-9.8,3.31-8.9,7.46c0.37,1.7,3.2,2.01,4.54,2.14c3.58,0.34,10.11-0.57,13.7-0.3c3.25,0.25,3.98,4.16,0.38,4.63  c-26.88,3.56-48.4,20.23-77.09,18.54c-6.21-0.37-13.35,5.71-18.71,8.5c-3.98,2.06-9.49,2.11-13.8,3.61  c-1.04,0.36-2.12,0.78-2.82,1.62c-3.66,4.37,6.37,5.87,8.61,5.9c2.46,0.04,4.93,0.01,7.39-0.08c4.76-0.17,9.51-0.57,14.23-1.2  c9.34-1.24,18.54-3.35,27.59-5.92c9.6-2.72,18.83-6.78,28.64-8.65c2.57-0.49,4.91-0.97,7.13-2.41c3.24-2.1,6.15-3.94,9.74-5.42  c2.34-0.97,4.99-1.72,7.53-1.84c1.01-0.05,2.45-0.1,3.28,0.6c1.06,0.92,0.97,2.47-0.25,3.19c-2.34,1.38-12.25,4-11.01,7.57  c0.69,1.93,1.1,3.7,7.15,2.4c2.42-0.52,4.73-1.73,7.28-1.52c1.2,0.09,2.54,1.09,2.74,2.34  C1046.92,475.67,1046.66,476.22,1046.23,476.65"
   id="path25"
   style="fill:#f9eec8;fill-opacity:1" />
<path
   d="M730.42,743.32c-26.61-24.24-51.68-50.18-74.99-77.62c-16.79-19.76-32.74-40.37-51.86-57.88c-2.7-2.47-6.5-5.03-9.71-3.27  c-4.35,2.38-2.13,9,0.6,13.14c8.14,12.34,16.27,24.68,24.41,37.02c19.56,29.67,39.37,59.63,65.29,83.95  c17.49,16.41,37.49,29.98,54.81,46.57c15.09,14.45,27.95,30.99,40.09,47.93c3.05,4.25,6.05,8.52,9.05,12.81  c2.5,3.58,5.33,5.71,8.3,8.79c7.48,7.78,15.04,15.48,22.86,22.92c5.47,5.2,11.04,10.31,16.69,15.32c2.99,2.65,5.88,5.42,8.86,8.08  c1.81,1.62,3.62,3.24,5.51,4.76c0.89,0.72,1.78,1.88,3.07,1.46c1.57-0.5,1.63-2.66,1.35-4.05c-0.59-3-2.96-5.76-5.26-7.63  c-18.93-15.42-36.75-32.2-53.27-50.18c-1.9-2.07-3.47-5.99-0.88-7.08c1.55-0.66,3.2,0.55,4.44,1.68  c10.66,9.66,21.33,19.31,31.99,28.97c5.24,4.75,10.49,9.5,15.73,14.25c3.52,3.19,6.45,7.01,9.99,10.2c1.42,1.27,3.58,3.58,5.6,3.84  c2.66,0.33,2.53-3.21,1.86-4.93c-1.49-3.81-5.02-6.99-8.09-9.54c-33.51-27.97-67.4-55.6-98.41-86.32  c-12.76-12.64-25.01-25.78-36.71-39.4c-1.38-1.61-2.82-3.36-3.01-5.47c-0.2-2.1,1.52-4.5,3.6-4.14c0.95,0.16,1.74,0.84,2.46,1.48  c4.96,4.42,9.91,8.83,14.87,13.25c45.46,40.5,90.91,81.01,136.36,121.51c2.82,2.51,8.51,4.23,9.25,0.53c0.4-1.97-1.39-3.65-3-4.86  c-13.03-9.86-26.06-19.73-39.1-29.6c-2.85-2.16-5.67-4.55-7.8-7.45c-1.05-1.43-2.01-3.05-2.3-4.82c-0.18-1.1-0.24-3.7,0.84-4.41  c1.32-0.86,4.67,0.68,5.89,1.3c3.76,1.92,6.67,5.06,9.79,7.81c3.42,3.02,6.99,5.89,10.54,8.75c7.47,6.04,15.07,11.92,22.65,17.84  c3.61,2.82,7.62,5.8,12.2,5.64s8.94-5.45,6.45-9.28c-0.89-1.36-2.38-2.19-3.81-2.96c-17.75-9.62-35.47-18.44-52.49-29.31  C804.38,806.87,766.17,775.89,730.42,743.32"
   id="path26"
   style="fill:#f9eec8;fill-opacity:1" />
<path
   d="M936.41,415.49c-0.24,0.93-0.21,1.91,0.23,2.77c1.57,3.06,6.57,2.2,9.28,1.67c3.78-0.75,7.32-2.36,10.79-3.97  c5.72-2.66,9.93-5.16,15.82-7.43c14.07-5.4,30.25-14.71,44.2-20.47c1.24-0.52,2.82-0.21,4.48,0.27c3.09,0.91,3.12,4.72,2.08,7.2  c-0.26,0.62-0.76,1.11-1.26,1.58c-3.15,3.01-7.78,3.57-11.69,5.11c-4.56,1.8-9.09,3.71-13.59,5.66c-9,3.89-17.95,7.94-27.09,11.49  c-14.06,5.47-28.68,9.71-43.8,10.61c-22.87,1.36-45.45,6.5-66.12,18.27c-5.42,3.09-11.3,6.18-17.49,6.91  c-2.79,0.33-5.81,0.49-8.59,0.07c-0.86-0.13-1.92-0.9-2.51-1.49c-1.26-1.28-0.62-2.7,0.49-3.85c2.55-2.63,5.23-5.16,8.04-7.51  c3.62-3.02,7.46-5.73,11.24-8.54c18.7-13.9,38.42-25.19,61.5-27.38c25.32-2.4,38.01-7.81,67.37-25.36  c7.3-3.7,23.85-10.94,33.31-10.29c3.69,0.25,4.9,5.15,1.74,7.06c-7.12,4.32-23.21,7.87-30.66,11.58  c-11.45,5.7-23.78,9.69-34.98,15.78c-3.72,2.02-7.18,4.82-10.67,7.21C937.53,413.11,936.73,414.26,936.41,415.49"
   id="path27"
   style="fill:#f9eec8;fill-opacity:1" />
<path
   d="M827.22,178.61c0.01,0.04,0.01,0.08,0.02,0.12c0.14,0.67,0.56,1.25,1.07,1.71c1.7,1.54,4.3,1.77,6.49,1.08  c2.19-0.69,4.05-2.14,5.77-3.66c5.3-4.7,11.97-9.64,18.62-12.28c1.83-0.72,3.61,1.13,2.81,2.92c-1.39,3.11-9.66,9.05-11.84,11.43  c-40.42,44.18-81.11,88.12-121.73,132.12c-2.87,3.12-5.22,5.91-8.64,8.46c-3.62,2.7-7.24,5.39-10.86,8.09  c-0.78,0.59-1.59,1.19-2.55,1.4c-0.95,0.22-2.08-0.04-2.6-0.87c-0.67-1.07-0.06-2.45,0.58-3.53c6.67-11.34,17.34-19.66,25.54-29.85  c8.28-10.3,15.48-21.41,22.12-32.82c6.46-11.11,12.42-22.5,18.44-33.85c2.33-4.39,5.69-8.3,8.98-12.07  c8.11-9.31,16.22-18.61,24.43-27.84c7.1-7.97,13.94-16.28,22.23-23.08c3.82-3.13,7.71-6.22,11.85-8.91c1.4-0.91,6.51-4.77,8.29-2.98  c1.7,2.89-3.69,6.86-5.41,8.44c-4.07,3.75-7.78,7.96-11.62,11.96C828.13,175.71,826.96,177.09,827.22,178.61"
   id="path28"
   style="fill:#f9eec8;fill-opacity:1" />
<path
   d="M843.53,791.35c-42.41-18.72-73.01-52.91-106.59-82.79c-9.03-8.03-19.04-14.82-29.05-21.55  c-5.06-3.4-10.12-6.78-15.08-10.33c-2.48-1.77-4.93-3.59-7.33-5.45c-1.7-1.32-3.85-3.95-5.86-4.62c-1.2-0.4-2.65-0.16-3.49,0.78  c-2.98,3.34,8.43,14.05,10.51,16.65c20.31,25.35,45.21,46,69.94,66.6c25.89,21.56,52.86,41.87,79.98,61.88  c18.18,9.73,36.37,19.57,53.99,30.28c3.94,2.38,8.36,4.71,11.72,7.9c4.49,4.13,12.74,7.71,13.85,3.3c0.82-4.4-1.55-6.05-11.1-11.83  c-9.63-4.18-19.09-8.8-28.42-13.63c-4.59-2.37-34.79-17.04-30.11-24.27c1.93-2,3.85-3.23,9.63,0c9.9,4.61,60.37,33.08,64.03,29.71  c2.01-2.26,0.72-3.91-2.07-4.74C912.27,827.31,843.53,791.35,843.53,791.35"
   id="path29"
   style="fill:#f9eec8;fill-opacity:1" />
<path
   d="M531.33,320.85c0.02,0.06,0.05,0.12,0.07,0.18c1.97,5.08,4.68,2.18,6-1.74c1.23-3.65,1.42-7.58,2.68-11.2  c9.05-25.93,11.44-53.79,14.55-80.94c6.18-53.92,4.11-109.54,7.57-163.98c0.18-2.89,2.23-6.88,4.72-5.41  c1.24,0.73,1.42,2.41,1.47,3.85c0.21,6.92,0.43,13.84,0.65,20.76c0.05,1.49,0.15,3.12,1.16,4.2c1.67,1.78,4.89,0.9,6.3-1.1  c1.41-1.99,1.52-4.59,1.58-7.03c0.22-8.69,0.43-17.38,0.65-26.06c0.09-3.77,1.67-8.89,5.4-8.33c3.26,0.49,3.88,4.88,3.65,8.17  c-3.09,44.18-11.11,87.79-18.81,131.35c-2.9,16.44-5.77,32.88-8.32,49.38c-1.25,8.13-2.43,16.28-3.5,24.44  c-0.3,2.25-0.95,4.44-1.18,6.7c-0.71,6.91,5.13,4.4,6.36-0.55c4.32-17.5,8.88-34.98,12.01-52.71c5.25-29.76,11.78-59.82,16.54-89.66  c1.79-11.17,3.87-22.28,5.95-33.4c1.31-7.01,2.83-13.97,4.14-20.97c0.68-3.65,1.26-7.31,1.83-10.98c0.4-2.6,2.61-5.09,4.56-1.92  c1.29,2.08,0.75,6.41,3.88,6.92c3.28,0.53,6.24-7.52,9.67-7.89c4.43-0.47-0.1,15.55-0.5,17.06c-11.3,42.35-21.5,84.59-28.46,127.92  c-3.24,20.12-9.35,40.03-19.92,58.87c-4.95,8.82-6.79,19.22-8.76,29.03c-2.18,10.86-3.96,21.81-5.33,32.8  c-2.76,21.99-3.92,44.18-3.44,66.33c0.11,5.1,0.3,10.19,0.58,15.28c0.24,4.44,0.55,8.98-0.68,13.25c-1.23,4.27-4.32,8.31-8.65,9.32  c-4.92,1.15-10.05-1.94-12.83-6.16c-2.78-4.22-3.71-9.35-4.55-14.34c-3.3-19.58-6.1-39.33-7.01-59.17  c-0.55-11.98-0.57-23.98-1.07-35.96c-0.48-11.73-2.57-23.05-3.62-34.66c-0.55-6.02,0.47-10.97,1.54-16.76  c1.13-6.16-1.69-11.52-4.26-16.94c-8.78-18.55-7.8-39.2-8.91-59.18c-0.57-10.18-3.17-19.58-4.59-29.55  c-1.39-9.84-0.45-19.76,0.14-29.61c0.33-5.53,2.03-16.25-2.16-20.74c-3.78-4.05-3.91-13.05-4.53-18.16  c-1.08-8.84-1.68-17.76-1.89-26.66c-0.09-3.96-1.2-8.69,1.24-12.21c2.82-4.08,5.22,0.32,5.54,3.47c0.74,7.34-2.2,35.95,0.37,42.56  c0.57,1.46,1.7,6.22,3.52,6.81c6.19,2.01,5.58-21.96,5.71-25.38c0.28-7.61,1.07-15.65,0.3-23.25c-0.37-3.67,4.04-5.87,4.04-1.1  c0,4.77,1.1,44.02,0,54.66c-1.11,10.71-0.15,21.77,0.04,32.5c0.23,13.05-2.23,26.75-0.01,39.66c1.84,10.7,3.48,20.9,3.81,31.77  c0.27,8.75,0.23,18.2,2.66,26.67c0.96,3.37,3.8,3.22,6.02,1.71c1.13-0.76,2.09-1.86,2.57-3.02c2.35-5.63-1.77-14.75-2.74-20.44  c-2.67-15.67-1.91-30.93,3.02-45.84c3.42-10.36,3.92-21.39,0.94-31.88c-4.81-16.91-2.82-39.39-4.29-57.48  c-0.09-1.1-0.11-2.87-0.05-3.97c0.21-4.22,0.27-9.67,1.54-14.56c0.41-1.61,2.75-7.04,3.95-2.23c0.9,3.62-1.55,23.44,5.3,24.2  c4.3,0.47,5.34-7.95,5.81-10.75c0.55-3.34,1.22-6.65,1.94-9.96c0.65-2.98,0.84-7.94,2.41-10.53c1.43-2.35,3.28-2.52,4.33,0.03  c0.49,6.09-0.81,12.01-1.74,16.54c-5.13,24.82-8.96,50.03-4.83,75.4c1.68,10.33-1.2,21.39-1.96,32.13  c-1.84,26.34,3.21,55.2-3.76,81.94c-1.15,4.4-1.2,9.39-1.89,13.9c-0.73,4.76-1.54,9.51-2.42,14.24c-1.48,8.04-4.44,15.83-5.01,24.03  C528.02,309.76,529.43,315.92,531.33,320.85"
   id="path30"
   style="fill:#f9eec8;fill-opacity:1" />
<path
   d="M236.01,696.27c6.25-2.6,12.53-4.81,19.1-6.86c7.97-2.48,14.96-6.38,23.5-6.83c27.28-1.46,48.49-15.64,65.05-35.36  c15.61-18.59,37.54-25.1,56.68-37.42c14.49-9.32,28.96-18.5,44.11-26.74c2.48-1.35,15.3-5.8,18.3-6.19  c1.88-0.24,3.15,1.88,2.04,3.41c-1.89,2.61-5.72,4.36-8.25,6.27c-2.04,1.54-4.04,3.15-5.8,5c-1.47,1.55-2.58,4.74-4.37,5.83  c-1.91,1.18-5.91,1.07-8.14,1.39c-1.34,0.2-4.3,0.02-5.46,0.79c-8.54,3.94-7.24,10.92-17.43,23.6  c-10.24,12.74-27.29,23.92-38.66,35.88c-11.51,12.1-23.89,22.85-40.91,27.46c-2.78,0.75-4.99,2.71-6.7,4.97  c-2.61,3.44-3.67,7.39-6.73,10.55c-3.46,3.57-6.87,7.2-10.3,10.79c-6.74,7.08-13.63,14.05-21.2,20.24  c-23.37,19.1-49.64,36.48-73.83,54.54c-23.91,17.85-47.38,36.28-71.42,53.95c-2.37,1.74-4.9,3.26-7.09,5.22  c-1.32,1.17-3.38,4.85-5.45,4.18c-5-1.61,3.82-8.46,4.75-9.66c0.62-0.8,5.52-7.33,1.84-6.58c-1.15,0.24-2.28,0.71-3.34,1.18  c-1.21,0.53-2.42,1.13-3.49,1.93c-0.58,0.43-1.01,1.04-1.53,1.54c-0.9,0.88-1.97,1.55-2.85,2.44c-2.51,1.81-6.72,1.22-4.2-2.68  c2.15-3.32,5.41-5.64,8.75-7.51c4.29-2.39,8.96-4.39,12.9-7.35c11.56-8.67,25.65-16.91,36.32-26.23c4.15-3.62,8.15-7.41,12.25-11.09  c2.12-1.9,4.26-3.78,6.46-5.6c1.42-1.17,3.4-2.65,3.91-4.53c0.52-1.94-0.69-4.28-2.84-4.31c-1.46-0.02-3.3,0.81-4.5,1.59  c-21.61,13.93-48.14,30.75-69.68,44.77c-2.4,1.56-5,3-7.71,3.85c-1.29,0.41-3.41,0.87-4.74,0.39c-2.95-1.08,4.07-5.97,5.03-6.67  c1.94-1.39,4.05-2.55,5.93-4.02c1.48-1.16,5-4.81,1.02-4.26c-2.67,0.37-2.94,0.16-5.47,0.9c-2.04,0.59-6.03,2.69-7.89,3.79  c-1.4,0.83-5.28,3.59-5.46,0.71c-0.17-2.78,4.64-5.5,6.66-6.61c9.83-5.42,21.2-9.23,30.72-14.4c25.89-14.05,49.3-29.02,75.76-44.21  c19.36-11.11,35.95-19.9,54.76-31.91c6.81-4.35,15.45-10.27,22.42-14.31c13.75-7.97,26.14-17.98,38.1-28.39  c6.09-5.3,12.07-10.72,18.13-16.05c2.87-2.53,5.7-5.49,8.91-7.56c2.67-1.71,5.67-2.58,7.78-5.23c2.4-3.01,4.91-5.99,7.83-8.51  c1.45-1.25,3.01-2.4,4.69-3.3c0.62-0.33,2.35-0.93,1.92-2.05c-0.41-1.1-2.32-0.36-3.05-0.04c-1.45,0.65-2.88,1.32-4.32,2  c-3.99,1.87-9.87,3.57-12.67,7.16c-0.81,1.03-1.35,2.25-2.15,3.28c-6.04,7.76-15.37,11.32-23.51,16.24  c-7.79,4.71-14.13,11.24-20.88,17.25c-5.74,5.11-11.16,10.79-17.91,14.6c-7.42,4.18-15.52,7.37-23.06,11.4  c-45.65,24.43-90.71,47.5-136.08,72.45c-8.16,4.49-15.2,10.97-23.15,15.9c-6.25,3.87-18.56,12.44-25.1,4.75  c-0.77-0.91-1.38-2.02-1.45-3.21c-0.12-1.72,0.88-3.36,2.21-4.46c4.74-3.91,11.38-6.94,16.71-10.11  c5.98-3.56,12.07-6.94,18.26-10.11c13.92-7.15,23.91-14.5,37.88-21.54c6.76-3.4,14.25-5.04,21.01-8.45  c6.6-3.33,12.82-7.59,16.96-13.49c4.04-5.73,9.08-8.04,15.29-10.78c3.89-1.71,7.87-4.33,8.99-8.42c0.07-0.26,0.14-0.55,0.07-0.81  c-0.27-1.1-1.92-0.75-2.88-0.15c-1.04,0-3.34,2.07-4.26,2.64c-1.68,1.04-3.35,2.08-5.03,3.12c-3.22,2-6.44,4.01-9.66,6.02  c-5.56,3.46-10.24,6.65-16.67,8.13c-6.34,1.46-12.38,5.47-18.11,8.41c-6.59,3.38-13.17,6.77-19.75,10.16  c-13.13,6.77-26.25,13.56-39.39,20.31c-3.5,1.8-7.01,3.59-10.51,5.38c-2.63,1.35-5.33,2.67-8.2,3.43c-1.77,0.47-4.02,1.13-5.89,0.81  c-2.9-0.5-2.38-3.9-0.43-5.57c3.17-2.71,14.49-6.21,16.25-10.2c1.3-2.96-8.5-0.71-10.04-0.71c-2.42,0.43-4.7,1.64-7.12,2.14  c-0.94,0.2-2.56,0.64-3.47,0.1c-1.57-0.92-0.28-2.41,0.92-3.04c4.1-2.15,8.16-4.53,12.55-6.02c25.74-8.51,42.74-21.1,75.58-24.4  c9.38-0.94,16.63-7.97,24.74-11.94c9.95-4.87,20.2-9.29,30.25-13.98C231.42,698.23,233.71,697.23,236.01,696.27"
   id="path31"
   style="fill:#f9eec8;fill-opacity:1" />
<path
   d="M569.75,811.3c1.94,4.92,4.1,9.77,5.68,14.82c4.5,14.37,6.26,30.6,7.7,45.55c1.01,10.55,1.75,21.12,2.19,31.71  c0.43,10.01,0.46,19.37,2.73,29.18c3.07,12.29,7.6,24.28,8.53,37.01c0.69,9.38,1.56,18.75,2.35,28.13  c0.41,4.85,3.79,29.64-2.29,29.63c-5.8,0.36-7.02-13.26-6.49-16.98c4.3-30.55-5.55-62.36-15.61-91.03  c-1.71-4.86-2.78-9.91-3.3-15.03c-1.3-12.81-2.43-26-2.43-38.91c-0.55-8.11,1.03-19.03,0.43-27.14c-1.09-14.99-5.6-26.66-8.44-41.46  c-3.06-16-6.98-32.03-10.34-47.91c-2.5-11.84-5.51-22.7-6.79-34.84c-1.53-14.57-2.18-29.23-1.93-43.88  c0.22-13.12-0.92-30.03,3.76-42.43c1.34-3.54,3.53-7.55,7.3-7.85c1.96-0.15,3.85,0.8,5.39,2.04c6.59,5.32,7.56,14.8,8.27,23.24  c8.72,102.95,54.49,198.94,75.28,300.14c2.68,13.03,6.7,25.73,10.57,38.45c1.97,6.47,3.92,12.96,5.64,19.5  c1.15,4.36,2.78,8.64,3.11,13.18c0.24,3.27-1.14,8.44-5.29,7.93c-3.39-0.41-4.33-3.62-4.85-6.54c-2.12-12.07-3.28-24.74-7-36.39  c-3.37-10.57-7.47-20.98-9.85-31.84c-1.5-6.88-2.69-13.96-4.68-20.72c-5.1-17.3-11.07-18.83-14.6-36.53  c-0.23-1.14-0.76-2.36-1.84-2.79c-4.19-1.68-3.21,10.39-2.96,12.12c0.78,5.39,2.63,10.55,3.59,15.9c1.87,10.42,3.7,20.85,5.54,31.27  c3.57,20.35,7.12,40.71,10.86,61.03c0.47,2.57-0.21,7.9-1.96,9.84c-2.16,2.39-5.88,2.46-7.98,0c-2.09-2.45-1.61-6.52-2.05-9.72  c0.4-24.26-4.03-40.89-7.3-70.85c-5.14-19.82-20.97-115.76-38.52-169.16c-0.92-2.8-1.86-5.58-2.87-8.35  c-0.78-2.13-0.84-4.87-2.31-6.66c-5.09-6.24-5.77,7.15-5.55,9.7c0.4,4.59,1.67,9.07,1.98,13.73c0.55,8.09,1.19,16.75,3.41,24.57  C567.65,805.79,568.66,808.56,569.75,811.3"
   id="path32"
   style="fill:#f9eec8;fill-opacity:1" />
<path
   d="M319.59,953.88c3.9-9.04,8.94-15.28,15.13-21.46c9.62-9.6,18.45-17.06,24.49-29.03c0.05-0.09,4.63-7.2,4.68-7.29  c2.78-5.49,3.84-11.69,6.61-17.14c3.77-7.43,7.56-14.93,11.21-22.47c1.72-3.56,3.41-7.14,5.04-10.71c1.11-2.43,3.43-10.02,7.09-9.51  c2.39,0.33,2.76,4.02,2.56,5.87c-0.3,2.64-1.48,5.07-2.11,7.63c-1.01,4.1-2.94,16.79-3.99,20.88c-4.8,18.65-10.6,29.05-22.98,44.16  c-8.44,10.31-15.3,22.09-22.35,33.37c-3.24,5.17-6.4,10.38-9.58,15.58c-2.08,3.4-4.49,6.59-6.56,10.01c-1,1.67-2.48,3.69-2.42,5.73  c0.03,1.01,0.49,2.1,1.53,2.47c2.52,0.88,6.08-7.08,7.1-8.74c3.21-5.21,6.31-10.48,9.62-15.62c3.49-5.43,7.85-9.56,14.71-10.27  c3.14-0.32,1.06,5.67,0.4,6.69c-4.24,8.48-10.06,16.43-15.39,24.25c-0.9,1.31-2.77,2.95-2.77,4.64c0.44,3.38,5.84,0.25,6.96-0.95  c2.71-2.92,4.9-6.65,7.28-9.87c2.58-3.49,5.18-6.98,7.79-10.44c10.36-13.77,21.04-27.3,31.49-41.01  c4.05-5.32,8.39-10.58,11.14-16.74c2.93-6.57,4.16-14.05,5.73-21.04c3.5-15.57,6.25-31.3,9.04-47.01  c6.51-36.8,11.28-74.96,17.06-111.89c0.44-2.82,5.55-14.59,6.97-16.88c9.85-15.81,16.5-25.19,28.61-39.07  c13.53-15.49,13.31-32.71,17.06-50.82c0.24-1.15-0.55-3.26-1.45-3.7c-0.97-0.47-2.99,0.11-3.95,0.93c-2.15,1.84-3.98,4.09-5.86,6.23  c-25.26,28.64-40.1,51.77-70.37,81.12c-9.34,10.6-27.09,25.57-33.93,37.6c-9.86,17.33-16.32,37.97-24.21,60.35  c-6.15,12.92-14.75,20.28-23.67,31.21c-15.92,19.52-29.42,38.33-47.05,56.38c-10.49,10.75-14.29,13.44-25.04,23.94  c-4,3.9-8.64,7.05-12.69,10.9c-1.35,1.27-6.53,6.42-1.75,6.51c2.43,0.05,4.99-1.48,7.42-1.04c2.29,0.41,2.4,3.68,1.38,5.23  c-0.74,1.11-3.1,3.44-1.36,4.66c0.95,0.66,2.71,0.61,3.7,0.14c1.99-0.95,3.17-3.17,4.71-4.66c14.11-13.74,23.91-31.02,36.55-45.99  c5.44-6.44,12.07-12.53,16.8-19.5c3.28-4.82,10.25-20.03,17.34-20.09c8.58-0.05-5.15,21.5-6.82,24.2  c-4.41,7.17-10.21,13.29-15.61,19.69c-0.29,0.34-0.57,0.68-0.87,1.03c-7.17,8.51-14.23,17.11-21.18,25.8  c-4.59,5.73-9.11,11.51-13.63,17.3c-1.84,2.37-4.13,4.72-5.49,7.41c-0.47,0.93-0.75,1.98-0.62,3.01c0.04,0.25,0.1,0.52,0.28,0.69  c0.33,0.31,0.87,0.21,1.3,0.06c3.16-1.06,5.55-3.51,8.88-4.13c1.29-0.24,3.15-0.53,4.14,0.56c0.56,1.16-3.02,8.56-1.92,10.39  c0.65,1.1,5.46-1.84,6.95-3.65c13.66-16.67,25.89-34.53,38.88-51.72c3.89-5.15,7.79-10.28,11.64-15.46  c15.26-20.52,29.92-41.83,39.65-65.62c2.45-6,4.58-12.13,6.34-18.36c1.58-5.63,2.18-11.74,4.64-17.07  c4.61-10.01,13.63-17.09,16.62-28.04c1.04-3.8,3.88-11.75,4.03-12.03c1.72-3.03,3.9-5.8,6.18-8.44c0.77-0.9,9.97-11.2,10.52-7.24  c0.71,5.14-12.33,34.31-14.13,40.1c-1.81,5.83-3.73,11.64-5.73,17.41c-3.56,10.28-7.34,20.47-11.11,30.68  c-3.06,8.3-5.49,16.92-9.06,25.02c-3.33,7.55-7.59,14.68-12.64,21.19c-6.38,8.22-12.21,16.91-18.48,25.23  c-12.44,16.51-23.19,32.35-37.25,47.38c-4.32,4.62-8.12,9.7-11.56,15.01c-2.39,3.7-4.74,7.43-7.1,11.14  c-1.01,1.59-2.02,3.59-0.87,5.42c2.03,3.21,7.45-6.31,8.2-7.62c1.26-2.18,2.93-3.98,4.71-5.75c1.39-1.39,4.01-4.49,6.23-4.39  c2.65,0.11,3.17,3.99,0.41,8.53c0,0-7.68,11.04-5.09,12.38C309.65,969.04,318.7,955.93,319.59,953.88"
   id="path33"
   style="fill:#f9eec8;fill-opacity:1" />
<path
   d="M863.33,772.19c-10.74-3.15-20.12-9.99-30.09-14.98c-7.44-3.72-14.59-7.98-21.83-12.07c-2.31-1.3-24.55-16.62-24.91-8.82  c-0.05,1.03,0.76,1.88,1.51,2.6c2.38,2.27,4.72,4.58,7.13,6.81c28.77,26.69,38.96,27,74.47,42.23c8.01,4.66,16.11,9.21,24.24,13.66  c11.91,6.53,24.04,13.62,36.85,18.27c1.36,0.49,3.05,1.26,4.53,1.26c2.05,0.01,3.66-1.42,2.94-3.6c-0.91-2.77-4.88-3.55-7.17-4.64  c-3.5-1.67-7.15-3.02-10.69-4.6c-8.14-3.64-16.3-7.25-24.36-11.07c-5.31-2.52-14.47-5.25-14.47-12.33c0-1.14,0.36-2.45,1.4-2.91  c1.87-0.84,5.93,1.55,7.75,2.32c2.98,1.26,5.95,2.55,8.92,3.84c7.65,3.33,15.3,6.68,22.97,9.97c6.09,2.61,12.19,5.21,18.36,7.62  c3.16,1.23,6.43,3.46,9.97,3.09c1.33-0.14,2.67-0.73,3.49-1.8c0.81-1.08,0.99-2.66,0.24-3.78c-0.69-1.04-1.98-1.5-3.21-1.74  c-5.93-1.13-11.98-2.86-17.65-4.95c-10.4-3.82-19.6-8.74-30.02-12.51c-12.19-4.41-24.59-8.33-37.27-11.08  C865.4,772.76,864.36,772.49,863.33,772.19"
   id="path34"
   style="fill:#f9eec8;fill-opacity:1" />
<path
   d="M960.63,755.15c-11-1.52-21.94-5.54-32.42-9.46c-25.84-9.66-51.84-18.94-77.26-29.64c-3.92-1.65-7.84-3.34-11.61-5.29  c-1.24-0.65-9.27-3.95-6.28-6.45c0.83-0.69,2.03-0.62,3.09-0.46c5.73,0.88,11.03,3.47,16.34,5.79c9.56,4.17,17.27,9.53,27.59,11.05  c10.21,1.51,23.15-0.74,32.68,3.23c11.04,4.59,18.97,14.06,29.24,19.92c2.07,1.19,4.2,2.13,6.45,2.86c2.76,0.9,5.37,2.18,8.18,2.98  c3.56,1.01,7.22,1.69,10.91,2c1.88,0.17,3.77,0.23,5.65,0.21c1.69-0.02,3.48-0.18,5.03,0.61c1.67,0.85,1.06,2.26-1.84,2.82  C970.34,756.49,966.7,755.98,960.63,755.15"
   id="path35"
   style="fill:#f9eec8;fill-opacity:1" />
<path
   d="M730.88,619.74c-0.81-0.24-1.6-0.55-2.35-0.93c-5.27-2.68-10.21-5.93-15.62-8.37c-5.31-2.4-10.35-3.39-16.05-4.31  c-1.2-0.19-2.09,1.1-1.48,2.16c1.15,2.01,2.61,3.84,3.98,5.7c0.81,1.11,1.65,2.1,2.57,2.98c1.58,1.54,3.38,2.77,5.54,3.77  c3.08,1.42,6.41,2.37,9.45,3.75c12.29,5.54,24.51,10.16,37.87,12.41c2.89,0.49,5.81,0.9,8.59,1.81c4.59,1.51,8.6,4.33,12.58,7.07  c9.74,6.72,19.59,11.64,31.26,13.95c8.83,1.74,17.58,2.71,26.27,5.28c18.4,5.44,29.35,13.21,55.96,13.5  c0.21,0,19.38,1.89,23.92,2.71c6.12,1.28,11.9,3.69,18.14,4.41c6.25,0.72,12.55,0.4,18.82,0.74c8.8,0.47,17.65,1.41,26.15,3.84  c10.27,2.94,32.1-2.38,35.59-2.75c3.49-0.37,4.04,0.92,4.4,2.93c0.65,3.56-4.85,5.97-7.56,6.64c-3.92,0.96-8.01,0.71-12.01,0.87  c-7.66,0.31-15.32,0.29-22.98,0.2c-15.41-0.18-16.69-6.05-24.77-7.71c-8.07-1.65-16.88,1.29-30.82-1.28  c-13.94-2.57-10.68,2.41-10.68,2.41c2.85,3.15,7.39,6.32,10.68,7.11c22.58,3.51,43.55,15.81,66.96,13.4c3.52-0.36,6.71-2,10.17-2.58  c2.55-0.43,8.33,0.07,9.1,3.33c0.87,3.65-8.75,5.7-11.21,6.23c-6.28,1.36-15.02,2.13-21.28,1.29c-29.08-3.91-57.64-9.98-86.68-14.2  c-16.25-2.37-32.01-7.2-47.24-13.23c-12.77-5.04-25.19-10.9-37.57-16.8c-6.02-2.86-11.99-6.06-18.2-8.45  c-4.59-1.76-9.43-3.07-14.2-4.28c-6.06-1.54-15.71-4.84-21.44-7.34c-12.44-5.41-24.68-11.94-34.9-21c-2.31-2.05-4.52-4.22-6.57-6.52  c-2.19-2.44-3.92-5.27-6.28-7.58c-0.9-0.88-1.87-1.68-2.83-2.48l-5.04-4.17c-3.67-3.03-7.65-5.67-11.88-7.85  c-9.67-5-19.61-9.1-29.01-14.59c-3.62-2.11-8.93-7.05-11.41-10.45c-0.88-1.21-1.4-2.68-1.81-4.23c-0.6-2.26,1.52-4.34,3.79-3.78  c3.67,0.9,5.89,2.51,8.75,4.95c0.45,0.39,0.91,0.76,1.38,1.14c8.04,6.38,17.94,9.63,27.58,12.78c10.09,3.3,20.35,6.16,30.13,10.33  c1.99,0.85,4.21,1.28,6.02,2.39c4.29,2.63,8.8,4.89,13.41,6.91c4.83,2.12,9.32,4.49,14.72,4.39c3.7-0.07,7.38,0.3,11.06,0.6  c3.54,0.29,18.01,0.71,21.56,0.88c10.93,0.53,10.56,2.45,21.24,4.63c10.98,2.25,21.97,4.53,32.96,6.76  c11.61,2.35,23.22,4.77,34.69,7.8c5.32,1.4,10.56,3.44,15.93,4.57c6.93,1.47,14.15,0.76,21.17,1.06c7.53,0.33,15.04,0.92,22.54,1.58  c15,1.31,30.01,2.87,45.09,3.05c0.9,0.01,1.81,0.02,2.71,0.02c3.79-0.01,7.58-0.03,11.36-0.05c7.98-0.04,15.97-0.08,23.94-0.62  c6.96-0.47,15.07-3.32,21.85-0.77c2.59,0.98,2.55,4.58,0.78,6.38c-4.27,4.34-10.73,2.59-16.32,2.88  c-7.18,0.38-14.39,0.09-25.35,0.09c-6.05,0-12.15-0.53-18.22-0.55c-3.5-0.01-7.01-0.04-10.5-0.19c-2.25-0.09-8.17-1.64-9.89,0.14  c-3.42,3.51,13.76,8.91,15.49,9.34c5.41,1.34,11.04,1.5,16.58,1.56c21.33-1.24,26.6,2.82,30.64,4.17c2.7,0.9,2.83,4.68,0.18,5.73  c-4.25,1.68-23.73,0.07-27.85-0.22c-27.22-1.86-54.7-3.37-81.43-8.45c-32.39-6.16-64.19-15.52-96.08-24.08  c-10.31-2.77-20.15-7.36-30.17-11.2c-5.48-2.1-10.95-4.22-16.41-6.39c-4.54-1.8-9.19-3.44-14.07-3.96  C741.44,620.47,735.71,621.18,730.88,619.74"
   id="path36"
   style="fill:#f9eec8;fill-opacity:1" />
<path
   d="M267.22,235.52c4.53,4.75,9.34,9.21,14.57,13.25c2.22,1.71,5.63,3.28,7.54,1.22c1.87-2.02,0.2-5.22-1.49-7.39  c-22.73-29.28-45.45-58.56-68.17-87.84c-1.62-2.09-2.77-5.94-0.24-6.69c1.31-0.39,2.61,0.57,3.63,1.47  c13.39,11.78,25.53,24.92,36.7,38.81c11.29,14.02,21.6,28.79,31.46,43.84c9.95,15.17,19.44,30.63,29.03,46.02  c9.58,15.36,19.28,30.67,29.64,45.54c10.28,14.74,21.22,29.06,33.28,42.39c2.23,2.47,4.49,4.9,6.8,7.29  c1.14,1.19,4.78,6.34,6.73,4.08c0.44-0.51,0.53-1.25,0.39-1.91c-0.56-2.69-2.23-5.57-3.4-8.06c-1.4-2.99-2.95-5.92-4.56-8.8  c-3.19-5.69-6.72-11.19-10.26-16.66c-16.02-24.78-32.36-49.35-49.04-73.69c-16.68-24.34-33.69-48.46-51.02-72.34  c-8.69-11.97-17.46-23.89-26.31-35.75c-2.53-3.38-5.06-6.77-7.61-10.15c-1.36-1.81-2.73-3.62-4.09-5.42  c-0.9-1.19-2.95-4.91-1.55-6.34c2.15-2.18,7.3,3.35,8.35,4.76c4.08,5.43,9.14,10.35,13.64,15.44c4.65,5.26,9.29,10.53,13.94,15.78  c4.65,5.26,9.29,10.52,13.94,15.78c2.32,2.63,4.65,5.26,6.97,7.89c1.22,1.38,2.42,2.74,3.63,4.12c2.16,2.44,4.85,2.66,4.14-1.4  c-0.5-2.89-2.62-5.51-4.3-7.81c-13.88-19.15-27.76-38.29-41.63-57.44c-2.07-2.86-3.99-7.27-1.21-9.45c2.71-2.13,6.49,0.6,8.79,3.17  c17.92,20.01,34.6,41.29,47.63,64.77c13.22,23.83,22.51,49.63,34.65,74.03c13.78,27.69,31.15,53.43,49.14,78.59  c24.38,34.08,50.02,67.27,76.84,99.46c2.15,2.57,4.41,5.42,4.46,8.77c0.04,2.5-1.91,5.22-4.45,5.61c-2.72,0.42-3.87-2.16-5.41-3.94  c-3.74-4.3-8.01-8.11-12.56-11.55c-9.28-7.01-19.6-12.46-29.7-18.16c-8.83-4.97-17.62-10.14-25.45-16.62  c-10.64-8.8-19.19-19.82-27.55-30.81c-25.29-33.27-49.65-67.28-76.61-99.2c-30.96-36.66-65.32-70.55-93.41-109.46  c-1.62-2.25-3.1-5.68-0.95-7.43c1.99-1.62,4.89,0.1,6.79,1.83C231.46,185.66,246.35,213.64,267.22,235.52"
   id="path37"
   style="fill:#f9eec8;fill-opacity:1" />
<path
   d="M556.04,1017.99c7.72-31,3.41-38.93,3.45-55.48c0.44-3.91,3.36-20.46,5.31-28.98c0.26-1.11,1.86-1.08,2.07,0.04  c1.71,9.02,4.37,26.77,4.58,31.13c0.59,12.75-2.2,18.2-1.1,37.88c0.51,9.15,2.25,17.95,3.49,26.97c0.4,2.96-3.55,4.29-5.09,1.72  c-0.76-1.27-3.25-6.49-5.16-6c-3.23,0.82-1.04,7.24-3.67,8.69C553.63,1037.44,555.42,1020.47,556.04,1017.99"
   id="path38"
   style="fill:#f9eec8;fill-opacity:1" />
<path
   d="M954.67,279.18c0.91,0.3,1.55,0.9,1.56,1.94c0,0.37-0.16,0.72-0.34,1.04c-1.46,2.61-4.74,5.06-7.33,6.47  c-13.84,7.59-28.01,14.6-41.72,22.42c-4.85,2.77-9.14,6.38-13.65,9.65c-2.57,1.86-5.38,3.68-8.48,4.49c-1.53,0.4-3.2,0.56-4.73,0.05  c-4.1-1.38,6.61-8.06,7.94-8.9c14.61-9.2,24.55-15.45,39.25-24.49c4.83-2.96,9.79-5.71,14.77-8.39c2.44-1.31,4.66-3.03,7.28-3.99  C950.28,279.09,952.95,278.61,954.67,279.18"
   id="path39"
   style="fill:#f9eec8;fill-opacity:1" />
<path
   d="M438.83,856.05c1.54-4.66,2.8-9.41,3.54-14.3c2.11-14.08,2.11-28.56,2.47-42.8c0.31-12.45-0.03-25.01,1.35-37.41  c1.44-15.54,5.31-30.85,14.46-44.71c5.98-9.06,11.27-18.55,16.45-28.09c2.57-4.72,5.93-9.4,8.49-14.14  c2.46-4.54,5.32-8.91,8.03-13.3c2.63-4.27,5.02-9.15,8.19-13.24c1.8-2.32,9.41-10.21,7.96-2.83c-0.74,3.75-2.99,7.15-4.49,10.61  c-1.47,3.4-3.01,6.77-4.59,10.11c-3.4,7.13-9.22,16.25-9.22,24.42c-1.48,11.6-3.73,27.13-5.39,38.71  c-3.31,23.14-1.39,44.78-4.43,67.96c-1.08,8.24,0.83,16.23,0.83,26.54c0,33.38,3.33,63.82-6.61,94.25  c-5.95,18.23-16.73,35.07-17.15,54.63c-0.3,13.78-9.79,37.01-23.69,42.23c-2.41,0.91-4.39,0-5.26-2.39  c-2.58-7.07,5.18-17.65,9.26-22.87c4.33-5.54,7.52-11.69,10.71-17.94c2.64-5.18,3.02-18.16-0.64-19.24c-3.36-1-7.99,5.64-9.04,7.63  c-2.48,4.68-4.49,9.67-6.8,14.44c-4.61,9.51-6.82,18.7-11.32,28.27c-1,2.12-1.49,4.44-2.53,6.54c-1.27,2.6-5.87,5.49-5.74,0.21  c0.11-4.39,2.4-13.92,4.61-17.71c21.39-36.63,24.07-77.16,41.23-115.27c1.71-3.79,2.15-8.48,2.05-12.73  c-0.54-21.61-1.48-44.77,4.78-65.96c0.78-2.63,0.34-5.83-0.26-8.61c-0.31-1.42-1.08-5.12-2.42-5.89c-5.5-3.15-7.19,16.04-7.43,18.04  c-2.22,18.45-5.83,36.7-9.74,54.86c-3.75,17.34-7.89,35.31-13.54,52.13c-5.29,15.73-14.18,28.86-18.98,44.75  c-5.17,17.15-8.32,35.29-17.8,50.5c-1.55,2.5-4.52,5.2-7.01,3.63c-2.44-1.55-1.38-5.28-0.11-7.87  c7.79-15.89,13.26-32.91,16.18-50.36c0.2-1.19,0.37-2.48-0.17-3.56c-2.09-4.19-8.39,5.03-9.38,6.43c-0.75,1.05-1.47,2.11-2.17,3.18  c-2.32,3.56-4.42,7.26-6.51,10.95c-4.48,7.91-8.83,15.97-14.65,22.99c-1.4,1.7-3.7,3.46-5.57,2.29c-1.87-1.16-1.29-4-0.4-6  c10.02-22.66,30.32-38.99,43.8-59.78c9.13-14.08,13.83-29.86,19.58-45.43C432.7,871.96,436.17,864.12,438.83,856.05"
   id="path40"
   style="fill:#f9eec8;fill-opacity:1" />
<polygon
   points="692.6,289.79 691.99,290.54 692.94,290.11 "
   id="polygon40"
   style="fill:#f9eec8;fill-opacity:1" />
<path
   d="M930.96,419.73c-0.17,0.56,0.11,0.82,0.41,0.4L930.96,419.73z"
   id="path41"
   style="fill:#f9eec8;fill-opacity:1" />
<path
   d="M510.57,918.63c0,0.09-0.01,0.18-0.01,0.27c-0.1,5.12-0.63,10.22-1.56,15.25c-0.92,4.91-1.06,9.88-1.84,14.84  c-1.32,8.42-2.5,17.66-5.3,25.7c-0.69,2-1.56,3.94-2.2,5.96c-3.09,9.76-0.4,18.66,0.44,28.35c0.65,7.55-1.28,14.06-5.23,20.4  c-10.54,16.92-6.32-0.77-4.13-4.77c2.93-9.13,3.63-21.49,2.2-29.02c-1.55-8.15,4.61-37.5,7.34-47.13  c0.43-5.11,0.88-10.21,1.32-15.32c0.21-2.44,1.19-4.78,1.65-7.18c0.14-0.69,0.4-7.52-1.29-6.09c-2.05,1.74-1.47,4.78-2.5,7.02  c-1.94,4.23-4.31,8.24-6.35,12.41c-0.47,0.97-0.93,1.94-1.36,2.93c-0.85,1.97-1.45,4.06-1.92,6.16c-2.64,11.72-4.72,23.55-7,35.35  c-1.88,9.79-1.84,20.26-7.06,29.03c-2.23,3.75-4.88,7.24-6.91,11.1c-0.59,1.12-1.84,1.84-2.9,0.78c-1.07-1.07-0.15-2.86-1.3-3.88  c-0.99-0.89-2.63-0.15-3.73,0.02c-2.09,0.31-5.66-1.06-4.45-3.77c0.91-2.03,3.3-2.87,4.94-4.13c4.75-3.64,8.28-6.32,11.01-11.16  c3.85-6.81,1.74-15.19,3.46-22.74c1.88-8.24,4.02-16.42,6.41-24.53c2.09-7.12,4.37-14.19,6.85-21.19c2.39-6.76,3.83-13.8,5.05-20.87  c1.59-9.22,5.04-18.09,5.63-27.5c1.03-16.51,0.54-32.71-1.1-49.14c-2.09-19.19-0.59-38.77-0.57-58.19c0-9.16,0.39-18.34,0.13-27.5  c-0.79-27.76,9.69-83.48,20.23-109.12c0.98-2.37,6.13-12.54,9.69-10.38c4.91,2.96,2.41,17.56,2.43,22.26  c0.04,7.58-4.55,43.37-4.01,50.92c1.05,14.87,3.05,29.68,5.87,44.32c2.61,13.54,5.25,27.09,7.06,40.78  c1.23,9.3,0.96,18.74,2.37,28.01c1.37,9.03,7.5,20.93,8.25,30.14c0.94,11.62-0.01,23.25-0.46,34.86  c-0.44,11.17,1.62,22.37,0.79,33.52c-0.76,10.24-5.41,19.75-6.65,29.93c-1.22,9.98-0.08,23.85-1.94,33.73  c-0.25,1.33-2.87,44.94-4.16,60.96c-0.11,1.32-2.03,1.33-2.16,0.01c-1.55-16.86-2.9-63.4-2.97-64.62  c-0.3-5.49,0.83-10.87,1.46-16.29c0.37-3.2,1-8.59-0.23-11.59c-2.75-6.73-5.6,4.63-6.22,7.52c-1.11,5.2-2.1,10.44-3.34,15.62  c-0.34,1.43-6.3,52.24-9.3,69.48c-0.23,1.28-2.1,1.13-2.12-0.17c-0.19-17.85,1.74-70.56,1.67-71.72c-1-15.79-1.3-31.2,4.68-46.68  c12.43-32.18,16.31-64.94,2.6-98.24c-1.82-4.41-3.05-28.66-8.63-28.11c-5.57,0.55-3.76,13.78-4.09,17.49  c-0.67,7.58,1.57,18.86,3.64,26.32c5.49,19.79,2.71,36.26-0.28,55.98C511.27,902.94,510.74,910.62,510.57,918.63"
   id="path42"
   style="fill:#f9eec8;fill-opacity:1" />
</svg>
