<?xml version="1.0" encoding="utf-8"?>
<!-- Generator: Adobe Illustrator 23.0.2, SVG Export Plug-In . SVG Version: 6.00 Build 0)  -->
<svg version="1.1"
	 id="Capa_1" inkscape:version="1.3.2 (091e20e, 2023-11-25)" sodipodi:docname="logo.svg" xmlns:inkscape="http://www.inkscape.org/namespaces/inkscape" xmlns:sodipodi="http://sodipodi.sourceforge.net/DTD/sodipodi-0.dtd" xmlns:svg="http://www.w3.org/2000/svg"
	 xmlns="http://www.w3.org/2000/svg" xmlns:xlink="http://www.w3.org/1999/xlink" x="0px" y="0px" viewBox="0 0 1080 1080"
	 style="enable-background:new 0 0 1080 1080;" xml:space="preserve">
<style type="text/css">
	.st0{fill:#F9EEC8;}
</style>
<sodipodi:namedview  bordercolor="#000000" borderopacity="0.25" id="namedview42" inkscape:current-layer="Capa_1" inkscape:cx="539.32919" inkscape:cy="540" inkscape:deskcolor="#d1d1d1" inkscape:pagecheckerboard="0" inkscape:pageopacity="0.0" inkscape:showpageshadow="2" inkscape:window-height="1011" inkscape:window-maximized="1" inkscape:window-width="1920" inkscape:window-x="0" inkscape:window-y="0" inkscape:zoom="0.74537037" pagecolor="#ffffff" showgrid="false">
	</sodipodi:namedview>
<path id="path1" class="st0" d="M62.5,505.9c17.6,4.3,22,3.1,33.5,4.8c7.8,1.1,16.2,1.5,24.2,2.1c3.8,0.3,7.6,0.3,11.2,1.5
	c4,1.3,7.6,3.5,11.6,4.8c4.9,1.6,9.9,2.8,15,3.8c20,4,40.6,4.3,60.6,7.9c3.2,0.6,6.3,1.2,9.4,2c10.8,2.6,28.5-0.1,40.1-0.2
	c1.4,0,4.7,0.1,5.3,1.8c2.4,6.3-18.7,7.3-21.7,7.7c-9.7,1.3-19.5,2.5-29.3,2.8c-28.5,0.8-57.1,0.8-85.7-0.2
	c-12.9-0.4-25.6-4-38.5-5.6c-4.6-0.5-8.9-2.6-13.4-3.8c-4.9-1.2-10-2.1-15-2.7c-7.3-0.9-14.6-1.3-22-1.5c-3.3-0.1-14.8,1.3-16.2-3.2
	c-1-3.1,4.1-4.7,6.3-4.8c10-0.5,16.8,0.8,26.8,1.1c6.5,0.2,17.4,0.9,23.9,1.3c3.1,0.2,15.6-0.5,18.7-0.5c1.3,0,4.8-0.8,5.5-2
	c1.3-2.1-2.1-2.1-3.9-2.6c-8.1-2.3-27.4-2.1-35.7-3c-6-0.6-11.8-2.2-17.8-3c-4.3-0.6-9.1,0.5-13.5,0.5c-1.7,0-5.1,0.3-6.6-0.8
	c-4.9-3.8,9.6-7.4,11.5-7.8C52,505,57.4,504.6,62.5,505.9"/>
<path id="path2" class="st0" d="M63.5,372c-1-0.6-1.9-1.4-2.5-2.5c-1.4-2.6-1-5.4,2.5-4.9c1.9,0.3,3.5,1.4,5.2,2.3
	c9.8,5.5,22.6,5.4,33.3,8.3c1.2,0.3,3.2,0.3,3.2-1.5c0-1.6-3.7-3.3-4.8-4c-5-3.1-9.9-6.3-15.1-9.2c-3.5-2-7.1-3.8-10.8-5.5
	c-3.3-1.5-6.8-2.3-8.4-6c-0.3-0.6-0.5-1.4-0.1-1.9c0.3-0.5,1-0.6,1.6-0.7c3.8-0.4,7.7,0.9,11,2.7c5.1,2.7,10.1,5.4,15.2,8.1
	c10.3,5.6,20.4,11.3,30.4,17.5c18.9,11.7,37.5,23.8,59.6,29c6.2,1.5,12,5,17.5,8.5c18.3,11.8,39,17.4,59.2,24.3
	c1.8,0.6,8.7,2.1,10.3,3.1c3.6,2.2-9.5,2.4-10.8,2.1c-29.1-5.5-57.7-12.3-85-24.4c-21-9.3-42.8-17-64.4-24.8
	c-2.9-1.1-5.6-2.8-8.6-3.8c-7.6-2.7-14.7-6.5-22-10c-3.7-1.8-7.5-3.5-11.4-5C67,373.3,65.1,372.9,63.5,372"/>
<path id="path3" class="st0" d="M151.2,303.2c3.4,1.9,6.6,4,9.6,6.7c2.4,2.2,4.4,4.8,6.7,7.2c4.6,4.9,9.5,9.6,14.5,14.2
	c10,9,20.6,17.2,31.4,25.2c9.7,7.1,19.5,14.1,29.1,21.3c1.6,1.2,12.1,7.8,11.9,10c-0.4,3.7-14.2-1.6-16.4-2.7
	c-24.7-12.5-49.1-25.4-73.4-38.6c-3.3-1.8-10-6.5-13.2-8.5c-2.5-1.6-5.8-2.2-7.8-4.2c-8.7-9.1-19.1-16.4-30.8-20.9
	c-6.5-2.5-13.2-5.5-16.8-11.7c-0.4-0.8-0.8-1.6-0.9-2.4c-0.1-1,0.4-2.1,1.2-2.7c2.7-2.1,7.6,0.7,10.1,1.8c2.7,1.2,5.4,2.4,8.1,3.6
	c5.4,2.5,10.7,4.9,16.2,7.1c1.6,0.6,8.2,3,11.2,4c1.5,0.5,3.1-0.3,3.6-1.8c1-3-3.7-5-5.6-6.4c-2.6-1.8-5-3.4-8-4.5
	c-1.9-0.6-3.8-1.5-5.6-2.3c-4.4-1.9-8.9-4.1-12.7-7.1c-2.4-1.9-5.3-4.7-5.2-8.1c1-2.2,2.4-4.8,7.2-2.8c9.2,6.3,17.5,13.9,27.4,19.1
	C145.9,300.3,148.6,301.7,151.2,303.2"/>
<path id="path4" class="st0" d="M670.2,98.6c0,0.1,0,0.2,0.1,0.3c0.2,0.7,0.7,1.3,1.3,1.4c3.3,0.6,6.6-6.4,7.6-8.7
	c1.7-3.7,3.1-7.5,5.7-10.7c1.2-1.5,4-3.1,5.8-1.6c1.1,0.9,1.1,2.5,0.7,3.9c-1.2,3.8-2.9,7.6-4.3,11.3
	c-16.6,43.2-21.8,93.8-46.8,132.7c-5.6,8.6-12.1,16.9-15.3,26.6c-2.4,7.5-2.8,15.4-4,23.2c-5,31.8-24.6,59.4-33.8,90.1
	c-1.2,4,4.1,6.9,6.8,3.6c0.9-1.1,1.7-2.2,2.5-3.3c18.2-26.9,26.8-58.9,38.6-89.2c9.5-24.3,26-45.3,34.8-69.8
	c4.6-12.8,5.8-27.5,9.3-40.7c3.8-13.9,8.3-27.6,13.5-41.1c2.7-6.9,2.3-15.6,5.7-22.1c1.6-3.1,3.1-6.3,4.9-9.3c0.9-1.6,1.9-3.1,3-4.6
	c0.9-1.2,2.3-4.5,4.3-3.3c3.9,2.3-0.8,9.3-2.5,11.7c-1.4,2.1-2.1,4.7-1.7,7.2c0.1,0.7,0.3,1.4,0.8,1.9c1.1,1.2,3,0.9,4.4,0.2
	c3-1.6,4.8-4.6,6.8-7.2c1.6-2.2,3.9-5.7,6.9-5.2c1.7,0.3,1.5,2.1,0.8,3.7c-0.5,1.3-1,2.6-1.5,3.9c-1,2.6-2.1,5.3-3.1,7.9
	c-2.1,5.2-4.3,10.5-6.5,15.7c-4.3,10.2-8.8,20.3-13.5,30.4c-4,8.7-8.2,17.4-12.5,26c-4.4,8.8-7.5,19.1-12,27.8
	c-8.2,15.9-17.7,30.2-25,46.5c-1.7,3.7-3.3,7.6-3.7,11.7c-0.1,1.2-0.4,3.4,0.2,4.5c1.2,2.1,3.4,0,5.1-0.9c2.3-1.3,4.2-3.2,5.9-5.2
	c1.9-2.3,3.5-4.9,4.9-7.6c26.7-50.5,51.7-101.9,74.7-154.2c1.2-2.8,3.9-6.1,6.6-4.7c4.2,2.2-1.3,10.7,3,12.8
	c3.2,0.2,5.2-3.3,7.1-5.9c1.9-2.6,6.6-4.3,7.9-1.4c0.6,1.3,0,2.9-0.6,4.3c-11.2,24.1-30,43.7-43.7,66.3
	c-18.8,31.1-27.8,67.3-46.6,98.5c-15.4,25.6-37.3,47.5-48,75.4c-8.3,21.6-9.6,45.8-20.3,66.3c-2.6,5-6,9.9-10.8,12.9
	c-4.9,2.9-11.5,3.5-16,0c-3.9-3-5.5-8.2-6.5-13c-6.5-30.1-4.6-61.6,1-91.9c5.2-28,13.9-54.9,21.2-82.5c13.7-27.5,22-77.3,28-106.4
	c4.5-22,2.4-24.2,5.9-46.4c0.5-3.1,1.6-6.2,2.7-9.1c1.4-3.7,3-7.3,4.8-10.9c0.7-1.3,1.4-2.6,2.2-3.9c0.6-1,1.4-2.6,2.4-3.4
	c0.8-0.6,1.9-0.1,2.4,0.7c1.4,1.9,0.6,5,1,7.2c0.2,1.3,0.8,2.7,2.2,3c4.4,2.8,10.1-8.3,12.2-6c2.3,3.3-1.7,9-3.3,11.8
	c-3.2,5.8-4.5,12.1-6.2,18.4c-1.9,7-3.7,13.9-5.5,20.9c-3.8,14.1-7.5,28.2-11.4,42.3c-7.7,27.9-15.9,55.8-25.3,83.2
	c-6,17.5-13.7,31.1-15.9,49.6c-0.6,5.3,0.2,10.2,1.2,15.4c0.3,1.5,0.8,3.1,2.1,4c7.2,5,8.4-20.4,9.1-23.3c2.1-8,6.1-16.1,8.8-24.1
	c5.7-17.1,11-34.3,17.6-51.1c5-13.1,9.8-26.3,13.7-39.7c5.8-20.2,9.5-41,14.5-61.4c1.9-7.7,4-15.3,6.5-22.8
	c1.3-3.8,2.6-7.6,4.1-11.3c1-2.6,2.5-7.2,5.9-7.5c3.6-0.4,2.8,3.3,2.3,5.9c-1.3,6.3-3.7,12.4-4.8,18.7
	C670.2,97.5,670.1,98,670.2,98.6"/>
<path id="path5" class="st0" d="M365.5,703.4c-3.2-1.3-44.6,39-60.6,55.4c-14.4,14.8-26.5,32.1-40.5,47.1
	c-21.1,22.6-47.9,44.5-69.7,66.8c-8,8.2-16.9,13.8-27,23.1c-2.9,0.5-0.6-3.3-1.8-5.1c-0.9-1.3-2.2-0.4-3.4-0.8
	c-1.8-0.7-2.1-2.1-0.1-2.8c9.6-3.1,16.2-11.9,22.8-19c8.1-8.5,17.4-15.6,25.6-23.9c10.6-9.9,20.9-20.3,31.6-30.1
	c0.9-0.8,1.7-1.6,2.6-2.3c2.4-2.2,4.9-4.4,7.4-6.6c2.7-2.4,5.8-4.8,7.7-8c1-1.7,1.8-4.2,0.6-6c-2.1-3-5.7-0.7-8.1,0.6
	c-12.2,6.6-22.5,17.4-32.8,26.6c-11,9.7-21.9,19.6-32.9,29.3c-8.3,7.4-16.7,14.6-25.3,21.7c-1,0.8-6.2,7.4-7.5,7.9
	c-1.7,0.7-4.4,0.7-4.8-1.6c-0.4-2.3,3.1-3.9,4-5.8c1.5-3.2-0.9-6.7-4.3-6.4c-2.4,0.2-6.6,2.8-8.8,1c-3.5-2.8,9.3-9,10.9-10.2
	c3.5-2.6,7.9-4.9,11.4-7.5c49.2-36.5,93.7-73.4,141.8-111.3c32.2-25.3,63.8-52.5,94.7-79.5c12.5-10.9,25.7-21.9,38.2-32.8
	c8-7,14.5-15,22.4-22.1c1.3-1.2,10.2-6.1,11.3-4.6c1.5,2-4.3,8.8-5.5,10.6c-7.4,11.5-14.7,24-23.4,34.5
	c-17.4,20.9-37.7,38.9-55.5,59.5c-22.9,26.6-36.3,60.3-50.4,92c-10.2,22.9-26,42.6-42.8,60.9c-8.3,9-16.4,18.7-25.7,26.6
	c-10.1,8.7-20.8,16.6-30.5,25.6c-5.8,5.3-11.5,10.8-17,16.4c-1.5,1.5-2.6,3.5-4.2,5.1c-0.4,0.4-1.6,1.9-2.3,1.7
	c-1.1-0.3-0.4-3.3-1.3-4.2c-1.3-1.3-5.8,0.4-5.9-1.9c-0.1-1.6,3.3-4,4.3-4.8c10-7.8,17.9-17.9,26.3-27.3
	c8.7-9.6,17.3-19.4,25.7-29.3c2.3-2.7,4.4-5.4,6.4-8.4c2.3-3.5,3.7-7.8,6.6-11c4.6-4.9,8.9-10.1,13.5-15c-0.5-0.5,4.4-7-3.3-6.2
	c-4,2-6.9,3.6-10,8c-1.3,1.9-2.2,4-3.5,5.9c-1.9,2.9-6.2,4.3-9,6.4c-2.8,2-5.6,4.2-8,6.6c-20.9,21.5-36.3,36.7-57.2,58.3
	c-2.4,2.5-4,3.9-6.2,6.5c-1.9,2.2-3.9,3.2-4.7,0.6c-0.5-1.7,3.3-8.5,2.3-8.9c-2.4-0.9-6,1.8-8.5,1.8c-5,0-1-4.6,0.9-6.3
	c10.6-9.7,21.3-19,32.8-27.5c9.1-6.8,17.3-14.6,25.1-22.9c5.7-6.1,11.3-12.3,17.1-18.3c15.1-15.5,30.5-30.8,45.1-46.7
	c14.6-15.8,26.5-33.6,40.6-49.7c1.9-2.2,3.9-4.4,5.7-6.7c2.3-2.7,6.1-7.2,8.7-9.6c2-1.8,3.8-3.8,5.5-5.9c1.5-1.8,4.9-5.5,4.2-8.2
	C366.4,704,366.1,703.6,365.5,703.4"/>
<path id="path6" class="st0" d="M275.6,354.3c0.5-1.9-4.5-4.3-5.7-5.3c-3-2.3-6.1-4.5-9-6.8c-10.6-8.2-19.6-18.2-30.2-26.4
	c-10.6-8.1-22.1-14.8-32.4-23.3c-9.6-7.9-19.5-15.6-29.4-23.2c-4.9-3.8-9.9-7.6-14.8-11.5c-3.3-2.6-7.4-5.1-9.4-8.9
	c-3.9-7.3,5-10.3,10.6-9.3c5.9,1,11.8,4.3,16.4,8.1c15.5,12.9,30.2,26.7,45,40.4c22.7,21.1,45.7,42,67.7,63.9
	c23,22.8,44.7,46.8,67.3,70c14.3,14.6,36.2,27.8,56.2,33.3c1.3,0.4,4.4,1.4,5.6,0.5c3.1-2.1-15.2-12.2-17.2-13.7
	c-14.5-11-28.4-22.9-41.3-35.7c-13-12.9-24.9-26.8-38.3-39.3c-13.2-12.3-26.4-24.5-38.8-37.7c-6.4-6.8-11-15.3-17-22.5
	c-4.6-5.5-10-10.3-15.2-15.2c-8.8-8.3-16.9-18.1-25.8-26.3c-12.8-11.6-26.5-21.4-39.2-33.1c-5.3-4.9-10.4-10.1-15.1-15.4
	c-1-1.1-1-4.5-0.1-5.6c1-1.2,4-1.9,5.6-1.3c2.6,0.9,5.2,2.7,7.2,4.6c16.4,16.2,32.7,31.6,49.3,47.6c14.5,14,29,28.9,44,42.3
	c5.1,4.6,10.4,9,15.8,13.3c2.6,2.1,5.2,4.4,7.8,6.6c1.8,1.5,9.6,7.9,11.6,9c3.1,1.7,3.3-1.5,1.8-3.9c-4.5-7.5-13.5-19.4-21.3-25.9
	c-11-9.3-21.4-19.2-31.4-29.6c-9.3-9.6-19.2-18.9-27.9-29.1c-2.2-2.6-4.1-5.4-5.7-8.4c-2.7-5.2-4.8-10.7-7.7-15.8
	c-2.5-4.3-5.5-8.2-8.4-12.1c-5.4-7.3-12.2-14.7-15.5-23.3c-0.8-2,1.7-3.6,3.2-2.1c7.9,7.5,28.6,31.6,35.6,39.8
	c33.9,39.6,67.7,79.3,100.8,119.6c13.6,16.6,25.9,34.2,38.2,51.8c18.7,27.1,50.2,39.1,70.6,64.2c4.9,6,15.1,11.8,22.8,13.1
	c4.6,0.8,3,5.9,0,6.4c-3.6,0.7-12.3-3.2-15.7-4c-4.8-1.1-9.6-2.3-14.5-3.4c-9.6-2.3-19.2-4.7-28.6-7.5c-18.9-5.5-37.3-13-54.2-23.2
	c-18.2-10.9-35.2-24.3-52.7-36.3c-19.5-13.4-39.1-26.7-58.5-40.4c-10-7-18.6-16-28.2-23.5c-23.9-23.9-37.8-33-64.9-54.1
	c-2.9-2.2-11.2-7-16.5-12.7c-6.9-7.4,2.3-16.9,10.1-11c14.4,10.8,29.7,20.7,42.7,33c12.8,12.1,26.7,23,41.4,32.7
	c7.2,4.8,14.6,9.3,22.2,13.6c3.9,2.2,7.8,4.3,11.7,6.4C258.2,348.5,274.7,357.3,275.6,354.3"/>
<path id="path7" class="st0" d="M804.8,145.4c-1.2,1.5-2.9,5.7-1,7.3c2.9,2.4,8.4-3.1,10.1-4.9c1.8-1.9,9.8-9.2,12.8-7
	c2.4,1.8-2.9,7.1-4.3,8.7c-2.4,2.6-6.1,4.1-8.2,6.9c-24.2,33.8-48.6,67.4-73.4,100.8c-6.8,9.2-15.5,17-22.3,26.3
	c-12.3,16.8-23.6,34.4-35.8,51.4c-5.3,7.4-11.4,14.3-17.3,21.3c-4.8,5.7-9.7,11.3-14.5,17c-2.1,2.5-4.3,4.9-6.3,7.5
	c-1.7,2.1-3.9,3.8-5.1,6.1c-2.7,5.1,1.4,11.3,7.1,9.4c4-1.3,8.3-4.9,10.4-8.6c12.8-23,36-31.6,56.3-44.8
	c22.3-14.5,44.6-28,56.9-53.3c2.8-5.7,7.7-11.7,12.1-16.4c20.2-21.5,38.9-38.6,59.2-59.9c2.5-2.6,7.7-10.5,10.5-12.8
	c5.4-4.6,18.7-17.4,22.6-17.2c4.6,3.9-15.3,14.1-18.2,19.7c-0.8,1.6-0.6,3.7-0.5,5.8c0,1.2,0.6,2.5,1.6,3.2
	c5.2,3.2,12.3-7.4,17.6-11.6c5.8-4.7,6.7-8.3,11.4-9.7c3.8-0.5,2.1,3.6,1.7,4.5s-37.5,32.6-37.5,32.6
	c-29.3,27.6-59.5,54.2-88.4,82.1c-11.8,11.4-20.2,26.1-31.5,38c-8.8,9.3-19.8,16.7-29.8,24.9c-3.9,3.2-9,5.7-11.3,9.8
	c-15.8,27.5-45,39.7-67.1,60.2c-3.5,3.1-8.9,1.6-11.3-2.3c-5.1-8.4,8-17.5,11.5-24.9c4.2-9.1,7.8-18.4,11.1-27.9
	c6.6-18.9,9.6-37.9,17.7-56.3c2-4.6,4.1-9.5,7.3-13.2c25.9-29.1,38.6-65.8,55.2-100c5.3-11,9.7-22.1,16.4-32.2
	c2.6-4,5.5-7.7,8.6-11.3c6.5-7.6,13.3-15,18.5-23.6c3-4.9,5.4-10.2,7.2-15.6c1.9-5.8,3-11.4,7.6-15.8c1.4-1.3,6.1-6,8-3.3
	c0.8,1.1,0.4,3.6-0.2,4.7c-4.3,9.1-7.3,13.5,4.3,7.9c3.5-1.7,6.9-2.3,7.6,0.3c0.3,1.1-1.7,4.6-2.4,5.6C779,150.1,768,165.1,757,180
	c-4.4,6-9.4,11.5-13.6,17.6c-3.9,5.6-6.9,12.1-10.3,18c-3.3,5.8-6.7,11.6-10.2,17.4c-6.9,11.6-14,23.1-20.8,34.7
	c-3.3,5.6-7.1,11-8.3,17.5c-0.7,4.3,3.1,2.6,5.2,1.5c3.5-1.9,6.4-4.8,8.6-8.1c21.7-32,42.3-64.7,64-96.8c0,0,34.1-48.1,35-49.2
	c0.9-1.1,3.5-2.9,5-1.6c1.5,1.3,1.7,3.7,0.4,5.1C810.7,137.7,804.8,145.3,804.8,145.4"/>
<path id="path8" class="st0" d="M678.2,998.5c-1.9-4-4-8.3-5-12.6c-1.3-5.5-1-11.2-2.3-16.8c-1.5-6.2-4-12.1-5.9-18.2
	c-4.9-15.8-11.7-29.8-14.7-46c-8-42.9-23.9-83.7-37.2-125.1c-8.2-25.5-19.5-50.1-24.9-76.3c-2.6-12.8-4-25.8-5.1-38.8
	c-0.5-5.8-6.3-29.6,3.6-29c3.2,0.2,5.3,4.2,7,6.4c5.3,6.6,10.6,13.2,14.9,20.5c7.9,13.3,10.7,28.9,19.2,42c10,15.6,9.3,34.9,15.9,52
	c7.3,18.9,19.4,35.3,31.6,51.2c12.6,16.5,24.6,33.4,35.9,50.7c11.3,17.3,22,34.9,32.2,52.8c5.1,9,10.1,18,15,27.1
	c4.7,8.6,8.7,17.8,14.3,25.8c3.2,4.6,2.7,13.5-3.9,15.5c-3,0.9-7.9-2.2-9.3-4.8c-10.3-18.9-17.9-37.2-26.2-57
	c-2.6-6.1-6.3-11.7-10.9-16.5c-2.8-3-6.6-5.5-9.8-8.2c-1.7-1.4-7-9.1-9-8.5c-3.2,1,5.1,10.8,5.8,12.3c2.2,4.6,4.1,9.3,5.4,14.2
	c1.2,4.4,5.9,19.6,12.4,33.8c2.8,6.2,6.1,12.2,9.3,18.1c2.3,4.1,7.7,10.2,6,15.3c-1.1,3.4-4.5,5.5-7.7,3.2c-3-2.1-4.8-7.5-5.3-10.8
	c-0.8-4.9-1.4-10-3.5-14.5c-9-19.8-19.8-41.4-23.4-48c-14.7-26.9-32.1-56.6-46.2-83.8c-4.4-8.5-10.6-22.7-13.5-31.8
	c-3.2-10-7.8-19.4-13.3-28.4c-3.6-5.9-6.8-12.1-10.3-18c-1.2-2-2.5-4.1-4.6-4.9c-0.8-0.3-1.7-0.4-2.5,0c-1.2,0.5-1.7,2.1-1.5,3.4
	c0.6,4.3,4.3,9.1,6,13.2c1.9,4.5,3.5,9.2,4.9,13.9c2.7,9,4.8,18.1,7.8,26.9c4.9,14.1,8.9,27.4,13.8,41.5c1.4,3.9,4.2,7.8,7.3,10.6
	c18.1,16.6,27,41.7,38.6,62.3c6.2,11,9.7,23.4,10.2,37.2c0.3,8.1,5.5,15.2,9.5,21.9c4.7,7.8,7.8,15.9,10.1,24.8
	c0.5,1.9,0.7,12.6-4.2,10.3c-3.5-2.8-5.2-10-6-16c-1.7-11.7-10.4-15.4-16-25.6c-2.8-5.1-3.5-10-5.2-15.5c-1.9-6-3-11.8-6.1-17.5
	c-2.1-3.9-4.9-7.3-7.7-10.6c-1.9-2.3-4.8-7.9-7.5-9.1c-4-1.8-0.1,14.4,0.5,16.2c2.1,6.3,5.1,12.3,7.1,18.6c3.4,10.6,4,21.8,6.5,32.7
	c2.6,11.3,8,21.9,11.7,32.9c0.9,2.6-1.5,7.8-3.8,3.8C684.8,1011,681.2,1004.9,678.2,998.5"/>
<path id="path9" class="st0" d="M713.9,406.6c5.7,0.5,13.9-5.1,17.4-7.4C799.1,354.8,865.1,308,933,263.7c2.8-1.9,7.6-3.2,8.8,0
	c1,2.5-1.7,4.8-4,6.2c-34.9,21.1-67.4,45.7-99.8,70.4c-32.5,24.8-64.9,49.9-99.5,71.8c-28,17.7-57.3,35.9-88.6,47.2
	c-4.1,1.5-8.2,2.9-12.3,4.2c-1.3,0.4-4.3,1.1-5.5,0.1c-2.4-1.8,0.5-4.6,1.8-6.2c4.6-5.6,11.6-8.6,17.4-12.7
	c13-9.3,22.8-22.5,33.6-34.4c15.4-20.6,29.3-26.7,53.9-47.6c23.5-20,38.3-47.7,59.7-69.9c20.4-21.1,44.7-39.1,68.4-56.5
	c5.7-4.2,11-8.8,16.6-13c2.8-2.1,5.7-4.2,8.7-6.1c1.5-0.9,6.3-4.6,8-3.8c2.5,1.2-2.2,6-3.1,6.9c-6.5,6.8-14.5,11.9-21.5,18.1
	c-5.1,4.5-10.6,8.6-16.3,12.3c-2.3,1.5-14.8,6.8-13,10.6c0.3,0.5,0.8,0.9,1.4,1.1c2.7,1.1,5.8,0,8.5-1.3c6.1-3,11.5-7,17.3-10.6
	c5.7-3.6,11.5-7.1,17.2-10.5c5.2-3.1,10.4-6.2,15.8-8.9c2.3-1.2,6.4-4,9.3-3.6c0.2,0,0.5,0.1,0.7,0.2c1.7,3.7-2.3,5.8-5.1,8.7
	c-2.7,3-6.4,4.9-10,6.9c-12.2,7-22.8,16.8-30.8,28.4c-1.4,2,0.5,4.7,2.9,4c9.3-2.8,18.1-7.4,25.7-13.7c4.6-3.8,8.8-8.1,14.2-10.7
	c1.8-0.9,6.1-3.2,7.5-1.4c1.7,2.3-2.4,6.1-4,7.3c-30.5,22.5-63.5,41.2-96,60.5c-32.5,19.2-64.8,39.3-93.2,64.2
	c-3.2,2.8-6.4,5.5-9.6,8.4c-3.5,3.2-12.9,8-8.5,14C710.7,405.8,712.2,406.5,713.9,406.6"/>
<path id="path10" class="st0" d="M143.3,703.6c-20.3,7.3-42.2,14-63.8,15.3c-2.5,0.2-5.3-0.5-6.8-2.5c-2.8-3.8,3.9-5.1,6.5-5.8
	c3.7-1,7.4-1.6,11.1-2.3c40.2-7.3,63.3-21.4,99-30.7c10.9-2.8,39.9-10.5,55.8-19.6c4.2-2.4,1.9-8.8-2.8-8
	c-12.7,2.2-30.4,7.8-34.3,9.9c-17.1,9.2-36.2,14-55,18.8c-7.2,1.8-14.7,2.5-22,4c-4.9,1-10.1,1.8-14.9,3.5
	c-4.9,1.7-9.5,4.3-14.5,5.7c-6.3,1.8-12.9,1.4-19.3,2.7c-3.8,0.8-7.4,2-11,3.5c-1.7,0.7-5.3,3-7,1.6c-2.3-1.9,0.5-6.2,2.6-8.3
	c1.4-1.4,4.6-1.8,6.3-2.3c4.3-1.1,8.8-1.9,13.2-2.3c11.6-1.1,23.9-5.2,34.5-9.9c7.3-3.3,10.8-5.5,9.8-8.7c-0.4-1.3-1.6-2.1-2.9-2.7
	c-6.1-2.9-12.7-0.5-18.5,1.8c-6.2,2.5-12.2,5.7-18.6,7.6c-5.4,1.6-11.1,1.3-16.7,1.6c-5.5,0.3-10.3,2.5-15.7,3
	c-1.5,0.2-3.3,0.2-4.3-0.9c-2.5-2.6,2.7-4.5,6.1-5.5c8.8-2.7,18-3.4,27-4.6c8.5-1.1,15.8-6.4,24.2-7.8c30.1-5,60.1-4.2,90.4-8.2
	c27.4-3.6,55.1-10.6,81.5-18.7c29.3-9,59.1-19.4,86-34c12.8-6.9,24.7-15.3,37.5-22.3c6.4-3.5,13-6.6,19.9-8.8
	c2.9-0.9,18.1-5.9,20-2.5c0.4,0.7,0.1,1.6-0.5,2.1c-1.7,1.5-4.7,2.7-6.8,3.7c-3.4,1.6-6.7,3.2-10,4.8c-6.7,3.2-13.3,6.5-20,9.9
	c-18.9,9.5-37.7,19.6-54.5,32.6c-17.5,13.5-31.4,31.7-51.3,41.3c-24.8,12-55.8,10.4-80.2,23.4c-10.1,5.4-19,12.9-29.1,18.3
	c-8.7,4.6-18.1,7.7-27.5,10.7l-68.8,22c-2.4,0.8-4.9,1.2-7.4,1.7c-2.7,0.5-5.4,1.6-8.2,1.7c-0.9,0-3,0.2-3.7-0.5
	c-2.4-2.4,3.2-5.1,4.9-5.8c9.7-3.6,19.6-7,29.5-9.9c13-3.9,21.6-7.3,32.5-12.1c2.3-1,17.6-4.1,14.1-9.3
	C157.8,697.7,146,702.6,143.3,703.6"/>
<path id="path11" class="st0" d="M253.9,590.8c-6.9,1.8-13.8,4.1-20.4,6.5c-10.6,3.9-21.4,7.3-32.4,9.6c-28,5.8-56.6,7.5-84.8,11.7
	c-11,1.6-22.2,2.1-33.3,2.3c-5.6,0.1-11.2,0.1-16.8,0.1c-2.8,0-5.6,0-8.4,0.1c-2.3,0-4.8,0.5-6.7-0.9c-1.5-1-2.2-2.9-1.8-4.7
	c0.1-0.6,0.4-1.2,0.8-1.6c1.5-1.7,6.3-1.5,8.5-1.5c21.1-0.3,26.9-4.8,41.3-8c4.9-1.1,19-4.1,23.8-5.6c1.4-0.4,5-2.2,2.6-3.3
	c-5.5-0.5-12.7,0.4-17.7,0.3c-4.1,0-8.2,0-12.2,0.5c-14.7,1.7-29.4,3.8-44.1,5.1c-2.5,0.2-5-0.5-6.3-2.5c-1.2-1.7,0-4.1,1.6-5
	c1.5-0.9,3.5-1,5.3-0.9c1.7,0,3.4,0.1,5.1,0c5.3-0.2,10.6-0.6,15.9-1.3c6.4-0.8,12.8-2.1,19-3.6c5.2-1.3,10.4-2.4,15.8-2.7
	c23.4-1.3,46.1,6,69.2,8.3c12.3,1.2,24.7,1.5,37,0.4c19.6-1.8,38.6-7.3,57.8-11.5c9.3-2.1,18.3-3.7,27.8-3.9
	c10.1-0.2,20.3,0.5,30.2,2.6c13.7,2.8,27.1-2,39.3-8.2c6.1-3.1,12-6.5,18-9.7c3.5-1.8,7.1-3.4,10.9-4.5c13.9-4,30.5-10.8,46.4-10.8
	c1.9,0,7.8-0.3,5.9,2.5c-1.1,1.6-5.6,2.1-7.3,2.5c-9.5,2.3-19.1,4.1-28.4,6.9c-12.3,3.7-25,10.3-36.1,16.4
	c-29.1,17.4-59.5,31.5-92.9,39c-16.5,3.7-32.2,11.1-48.6,15.8c-13.8,3.9-27.9,7.1-42.2,9.1c-37.1,5.2-74.3,9.4-111.4,14.4
	c-8.2,1.1-15.9,5.1-24.1,5.9c-1.9,0.2-7.1,0-8-2.2c-1.8-4.3,7-5,9.2-5.2c3.4-0.2,8.8-1.9,12.2-2.5c3.4-0.6,6.5-2.1,9.8-2.9
	c4.2-1,8.7-0.9,13-1.3c2.4-0.3,4.8-0.6,7.1-1.5c1-0.4,2.5-1,3.2-1.9c3-3.9-6.4-4.9-8.3-4.9c-3.8-0.1-7.6,0.3-11.4,0.5
	c-5.7,0.3-11.3-0.7-17-0.4c-4.8,0.3-9.6,3.5-14.5,2.8c-2.9-0.4-3.8-2.7-1.4-4.4c5-3.4,14.1-5.7,20.3-6.3
	c53.4,2.8,67.6-5.5,101.1-9.5c19.9-2.4,39.6-6.9,58.5-13.9c9-3.3,17.4-7.9,26.7-10.5c5.9-1.7,11.9-2.9,18-3.7c5.4-0.8,11.9,0,17-2.2
	c0.7-0.3,3.5-1.7,3.5-2.6c0-1.7-4.6-1.8-6-1.9C279.9,585.4,266.7,587.4,253.9,590.8"/>
<path id="path12" class="st0" d="M877.7,396.9c-0.6-3.5,6.8-8.7,11.3-11.1c19.1-10,38.6-19.2,57.8-28.9c4.2-2.1,32.3-13.8,42.3-22.3
	c2.1-1.8,0.2-5.2-2.5-4.3c-12.4,4.2-42.4,20.9-47.3,21.2c-1.6,0.1-4.1-1-4.7-2.7c-1-3,3.4-6.4,5.4-8c3.3-2.6,7.2-4.5,10.9-6.5
	c6.7-3.6,13.5-7.1,20-11.2c1-0.6,3.9-2.9,3.9-4.3c0-5-24.3,8.1-25.6,8.9c-17.9,11.9-36.1,24.4-54.9,34.6
	c-37.2,20.3-75.5,38.9-113.4,58c-1.1,0.5-7,2.2-7.4,0.3c-0.4-1.9,1.1-5,2.4-6.3c4.8-4.1,10-8,15.6-11c13.9-7.3,28.7-13.2,42.2-21.2
	c39-23.2,79.3-47.1,117.9-71c1.5-1,3.4-1.9,4.5-3.4c1.3-1.7,0.6-3.7-1.6-3.8c-4.9-0.1-10.4,3-14.6,5.2c-3.3,1.7-6.5,3.4-9.7,5.1
	c-6.8,3.6-13.5,7.4-20.3,11.1c-4.9,2.7-13.8,11.4-18.9,12.5c-31.5,6.7-57.1,26.6-82,44.9c-17.8,13.1-33.7,29.3-55,37.4
	c-3.9,1.5-7.4,4.3-10.7,6.8c-2.6,2-5.2,4.1-7.4,6.5c-2.3,2.6-3.4,5.8-6,8.1c-5,4.6-11.8,6.5-18,9.1c-16.5,7-21.5,6.2-41.4,11.7
	c-8,3.2-15.8,6.8-23.5,10.6c-1.3,0.6-3.6,2.9-3.2,4.6c1.6,6.6,14.2,1.5,18.3,0.8c3.8-0.6,7.5-1.3,11.2-1.9c7.5-1.3,15-2.5,22.5-3.8
	c15-2.5,30-5,45-7.6c5.4-0.9,10.8-1.9,16.2-2.8c26-4.6,51.9-12.3,73-28.9c4.4-3.5,8.3-7.9,12.9-11.2c4.2-3.1,9.5-4.6,14.2-6.9
	c11.5-5.7,35.5-14.9,35.5-14.9s61.5-19.5,64.6-20.9c3.1-1.5,48.8-20,50.1-22.6c1-2,1.8-4.8-0.5-6.2c-4.7-2.8-10.6,1.2-14.7,3.3
	c-3.4,1.8-7,3.3-10.5,4.9c-8.7,4-17.5,8-26.3,12c-21.9,9.8-43.7,19.7-67.1,25.2C886.9,396.4,878.5,399,877.7,396.9"/>
<path id="path13" class="st0" d="M420.6,331.3c-0.1-9.1-3.8-23.9-9.1-31.1c-22.9-31.2-29.6-70-46.4-104.2
	c-6.3-12.8-15.2-24-21.4-36.8c-10.7-22-21.4-44-31.9-66.1c-0.7-1.4-0.6-6.1,1.9-5.8c2.5,0.3,6.1,4.5,7.2,6.6c1.7,3.4,2.4,7.2,4,10.6
	c13.1,27,26.4,54,39.6,80.9c1.2,2.5,7.3,13.9,11.2,10.1c2.7-2.7-1-9.2-2-11.9c-1.4-3.9-2.8-7.9-4.1-11.9c-2.7-8-5.5-15.9-8.9-23.7
	c-4.8-11.1-11.6-21.5-15.8-31.8c-3-7.3-6.2-14.6-8.5-22.1c-0.6-2-3.6-13.6,0.9-12.6c1.1,0.3,1.9,1.3,2.5,2.3
	c1.2,2.3,2.1,4.5,3.1,6.9c13.3,31,27.1,61.9,38.9,93.4c18.4,49.3,33.4,99.9,53.4,148.4c10.7,26,27,48.5,40.6,72.9
	c2.6,4.6,5.4,8.7,8.8,12.8c3.6,4.2,6.5,9.2,7.6,14.7c0.7,3.8-3.5,6.5-6.6,4.3c-1.6-1.1-3-2.3-4.1-3.8c-8.9-11.5-16.9-23.7-25.2-35.7
	c-5.3-7.6-10.1-15.5-15.8-22.8c-5.7-7.2-12.9-12.6-19.2-19.2c-13.4-14-23.2-30.8-34.2-46.6c-2.5-3.7-5.1-7.3-7.9-10.8
	c-15.4-19.7-22.9-43.5-31.7-66.4c-5.7-14.8-12.7-28.4-24-40.3c-3.4-3.6-6-8.3-7.9-12.9c-4.5-11.2-10-22-16.6-32.1
	c-3.3-5-6.9-9.9-10.8-14.5c-3.5-4.2-9.4-8.5-11.3-13.7c-0.8-2.3-4.7-8.7-1.2-10.4c3.5-1.7,8.7,4.5,11,6.7c5.2,5.1,9.4,12,13.5,18
	c5.5,8.2,10.5,16.8,14.8,25.8c4,8.1,7,16.4,12.5,23.7c0.9,1.2,3.6,4.7,5.4,4.1c2.9-0.9,1.9-8.6,1.1-10.2
	c-2.1-4.1-8.4-11.3-10.7-15.3c-4.7-8.2-9.4-16.4-13.8-24.9c-3.3-6.4-6.2-13-9-19.6c-1.6-3.7-3.3-7.4-4.5-11.2
	c-0.7-2.1-2.2-7.8,1.1-7.9c4.4-0.1,8.3,9.6,9.6,12.7c6.1,14.1,16.1,33.3,24.3,48.1c3,5.4,7.2,9.9,9.8,15.5c4,8.8,4,18.6,8,27.4
	c4.4,9.4,9.8,18.4,14,27.9c3.4,7.9,5.5,16.3,8.6,24.4c2.9,7.3,5.8,14.7,9.6,21.6c6.3,11.3,13,22.4,20,33.1
	c3.2,4.8,5.8,10.1,8.6,15.1c1,1.6,10.8,16.7,10.8,8.8C420.6,331.7,420.6,331.5,420.6,331.3"/>
<path id="path14" class="st0" d="M1041.6,538.1c-1.2-1.5-4.6-1.1-5.9-1.1c-3,0.1-5.9,0.7-8.9,0.9c-4.3,0.3-8.2,1.8-12.4,3
	c-4.5,1.3-9.1,2.5-13.8,3.4c-25.4,5.1-52.5,4.7-77.5,11.2c-35,9.1-69.4,15.7-105.3,17.7c-16.5,0.9-33.1,0.2-49.3-2.3
	c-14.4-2.2-29.8-6.1-44.2-8.3c-0.5-0.1-1-0.1-1.4-0.2c-14.6-2.3-29.1-5.9-43.6-8.5c-7.1-1.3-36-10.9-31.8,6
	c1.9,7.7,9.4,9.8,15.9,12.2c3.2,1.2,6.4,2.6,9.6,3.8c6.8,2.7,13.6,5.3,20.5,8c13.6,5.2,27.4,10.1,41.5,13.7c0.4,0.1,0.8,0.2,1.3,0.3
	c31.3,7.9,63.7,11.6,95.7,17c28.4,4.8,56.7,9.8,85.2,13.9c12.3,1.7,24.6,2.4,37,2.7c13.3,0.3,26.9,2.1,40.1,0.5
	c6.5-0.8,28.1,3.7,34.1,0.4c2.7-4.6-9.7-3.6-8.6-9.2c1.1-3,9.4-1.7,11.4-2.5c1.9-0.8,7.5-0.6,7.2-3.5c0-3.8-8.6-3.6-10.5-3.7
	c-7.1-0.3-13,2.7-20.2,3.3c-12.9,1.1-27.2-1.3-36.7-0.5c-21.1-0.5-36-1-51.7-3.2c-5.2-0.7-16-2.9-20.7-5.3c-1.7-0.9-1.5-3.4,0.4-3.9
	c4.2-1.1,8.5-1.9,12.7-2.8c4.3-0.9,8.7-2.5,13.1-1.7c4.5,0.8,8.8,2.4,13.3,3.3c27.1,5.7,55.9,2.5,82.8-2.9c5.9-1.2,15.2,5.3,15-3.5
	c-1.1-6.6-13.5-6.3-20.2-5.9c-20.1,1.3-27.2,6.2-59.1,4.4c-7.1,0-14.2-0.2-21.3-0.5c-12.2-0.5-24.3-1.1-36.5,0
	c-5.3,0.5-10.7,1.2-15.9,2.3c-7.4,1.5-15,2.2-22.6,2.1c-4.2-0.1-8.5-0.1-12.7-0.2c-14.7-0.3-29.5-1-44-3.9
	c-14.2-2.8-28.2-6.3-42.1-9.8c-4.9-1.2-11.9-6.5-16.7-8c-5.3-1.7-13.4-0.2-17.7-4.2c-3.2-3,0.9-4,3.2-3.8c2.7,0.2,5.3,1.1,8,1.5
	c14.9,2.5,29.8,5.2,44.6,8.2c14.3,2.8,28.6,5.9,43.2,7c7.3,0.6,14.6,0.7,21.8,0c7.2-0.7,14.1-2.4,21.2-3.7c10.6-1.9,21.3-2.1,32.1-2
	c36.8,0.6,73.5,1.1,110.3,0.6c9.1-0.1,18.2-3.7,27.1-6.4c5.9-1.8,4.5-11.1-2.1-10.3c-5.8,0.7-11.2,2.9-16.7,4.7
	c-5.9,2-12,3.1-18.2,3.9c-17.4,2.4-34.7,1.6-51.8-2.1c-3.7-0.8-7.1-2.4-10.4-4.2c-1.4-0.8-2.8-2-3-3.7c-0.5-4.3,6.3-2.9,8.5-2.9
	c3.3-0.1,6.7,0.2,10.1,0.1c6.8,0,13.7-0.1,20.5-0.1c13.2-0.1,26.4-0.3,39.6-0.8c4.8-0.2,13-0.9,17.5-2.3c2.2-0.7,4.4-1.5,6.7-2.2
	c1.7-0.6,4.2-0.8,5.2-2.5c1.6-2.6-0.4-4.4-2.9-4.7c-2.4-0.2-4.2,1.9-6.1,2.9c-2.3,1.3-5.2,1.7-7.8,1.7c-1.8-0.1-3.6-0.4-4.8-1.7
	c-2.1-2-1-4.6,1-6.1c4.8-3.7,11.3-0.1,16.5-2.3c0.8-0.3,1.6-1,1.8-1.8C1042.1,539.2,1042,538.6,1041.6,538.1"/>
<path id="path15" class="st0" d="M953.2,526.9c-2.5-1.6-6-2.7-5.5-6.3c0.2-1.2,0.6-2.5,1.6-3.3c0.9-0.7,2-0.8,3.1-0.9
	c23-2.6,46.2-5.3,68.9-10c5-1,9.6-3.3,14-5.8c2.3-1.3,4.5-2.6,6.8-3.8c3-1.7,6.5-4,4.3-8c-1.3-2.4-5.1,0.3-6.5,1.1
	c-2.9,1.8-5.5,3.6-9,4.2c-3.6,0.7-7.3,0.8-10.9,2c-6,2-12,3.7-18.1,5.1c-19.3,4.6-39.1,5.8-58.7,9.1c-53.9,9.4-83.4,21-138.7,19.3
	c-9.4-0.3-41.4-0.4-50.8,0c-8.8,0.4-20.4,0.4-29.2,0.6c-4.6,0.1-9.2,0.1-13.8-0.2c-4-0.3-8-0.3-11.7-1.9c-2.3-1-4.4-2.5-6.8-3.3
	c-5.4-1.7-11.2-0.1-16.8-0.2c-4.9-0.1-10.2-1.8-15-0.8c-2.3,0.5-4.2,2.8-4.2,5.2c0,1.5,0.7,2.8,1.7,4c2.4,2.8,6,3.9,9.3,5.2
	c3.5,1.3,6.9,2.7,10.6,3.5c8.3,1.8,17.9,2.2,26.3,3.8c7.8,1.5,14.6,4.2,22.5,5.6c18.9,3.4,38,6.1,57.1,7.3c17.4,1.1,36.9,3,54.2-0.1
	c29.7-5.3,59.2-11.8,88.7-18.1c9.8-2.1,19.3-4.9,29.3-5.4c7.8-0.4,15.7-1,23.6-0.7c9.7,0.4,62.4-7,67.5-12.5c3.7-1.8,0.9-6.4,0-7
	s-4.8-2.4-9.9,0c-6.1,2.6-25,6.2-31,6.6s-22.6,5.1-26.6,6.2c-4.7,1.3-9.7,1.8-14.5,1.9c-2.8,0-5.7,0-8.3-0.8
	C955.4,528.2,954.3,527.6,953.2,526.9"/>
<path id="path16" class="st0" d="M426.6,58.3c3-1.2,3.4,5,3.7,6.7c0.5,3.5,0.9,7.1,1.4,10.6c0.4,3.4,0.8,6.8,1.4,10.2
	c0.3,1.6,1.9,9.3,4.9,7.6c0.8-0.5,1.2-1.5,1.3-2.4c0.3-2.9-0.4-5.7-0.4-8.6c0-3.5,0.4-7.3,0.4-10.9c0-3.8-1-7.2-1.3-10.9
	c-0.1-1.7-0.1-7.3,2.1-8c4.4-1.3,5.4,10.3,6,12.5c1.4,5.5,2.6,11.1,3.6,16.8c2.4,13.6,1.3,27.3,3.3,40.8c1.3,8.9,4.2,17.6,4.8,26.6
	c0.6,9.2-2,18.2,0.2,27.3c1.5,6.2,5.3,12.3,7.2,18.5c1.6,5.1,2.8,10.3,3.4,15.5c1.1,9.3-0.3,18.8,0.9,28.1
	c1.2,9.3,5.6,17.6,8.2,26.4c3.4,11.4,5.8,23.8,8.3,35.3c0.7,3.2,0.7,21.1,6.5,20.3c4.5-0.6,2.8-17.9,2.6-21.5
	c-0.5-8.8-1.6-17.6-3-26.3c-2.8-16.7-3.2-28.2-6.7-44.7c-7.1-16.2-13.6-41.4-13.6-59.6c0-13.4,3.4-26.6,1.9-39.6
	c-1.5-13.1-7.9-25.9-12.9-38.7c-2.8-7.2-2.9-15.5-3.3-23.1c-0.3-5.7-2.5-11.3-2.1-17.1c0.6-7.4,4.9-3.3,4.7,2.7
	c-0.1,3.7,0.4,6.6,1.9,10.1c0.7,1.6,1.9,6.6,4.2,6c3-0.8,5.2-6.2,5.7-9c1.7-10.6,4-11.3,6-8.8c1.4,1.6,1.3,7.6,1.4,9.6
	c1.3,21.5,0.5,46.2,2.5,67.7c1.3,14.9,3.5,29.8,4.9,44.7c2.9,32.2,12.3,67.6,17.1,99.5c4.2,28.2,3.8,49.1,2.9,77.8
	c-0.7,24.4,7.5,37.2,11,51.7c1.3,5.4,6.3,12.9,4,18.8c-2,5.4-9.3,6.3-13.3,2.5c-0.2-0.2-3.5-3.7-3.7-3.9
	c-19-17.6-21.5-36.9-22.3-71.7c-7.2-50.8-18-98-25-150.4c-5.3-24.2-14.2-44.8-18.9-70.1c-1.7-9.1-6.4-17.7-8.7-26.7
	c-2-7.6-3.1-15.3-4.1-23c-0.5-3.9-0.9-7.8-1.3-11.6c-0.2-1.9-0.7-5.8,1.1-7.1C426.1,58.5,426.4,58.4,426.6,58.3"/>
<path id="path17" class="st0" d="M62.6,557.3c-0.1,0-0.2,0-0.3,0c-7.1,1.2-13.9,3.3-21.2,1.9c-2.3-0.5-5.3-3.2-4.7-5.9
	c0.8-3.1,6.4-3.9,9.1-4.5c20.9-4.2,43.5-1,64.5,1.1c22.7,2.2,45.3,5.2,68,7.5c3.6,0.4,7.3,0.7,10.9,1.1c21.1,2.1,41.7-0.2,61.4-8.8
	c11.9-5.2,24.1-7.1,37.6-7c27.3,0.2,53.9-8,81-10.7c12.4-1.3,25-1.7,37.5-2.1c6.6-0.2,13.2-0.4,19.8-0.5c3.6-0.1,12.6-1.1,16.1-0.5
	c2.8,0.4,3.4,3.8-2.5,5.3c-9.7,2.5-26.5,5.3-36.4,7c-12.1,2.1-23.6,4.5-34.2,12c-15.4,10.8-33.9,11-52.2,9.7
	c-10.7,1.1-21.4,1.7-32,3.5c-25.4,4.2-50.6,10.3-76.2,13.1c-19.1,2.1-38.8,2.3-57.8,0.1c-23.1-2.7-45.7-2.4-68.7-0.2
	c-13,1.3-18.4-2.4-39-2.5c-1.1-0.1-2.3-0.3-3.1-1c-0.9-0.8-1.2-2.3-0.8-3.4c1.9-5,13.1-4.8,17.3-4.3c1.6,0.2,3.2,0.5,4.8,0.6
	c2.3,0.1,4.5-0.3,6.8-0.6c6.6-0.8,13.3-0.3,19.8,0c4.7,0.2,10.7,2,15-0.4c3.6-2,1.6-5.1-1.1-6.8c-2.7-1.6-5.9-1.4-8.9-1.3
	c-3.3,0.1-6.3-0.4-9.7-1C76.9,557.4,69.8,556.1,62.6,557.3"/>
<path id="path18" class="st0" d="M689,493.8c6-0.9,11.4-3.5,17.3-4.8c11.2-2.6,22.8-2.4,34.2-3.9c9.4-1.2,17.9-5.4,27.1-7.5
	c11.5-2.7,20.8-6.9,32.5-8.9c17.7-3,39.1-1.3,56.3-5c9.2-2,17.7-6,25.9-10.5c7.1-3.8,14-8.9,22.3-10c8.9-1.2,17.9,0.1,26.8-1.3
	c29.5-4.7,58.9-16.9,85.1-31.2c5.6-3.1,12.7-7.3,16.5-3.9c2.7,2.5,1.2,7.4-1.2,9.2c-1.4,1.1-3.2,1.7-4.9,2.3
	c-2.4,0.8-4.8,1.9-7.2,2.9c-13,5.4-26.5,7.9-39.8,12.4c-13,4.4-25.5,10.3-37.8,16.3c-10.8,5.3-21.6,10.7-32.8,15.3
	c-25.8,10.6-51.1,24-79.4,26.6c-25.5,2.3-48.3,13.6-72.8,18.9c-9,1.9-18.4,3.4-27.5,2.9c-24.5-1.4-48.9-3.7-73.3-6.3
	c-3.5-0.4-9.9-1.5-9.5-6.2c0.4-4.5,6.8-6.2,10.4-6.7c4.3-0.6,8.8-0.3,13.1,0C676.6,494.7,682.8,494.8,689,493.8"/>
<path id="path19" class="st0" d="M131.4,411.8c6.5,3.6,12.8,5.4,19.3,9c5.1,2.8,8.7,7.7,13.9,10.2c5.3,2.6,11.6,2.1,17.3,2.1
	c20.9,0.2,39.6,9.9,59.8,14c5.4,1.1,10.8,2.9,16.2,4.2c9.3,2.1,18.5,0.4,27.9,1c9.1,0.5,18.1,2.4,26.9,5
	c17.6,5.3,34.1,13.5,51.5,19.3c10,3.3,20.2,11.5,32.2,15.4c7.9,2.6,15.5,3,23.7,3.8c2,0.2,4.1,0.8,5.6,2.2c3.5,3.4-0.5,5.3-3.7,5.1
	c-28.5-1.7-64.1-5.4-92.6-7.3c-14.2-1-24.4-5-34.1-15.8c-7.8-8.8-13.6-12.4-31.2-11.2c-14.7,0.5-30.3-2.5-44.3-7.5
	c-40.6-14.5-80.5-31.5-122.4-42.2c-8.3-2.1-16.6-3.8-24.9-5.6c-7.8-1.7-14.1-2.4-18.8-9.5c-1.1-1.6-2-3.5-1.6-5.5
	c0.7-3.7,4.7-3,7.2-2.1c7,2.4,13.7,6,20.8,7.8c6.9,1.8,13.8,3.3,20.6,5.3c3.5,1,6.6,3.2,10,4.4c1.8,0.6,3.8,1.2,5.7,0.9
	c7.7-1.5-4.1-5.5-5.8-6.4c-2.8-1.4-5.5-2.6-8.4-3.7c-8.1-3-16.1-6.2-24.1-9.4c-3.9-1.6-7.9-3.1-11.8-4.7c-3.3-1.3-7.7-2.2-10.3-4.6
	c-2.9-2.6-3.6-7.7,0.9-8.1c6-0.6,12,3.5,17,6.2c6.4,3.5,12.7,7,19.5,9.7C93.4,394,118.9,405,131.4,411.8"/>
<path id="path20" class="st0" d="M922.9,760.7c-1,0-1.7,0.5-1.9,1.6c-0.3,1.5,1.5,2.6,2.6,3.3c4.9,3.3,10.4,7.8,15.8,10.3
	c5.6,2.5,11.5,3.6,16.6,7.5c3.3,2.6-1.7,3.5-3.5,3.2c-2.3-0.4-4.5-1.4-6.7-2.1c-6.9-2.1-14-3.7-21-5.8c-6.2-2-13.6-4.4-18.1-9.4
	c-4.8-5.3-11.2-8-18-10.3c-7.5-2.5-15.2-4.1-23-5.5c-33-5.7-59.6-24.6-87-41.6c-25.6-15.9-51-32-76.3-48.4
	c-9.9-6.4-19.7-12.8-29.5-19.3c-4.7-3.1-9.4-6.3-14.1-9.4c-4.5-3-9.2-5.6-13.2-9.3c-7-6.4-12.2-14.5-19.4-20.9
	c-3-2.7-17.6-13.3-12.4-18.5c5.8-5.8,18,10.2,23.1,13.4c11.9,10.1,26.9,13.3,36,22.5c25.1,25.6,56.2,39.3,87.9,52.4
	c11.4,4.7,23,9.8,32.5,17.8c4.9,4.1,8.9,8.9,13.9,12.9c5.3,4.2,10.9,7.9,16.8,11c0.7,0.4,1.4,0.7,2.2,1.1c9,4.4,18.7,7.6,27.3,12.7
	c3.9,2.3,7.6,5.1,11.5,7.5c4.5,2.7,9.4,4.9,14.5,6.4c5.2,1.5,10.5,1.8,15.8,2.7c8.5,1.5,16.1,5,24.2,7.6c0.2,0,0.3,0.1,0.4,0.2
	c3.8,1.6,7.7,3.2,11.6,4.8c5.5,2.2,11.1,4.7,17,6c3.3,0.7,6.8,1,10.2,1.5c1.9,0.3,8.2,0.8,8.9,3.2c0.2,0.5-0.1,1.1-0.5,1.6
	c-1.1,1.2-2.5,1.6-4.1,1.6c-4.2,0.1-11-1-15-2.3c-6.1-1.9-11.8-4.8-17.7-7.2C929.2,763,925.3,760.6,922.9,760.7"/>
<path id="path21" class="st0" d="M406.4,103.5c0.7,2.3,1.5,4.7,2.4,6.9c1.6,4.2,8,5.4,7.6-0.5c-0.6-9-7.2-30.9-9-41.8
	c-0.4-2.2-0.6-4.5,0.9-5.1c1.4-0.5,2,0.2,3.3,1.7c2.4,2.7,3.3,9.2,4.6,12.5c2,4.9,3.5,9.8,4.8,15c2.7,11,5.5,19.2,7,30.4
	c1.1,8.1,2.1,16.2,3.8,24.2c8.5,39.4,14.2,79.4,21.9,119c5.8,29.6,15.4,61.7,21.9,91.1c0.8,3.4,1.8,6.9,2,10.4
	c0.1,2.2,0.3,7.8-1.9,9.1c-3.1,1.9-7.7-5.7-8.9-7.8c-20.7-37.4-33.8-77.8-47.7-117.9c-3.6-10.5-6.1-21.4-8.9-32.2
	c-1.7-7-3.2-14.1-5.6-20.9c-2.5-6.8-6.4-13-9.3-19.6c-6-13.7-10.1-28-13.9-42.4c-2.1-5.9-7.4-11-9.5-16.9
	c-3.8-10.7-5.8-19.7-9.9-30.2c-1-2.5-1.9-5.3-2.8-7.8c-0.4-1.2-2.8-6.2-0.4-6.1c2.1,0,2.6,2.5,3.2,4c2.9,6.7,5.6,13.3,8.3,20.1
	c1.2,3.2,2.3,6.4,3.6,9.5c1.5,3.6,4.1,6.8,6.8,9.7c0.5,0.5,1,1,1.6,1.2c2,0.7,0.6-7.7,0.4-8.7c-0.7-3.9-1.8-7.8-2.7-11.7
	c-1.2-5.5-2.5-11-3.7-16.5c-0.5-2.1-1-4.2-1.5-6.3c-0.3-1.2-1.5-5.2-0.3-6.1c2.2-1.8,2.9,2.7,3.1,3.9c2.2,9.4,5.5,18.6,8.3,27.9
	c1.3,4.2,4.1,7.8,5.8,11.9c1.8,4.3,3.1,8.8,4.2,13.4c2.2,9.2,3.4,18.5,5.7,27.6c0.3,1.2,0.6,2.4,1,3.6c9.6,33.1,21.3,65.7,32.4,98.4
	c0.7,2.2,2.3,7.1,4.6,8.1c4.6,2,1.7-9.5,1.3-11.1c-7.1-27.2-14.5-54.3-21.8-81.4c-3.3-12.2-6.5-24.4-9.8-36.6
	c-1.6-5.8-2.9-11.9-4.9-17.6c-1.4-4.1-2.9-8.1-4.2-12.3c-4-12.7-6.5-26.1-9.7-39.1c-0.3-1-0.7-2.4,0.2-3.3c1.4-1.5,3.5,0.2,4.2,1.5
	c3.1,5.2,4.2,12.3,5.8,18.1C402.7,89.7,404.3,96.6,406.4,103.5"/>
<path id="path22" class="st0" d="M69.4,482.5c5,2.3,10.4,3.6,15.8,5c5.8,1.5,11,2.9,17.1,1.8c3.1-0.6,5.6-0.8,8.7-0.3
	c1.4,0.2,2.9,0.6,4.4,0.6c2,0,3-1,1.6-2.3c-1.8-1.7-5.2-3.1-7.5-3.5c-5.2-1.8-12.2-4.7-17.6-5.8c-5.9-1.1-11.8-1.7-17.7-3.3
	c-5.3-1.4-10.4-3.3-15.5-5c-4.5-1.5-9.5-0.9-13.7-3.6c-2.2-1.4-2.7-4.4-0.1-5.7c1.3-0.6,2.8-0.5,4.3-0.4c6.6,0.6,13.4,1.3,19.7,3.3
	c26,8.4,50.1,16.9,75.9,25.5c3.4,1.1,13.7,4.2,17.2,4.8c40.4,6.5,73.8,9.5,114.3,15.4c7.5,1.1,15,1.7,22.5,2.3
	c3.8,0.3,7.5,0.7,11.3,1c2.2,0.2,4.4,0.5,6.6,0.5c2.7,0,5.4-0.6,2.9-3.1c-1.7-1.8-5.5-2.5-7.7-3.2c-5.8-1.9-12.2-2.5-17.9-4.8
	c-2.1-0.9-4-2-6-3c-8.2-3.7-16.8-2.3-25.3-3.4c-23.6-3.1-46.9-8-70.5-11.2c-43.1-5.8-84.4-19.9-126.5-30.3
	c-6.7-1.7-15.7-2.2-21.7-5.9c-1-0.6-2-1.6-1.8-2.8c0.2-1.2,1.5-1.7,2.6-2.1c8.3-2.5,16.5-0.7,24.8,0.7c8.2,1.5,16.5,3,24.6,4.6
	c4.6,1,9.3,2.1,14,2.5c1,0.1,11.7,0.5,10.9-1.3c-0.8-6.3-20.4-8.3-23.2-8.9c-9.6-2.1-19.3-3.7-29-5.4c-4.8-0.9-9.8-0.9-14.5-2.4
	c-3.6-1.1-14.6-9-5.5-10.6c9.9-1.7,19.6,1.7,28.9,4.4c10,3,20.1,5.8,30.2,8.6c19.7,5.6,39.3,11.4,58.6,18.3
	c20.1,7.2,39.9,14.9,60.2,21.5c10.2,3.3,20.5,6.4,31,8.9c9.5,2.3,20,2.8,29.1,6.1c7,2.6,13.3,6.9,20.2,9.7c2,0.8,4,1.4,6,1.9
	c5.5,1.3,11.2,1.6,17,2.2c12.8,1.3,26.1,6.3,38.9,7.8c13.5,1.5,24,0.8,37.4,2.5c2.9,0.4,8.3-0.7,11.1-0.3c4,0.5,8.4,0.7,12.1,2.3
	c0.4,0.2,0.9,0.4,1.2,0.8c0.3,0.4,0.4,0.9,0.2,1.3c-0.2,0.3-0.5,0.5-0.8,0.6c-2.5,1-6.3,0.5-9,0.5c-2.9,0.1-5.8,0.2-8.7,0.3
	c-7.1,0.3-14.1,0.7-21.2,1c-15.6,0.8-31.1,1.5-46.7,1.4c-8.8-0.1-17.7-0.2-26.4-1.9c-18.7-3.6-38.7,0.5-58.1-0.4
	c-16.4-0.7-32.8-3.6-49.1-5.6c-5-0.6-9.9-2-14.9-2.1c-27.8-1-55.6-2.2-81.3-13.8c-2.8-1.3-5.4-3.1-8.4-4c-5.4-1.5-10.1,2.1-15.3,3
	c-4.9,0.8-9.9,0.3-14.7-0.9c-9.8-2.4-18.9-7.1-29.1-7.4c-2.7-0.1-5.8-2.6-5.8-5.4c0-2.3,2.8-3.3,4.6-3.7c5.3-1.1,10.7-0.1,16,0.6
	C62.8,481.4,66.8,481.4,69.4,482.5"/>
<path id="path23" class="st0" d="M363,460.7c-6.4-2.7-12.7-5.7-18.6-9.4c-10.6-6.7-20.2-15.2-30.3-22.6
	c-15.5-11.3-32.2-21.3-50.8-26.6c-24.6-7-48.4-18.2-71.2-30.1c-22.9-11.9-44.3-25.3-66.4-38.8c-7-4.3-15-9-22.2-13
	c-2.5-1.4-14.7-10.1-15.3-4.7c-0.6,4.3,7.4,8.6,10.3,10.7c3.4,2.4,7.1,4.5,10.6,6.7c1.4,0.9,9.1,6.7,9.1,8c0,2-3.6,1.2-4.7,1.2
	c-2.3-0.1-4.7-0.3-7-1c-3.9-1.1-7.7-2.5-11.5-3.7c-3.3-1.1-6.7-1.9-9.8-3.5c-2.5-1.3-4.5-3.2-7.3-4c-2-0.5-6-0.5-4,2.6
	c1.8,2.8,5.8,5.3,8.5,7.2c3.1,2.2,6.5,4.1,9.9,5.8c6.6,3.4,13.7,6.1,20.3,9.2c26.3,12.3,52.8,24.2,78,38.7
	c44,25.3,92.5,39.6,138.4,60c8.4,3.7,17,6.8,25.6,10c8.1,3,15.8,6.5,23.8,9.8c8.8,3.6,17.7,7.2,26.8,10.1c3.3,1.1,6.8,2.2,10.2,2.6
	c5.2,0.6,10.6,1,15.6,2.7c5.1,1.7,9.2,5.5,14.4,6.8c1.7,0.4,10.6,1.8,7.2-2.5c-4-2.8-3.9-1.5-9.4-5.1c-7.6-5.1-15.7-8.8-24.9-9.6
	c-13.2-1.2-25.7-6.2-38-10.8C374.7,465.3,368.8,463.1,363,460.7"/>
<path id="path24" class="st0" d="M814.8,927.9c-5-6.6-10.1-13.2-15.2-19.7c-14-17.7-28.1-35.2-42.1-52.8c-2.7-3.4-5.4-6.9-8.1-10.4
	c-6.6-8.5-13.4-16.9-19.7-25.6c-5.4-7.5-9.7-19.2-18.3-23.4c-3.2-1.6-9.6-1.1-7.1,4.4c3,6.4,6,13,10.1,18.8
	c11.6,16.3,23.8,32.2,35.5,48.4c4.3,6,8.9,11.9,13.3,17.8c7.5,10.1,15,20.2,22.5,30.3c1.8,2.5,3.7,4.9,5.5,7.4
	c1,1.5,16.8,21.5,17.8,22.9c0.9,1.4,1.6,4-1.1,3.9c-3.2-0.1-19.2-22.3-21.1-24.6c-3.1-3.7-5.5-7.9-8.6-11.6
	c-4.4-5.3-7.4-11.9-11.9-17.2c-2.3-2.7-4.3-5.7-6.6-8.4c-2.4-2.8-5.8-7.5-8.7-9.6c-0.6-0.4-1.4-1.3-2.2-1.4c-2-0.3-1.5,2-1.2,3.4
	c2.3,13.1,14.3,25.8,19.3,38.2c4.5,11.5,11.7,21.3,18.7,31.3c1.2,1.7,13.1,17.8,9.6,19.3c-3.7,1.6-32.9-47.8-33.8-50.3
	c-1.2-3.7-2.6-7.3-4.9-10.4c-9.8-13.2-19-27.3-27.4-41.4c-3.8-6.3-7.9-12.5-12-18.6c-7-10.5-13.2-21.6-21.2-31.3
	c-20.1-24.3-31.7-53.1-44.6-81.3c-1.7-3.8,2.5-7.8,6.3-6.2c0.7,0.3,1.3,0.7,1.8,1.3c25.5,30.2,57.7,53.7,80.5,87
	c15.5,22.7,39.8,39.2,59.5,59.1c1.8,1.9,4.1,3.4,6.1,5.1c1.9,1.6,3.7,3.3,5.5,5c3.3,3.1,6.5,6.4,9.5,9.8c5.7,6.4,11,13.3,16.2,20.1
	c1.5,1.9,3.4,3.8,4.5,6c1.1,2.2,1.2,6-2.1,6.2c-2.6,0.2-3.8-1-5.5-2.8c-1.8-1.9-3.6-3.8-5.3-5.7c-3.5-3.9-6.8-8-10.4-11.8
	c-1.4-1.5-2.9-3-4.4-4.5c-1-0.9-4.2-1.7-5.2-0.6c-1.1,1,0,4.4,0.8,5.5c2,2.9,3.4,6.2,5.7,9c2.7,3.3,4.9,6.8,7.4,10.2
	c1.4,1.9,5.4,5.5,3.7,8.2c-2.1,3.5-9.3-6.7-10.3-8C815.5,928.9,815.1,928.4,814.8,927.9"/>
<path id="path25" class="st0" d="M1046.2,476.6c-0.5,0.5-1.2,0.8-1.9,1.1c-2.9,1.1-6.1,1.6-9.1,2.3c-21.1,4.5-42.2,10.3-63.5,12.5
	c-43.7,4.5-86.4,14.3-129.6,21.3c-17,2.8-34.3,4.3-51.5,6c-1.4,0.2-4.5-0.1-5.5-1.3c-1.9-2.4,2.7-4.5,4.4-5.2c2.2-1,4.8-1.2,7.2-1.7
	c5.7-1.1,11.4-2.1,17.1-3.1c11.3-2,22.7-4.2,33.6-7.9c31.9-10.9,66.2-22.6,97.3-35.5c7.7-3.2,15.1-6.9,22.7-10.3
	c8.8-4,18.4-6.3,27-10.8c6.6-3.5,12.8-7.6,19.6-10.7c3.4-1.6,6.9-3,10.5-3.8c2-0.5,13.1-3.2,10.3,2.5c-0.9,1.9-3.4,1.9-5.2,2
	c-3.1,0.3-9.8,3.3-8.9,7.5c0.4,1.7,3.2,2,4.5,2.1c3.6,0.3,10.1-0.6,13.7-0.3c3.3,0.3,4,4.2,0.4,4.6c-26.9,3.6-48.4,20.2-77.1,18.5
	c-6.2-0.4-13.3,5.7-18.7,8.5c-4,2.1-9.5,2.1-13.8,3.6c-1,0.4-2.1,0.8-2.8,1.6c-3.7,4.4,6.4,5.9,8.6,5.9c2.5,0,4.9,0,7.4-0.1
	c4.8-0.2,9.5-0.6,14.2-1.2c9.3-1.2,18.5-3.4,27.6-5.9c9.6-2.7,18.8-6.8,28.6-8.6c2.6-0.5,4.9-1,7.1-2.4c3.2-2.1,6.2-3.9,9.7-5.4
	c2.3-1,5-1.7,7.5-1.8c1,0,2.4-0.1,3.3,0.6c1.1,0.9,1,2.5-0.3,3.2c-2.3,1.4-12.3,4-11,7.6c0.7,1.9,1.1,3.7,7.2,2.4
	c2.4-0.5,4.7-1.7,7.3-1.5c1.2,0.1,2.5,1.1,2.7,2.3C1046.9,475.7,1046.7,476.2,1046.2,476.6"/>
<path id="path26" class="st0" d="M730.4,743.3c-26.6-24.2-51.7-50.2-75-77.6c-16.8-19.8-32.7-40.4-51.9-57.9c-2.7-2.5-6.5-5-9.7-3.3
	c-4.3,2.4-2.1,9,0.6,13.1c8.1,12.3,16.3,24.7,24.4,37c19.6,29.7,39.4,59.6,65.3,84c17.5,16.4,37.5,30,54.8,46.6
	c15.1,14.5,28,31,40.1,47.9c3,4.3,6,8.5,9,12.8c2.5,3.6,5.3,5.7,8.3,8.8c7.5,7.8,15,15.5,22.9,22.9c5.5,5.2,11,10.3,16.7,15.3
	c3,2.7,5.9,5.4,8.9,8.1c1.8,1.6,3.6,3.2,5.5,4.8c0.9,0.7,1.8,1.9,3.1,1.5c1.6-0.5,1.6-2.7,1.3-4c-0.6-3-3-5.8-5.3-7.6
	c-18.9-15.4-36.8-32.2-53.3-50.2c-1.9-2.1-3.5-6-0.9-7.1c1.5-0.7,3.2,0.5,4.4,1.7c10.7,9.7,21.3,19.3,32,29
	c5.2,4.8,10.5,9.5,15.7,14.3c3.5,3.2,6.5,7,10,10.2c1.4,1.3,3.6,3.6,5.6,3.8c2.7,0.3,2.5-3.2,1.9-4.9c-1.5-3.8-5-7-8.1-9.5
	c-33.5-28-67.4-55.6-98.4-86.3c-12.8-12.6-25-25.8-36.7-39.4c-1.4-1.6-2.8-3.4-3-5.5c-0.2-2.1,1.5-4.5,3.6-4.1
	c1,0.2,1.7,0.8,2.5,1.5c5,4.4,9.9,8.8,14.9,13.3c45.5,40.5,90.9,81,136.4,121.5c2.8,2.5,8.5,4.2,9.3,0.5c0.4-2-1.4-3.7-3-4.9
	c-13-9.9-26.1-19.7-39.1-29.6c-2.8-2.2-5.7-4.5-7.8-7.5c-1-1.4-2-3-2.3-4.8c-0.2-1.1-0.2-3.7,0.8-4.4c1.3-0.9,4.7,0.7,5.9,1.3
	c3.8,1.9,6.7,5.1,9.8,7.8c3.4,3,7,5.9,10.5,8.8c7.5,6,15.1,11.9,22.7,17.8c3.6,2.8,7.6,5.8,12.2,5.6s8.9-5.5,6.5-9.3
	c-0.9-1.4-2.4-2.2-3.8-3c-17.8-9.6-35.5-18.4-52.5-29.3C804.4,806.9,766.2,775.9,730.4,743.3"/>
<path id="path27" class="st0" d="M936.4,415.5c-0.2,0.9-0.2,1.9,0.2,2.8c1.6,3.1,6.6,2.2,9.3,1.7c3.8-0.8,7.3-2.4,10.8-4
	c5.7-2.7,9.9-5.2,15.8-7.4c14.1-5.4,30.3-14.7,44.2-20.5c1.2-0.5,2.8-0.2,4.5,0.3c3.1,0.9,3.1,4.7,2.1,7.2c-0.3,0.6-0.8,1.1-1.3,1.6
	c-3.2,3-7.8,3.6-11.7,5.1c-4.6,1.8-9.1,3.7-13.6,5.7c-9,3.9-18,7.9-27.1,11.5c-14.1,5.5-28.7,9.7-43.8,10.6
	c-22.9,1.4-45.5,6.5-66.1,18.3c-5.4,3.1-11.3,6.2-17.5,6.9c-2.8,0.3-5.8,0.5-8.6,0.1c-0.9-0.1-1.9-0.9-2.5-1.5
	c-1.3-1.3-0.6-2.7,0.5-3.9c2.5-2.6,5.2-5.2,8-7.5c3.6-3,7.5-5.7,11.2-8.5c18.7-13.9,38.4-25.2,61.5-27.4c25.3-2.4,38-7.8,67.4-25.4
	c7.3-3.7,23.8-10.9,33.3-10.3c3.7,0.3,4.9,5.1,1.7,7.1c-7.1,4.3-23.2,7.9-30.7,11.6c-11.5,5.7-23.8,9.7-35,15.8
	c-3.7,2-7.2,4.8-10.7,7.2C937.5,413.1,936.7,414.3,936.4,415.5"/>
<path id="path28" class="st0" d="M827.2,178.6c0,0,0,0.1,0,0.1c0.1,0.7,0.6,1.3,1.1,1.7c1.7,1.5,4.3,1.8,6.5,1.1s4-2.1,5.8-3.7
	c5.3-4.7,12-9.6,18.6-12.3c1.8-0.7,3.6,1.1,2.8,2.9c-1.4,3.1-9.7,9.1-11.8,11.4C809.7,224.1,769,268,728.4,312
	c-2.9,3.1-5.2,5.9-8.6,8.5c-3.6,2.7-7.2,5.4-10.9,8.1c-0.8,0.6-1.6,1.2-2.5,1.4c-1,0.2-2.1,0-2.6-0.9c-0.7-1.1-0.1-2.5,0.6-3.5
	c6.7-11.3,17.3-19.7,25.5-29.9c8.3-10.3,15.5-21.4,22.1-32.8c6.5-11.1,12.4-22.5,18.4-33.9c2.3-4.4,5.7-8.3,9-12.1
	c8.1-9.3,16.2-18.6,24.4-27.8c7.1-8,13.9-16.3,22.2-23.1c3.8-3.1,7.7-6.2,11.8-8.9c1.4-0.9,6.5-4.8,8.3-3c1.7,2.9-3.7,6.9-5.4,8.4
	c-4.1,3.8-7.8,8-11.6,12C828.1,175.7,827,177.1,827.2,178.6"/>
<path id="path29" class="st0" d="M843.5,791.3c-42.4-18.7-73-52.9-106.6-82.8c-9-8-19-14.8-29-21.5c-5.1-3.4-10.1-6.8-15.1-10.3
	c-2.5-1.8-4.9-3.6-7.3-5.5c-1.7-1.3-3.8-4-5.9-4.6c-1.2-0.4-2.7-0.2-3.5,0.8c-3,3.3,8.4,14,10.5,16.7c20.3,25.3,45.2,46,69.9,66.6
	c25.9,21.6,52.9,41.9,80,61.9c18.2,9.7,36.4,19.6,54,30.3c3.9,2.4,8.4,4.7,11.7,7.9c4.5,4.1,12.7,7.7,13.8,3.3
	c0.8-4.4-1.5-6-11.1-11.8c-9.6-4.2-19.1-8.8-28.4-13.6c-4.6-2.4-34.8-17-30.1-24.3c1.9-2,3.8-3.2,9.6,0c9.9,4.6,60.4,33.1,64,29.7
	c2-2.3,0.7-3.9-2.1-4.7C912.3,827.3,843.5,791.3,843.5,791.3"/>
<path id="path30" class="st0" d="M531.3,320.9c0,0.1,0,0.1,0.1,0.2c2,5.1,4.7,2.2,6-1.7c1.2-3.6,1.4-7.6,2.7-11.2
	c9-25.9,11.4-53.8,14.5-80.9c6.2-53.9,4.1-109.5,7.6-164c0.2-2.9,2.2-6.9,4.7-5.4c1.2,0.7,1.4,2.4,1.5,3.8
	c0.2,6.9,0.4,13.8,0.7,20.8c0,1.5,0.2,3.1,1.2,4.2c1.7,1.8,4.9,0.9,6.3-1.1c1.4-2,1.5-4.6,1.6-7c0.2-8.7,0.4-17.4,0.7-26.1
	c0.1-3.8,1.7-8.9,5.4-8.3c3.3,0.5,3.9,4.9,3.7,8.2c-3.1,44.2-11.1,87.8-18.8,131.4c-2.9,16.4-5.8,32.9-8.3,49.4
	c-1.3,8.1-2.4,16.3-3.5,24.4c-0.3,2.3-1,4.4-1.2,6.7c-0.7,6.9,5.1,4.4,6.4-0.5c4.3-17.5,8.9-35,12-52.7
	c5.3-29.8,11.8-59.8,16.5-89.7c1.8-11.2,3.9-22.3,6-33.4c1.3-7,2.8-14,4.1-21c0.7-3.6,1.3-7.3,1.8-11c0.4-2.6,2.6-5.1,4.6-1.9
	c1.3,2.1,0.8,6.4,3.9,6.9c3.3,0.5,6.2-7.5,9.7-7.9c4.4-0.5-0.1,15.5-0.5,17.1c-11.3,42.3-21.5,84.6-28.5,127.9
	c-3.2,20.1-9.3,40-19.9,58.9c-5,8.8-6.8,19.2-8.8,29c-2.2,10.9-4,21.8-5.3,32.8c-2.8,22-3.9,44.2-3.4,66.3
	c0.1,5.1,0.3,10.2,0.6,15.3c0.2,4.4,0.5,9-0.7,13.3s-4.3,8.3-8.7,9.3c-4.9,1.1-10-1.9-12.8-6.2s-3.7-9.4-4.5-14.3
	c-3.3-19.6-6.1-39.3-7-59.2c-0.5-12-0.6-24-1.1-36c-0.5-11.7-2.6-23-3.6-34.7c-0.5-6,0.5-11,1.5-16.8c1.1-6.2-1.7-11.5-4.3-16.9
	c-8.8-18.6-7.8-39.2-8.9-59.2c-0.6-10.2-3.2-19.6-4.6-29.6c-1.4-9.8-0.5-19.8,0.1-29.6c0.3-5.5,2-16.3-2.2-20.7
	c-3.8-4.1-3.9-13.1-4.5-18.2c-1.1-8.8-1.7-17.8-1.9-26.7c-0.1-4-1.2-8.7,1.2-12.2c2.8-4.1,5.2,0.3,5.5,3.5
	c0.7,7.3-2.2,35.9,0.4,42.6c0.6,1.5,1.7,6.2,3.5,6.8c6.2,2,5.6-22,5.7-25.4c0.3-7.6,1.1-15.6,0.3-23.2c-0.4-3.7,4-5.9,4-1.1
	s1.1,44,0,54.7c-1.1,10.7-0.2,21.8,0,32.5c0.2,13.1-2.2,26.8,0,39.7c1.8,10.7,3.5,20.9,3.8,31.8c0.3,8.8,0.2,18.2,2.7,26.7
	c1,3.4,3.8,3.2,6,1.7c1.1-0.8,2.1-1.9,2.6-3c2.3-5.6-1.8-14.8-2.7-20.4c-2.7-15.7-1.9-30.9,3-45.8c3.4-10.4,3.9-21.4,0.9-31.9
	c-4.8-16.9-2.8-39.4-4.3-57.5c-0.1-1.1-0.1-2.9,0-4c0.2-4.2,0.3-9.7,1.5-14.6c0.4-1.6,2.8-7,4-2.2c0.9,3.6-1.5,23.4,5.3,24.2
	c4.3,0.5,5.3-7.9,5.8-10.8c0.5-3.3,1.2-6.6,1.9-10c0.7-3,0.8-7.9,2.4-10.5c1.4-2.3,3.3-2.5,4.3,0c0.5,6.1-0.8,12-1.7,16.5
	c-5.1,24.8-9,50-4.8,75.4c1.7,10.3-1.2,21.4-2,32.1c-1.8,26.3,3.2,55.2-3.8,81.9c-1.2,4.4-1.2,9.4-1.9,13.9
	c-0.7,4.8-1.5,9.5-2.4,14.2c-1.5,8-4.4,15.8-5,24C528,309.8,529.4,315.9,531.3,320.9"/>
<path id="path31" class="st0" d="M236,696.3c6.3-2.6,12.5-4.8,19.1-6.9c8-2.5,15-6.4,23.5-6.8c27.3-1.5,48.5-15.6,65-35.4
	c15.6-18.6,37.5-25.1,56.7-37.4c14.5-9.3,29-18.5,44.1-26.7c2.5-1.3,15.3-5.8,18.3-6.2c1.9-0.2,3.1,1.9,2,3.4
	c-1.9,2.6-5.7,4.4-8.3,6.3c-2,1.5-4,3.2-5.8,5c-1.5,1.5-2.6,4.7-4.4,5.8c-1.9,1.2-5.9,1.1-8.1,1.4c-1.3,0.2-4.3,0-5.5,0.8
	c-8.5,3.9-7.2,10.9-17.4,23.6c-10.2,12.7-27.3,23.9-38.7,35.9c-11.5,12.1-23.9,22.8-40.9,27.5c-2.8,0.8-5,2.7-6.7,5
	c-2.6,3.4-3.7,7.4-6.7,10.5c-3.5,3.6-6.9,7.2-10.3,10.8c-6.7,7.1-13.6,14-21.2,20.2c-23.4,19.1-49.6,36.5-73.8,54.5
	c-23.9,17.8-47.4,36.3-71.4,54c-2.4,1.7-4.9,3.3-7.1,5.2c-1.3,1.2-3.4,4.8-5.4,4.2c-5-1.6,3.8-8.5,4.8-9.7c0.6-0.8,5.5-7.3,1.8-6.6
	c-1.1,0.2-2.3,0.7-3.3,1.2c-1.2,0.5-2.4,1.1-3.5,1.9c-0.6,0.4-1,1-1.5,1.5c-0.9,0.9-2,1.5-2.9,2.4c-2.5,1.8-6.7,1.2-4.2-2.7
	c2.2-3.3,5.4-5.6,8.8-7.5c4.3-2.4,9-4.4,12.9-7.3c11.6-8.7,25.6-16.9,36.3-26.2c4.1-3.6,8.1-7.4,12.3-11.1c2.1-1.9,4.3-3.8,6.5-5.6
	c1.4-1.2,3.4-2.7,3.9-4.5c0.5-1.9-0.7-4.3-2.8-4.3c-1.5,0-3.3,0.8-4.5,1.6c-21.6,13.9-48.1,30.8-69.7,44.8c-2.4,1.6-5,3-7.7,3.8
	c-1.3,0.4-3.4,0.9-4.7,0.4c-2.9-1.1,4.1-6,5-6.7c1.9-1.4,4.1-2.5,5.9-4c1.5-1.2,5-4.8,1-4.3c-2.7,0.4-2.9,0.2-5.5,0.9
	c-2,0.6-6,2.7-7.9,3.8c-1.4,0.8-5.3,3.6-5.5,0.7c-0.2-2.8,4.6-5.5,6.7-6.6c9.8-5.4,21.2-9.2,30.7-14.4c25.9-14,49.3-29,75.8-44.2
	c19.4-11.1,36-19.9,54.8-31.9c6.8-4.3,15.5-10.3,22.4-14.3c13.8-8,26.1-18,38.1-28.4c6.1-5.3,12.1-10.7,18.1-16
	c2.9-2.5,5.7-5.5,8.9-7.6c2.7-1.7,5.7-2.6,7.8-5.2c2.4-3,4.9-6,7.8-8.5c1.5-1.3,3-2.4,4.7-3.3c0.6-0.3,2.4-0.9,1.9-2
	c-0.4-1.1-2.3-0.4-3,0c-1.5,0.7-2.9,1.3-4.3,2c-4,1.9-9.9,3.6-12.7,7.2c-0.8,1-1.4,2.3-2.1,3.3c-6,7.8-15.4,11.3-23.5,16.2
	c-7.8,4.7-14.1,11.2-20.9,17.3c-5.7,5.1-11.2,10.8-17.9,14.6c-7.4,4.2-15.5,7.4-23.1,11.4c-45.6,24.4-90.7,47.5-136.1,72.5
	c-8.2,4.5-15.2,11-23.2,15.9c-6.3,3.9-18.6,12.4-25.1,4.8c-0.8-0.9-1.4-2-1.4-3.2c-0.1-1.7,0.9-3.4,2.2-4.5
	c4.7-3.9,11.4-6.9,16.7-10.1c6-3.6,12.1-6.9,18.3-10.1c13.9-7.2,23.9-14.5,37.9-21.5c6.8-3.4,14.3-5,21-8.5
	c6.6-3.3,12.8-7.6,17-13.5c4-5.7,9.1-8,15.3-10.8c3.9-1.7,7.9-4.3,9-8.4c0.1-0.3,0.1-0.5,0.1-0.8c-0.3-1.1-1.9-0.8-2.9-0.2
	c-1,0-3.3,2.1-4.3,2.6c-1.7,1-3.4,2.1-5,3.1c-3.2,2-6.4,4-9.7,6c-5.6,3.5-10.2,6.7-16.7,8.1c-6.3,1.5-12.4,5.5-18.1,8.4
	c-6.6,3.4-13.2,6.8-19.8,10.2c-13.1,6.8-26.3,13.6-39.4,20.3c-3.5,1.8-7,3.6-10.5,5.4c-2.6,1.3-5.3,2.7-8.2,3.4
	c-1.8,0.5-4,1.1-5.9,0.8c-2.9-0.5-2.4-3.9-0.4-5.6c3.2-2.7,14.5-6.2,16.3-10.2c1.3-3-8.5-0.7-10-0.7c-2.4,0.4-4.7,1.6-7.1,2.1
	c-0.9,0.2-2.6,0.6-3.5,0.1c-1.6-0.9-0.3-2.4,0.9-3c4.1-2.2,8.2-4.5,12.6-6c25.7-8.5,42.7-21.1,75.6-24.4c9.4-0.9,16.6-8,24.7-11.9
	c9.9-4.9,20.2-9.3,30.3-14C231.4,698.2,233.7,697.2,236,696.3"/>
<path id="path32" class="st0" d="M569.8,811.3c1.9,4.9,4.1,9.8,5.7,14.8c4.5,14.4,6.3,30.6,7.7,45.5c1,10.5,1.8,21.1,2.2,31.7
	c0.4,10,0.5,19.4,2.7,29.2c3.1,12.3,7.6,24.3,8.5,37c0.7,9.4,1.6,18.8,2.3,28.1c0.4,4.8,3.8,29.6-2.3,29.6c-5.8,0.4-7-13.3-6.5-17
	c4.3-30.5-5.5-62.4-15.6-91c-1.7-4.9-2.8-9.9-3.3-15c-1.3-12.8-2.4-26-2.4-38.9c-0.5-8.1,1-19,0.4-27.1c-1.1-15-5.6-26.7-8.4-41.5
	c-3.1-16-7-32-10.3-47.9c-2.5-11.8-5.5-22.7-6.8-34.8c-1.5-14.6-2.2-29.2-1.9-43.9c0.2-13.1-0.9-30,3.8-42.4
	c1.3-3.5,3.5-7.5,7.3-7.8c2-0.2,3.8,0.8,5.4,2c6.6,5.3,7.6,14.8,8.3,23.2c8.7,103,54.5,198.9,75.3,300.1c2.7,13,6.7,25.7,10.6,38.5
	c2,6.5,3.9,13,5.6,19.5c1.2,4.4,2.8,8.6,3.1,13.2c0.2,3.3-1.1,8.4-5.3,7.9c-3.4-0.4-4.3-3.6-4.8-6.5c-2.1-12.1-3.3-24.7-7-36.4
	c-3.4-10.6-7.5-21-9.8-31.8c-1.5-6.9-2.7-14-4.7-20.7c-5.1-17.3-11.1-18.8-14.6-36.5c-0.2-1.1-0.8-2.4-1.8-2.8
	c-4.2-1.7-3.2,10.4-3,12.1c0.8,5.4,2.6,10.5,3.6,15.9c1.9,10.4,3.7,20.8,5.5,31.3c3.6,20.3,7.1,40.7,10.9,61c0.5,2.6-0.2,7.9-2,9.8
	c-2.2,2.4-5.9,2.5-8,0c-2.1-2.5-1.6-6.5-2-9.7c0.4-24.3-4-40.9-7.3-70.8c-5.1-19.8-21-115.8-38.5-169.2c-0.9-2.8-1.9-5.6-2.9-8.3
	c-0.8-2.1-0.8-4.9-2.3-6.7c-5.1-6.2-5.8,7.2-5.5,9.7c0.4,4.6,1.7,9.1,2,13.7c0.5,8.1,1.2,16.8,3.4,24.6
	C567.7,805.8,568.7,808.6,569.8,811.3"/>
<path id="path33" class="st0" d="M319.6,953.9c3.9-9,8.9-15.3,15.1-21.5c9.6-9.6,18.5-17.1,24.5-29c0-0.1,4.6-7.2,4.7-7.3
	c2.8-5.5,3.8-11.7,6.6-17.1c3.8-7.4,7.6-14.9,11.2-22.5c1.7-3.6,3.4-7.1,5-10.7c1.1-2.4,3.4-10,7.1-9.5c2.4,0.3,2.8,4,2.6,5.9
	c-0.3,2.6-1.5,5.1-2.1,7.6c-1,4.1-2.9,16.8-4,20.9c-4.8,18.7-10.6,29-23,44.2c-8.4,10.3-15.3,22.1-22.4,33.4
	c-3.2,5.2-6.4,10.4-9.6,15.6c-2.1,3.4-4.5,6.6-6.6,10c-1,1.7-2.5,3.7-2.4,5.7c0,1,0.5,2.1,1.5,2.5c2.5,0.9,6.1-7.1,7.1-8.7
	c3.2-5.2,6.3-10.5,9.6-15.6c3.5-5.4,7.9-9.6,14.7-10.3c3.1-0.3,1.1,5.7,0.4,6.7c-4.2,8.5-10.1,16.4-15.4,24.3
	c-0.9,1.3-2.8,3-2.8,4.6c0.4,3.4,5.8,0.3,7-1c2.7-2.9,4.9-6.7,7.3-9.9c2.6-3.5,5.2-7,7.8-10.4c10.4-13.8,21-27.3,31.5-41
	c4-5.3,8.4-10.6,11.1-16.7c2.9-6.6,4.2-14,5.7-21c3.5-15.6,6.3-31.3,9-47c6.5-36.8,11.3-75,17.1-111.9c0.4-2.8,5.5-14.6,7-16.9
	c9.9-15.8,16.5-25.2,28.6-39.1c13.5-15.5,13.3-32.7,17.1-50.8c0.2-1.2-0.5-3.3-1.5-3.7c-1-0.5-3,0.1-4,0.9c-2.1,1.8-4,4.1-5.9,6.2
	c-25.3,28.6-40.1,51.8-70.4,81.1c-9.3,10.6-27.1,25.6-33.9,37.6c-9.9,17.3-16.3,38-24.2,60.3c-6.1,12.9-14.8,20.3-23.7,31.2
	c-15.9,19.5-29.4,38.3-47,56.4c-10.5,10.8-14.3,13.4-25,23.9c-4,3.9-8.6,7-12.7,10.9c-1.4,1.3-6.5,6.4-1.8,6.5c2.4,0,5-1.5,7.4-1
	c2.3,0.4,2.4,3.7,1.4,5.2c-0.7,1.1-3.1,3.4-1.4,4.7c0.9,0.7,2.7,0.6,3.7,0.1c2-1,3.2-3.2,4.7-4.7c14.1-13.7,23.9-31,36.5-46
	c5.4-6.4,12.1-12.5,16.8-19.5c3.3-4.8,10.3-20,17.3-20.1c8.6,0-5.1,21.5-6.8,24.2c-4.4,7.2-10.2,13.3-15.6,19.7
	c-0.3,0.3-0.6,0.7-0.9,1c-7.2,8.5-14.2,17.1-21.2,25.8c-4.6,5.7-9.1,11.5-13.6,17.3c-1.8,2.4-4.1,4.7-5.5,7.4c-0.5,0.9-0.8,2-0.6,3
	c0,0.3,0.1,0.5,0.3,0.7c0.3,0.3,0.9,0.2,1.3,0.1c3.2-1.1,5.5-3.5,8.9-4.1c1.3-0.2,3.1-0.5,4.1,0.6c0.6,1.2-3,8.6-1.9,10.4
	c0.6,1.1,5.5-1.8,7-3.7c13.7-16.7,25.9-34.5,38.9-51.7c3.9-5.2,7.8-10.3,11.6-15.5c15.3-20.5,29.9-41.8,39.6-65.6
	c2.5-6,4.6-12.1,6.3-18.4c1.6-5.6,2.2-11.7,4.6-17.1c4.6-10,13.6-17.1,16.6-28c1-3.8,3.9-11.8,4-12c1.7-3,3.9-5.8,6.2-8.4
	c0.8-0.9,10-11.2,10.5-7.2c0.7,5.1-12.3,34.3-14.1,40.1c-1.8,5.8-3.7,11.6-5.7,17.4c-3.6,10.3-7.3,20.5-11.1,30.7
	c-3.1,8.3-5.5,16.9-9.1,25c-3.3,7.5-7.6,14.7-12.6,21.2c-6.4,8.2-12.2,16.9-18.5,25.2c-12.4,16.5-23.2,32.3-37.3,47.4
	c-4.3,4.6-8.1,9.7-11.6,15c-2.4,3.7-4.7,7.4-7.1,11.1c-1,1.6-2,3.6-0.9,5.4c2,3.2,7.5-6.3,8.2-7.6c1.3-2.2,2.9-4,4.7-5.8
	c1.4-1.4,4-4.5,6.2-4.4c2.6,0.1,3.2,4,0.4,8.5c0,0-7.7,11-5.1,12.4C309.6,969,318.7,955.9,319.6,953.9"/>
<path id="path34" class="st0" d="M863.3,772.2c-10.7-3.2-20.1-10-30.1-15c-7.4-3.7-14.6-8-21.8-12.1c-2.3-1.3-24.5-16.6-24.9-8.8
	c0,1,0.8,1.9,1.5,2.6c2.4,2.3,4.7,4.6,7.1,6.8c28.8,26.7,39,27,74.5,42.2c8,4.7,16.1,9.2,24.2,13.7c11.9,6.5,24,13.6,36.8,18.3
	c1.4,0.5,3,1.3,4.5,1.3c2,0,3.7-1.4,2.9-3.6c-0.9-2.8-4.9-3.5-7.2-4.6c-3.5-1.7-7.2-3-10.7-4.6c-8.1-3.6-16.3-7.3-24.4-11.1
	c-5.3-2.5-14.5-5.3-14.5-12.3c0-1.1,0.4-2.5,1.4-2.9c1.9-0.8,5.9,1.5,7.8,2.3c3,1.3,6,2.5,8.9,3.8c7.7,3.3,15.3,6.7,23,10
	c6.1,2.6,12.2,5.2,18.4,7.6c3.2,1.2,6.4,3.5,10,3.1c1.3-0.1,2.7-0.7,3.5-1.8c0.8-1.1,1-2.7,0.2-3.8c-0.7-1-2-1.5-3.2-1.7
	c-5.9-1.1-12-2.9-17.7-5c-10.4-3.8-19.6-8.7-30-12.5c-12.2-4.4-24.6-8.3-37.3-11.1C865.4,772.8,864.4,772.5,863.3,772.2"/>
<path id="path35" class="st0" d="M960.6,755.2c-11-1.5-21.9-5.5-32.4-9.5c-25.8-9.7-51.8-18.9-77.3-29.6c-3.9-1.7-7.8-3.3-11.6-5.3
	c-1.2-0.7-9.3-4-6.3-6.5c0.8-0.7,2-0.6,3.1-0.5c5.7,0.9,11,3.5,16.3,5.8c9.6,4.2,17.3,9.5,27.6,11c10.2,1.5,23.2-0.7,32.7,3.2
	c11,4.6,19,14.1,29.2,19.9c2.1,1.2,4.2,2.1,6.5,2.9c2.8,0.9,5.4,2.2,8.2,3c3.6,1,7.2,1.7,10.9,2c1.9,0.2,3.8,0.2,5.7,0.2
	c1.7,0,3.5-0.2,5,0.6c1.7,0.8,1.1,2.3-1.8,2.8C970.3,756.5,966.7,756,960.6,755.2"/>
<path id="path36" class="st0" d="M730.9,619.7c-0.8-0.2-1.6-0.5-2.3-0.9c-5.3-2.7-10.2-5.9-15.6-8.4c-5.3-2.4-10.3-3.4-16-4.3
	c-1.2-0.2-2.1,1.1-1.5,2.2c1.2,2,2.6,3.8,4,5.7c0.8,1.1,1.7,2.1,2.6,3c1.6,1.5,3.4,2.8,5.5,3.8c3.1,1.4,6.4,2.4,9.5,3.8
	c12.3,5.5,24.5,10.2,37.9,12.4c2.9,0.5,5.8,0.9,8.6,1.8c4.6,1.5,8.6,4.3,12.6,7.1c9.7,6.7,19.6,11.6,31.3,14
	c8.8,1.7,17.6,2.7,26.3,5.3c18.4,5.4,29.3,13.2,56,13.5c0.2,0,19.4,1.9,23.9,2.7c6.1,1.3,11.9,3.7,18.1,4.4
	c6.3,0.7,12.5,0.4,18.8,0.7c8.8,0.5,17.7,1.4,26.2,3.8c10.3,2.9,32.1-2.4,35.6-2.8c3.5-0.4,4,0.9,4.4,2.9c0.7,3.6-4.8,6-7.6,6.6
	c-3.9,1-8,0.7-12,0.9c-7.7,0.3-15.3,0.3-23,0.2c-15.4-0.2-16.7-6-24.8-7.7c-8.1-1.7-16.9,1.3-30.8-1.3s-10.7,2.4-10.7,2.4
	c2.8,3.2,7.4,6.3,10.7,7.1c22.6,3.5,43.5,15.8,67,13.4c3.5-0.4,6.7-2,10.2-2.6c2.5-0.4,8.3,0.1,9.1,3.3c0.9,3.7-8.8,5.7-11.2,6.2
	c-6.3,1.4-15,2.1-21.3,1.3c-29.1-3.9-57.6-10-86.7-14.2c-16.3-2.4-32-7.2-47.2-13.2c-12.8-5-25.2-10.9-37.6-16.8
	c-6-2.9-12-6.1-18.2-8.5c-4.6-1.8-9.4-3.1-14.2-4.3c-6.1-1.5-15.7-4.8-21.4-7.3c-12.4-5.4-24.7-11.9-34.9-21c-2.3-2-4.5-4.2-6.6-6.5
	c-2.2-2.4-3.9-5.3-6.3-7.6c-0.9-0.9-1.9-1.7-2.8-2.5l-5-4.2c-3.7-3-7.7-5.7-11.9-7.8c-9.7-5-19.6-9.1-29-14.6
	c-3.6-2.1-8.9-7-11.4-10.5c-0.9-1.2-1.4-2.7-1.8-4.2c-0.6-2.3,1.5-4.3,3.8-3.8c3.7,0.9,5.9,2.5,8.8,5c0.5,0.4,0.9,0.8,1.4,1.1
	c8,6.4,17.9,9.6,27.6,12.8c10.1,3.3,20.3,6.2,30.1,10.3c2,0.8,4.2,1.3,6,2.4c4.3,2.6,8.8,4.9,13.4,6.9c4.8,2.1,9.3,4.5,14.7,4.4
	c3.7-0.1,7.4,0.3,11.1,0.6c3.5,0.3,18,0.7,21.6,0.9c10.9,0.5,10.6,2.5,21.2,4.6c11,2.3,22,4.5,33,6.8c11.6,2.3,23.2,4.8,34.7,7.8
	c5.3,1.4,10.6,3.4,15.9,4.6c6.9,1.5,14.2,0.8,21.2,1.1c7.5,0.3,15,0.9,22.5,1.6c15,1.3,30,2.9,45.1,3c0.9,0,1.8,0,2.7,0
	c3.8,0,7.6,0,11.4,0c8,0,16-0.1,23.9-0.6c7-0.5,15.1-3.3,21.8-0.8c2.6,1,2.6,4.6,0.8,6.4c-4.3,4.3-10.7,2.6-16.3,2.9
	c-7.2,0.4-14.4,0.1-25.3,0.1c-6,0-12.2-0.5-18.2-0.5c-3.5,0-7,0-10.5-0.2c-2.3-0.1-8.2-1.6-9.9,0.1c-3.4,3.5,13.8,8.9,15.5,9.3
	c5.4,1.3,11,1.5,16.6,1.6c21.3-1.2,26.6,2.8,30.6,4.2c2.7,0.9,2.8,4.7,0.2,5.7c-4.3,1.7-23.7,0.1-27.8-0.2
	c-27.2-1.9-54.7-3.4-81.4-8.5c-32.4-6.2-64.2-15.5-96.1-24.1c-10.3-2.8-20.2-7.4-30.2-11.2c-5.5-2.1-11-4.2-16.4-6.4
	c-4.5-1.8-9.2-3.4-14.1-4C741.4,620.5,735.7,621.2,730.9,619.7"/>
<path id="path37" class="st0" d="M267.2,235.5c4.5,4.8,9.3,9.2,14.6,13.3c2.2,1.7,5.6,3.3,7.5,1.2c1.9-2,0.2-5.2-1.5-7.4
	c-22.7-29.3-45.4-58.6-68.2-87.8c-1.6-2.1-2.8-5.9-0.2-6.7c1.3-0.4,2.6,0.6,3.6,1.5c13.4,11.8,25.5,24.9,36.7,38.8
	c11.3,14,21.6,28.8,31.5,43.8c10,15.2,19.4,30.6,29,46c9.6,15.4,19.3,30.7,29.6,45.5c10.3,14.7,21.2,29.1,33.3,42.4
	c2.2,2.5,4.5,4.9,6.8,7.3c1.1,1.2,4.8,6.3,6.7,4.1c0.4-0.5,0.5-1.3,0.4-1.9c-0.6-2.7-2.2-5.6-3.4-8.1c-1.4-3-3-5.9-4.6-8.8
	c-3.2-5.7-6.7-11.2-10.3-16.7c-16-24.8-32.4-49.4-49-73.7s-33.7-48.5-51-72.3c-8.7-12-17.5-23.9-26.3-35.8
	c-2.5-3.4-5.1-6.8-7.6-10.1c-1.4-1.8-2.7-3.6-4.1-5.4c-0.9-1.2-2.9-4.9-1.6-6.3c2.1-2.2,7.3,3.4,8.4,4.8c4.1,5.4,9.1,10.4,13.6,15.4
	c4.6,5.3,9.3,10.5,13.9,15.8c4.6,5.3,9.3,10.5,13.9,15.8c2.3,2.6,4.6,5.3,7,7.9c1.2,1.4,2.4,2.7,3.6,4.1c2.2,2.4,4.9,2.7,4.1-1.4
	c-0.5-2.9-2.6-5.5-4.3-7.8c-13.9-19.1-27.8-38.3-41.6-57.4c-2.1-2.9-4-7.3-1.2-9.5c2.7-2.1,6.5,0.6,8.8,3.2
	c17.9,20,34.6,41.3,47.6,64.8c13.2,23.8,22.5,49.6,34.6,74c13.8,27.7,31.1,53.4,49.1,78.6c24.4,34.1,50,67.3,76.8,99.5
	c2.1,2.6,4.4,5.4,4.5,8.8c0,2.5-1.9,5.2-4.5,5.6c-2.7,0.4-3.9-2.2-5.4-3.9c-3.7-4.3-8-8.1-12.6-11.5c-9.3-7-19.6-12.5-29.7-18.2
	c-8.8-5-17.6-10.1-25.5-16.6c-10.6-8.8-19.2-19.8-27.5-30.8c-25.3-33.3-49.6-67.3-76.6-99.2c-31-36.7-65.3-70.6-93.4-109.5
	c-1.6-2.3-3.1-5.7-0.9-7.4c2-1.6,4.9,0.1,6.8,1.8C231.5,185.7,246.4,213.6,267.2,235.5"/>
<path id="path38" class="st0" d="M556,1018c7.7-31,3.4-38.9,3.5-55.5c0.4-3.9,3.4-20.5,5.3-29c0.3-1.1,1.9-1.1,2.1,0
	c1.7,9,4.4,26.8,4.6,31.1c0.6,12.8-2.2,18.2-1.1,37.9c0.5,9.2,2.3,18,3.5,27c0.4,3-3.5,4.3-5.1,1.7c-0.8-1.3-3.3-6.5-5.2-6
	c-3.2,0.8-1,7.2-3.7,8.7C553.6,1037.4,555.4,1020.5,556,1018"/>
<path id="path39" class="st0" d="M954.7,279.2c0.9,0.3,1.5,0.9,1.6,1.9c0,0.4-0.2,0.7-0.3,1c-1.5,2.6-4.7,5.1-7.3,6.5
	c-13.8,7.6-28,14.6-41.7,22.4c-4.8,2.8-9.1,6.4-13.7,9.6c-2.6,1.9-5.4,3.7-8.5,4.5c-1.5,0.4-3.2,0.6-4.7,0c-4.1-1.4,6.6-8.1,7.9-8.9
	c14.6-9.2,24.5-15.5,39.3-24.5c4.8-3,9.8-5.7,14.8-8.4c2.4-1.3,4.7-3,7.3-4C950.3,279.1,953,278.6,954.7,279.2"/>
<path id="path40" class="st0" d="M438.8,856c1.5-4.7,2.8-9.4,3.5-14.3c2.1-14.1,2.1-28.6,2.5-42.8c0.3-12.5,0-25,1.4-37.4
	c1.4-15.5,5.3-30.8,14.5-44.7c6-9.1,11.3-18.5,16.5-28.1c2.6-4.7,5.9-9.4,8.5-14.1c2.5-4.5,5.3-8.9,8-13.3c2.6-4.3,5-9.2,8.2-13.2
	c1.8-2.3,9.4-10.2,8-2.8c-0.7,3.8-3,7.2-4.5,10.6c-1.5,3.4-3,6.8-4.6,10.1c-3.4,7.1-9.2,16.3-9.2,24.4c-1.5,11.6-3.7,27.1-5.4,38.7
	c-3.3,23.1-1.4,44.8-4.4,68c-1.1,8.2,0.8,16.2,0.8,26.5c0,33.4,3.3,63.8-6.6,94.3c-6,18.2-16.7,35.1-17.1,54.6
	c-0.3,13.8-9.8,37-23.7,42.2c-2.4,0.9-4.4,0-5.3-2.4c-2.6-7.1,5.2-17.7,9.3-22.9c4.3-5.5,7.5-11.7,10.7-17.9
	c2.6-5.2,3-18.2-0.6-19.2c-3.4-1-8,5.6-9,7.6c-2.5,4.7-4.5,9.7-6.8,14.4c-4.6,9.5-6.8,18.7-11.3,28.3c-1,2.1-1.5,4.4-2.5,6.5
	c-1.3,2.6-5.9,5.5-5.7,0.2c0.1-4.4,2.4-13.9,4.6-17.7c21.4-36.6,24.1-77.2,41.2-115.3c1.7-3.8,2.1-8.5,2-12.7
	c-0.5-21.6-1.5-44.8,4.8-66c0.8-2.6,0.3-5.8-0.3-8.6c-0.3-1.4-1.1-5.1-2.4-5.9c-5.5-3.2-7.2,16-7.4,18c-2.2,18.5-5.8,36.7-9.7,54.9
	c-3.8,17.3-7.9,35.3-13.5,52.1c-5.3,15.7-14.2,28.9-19,44.8c-5.2,17.2-8.3,35.3-17.8,50.5c-1.5,2.5-4.5,5.2-7,3.6
	c-2.4-1.5-1.4-5.3-0.1-7.9c7.8-15.9,13.3-32.9,16.2-50.4c0.2-1.2,0.4-2.5-0.2-3.6c-2.1-4.2-8.4,5-9.4,6.4c-0.8,1-1.5,2.1-2.2,3.2
	c-2.3,3.6-4.4,7.3-6.5,11c-4.5,7.9-8.8,16-14.6,23c-1.4,1.7-3.7,3.5-5.6,2.3c-1.9-1.2-1.3-4-0.4-6c10-22.7,30.3-39,43.8-59.8
	c9.1-14.1,13.8-29.9,19.6-45.4C432.7,872,436.2,864.1,438.8,856"/>
<polygon id="polygon40" class="st0" points="692.6,289.8 692,290.5 692.9,290.1 "/>
<path id="path41" class="st0" d="M931,419.7c-0.2,0.6,0.1,0.8,0.4,0.4L931,419.7z"/>
<path id="path42" class="st0" d="M510.6,918.6c0,0.1,0,0.2,0,0.3c-0.1,5.1-0.6,10.2-1.6,15.3c-0.9,4.9-1.1,9.9-1.8,14.8
	c-1.3,8.4-2.5,17.7-5.3,25.7c-0.7,2-1.6,3.9-2.2,6c-3.1,9.8-0.4,18.7,0.4,28.3c0.6,7.5-1.3,14.1-5.2,20.4
	c-10.5,16.9-6.3-0.8-4.1-4.8c2.9-9.1,3.6-21.5,2.2-29c-1.5-8.2,4.6-37.5,7.3-47.1c0.4-5.1,0.9-10.2,1.3-15.3
	c0.2-2.4,1.2-4.8,1.6-7.2c0.1-0.7,0.4-7.5-1.3-6.1c-2,1.7-1.5,4.8-2.5,7c-1.9,4.2-4.3,8.2-6.4,12.4c-0.5,1-0.9,1.9-1.4,2.9
	c-0.9,2-1.5,4.1-1.9,6.2c-2.6,11.7-4.7,23.5-7,35.3c-1.9,9.8-1.8,20.3-7.1,29c-2.2,3.8-4.9,7.2-6.9,11.1c-0.6,1.1-1.8,1.8-2.9,0.8
	c-1.1-1.1-0.1-2.9-1.3-3.9c-1-0.9-2.6-0.2-3.7,0c-2.1,0.3-5.7-1.1-4.5-3.8c0.9-2,3.3-2.9,4.9-4.1c4.8-3.6,8.3-6.3,11-11.2
	c3.9-6.8,1.7-15.2,3.5-22.7c1.9-8.2,4-16.4,6.4-24.5c2.1-7.1,4.4-14.2,6.9-21.2c2.4-6.8,3.8-13.8,5-20.9c1.6-9.2,5-18.1,5.6-27.5
	c1-16.5,0.5-32.7-1.1-49.1c-2.1-19.2-0.6-38.8-0.6-58.2c0-9.2,0.4-18.3,0.1-27.5c-0.8-27.8,9.7-83.5,20.2-109.1
	c1-2.4,6.1-12.5,9.7-10.4c4.9,3,2.4,17.6,2.4,22.3c0,7.6-4.5,43.4-4,50.9c1,14.9,3,29.7,5.9,44.3c2.6,13.5,5.3,27.1,7.1,40.8
	c1.2,9.3,1,18.7,2.4,28c1.4,9,7.5,20.9,8.3,30.1c0.9,11.6,0,23.3-0.5,34.9c-0.4,11.2,1.6,22.4,0.8,33.5c-0.8,10.2-5.4,19.8-6.7,29.9
	c-1.2,10-0.1,23.8-1.9,33.7c-0.3,1.3-2.9,44.9-4.2,61c-0.1,1.3-2,1.3-2.2,0c-1.5-16.9-2.9-63.4-3-64.6c-0.3-5.5,0.8-10.9,1.5-16.3
	c0.4-3.2,1-8.6-0.2-11.6c-2.8-6.7-5.6,4.6-6.2,7.5c-1.1,5.2-2.1,10.4-3.3,15.6c-0.3,1.4-6.3,52.2-9.3,69.5c-0.2,1.3-2.1,1.1-2.1-0.2
	c-0.2-17.8,1.7-70.6,1.7-71.7c-1-15.8-1.3-31.2,4.7-46.7c12.4-32.2,16.3-64.9,2.6-98.2c-1.8-4.4-3-28.7-8.6-28.1
	c-5.6,0.5-3.8,13.8-4.1,17.5c-0.7,7.6,1.6,18.9,3.6,26.3c5.5,19.8,2.7,36.3-0.3,56C511.3,902.9,510.7,910.6,510.6,918.6"/>
</svg>
