<?xml version="1.0" encoding="utf-8"?>
<!-- Generator: Adobe Illustrator 23.0.2, SVG Export Plug-In . SVG Version: 6.00 Build 0)  -->
<svg version="1.1" id="Capa_1" xmlns="http://www.w3.org/2000/svg" xmlns:xlink="http://www.w3.org/1999/xlink" x="0px" y="0px"
	 viewBox="0 0 200 200" style="enable-background:new 0 0 200 200;" xml:space="preserve">
<style type="text/css">
	.st0{fill:#FFCC99;}
</style>
<g>
	<path class="st0" d="M145.6,123.4c-5-0.4-9.3-0.8-13.4-1.1c-1.7,10-3,19.7-5.2,29.2c-1.2,5.1-3.3,10.2-6,14.7
		c-4.9,8.1-12.4,9.5-19.9,3.5c-5.2-4.2-9.5-9.7-14.4-14.9c-14.4,2.6-24.3-2.1-27.7-13.9c-3.3-11.3,2.3-21.3,15.2-26.4
		c-2.3-19.8,0.1-39.3,8.3-59C71.4,64.8,61,65,50.3,55.7c-9.5,6.8-19.4,13.1-28.5,20.6c-4.1,3.4-6.5,8.9-9.5,13.2
		c6.7,0.7,12.6,0.5,18.1,2c5.9,1.6,9.5,6.6,11.5,12.4c3.3,9.8-0.5,18.7-11,25.7c11.9,9.4,24.1,18.7,35.9,28.4
		c6.8,5.6,12.9,12,19.6,17.8c3.5,3,7.2,6.1,11.2,8.2c12.3,6.4,24.9,3.4,33.4-7.6c7.1-9.3,9.9-20.3,11.8-31.5
		C144.1,138,144.7,130.9,145.6,123.4z"/>
	<path class="st0" d="M79.4,113.3c-0.9,3.3,0,4.4,3.3,4.3c9.1-0.3,18.3-0.2,27.4-0.6c1.8-0.1,3.8-1,5.4-2.1c4-2.8,7.5-6.1,11.5-8.7
		c9.9-6.4,21.9-8.4,30.4,3.7c6.2,8.9,14,12.9,24.6,12.5c2.4-0.1,4.9,0.5,7.8,0.8c-8.7-9.7-16.6-19.5-25.6-28.2
		c-11.4-11-28.3-11.9-42.9-3.1c-3.6,2.1-6.9,4.6-10.1,7.3C101.8,106.9,91.8,112.8,79.4,113.3z"/>
	<path class="st0" d="M132.1,82.2c4.5-0.4,8.8-0.7,13.5-1.1c-1.2-17.7-2.4-35-10.4-50.8c-10-19.8-29.6-23.4-46.3-8.6
		c-2.2,2-4,4.5-5.6,6.4c1.5,5.3,3.1,10.9,4.7,16.3c2-2.5,4.3-5.9,7-8.9c2.2-2.4,4.8-4.7,7.6-6.4c6.9-4.2,14-3.2,17.6,3.8
		c3.9,7.7,6.6,16.3,8.7,24.7C130.8,65.4,131.1,73.5,132.1,82.2z"/>
	<path class="st0" d="M113.5,31.8c-2.8,18.6-8.5,35-19.1,51c6,0,11.2,0.2,16.4-0.1c1.2-0.1,2.7-1.4,3.4-2.6c3.5-6,7-12,10-18.2
		c0.8-1.7,0.3-4.2-0.3-6.2c-1.6-5.9-3.3-11.8-5.5-17.5C117.5,35.8,115.2,34,113.5,31.8z"/>
	<path class="st0" d="M97.9,121.8c8.3,14.7,13.2,29.7,15.5,46.5c1.8-2.3,4.4-4.4,5.3-7c2.4-6.7,5.9-13.7,5.6-20.4
		c-0.3-6.3-4.8-12.3-7.7-18.4c-0.2-0.5-1.8-0.6-2.8-0.6C108.8,121.7,103.7,121.8,97.9,121.8z"/>
	<path class="st0" d="M38.4,110.5c0.1-12.2-12.8-20.4-23.5-14.7c-1.5,0.8-3.2,3.2-3.2,4.8c0.1,9.4,3.6,17.5,10.7,23.7
		c1.3,1.2,4.3,1.5,6.1,0.9C34.6,123.2,38.4,117.1,38.4,110.5z"/>
	<path class="st0" d="M106.8,32.2C89.3,44.1,83.7,62.4,79.2,81.6c9.6,1.9,9.8,1.9,14.2-5.4C101.6,62.7,106.5,48.2,106.8,32.2z"/>
	<path class="st0" d="M80,122.1c4.9,18.3,10.5,35.2,26.4,46.1c0.5-0.2,1-0.3,1.5-0.5c-0.8-5-1-10.1-2.5-14.8
		c-2.8-8.7-6.4-17.1-9.6-25.6c-1.6-4.3-4.6-6.1-9.2-5.3C84.7,122.4,82.6,122.1,80,122.1z"/>
	<path class="st0" d="M118.8,87.9c-0.9-0.4-1.2-0.7-1.4-0.7c-12.6,0-25.3,0-38.7,0c0,6.8,0,13.9,0,21.2
		C95.7,109.1,105.9,96.5,118.8,87.9z"/>
	<path class="st0" d="M74.2,119.6c-9.6,3.4-14.1,12.6-10.5,21.7c3.4,8.4,12.5,12.2,20.6,8.9C81,140,77.7,130,74.2,119.6z"/>
	<path class="st0" d="M54.4,52.7c6.8,6.8,16.3,7.1,22.9,1.1c6.4-5.9,7-15.1,1.4-22C70.7,38.7,62.7,45.6,54.4,52.7z"/>
	<path class="st0" d="M120.9,117.1c13.3,0.9,25.8,1.8,38.4,2.7C149.8,102.5,137.1,101.4,120.9,117.1z"/>
	<path class="st0" d="M127.2,82.3c-0.3-3.9-0.5-7.2-0.9-11.6c-2.9,4.5-5,7.9-7.4,11.6C121.7,82.3,124.1,82.3,127.2,82.3z"/>
</g>
</svg>
