<?xml version="1.0" encoding="utf-8"?>
<!-- Generator: Adobe Illustrator 23.0.2, SVG Export Plug-In . SVG Version: 6.00 Build 0)  -->
<svg version="1.1"
	 id="svg1" xmlns:inkscape="http://www.inkscape.org/namespaces/inkscape" xmlns:sodipodi="http://sodipodi.sourceforge.net/DTD/sodipodi-0.dtd" xmlns:svg="http://www.w3.org/2000/svg"
	 xmlns="http://www.w3.org/2000/svg" xmlns:xlink="http://www.w3.org/1999/xlink" x="0px" y="0px" viewBox="0 0 320 100"
	 style="enable-background:new 0 0 320 100;" xml:space="preserve">
<style type="text/css">
	.st0{enable-background:new    ;}
	.st1{fill:#FFCC99;}
</style>
<sodipodi:namedview  bordercolor="#000000" borderopacity="0.25" id="namedview1" inkscape:current-layer="layer1" inkscape:cx="166.05774" inkscape:cy="120.43479" inkscape:deskcolor="#d1d1d1" inkscape:document-units="mm" inkscape:pagecheckerboard="0" inkscape:pageopacity="0.0" inkscape:showpageshadow="2" inkscape:window-height="1006" inkscape:window-maximized="1" inkscape:window-width="1920" inkscape:window-x="0" inkscape:window-y="0" inkscape:zoom="2.0384476" pagecolor="#ffffff">
	</sodipodi:namedview>
<g class="st0">
	<path class="st1" d="M18.6,34.2H23c4.1,0,6.8-0.7,11.1-0.7c8,0,12.4,5,12.4,11.6c0,6.1-4.5,11.8-12.8,11.8c-3.3,0-7-1-8.6-1.8v6
		c0,7.4,0.2,10,3.4,10v0.4h-10v-0.4c3.2,0,3.4-2.7,3.4-10V44.6c0-7.4-0.2-10-3.4-10v-0.4H18.6z M33.1,56.1c7.4,0,10.2-6.5,10.2-11
		C43.3,38.4,38.9,34,32,34c-2.8,0-4.6,0.4-6.8,1.2v19.6C27.1,55.6,29.8,56.1,33.1,56.1z"/>
	<path class="st1" d="M49.9,71.2c3.2,0,3.4-2.7,3.4-10V44.6c0-7.4-0.2-10-3.4-10v-0.4h4.5c4.1,0,6.8-0.7,11.1-0.7
		c8,0,12.4,4.4,12.4,10.5c0,5.1-4.2,9.7-10.7,9.7c-3.5,0-5.9-2.4-7.5-2.4c-0.4,0-1.1,0.1-1.1,1c0,2.4,7.9,3,10.9,7.7
		c2.9,4.6,6.4,11.2,10.7,11.2v0.4h-5.7c-1.7,0-2.8-2.4-8.7-11.2c-3.6-5.5-7.6-5.6-7.6-8.1c0-0.9,0.6-1.3,1.3-1.3
		c2.2,0,3.9,2.1,7.4,2.1c4.7,0,7.7-4.6,7.7-9.1c0-6.2-4.4-10-11.3-10c-2.8,0-4.6,0.4-6.8,1.2v26c0,7.4,0.2,10,3.4,10v0.4h-10
		C49.9,71.6,49.9,71.2,49.9,71.2z"/>
	<path class="st1" d="M81.7,52.9c0-11.2,7.3-19.4,16.6-19.4s16.6,8.2,16.6,19.4s-7.3,19.4-16.6,19.4S81.7,64.1,81.7,52.9z M85,52.9
		c0,10.9,6,19,13.3,19c7.2,0,13.3-8.1,13.3-19s-5.5-19-13.3-19S85,42,85,52.9z"/>
	<path class="st1" d="M118.3,71.2c3.2,0,3.4-2.7,3.4-10V44.6c0-7.4-0.2-10-3.4-10v-0.4h3c3.9,0,7.1-0.7,10.4-0.7
		c11.5,0,17,9.2,17,19.4s-5.5,19.4-17,19.4c-3.3,0-6.5-0.7-10.4-0.7h-3C118.3,71.6,118.3,71.2,118.3,71.2z M124.9,70.7
		c2.2,0.7,4.3,1,6.8,1c9.2,0,13.8-8.7,13.8-18.9S140.9,34,131.6,34c-2.4,0-4.6,0.4-6.8,1L124.9,70.7L124.9,70.7z"/>
	<path class="st1" d="M152,34.2h10.1v0.4c-3.2,0-3.4,2.7-3.4,10v16.6c0,7.2,4.1,10.8,9.4,10.8c5.3,0,9.3-3.5,9.3-10.8V44.6
		c0-7.4-0.2-10-3.4-10v-0.4h10.1v0.4c-3.2,0-3.4,2.7-3.4,10v16.6c0,7.5-5.6,11.1-12.5,11.1s-12.6-3.6-12.6-11.1V44.6
		c0-7.4-0.2-10-3.4-10v-0.4H152z"/>
	<path class="st1" d="M187.3,52.9c0-11.2,7.3-19.4,16.6-19.4c8.5,0,11.5,4.4,11.5,7.8c0,7.8-10.6,10.5-10.6,15
		c0,1.2,0.4,1.8,1.1,2.4c-2,0.4-3.2-1.8-3.2-3.5c0-6.6,10.5-8.8,10.5-14.2c0-4.4-3-7.1-9.3-7.1c-7.7,0-13.3,8.1-13.3,19
		s6,19,13.3,19c8.3,0,10.6-6.3,10.6-6.3h0.4v5c-3,1-6.3,1.7-11.1,1.7C194.6,72.3,187.3,64.1,187.3,52.9z"/>
	<path class="st1" d="M243.3,34.2v5H243c0-0.1,0,0,0-0.1c0-2.5-4.7-4.5-11.1-4.5v26.6c0,7.4-0.1,10,3.1,10v0.4h-9.7v-0.4
		c3.2,0,3.4-2.7,3.4-10V34.6c-6.4,0-11.1,2-11.1,4.5c0,0.1,0,0,0,0.1h-0.4v-5C217.2,34.2,243.3,34.2,243.3,34.2z"/>
	<path class="st1" d="M244.5,52.9c0-11.2,7.3-19.4,16.6-19.4c9.3,0,16.6,8.2,16.6,19.4s-7.3,19.4-16.6,19.4
		C251.8,72.3,244.5,64.1,244.5,52.9z M247.8,52.9c0,10.9,6,19,13.3,19c7.2,0,13.3-8.1,13.3-19s-5.5-19-13.3-19
		C253.3,33.9,247.8,42,247.8,52.9z"/>
	<path class="st1" d="M295.5,33.5c4.6,0,7.8,0.7,10.6,1.7v5h-0.4c0,0-2.3-6.3-10.3-6.3c-6.9,0-10.8,4.2-10.8,8.4
		c0,10.2,23.6,6.6,23.6,19.7c0,5.2-5.4,10.3-14,10.3c-4.9,0-9.3-2.5-12.1-4.6v-5h0.4c0,0,4.9,8.9,13.8,8.9c5.5,0,9.7-4,9.7-8.1
		c0-11.2-24-8.1-24-20.3C282.2,38,286.9,33.5,295.5,33.5z"/>
</g>
</svg>
