<?xml version="1.0" encoding="UTF-8" standalone="no"?>
<!-- Generator: Adobe Illustrator 23.0.2, SVG Export Plug-In . SVG Version: 6.00 Build 0)  -->

<svg
   version="1.1"
   id="svg1"
   x="0px"
   y="0px"
   viewBox="0 0 480 100"
   xml:space="preserve"
   sodipodi:docname="venta.svg"
   width="480"
   height="100"
   inkscape:version="1.3.2 (091e20e, 2023-11-25)"
   xmlns:inkscape="http://www.inkscape.org/namespaces/inkscape"
   xmlns:sodipodi="http://sodipodi.sourceforge.net/DTD/sodipodi-0.dtd"
   xmlns="http://www.w3.org/2000/svg"
   xmlns:svg="http://www.w3.org/2000/svg"><defs
   id="defs9"><rect
     x="-3.6406229"
     y="-60.088703"
     width="567.45483"
     height="59.251766"
     id="rect9" /></defs>
<style
   type="text/css"
   id="style1">
	.st0{enable-background:new    ;}
	.st1{fill:#783E19;}
</style>
<sodipodi:namedview
   bordercolor="#000000"
   borderopacity="0.25"
   id="namedview1"
   inkscape:current-layer="svg1"
   inkscape:cx="246.98208"
   inkscape:cy="53.767166"
   inkscape:deskcolor="#d1d1d1"
   inkscape:document-units="mm"
   inkscape:pagecheckerboard="0"
   inkscape:pageopacity="0.0"
   inkscape:showpageshadow="2"
   inkscape:window-height="1006"
   inkscape:window-maximized="1"
   inkscape:window-width="1920"
   inkscape:window-x="0"
   inkscape:window-y="0"
   inkscape:zoom="1.4414001"
   pagecolor="#ffffff">
	</sodipodi:namedview>

<path
   style="font-size:37.3333px;font-family:'TAN - PEARL';-inkscape-font-specification:'TAN - PEARL';white-space:pre;opacity:0.85;fill:#fffae8;fill-opacity:1;stroke-width:1.09735"
   d="m 2.807823,29.704097 v -0.409679 h 4.916148 q 2.212267,0 5.981314,-0.409679 3.769046,-0.409679 6.186151,-0.409679 6.390992,0 9.996166,3.564207 3.605177,3.564207 3.605177,9.217777 0,5.325826 -3.769047,9.135841 -3.728079,3.769047 -10.241974,3.769047 -2.458074,0 -5.161956,-0.614519 -2.662912,-0.614518 -4.26066,-1.310973 v 6.636801 q 0,6.554862 0.614517,8.767129 0.655487,2.212266 3.154529,2.212266 v 0.409679 H 2.807823 v -0.409679 q 2.499043,0 3.11356,-2.212266 Q 6.57687,65.428103 6.57687,58.873241 V 40.683494 q 0,-6.554864 -0.655487,-8.767131 -0.614517,-2.212266 -3.11356,-2.212266 z m 7.251319,22.122665 q 3.68711,1.515812 8.685193,1.515812 2.908721,0 5.161955,-1.147101 2.253235,-1.188069 3.523239,-3.031625 1.270006,-1.884523 1.884523,-3.89195 0.655487,-2.007427 0.655487,-3.973887 0,-5.571634 -3.359367,-8.890033 -3.359368,-3.359368 -9.053905,-3.359368 -3.850982,0 -7.497125,1.310973 z M 37.179841,29.704097 v -0.409679 h 11.061331 v 0.409679 q -2.49904,0 -3.154527,2.212266 -0.61452,2.212267 -0.61452,8.767131 v 18.189747 q 0,5.735504 2.867754,8.767129 2.867753,3.031625 7.456157,3.031625 4.547437,0 7.333254,-3.031625 2.826785,-3.031625 2.826785,-8.767129 V 40.683494 q 0,-6.554864 -0.655487,-8.767131 -0.614518,-2.212266 -3.11356,-2.212266 v -0.409679 h 11.061333 v 0.409679 q -2.499043,0 -3.154529,2.212266 -0.614518,2.212267 -0.614518,8.767131 v 18.189747 q 0,5.899376 -3.850982,9.053904 -3.850983,3.154529 -9.832296,3.154529 -3.89195,0 -6.964542,-1.270005 -3.031624,-1.310973 -4.957116,-4.137758 -1.925491,-2.826785 -1.925491,-6.80067 V 40.683494 q 0,-6.554864 -0.655486,-8.767131 -0.614519,-2.212266 -3.11356,-2.212266 z m 37.526532,-0.409679 h 7.169385 L 104.81777,64.281002 V 46.418999 q 0,-8.357451 -2.00742,-12.536177 -1.96646,-4.178725 -4.87518,-4.178725 v -0.409679 h 11.06134 v 0.409679 q -2.49905,0 -3.15453,2.212266 -0.61452,2.212267 -0.61452,8.767131 v 30.39818 h -0.40969 L 78.8851,31.58862 v 21.549114 q 0,8.357451 1.966461,12.536177 2.007419,4.178725 4.916149,4.178725 v 0.409679 H 74.706373 v -0.409679 q 2.499041,0 3.113564,-2.212266 0.655481,-2.212267 0.655481,-8.767129 V 40.683494 q 0,-6.554864 -0.655481,-8.767131 -0.614523,-2.212266 -3.113564,-2.212266 z m 36.748167,0 h 28.63657 v 5.530666 h -0.40968 q 0,-0.04096 0,-0.04096 0.0409,-0.04096 0.0409,-0.122902 0,-2.089364 -3.48226,-3.52324 -3.48228,-1.433876 -8.72617,-1.433876 v 29.169143 q 0,0.163872 0,0.532582 0,3.52324 0.0409,4.998084 0.082,1.433877 0.36871,2.990656 0.32775,1.556782 1.0242,2.007427 0.73742,0.450646 2.00743,0.450646 v 0.409681 h -10.69262 v -0.409681 q 2.49903,0 3.11355,-2.212265 0.6555,-2.212266 0.6555,-8.76713 V 29.704097 q -5.2439,0 -8.72618,1.433877 -3.48226,1.433875 -3.48226,3.523238 0,0.08194 0,0.122904 0.0409,0 0.0409,0.04096 h -0.4097 z m 61.04207,35.724007 q -5.24388,6.063249 -12.94585,6.063249 -7.70196,0 -12.98682,-6.063249 -5.24389,-6.104217 -5.24389,-15.240058 0,-9.135842 5.24389,-15.19909 5.28486,-6.104217 12.98682,-6.104217 7.70197,0 12.94585,6.104217 5.28487,6.063248 5.28487,15.19909 0,9.135841 -5.28487,15.240058 z m -2.49904,-30.152373 q -4.09679,-5.899377 -10.44681,-5.899377 -6.35002,0 -10.44681,5.899377 -4.09679,5.899376 -4.09679,14.912315 0,8.849066 4.26065,14.830378 4.26067,5.981314 10.28295,5.981314 6.02228,0 10.28294,-5.981314 4.26067,-5.981312 4.26067,-14.830378 0,-9.012939 -4.0968,-14.912315 z m 12.69997,4.260661 q 0,-4.506469 3.93292,-7.57906 3.93292,-3.072593 10.73359,-3.072593 6.10422,0 11.67586,1.884523 v 5.489698 h -0.40969 q -0.082,-0.286775 -0.32774,-0.737422 -0.20484,-0.450647 -1.10613,-1.638715 -0.90129,-1.18807 -2.08936,-2.089364 -1.14711,-0.942261 -3.23647,-1.679683 -2.0484,-0.737422 -4.50647,-0.737422 -5.40776,0 -8.60326,2.785817 -3.19548,2.744849 -3.19548,6.390992 0,2.253235 1.43386,3.973886 1.43389,1.679684 3.68712,2.744849 2.2942,1.024197 5.03905,1.966459 2.78582,0.901294 5.53067,1.966459 2.78581,1.024198 5.03905,2.33517 2.29419,1.310972 3.72808,3.52324 1.43386,2.171298 1.43386,5.080019 0,4.506469 -4.30161,7.947772 -4.26068,3.400336 -11.06135,3.400336 -6.51389,0 -13.23262,-4.998084 v -5.489699 h 0.40968 q 0.20484,0.409679 0.61451,1.065165 0.45066,0.655487 1.88453,2.335171 1.47485,1.679684 3.07259,2.990656 1.63871,1.270005 4.2197,2.335171 2.58098,1.024197 5.32583,1.024197 4.38355,0 7.53809,-2.703881 3.15452,-2.744849 3.15452,-6.227121 0,-2.499041 -1.47485,-4.383565 -1.43386,-1.884523 -3.76904,-3.072593 -2.33517,-1.229037 -5.16195,-2.253233 -2.78582,-1.024198 -5.6126,-2.048395 -2.78582,-1.065166 -5.12099,-2.33517 -2.33517,-1.310973 -3.81002,-3.400335 -1.43388,-2.089364 -1.43388,-4.793245 z m 46.78525,31.135602 v -0.409679 q 2.49903,0 3.11355,-2.212266 0.65549,-2.212267 0.65549,-8.767129 V 40.683494 q 0,-6.554864 -0.65549,-8.767131 -0.61452,-2.212266 -3.11355,-2.212266 v -0.409679 h 3.27742 q 2.25323,0 5.98131,-0.409679 3.72807,-0.409679 5.44873,-0.409679 4.58841,0 8.19358,1.76162 3.64615,1.720652 5.85842,4.711308 2.25323,2.949688 3.40033,6.759702 1.1471,3.769047 1.1471,8.070677 0,4.301629 -1.1471,8.111643 -1.1471,3.769046 -3.40033,6.759703 -2.21227,2.949689 -5.85842,4.711309 -3.60517,1.720652 -8.19358,1.720652 -1.72066,0 -5.44873,-0.409679 -3.72808,-0.40968 -5.98131,-0.40968 z m 7.2513,-40.066603 v 39.16531 q 3.68712,1.1471 7.4152,1.1471 3.68711,0 6.59583,-1.638715 2.94969,-1.679684 4.75227,-4.547437 1.84356,-2.867752 2.78582,-6.554863 0.98323,-3.72808 0.98323,-7.98874 0,-4.260662 -0.98323,-7.947773 -0.94226,-3.728078 -2.78582,-6.59583 -1.80258,-2.867754 -4.75227,-4.506469 -2.90872,-1.679685 -6.59583,-1.679685 -3.72808,0 -7.4152,1.147102 z m 29.74269,-0.491615 v -0.409679 h 29.33301 v 5.530666 h -0.40967 v -0.163872 q 0,-2.13033 -4.01487,-3.523238 -3.97388,-1.433877 -10.81552,-1.433877 h -6.80066 v 17.616196 q 1.96645,-1.884523 4.75228,-1.884523 2.08936,0 5.12098,1.270004 3.03162,1.270005 4.79324,1.270005 1.22904,0 2.13033,-0.655486 0.90129,-0.655486 0.90129,-1.679685 h 0.40968 q 0,1.884524 -1.47484,3.195497 -1.43387,1.310972 -3.76905,1.310972 -1.67968,0 -3.27742,-0.532582 -1.55679,-0.573551 -2.54002,-1.229038 -0.94226,-0.655485 -2.08936,-1.229037 -1.1471,-0.57355 -2.08936,-0.614517 -1.72065,-0.04096 -2.86775,1.433876 v 21.876857 h 5.24389 q 2.13032,0 4.30162,-0.163872 2.21227,-0.204839 5.2439,-0.778389 3.03161,-0.573551 4.91613,-1.96646 1.92551,-1.392908 1.92551,-3.441302 h 0.40967 v 6.759702 h -29.33301 v -0.409679 q 2.49904,0 3.11356,-2.212266 0.65549,-2.212267 0.65549,-8.767129 V 40.683494 q 0,-6.554864 -0.65549,-8.767131 -0.61452,-2.212266 -3.11356,-2.212266 z m 44.9007,0 v -0.409679 h 13.43748 v 0.409679 q -2.08936,0 -3.27743,0.57355 -1.18808,0.532583 -1.47484,1.638716 -0.28678,1.065166 -0.12291,2.294203 0.20484,1.229036 0.86032,2.949688 l 11.06133,29.169144 q 1.0242,-2.867754 4.79325,-13.150696 3.81001,-10.282942 5.6126,-15.895544 0.45066,-1.351941 0.53258,-2.580978 0.082,-1.229036 -0.28676,-2.417106 -0.32776,-1.188069 -1.59776,-1.884523 -1.22903,-0.696454 -3.27743,-0.696454 v -0.409679 h 11.59392 v 0.409679 q -1.8026,0 -3.03163,1.597748 -1.22903,1.55678 -2.58097,5.161955 L 330.5095,71.081674 h -0.40968 L 316.99008,36.4638 q -1.47484,-3.646143 -2.6629,-5.202923 -1.18808,-1.55678 -2.9497,-1.55678 z m 39.08338,0 v -0.409679 h 29.33301 v 5.530666 h -0.40967 v -0.163872 q 0,-2.13033 -4.01486,-3.523238 -3.97388,-1.433877 -10.81551,-1.433877 h -6.80068 v 17.616196 q 1.96646,-1.884523 4.75228,-1.884523 2.08936,0 5.12098,1.270004 3.03162,1.270005 4.79324,1.270005 1.22905,0 2.13034,-0.655486 0.90128,-0.655486 0.90128,-1.679685 h 0.40969 q 0,1.884524 -1.47485,3.195497 -1.43387,1.310972 -3.76905,1.310972 -1.67967,0 -3.27742,-0.532582 -1.55679,-0.573551 -2.54001,-1.229038 -0.94227,-0.655485 -2.08936,-1.229037 -1.14711,-0.57355 -2.08936,-0.614517 -1.72066,-0.04096 -2.86776,1.433876 v 21.876857 h 5.24389 q 2.13033,0 4.30163,-0.163872 2.21227,-0.204839 5.24389,-0.778389 3.03162,-0.573551 4.91616,-1.96646 1.92548,-1.392908 1.92548,-3.441302 h 0.40967 v 6.759702 h -29.33301 v -0.409679 q 2.49905,0 3.11356,-2.212266 0.65549,-2.212267 0.65549,-8.767129 V 40.683494 q 0,-6.554864 -0.65549,-8.767131 -0.61451,-2.212266 -3.11356,-2.212266 z m 31.79106,-0.409679 h 7.16938 l 22.94203,34.986584 V 46.418999 q 0,-8.357451 -2.00743,-12.536177 -1.96647,-4.178725 -4.87519,-4.178725 v -0.409679 h 11.06134 v 0.409679 q -2.49905,0 -3.15453,2.212266 -0.61452,2.212267 -0.61452,8.767131 v 30.39818 h -0.40967 L 386.43064,31.58862 v 21.549114 q 0,8.357451 1.96646,12.536177 2.00743,4.178725 4.91614,4.178725 v 0.409679 h -11.06132 v -0.409679 q 2.49903,0 3.11356,-2.212266 0.65549,-2.212267 0.65549,-8.767129 V 40.683494 q 0,-6.554864 -0.65549,-8.767131 -0.61453,-2.212266 -3.11356,-2.212266 z m 36.74818,0 h 28.63655 v 5.530666 h -0.40967 q 0,-0.04096 0,-0.04096 0.0409,-0.04096 0.0409,-0.122902 0,-2.089364 -3.48229,-3.52324 -3.48226,-1.433876 -8.72615,-1.433876 v 29.169143 q 0,0.163872 0,0.532582 0,3.52324 0.0409,4.998084 0.082,1.433877 0.36871,2.990656 0.32775,1.556782 1.0242,2.007427 0.73743,0.450646 2.00743,0.450646 v 0.409681 h -10.69267 v -0.409681 q 2.49905,0 3.11356,-2.212265 0.65548,-2.212266 0.65548,-8.76713 V 29.704097 q -5.24389,0 -8.72615,1.433877 -3.48228,1.433875 -3.48228,3.523238 0,0.08194 0,0.122904 0.0409,0 0.0409,0.04096 h -0.40966 z m 25.76872,33.798515 q 0,-2.376138 1.18807,-4.547437 1.22905,-2.171298 3.03163,-3.68711 1.84355,-1.55678 3.97388,-3.031624 2.13033,-1.474845 3.93292,-2.54001 1.84356,-1.106134 3.03162,-2.253234 1.22903,-1.147102 1.22903,-2.130331 0,-1.106133 -0.98323,-1.106133 -0.65547,0 -1.3929,0.696454 -0.69646,0.655487 -1.22903,1.474845 -0.53259,0.778389 -1.35195,1.474844 -0.77839,0.655485 -1.55677,0.655485 -0.81936,0 -1.06518,-0.655485 -0.2458,-0.696455 0.12292,-1.515813 1.10613,-2.949688 3.15453,-8.35745 2.04839,-5.448731 3.4413,-9.094874 h 0.40968 l 13.10972,34.617873 q 1.47484,3.646143 2.66292,5.202924 1.18806,1.556779 2.94968,1.556779 v 0.409679 h -13.43747 v -0.409679 q 2.08937,0 3.27744,-0.532582 1.18806,-0.573552 1.47484,-1.638716 0.28678,-1.106134 0.082,-2.335171 -0.16388,-1.229037 -0.81935,-2.949688 l -5.08003,-13.396502 q 0.24582,1.966458 0.24582,4.916147 0,7.620029 -3.48229,12.413274 -3.48227,4.752276 -9.46358,4.752276 -3.4413,0 -5.44873,-2.294202 -2.00744,-2.335172 -2.00744,-5.694539 z m 3.48227,-0.77839 q 0,2.949689 1.72066,4.87518 1.76161,1.925491 4.71131,1.925491 3.23646,0 5.6126,-2.417106 2.37613,-2.458073 3.40033,-5.776473 1.06516,-3.359368 1.06516,-6.923575 0,-4.87518 -0.86033,-7.701965 l -4.95711,-13.068759 -4.71131,12.536176 q -0.69645,1.925492 0.45066,1.925492 0.77838,0 1.72064,-1.065165 0.94227,-1.106134 1.92549,-2.171298 1.02421,-1.065166 1.92549,-1.065166 1.35195,0 1.35195,1.597747 0,1.106134 -0.73743,2.171298 -0.73742,1.024198 -1.92549,1.925493 -1.1471,0.860325 -2.58097,1.843554 -1.43388,0.942262 -2.86776,2.089364 -1.43387,1.106133 -2.62194,2.417105 -1.14711,1.270006 -1.88452,3.072593 -0.73743,1.761619 -0.73743,3.810014 z"
   id="text9"
   aria-label="PUNTOS DE VENTA" /><text
   xml:space="preserve"
   style="font-size:40.9679px;font-family:'TAN - PEARL';-inkscape-font-specification:'TAN - PEARL';opacity:0.88;fill:#fffae8;fill-opacity:1;stroke-width:1.09735"
   x="232.92125"
   y="45.99464"
   id="text10"><tspan
     sodipodi:role="line"
     id="tspan10"
     x="232.92125"
     y="45.99464"
     style="stroke-width:1.09735" /></text></svg>
