<?xml version="1.0" encoding="utf-8"?>
<!-- Generator: Adobe Illustrator 23.0.2, SVG Export Plug-In . SVG Version: 6.00 Build 0)  -->
<svg version="1.1"
	 id="svg1" xmlns:inkscape="http://www.inkscape.org/namespaces/inkscape" xmlns:sodipodi="http://sodipodi.sourceforge.net/DTD/sodipodi-0.dtd" xmlns:svg="http://www.w3.org/2000/svg"
	 xmlns="http://www.w3.org/2000/svg" xmlns:xlink="http://www.w3.org/1999/xlink" x="0px" y="0px" viewBox="0 0 320 100"
	 style="enable-background:new 0 0 320 100;" xml:space="preserve">
<style type="text/css">
	.st0{enable-background:new    ;}
	.st1{fill:#AAB589;}
</style>
<sodipodi:namedview  bordercolor="#000000" borderopacity="0.25" id="namedview1" inkscape:current-layer="layer1" inkscape:cx="166.30302" inkscape:cy="120.43479" inkscape:deskcolor="#d1d1d1" inkscape:document-units="mm" inkscape:pagecheckerboard="0" inkscape:pageopacity="0.0" inkscape:showpageshadow="2" inkscape:window-height="1006" inkscape:window-maximized="1" inkscape:window-width="1920" inkscape:window-x="0" inkscape:window-y="0" inkscape:zoom="2.0384476" pagecolor="#ffffff">
	</sodipodi:namedview>
<g class="st0">
	<path class="st1" d="M39.4,52c0-11.2,7.3-19.4,16.6-19.4c8.6,0,11.5,4.4,11.5,7.8c0,7.8-10.6,10.5-10.6,15c0,1.2,0.4,1.8,1.1,2.4
		c-2,0.4-3.2-1.8-3.2-3.5c0-6.6,10.5-8.8,10.5-14.2c0-4.4-3-7.1-9.3-7.1c-7.7,0-13.3,8.1-13.3,19c0,10.9,6,19,13.3,19
		c8.3,0,10.6-6.3,10.6-6.3h0.4v5c-3,1-6.3,1.7-11.1,1.7C46.8,71.4,39.4,63.2,39.4,52z"/>
	<path class="st1" d="M70.5,52c0-11.2,7.3-19.4,16.6-19.4c9.3,0,16.6,8.2,16.6,19.4c0,11.2-7.3,19.4-16.6,19.4
		C77.8,71.4,70.5,63.2,70.5,52z M73.9,52c0,10.9,6,19,13.3,19c7.2,0,13.3-8.1,13.3-19c0-10.9-5.5-19-13.3-19S73.9,41.1,73.9,52z"/>
	<path class="st1" d="M113.6,33.4l20.9,31.9V49c0-10.9-3.1-15.2-6.3-15.2v-0.4h10.1v0.4c-3.2,0-3.4,2.7-3.4,10v27.7h-0.4l-23.6-36
		v19.6c0,10.9,3.1,15.2,6.3,15.2v0.4h-10.1v-0.4c3.2,0,3.4-2.7,3.4-10V43.7c0-7.4-0.2-10-3.4-10v-0.4H113.6z"/>
	<path class="st1" d="M166.7,33.4v5h-0.4c0-0.1,0,0,0-0.1c0-2.5-4.7-4.5-11.1-4.5v26.6c0,7.4-0.1,10,3.1,10v0.4h-9.7v-0.4
		c3.2,0,3.4-2.7,3.4-10V33.7c-6.4,0-11.1,2-11.1,4.5c0,0.1,0,0,0,0.1h-0.4v-5H166.7z"/>
	<path class="st1" d="M179,47.6c0-0.7-0.4-1-0.9-1c-1.8,0-2.9,3.9-5,3.9c-1,0-1.2-1-0.9-2c2.3-6,3.7-9.7,6-15.9h0.4l11.9,31.6
		c1.6,4.1,2.8,6.2,5.1,6.2v0.4h-12.2v-0.4c5.3,0,5.1-3,3.7-6.8l-4.6-12.2c0.1,1.2,0.2,2.7,0.2,4.5c0,9.1-4.4,15.6-11.8,15.6
		c-4.3,0-6.8-3.4-6.8-7.3C164.1,55,179,51.5,179,47.6z M173.1,69.6c6.2,0,9.2-7.7,9.2-13.8c0-2.8-0.1-4.8-0.8-7L177,36.9l-4.3,11.4
		c-0.5,1.3-0.2,1.8,0.4,1.8c1.7,0,3.1-3.9,5.1-3.9c0.7,0,1.2,0.5,1.2,1.5c0,5-12.2,6.6-12.2,15.8C167.2,67,169.4,69.6,173.1,69.6z"
		/>
	<path class="st1" d="M194.9,52c0-11.2,7.3-19.4,16.6-19.4c8.6,0,11.5,4.4,11.5,7.8c0,7.8-10.6,10.5-10.6,15c0,1.2,0.4,1.8,1.1,2.4
		c-2,0.4-3.2-1.8-3.2-3.5c0-6.6,10.5-8.8,10.5-14.2c0-4.4-3-7.1-9.3-7.1c-7.7,0-13.3,8.1-13.3,19c0,10.9,6,19,13.3,19
		c8.3,0,10.6-6.3,10.6-6.3h0.4v5c-3,1-6.3,1.7-11.1,1.7C202.2,71.4,194.9,63.2,194.9,52z"/>
	<path class="st1" d="M250.9,33.4v5h-0.4c0-0.1,0,0,0-0.1c0-2.5-4.7-4.5-11.1-4.5v26.6c0,7.4-0.1,10,3.1,10v0.4h-9.7v-0.4
		c3.2,0,3.4-2.7,3.4-10V33.7c-6.4,0-11.1,2-11.1,4.5c0,0.1,0,0,0,0.1h-0.4v-5H250.9z"/>
	<path class="st1" d="M252.1,52c0-11.2,7.3-19.4,16.6-19.4s16.6,8.2,16.6,19.4c0,11.2-7.3,19.4-16.6,19.4S252.1,63.2,252.1,52z
		 M255.4,52c0,10.9,6,19,13.3,19c7.2,0,13.3-8.1,13.3-19c0-10.9-5.5-19-13.3-19C260.9,33.1,255.4,41.1,255.4,52z"/>
</g>
</svg>
