<?xml version="1.0" encoding="UTF-8" standalone="no"?>
<!-- Created with Inkscape (http://www.inkscape.org/) -->

<svg
   version="1.1"
   id="svg2"
   xml:space="preserve"
   width="400"
   height="100"
   viewBox="0 0 400 100"
   sodipodi:docname="historia.svg"
   inkscape:version="1.1.2 (0a00cf5339, 2022-02-04)"
   xmlns:inkscape="http://www.inkscape.org/namespaces/inkscape"
   xmlns:sodipodi="http://sodipodi.sourceforge.net/DTD/sodipodi-0.dtd"
   xmlns="http://www.w3.org/2000/svg"
   xmlns:svg="http://www.w3.org/2000/svg"><defs
     id="defs6"><clipPath
       clipPathUnits="userSpaceOnUse"
       id="clipPath20"><path
         d="M 0,100 H 320 V 0 H 0 Z"
         id="path18" /></clipPath><clipPath
       clipPathUnits="userSpaceOnUse"
       id="clipPath2"><path
         d="M 0,540 H 1080 V 0 H 0 Z"
         transform="translate(-265.105,-418.74801)"
         id="path2" /></clipPath><clipPath
       clipPathUnits="userSpaceOnUse"
       id="clipPath4"><path
         d="M 0,540 H 1080 V 0 H 0 Z"
         transform="translate(-153.4492,-197.124)"
         id="path4" /></clipPath><clipPath
       clipPathUnits="userSpaceOnUse"
       id="clipPath6"><path
         d="M 0,540 H 1080 V 0 H 0 Z"
         transform="translate(-120.5137,-325.05371)"
         id="path6" /></clipPath><clipPath
       clipPathUnits="userSpaceOnUse"
       id="clipPath8"><path
         d="M 0,540 H 1080 V 0 H 0 Z"
         transform="translate(-314.43261,-401.59621)"
         id="path8" /></clipPath><clipPath
       clipPathUnits="userSpaceOnUse"
       id="clipPath10"><path
         d="M 0,540 H 1080 V 0 H 0 Z"
         transform="translate(-268.0366,-88.986302)"
         id="path10" /></clipPath><clipPath
       clipPathUnits="userSpaceOnUse"
       id="clipPath12"><path
         d="M 0,540 H 1080 V 0 H 0 Z"
         transform="translate(-281.11911,-305.87891)"
         id="path12" /></clipPath><clipPath
       clipPathUnits="userSpaceOnUse"
       id="clipPath14"><path
         d="M 0,540 H 1080 V 0 H 0 Z"
         transform="translate(-72.046902,-197.0566)"
         id="path14" /></clipPath><clipPath
       clipPathUnits="userSpaceOnUse"
       id="clipPath16"><path
         d="M 0,540 H 1080 V 0 H 0 Z"
         transform="translate(-112.582,-238.37991)"
         id="path16" /></clipPath><clipPath
       clipPathUnits="userSpaceOnUse"
       id="clipPath18"><path
         d="M 0,540 H 1080 V 0 H 0 Z"
         transform="translate(-341.13771,-309.44381)"
         id="path18-3" /></clipPath><clipPath
       clipPathUnits="userSpaceOnUse"
       id="clipPath20-6"><path
         d="M 0,540 H 1080 V 0 H 0 Z"
         transform="translate(-173.6709,-333.48881)"
         id="path20" /></clipPath><clipPath
       clipPathUnits="userSpaceOnUse"
       id="clipPath22"><path
         d="M 0,540 H 1080 V 0 H 0 Z"
         transform="translate(-401.20361,-257.68461)"
         id="path22" /></clipPath><clipPath
       clipPathUnits="userSpaceOnUse"
       id="clipPath24"><path
         d="M 0,540 H 1080 V 0 H 0 Z"
         transform="translate(-368.80521,-261.80181)"
         id="path24" /></clipPath><clipPath
       clipPathUnits="userSpaceOnUse"
       id="clipPath26"><path
         d="M 0,540 H 1080 V 0 H 0 Z"
         transform="translate(-175.86081,-433.51661)"
         id="path26" /></clipPath><clipPath
       clipPathUnits="userSpaceOnUse"
       id="clipPath28"><path
         d="M 0,540 H 1080 V 0 H 0 Z"
         transform="translate(-42.493201,-250.67871)"
         id="path28" /></clipPath><clipPath
       clipPathUnits="userSpaceOnUse"
       id="clipPath30"><path
         d="M 0,540 H 1080 V 0 H 0 Z"
         transform="translate(-272.02341,-273.9175)"
         id="path30" /></clipPath><clipPath
       clipPathUnits="userSpaceOnUse"
       id="clipPath32"><path
         d="M 0,540 H 1080 V 0 H 0 Z"
         transform="translate(-67.681202,-303.96441)"
         id="path32" /></clipPath><clipPath
       clipPathUnits="userSpaceOnUse"
       id="clipPath34"><path
         d="M 0,540 H 1080 V 0 H 0 Z"
         transform="translate(-357.71481,-176.1426)"
         id="path34" /></clipPath><clipPath
       clipPathUnits="userSpaceOnUse"
       id="clipPath36"><path
         d="M 0,540 H 1080 V 0 H 0 Z"
         transform="translate(-168.4492,-416.94821)"
         id="path36" /></clipPath><clipPath
       clipPathUnits="userSpaceOnUse"
       id="clipPath38"><path
         d="M 0,540 H 1080 V 0 H 0 Z"
         transform="translate(-44.961901,-278.0527)"
         id="path38" /></clipPath><clipPath
       clipPathUnits="userSpaceOnUse"
       id="clipPath40"><path
         d="M 0,540 H 1080 V 0 H 0 Z"
         transform="translate(-152.55081,-286.06401)"
         id="path40" /></clipPath><clipPath
       clipPathUnits="userSpaceOnUse"
       id="clipPath42"><path
         d="M 0,540 H 1080 V 0 H 0 Z"
         transform="translate(-318.10211,-114.84771)"
         id="path42" /></clipPath><clipPath
       clipPathUnits="userSpaceOnUse"
       id="clipPath44"><path
         d="M 0,540 H 1080 V 0 H 0 Z"
         transform="translate(-402.90621,-280.21291)"
         id="path44" /></clipPath><clipPath
       clipPathUnits="userSpaceOnUse"
       id="clipPath46"><path
         d="M 0,540 H 1080 V 0 H 0 Z"
         transform="translate(-287.18461,-182.4951)"
         id="path46" /></clipPath><clipPath
       clipPathUnits="userSpaceOnUse"
       id="clipPath48"><path
         d="M 0,540 H 1080 V 0 H 0 Z"
         transform="translate(-42.426301,-269.50051)"
         id="path48" /></clipPath><clipPath
       clipPathUnits="userSpaceOnUse"
       id="clipPath50"><path
         d="M 0,540 H 1080 V 0 H 0 Z"
         transform="translate(-362.66501,-302.62111)"
         id="path50" /></clipPath><clipPath
       clipPathUnits="userSpaceOnUse"
       id="clipPath52"><path
         d="M 0,540 H 1080 V 0 H 0 Z"
         transform="translate(-322.65481,-389.42241)"
         id="path52" /></clipPath><clipPath
       clipPathUnits="userSpaceOnUse"
       id="clipPath54"><path
         d="M 0,540 H 1080 V 0 H 0 Z"
         transform="translate(-328.63091,-164.8965)"
         id="path54" /></clipPath><clipPath
       clipPathUnits="userSpaceOnUse"
       id="clipPath56"><path
         d="M 0,540 H 1080 V 0 H 0 Z"
         transform="translate(-42.815401,-318.56691)"
         id="path56" /></clipPath><clipPath
       clipPathUnits="userSpaceOnUse"
       id="clipPath58"><path
         d="M 0,540 H 1080 V 0 H 0 Z"
         transform="translate(-74.951702,-343.75781)"
         id="path58" /></clipPath><clipPath
       clipPathUnits="userSpaceOnUse"
       id="clipPath60"><path
         d="M 0,540 H 1080 V 0 H 0 Z"
         transform="translate(-214.23291,-337.30081)"
         id="path60" /></clipPath><clipPath
       clipPathUnits="userSpaceOnUse"
       id="clipPath62"><path
         d="M 0,540 H 1080 V 0 H 0 Z"
         transform="translate(-106.02051,-199.73541)"
         id="path62" /></clipPath><clipPath
       clipPathUnits="userSpaceOnUse"
       id="clipPath64"><path
         d="M 0,540 H 1080 V 0 H 0 Z"
         transform="translate(-228.31101,-157.585)"
         id="path64" /></clipPath><clipPath
       clipPathUnits="userSpaceOnUse"
       id="clipPath66"><path
         d="M 0,540 H 1080 V 0 H 0 Z"
         transform="translate(-136.645,-105.33981)"
         id="path66" /></clipPath><clipPath
       clipPathUnits="userSpaceOnUse"
       id="clipPath68"><path
         d="M 0,540 H 1080 V 0 H 0 Z"
         transform="translate(-335.88871,-171.91701)"
         id="path68" /></clipPath><clipPath
       clipPathUnits="userSpaceOnUse"
       id="clipPath70"><path
         d="M 0,540 H 1080 V 0 H 0 Z"
         transform="translate(-371.53961,-178.1631)"
         id="path70" /></clipPath><clipPath
       clipPathUnits="userSpaceOnUse"
       id="clipPath72"><path
         d="M 0,540 H 1080 V 0 H 0 Z"
         transform="translate(-287.3545,-227.78121)"
         id="path72" /></clipPath><clipPath
       clipPathUnits="userSpaceOnUse"
       id="clipPath74"><path
         d="M 0,540 H 1080 V 0 H 0 Z"
         transform="translate(-117.457,-368.56591)"
         id="path74" /></clipPath><clipPath
       clipPathUnits="userSpaceOnUse"
       id="clipPath76"><path
         d="M 0,540 H 1080 V 0 H 0 Z"
         transform="translate(-223.2871,-81.847705)"
         id="path76" /></clipPath><clipPath
       clipPathUnits="userSpaceOnUse"
       id="clipPath78"><path
         d="M 0,540 H 1080 V 0 H 0 Z"
         transform="translate(-369.35601,-352.57131)"
         id="path78" /></clipPath><clipPath
       clipPathUnits="userSpaceOnUse"
       id="clipPath80"><path
         d="M 0,540 H 1080 V 0 H 0 Z"
         transform="translate(-180.33981,-141.18651)"
         id="path80" /></clipPath><clipPath
       clipPathUnits="userSpaceOnUse"
       id="clipPath82"><path
         d="M 0,540 H 1080 V 0 H 0 Z"
         transform="translate(-273.32671,-348.68211)"
         id="path82" /></clipPath><clipPath
       clipPathUnits="userSpaceOnUse"
       id="clipPath84"><path
         d="M 0,540 H 1080 V 0 H 0 Z"
         transform="translate(-360.66891,-301.06881)"
         id="path84" /></clipPath><clipPath
       clipPathUnits="userSpaceOnUse"
       id="clipPath86"><path
         d="M 0,540 H 1080 V 0 H 0 Z"
         transform="translate(-206.62551,-118.2568)"
         id="path86" /></clipPath><clipPath
       clipPathUnits="userSpaceOnUse"
       id="clipPath88"><path
         d="M 0,540 H 1080 V 0 H 0 Z"
         transform="translate(-815.12702,-238.97361)"
         id="path88" /></clipPath><clipPath
       clipPathUnits="userSpaceOnUse"
       id="clipPath90"><path
         d="M 0,540 H 1080 V 0 H 0 Z"
         transform="translate(-722.96682,-207.1123)"
         id="path90" /></clipPath><clipPath
       clipPathUnits="userSpaceOnUse"
       id="clipPath92"><path
         d="M 0,540 H 1080 V 0 H 0 Z"
         transform="translate(-479.21291,-289.52541)"
         id="path92" /></clipPath><clipPath
       clipPathUnits="userSpaceOnUse"
       id="clipPath94"><path
         d="M 0,540 H 1080 V 0 H 0 Z"
         transform="translate(-654.33502,-282.40381)"
         id="path94" /></clipPath><clipPath
       clipPathUnits="userSpaceOnUse"
       id="clipPath96"><path
         d="M 0,540 H 1080 V 0 H 0 Z"
         transform="translate(-577.73831,-254.46291)"
         id="path96" /></clipPath><clipPath
       clipPathUnits="userSpaceOnUse"
       id="clipPath98"><path
         d="M 0,540 H 1080 V 0 H 0 Z"
         transform="translate(-1045.8535,-241.3105)"
         id="path98" /></clipPath><clipPath
       clipPathUnits="userSpaceOnUse"
       id="clipPath100"><path
         d="M 0,540 H 1080 V 0 H 0 Z"
         transform="translate(-1039.9561,-315.94041)"
         id="path100" /></clipPath><clipPath
       clipPathUnits="userSpaceOnUse"
       id="clipPath102"><path
         d="M 0,540 H 1080 V 0 H 0 Z"
         transform="translate(-977.02052,-209.42091)"
         id="path102" /></clipPath><clipPath
       clipPathUnits="userSpaceOnUse"
       id="clipPath104"><path
         d="M 0,540 H 1080 V 0 H 0 Z"
         transform="translate(-887.33402,-253.51461)"
         id="path104" /></clipPath></defs><sodipodi:namedview
     id="namedview4"
     pagecolor="#ffffff"
     bordercolor="#000000"
     borderopacity="0.25"
     inkscape:pageshadow="2"
     inkscape:pageopacity="0.0"
     inkscape:pagecheckerboard="0"
     showgrid="false"
     inkscape:zoom="1.1600971"
     inkscape:cx="329.91397"
     inkscape:cy="16.104207"
     inkscape:window-width="1920"
     inkscape:window-height="1008"
     inkscape:window-x="0"
     inkscape:window-y="0"
     inkscape:window-maximized="1"
     inkscape:current-layer="g8"
     width="450px"
     inkscape:rotation="-1" /><g
     id="g8"
     inkscape:groupmode="layer"
     inkscape:label="editable para secciones"
     transform="matrix(1.3333333,0,0,-1.3333333,0,133.33333)"><g
       id="g14"
       transform="matrix(1.3439356,0,0,1.3439356,-65.335272,22.041958)"
       style="fill:#f9eec8;fill-opacity:1"><g
         id="g16"
         clip-path="url(#clipPath20)"
         style="fill:#f9eec8;fill-opacity:1"><g
           aria-label="HISTORIA"
           transform="matrix(1,0,0,-1,54.6113,10.7998)"
           id="text24"
           style="font-size:36px;font-family:'TAN -PEARL';-inkscape-font-specification:TAN-PEARL-Regular;fill:#f9eec8;fill-opacity:1"><path
             d="M 10.8,0 H 1.08 v -0.36 q 2.196,0 2.736,-1.944 0.576,-1.944 0.576,-7.704 v -15.984 q 0,-5.76 -0.576,-7.704 Q 3.276,-35.64 1.08,-35.64 V -36 h 9.72 v 0.36 q -2.196,0 -2.772,1.944 -0.54,1.944 -0.54,7.704 v 6.3 q 0.36,-0.828 1.512,-1.476 1.152,-0.648 2.664,-0.648 1.836,0 5.004,1.116 3.168,1.116 4.716,1.116 1.08,0 1.872,-0.576 0.792,-0.576 0.792,-1.476 h 0.36 q 0,1.656 -1.296,2.808 -1.26,1.152 -3.312,1.152 -1.872,0 -3.78,-0.792 -1.908,-0.792 -3.456,-1.584 -1.548,-0.792 -2.556,-0.792 -2.52,0 -2.52,3.168 v 7.668 q 0,5.76 0.54,7.704 0.576,1.944 2.772,1.944 z M 22.176,-35.64 V -36 h 9.72 v 0.36 q -2.196,0 -2.772,1.944 -0.54,1.944 -0.54,7.704 v 15.984 q 0,5.76 0.54,7.704 0.576,1.944 2.772,1.944 V 0 h -9.72 v -0.36 q 2.196,0 2.736,-1.944 0.576,-1.944 0.576,-7.704 v -15.984 q 0,-5.76 -0.576,-7.704 -0.54,-1.944 -2.736,-1.944 z"
             id="path5848"
             style="fill:#f9eec8;fill-opacity:1" /><path
             d="M 34.056002,-35.64 V -36 h 9.72 v 0.36 q -2.196,0 -2.772,1.944 -0.54,1.944 -0.54,7.704 v 15.984 q 0,5.76 0.54,7.704 0.576,1.944 2.772,1.944 V 0 h -9.72 v -0.36 q 2.196,0 2.736,-1.944 0.576,-1.944 0.576,-7.704 v -15.984 q 0,-5.76 -0.576,-7.704 -0.54,-1.944 -2.736,-1.944 z"
             id="path5850"
             style="fill:#f9eec8;fill-opacity:1" /><path
             d="m 47.015999,-27.36 q 0,-3.96 3.456,-6.66 3.456,-2.7 9.432,-2.7 5.364,0 10.26,1.656 v 4.824 h -0.36 q -0.072,-0.252 -0.288,-0.648 -0.18,-0.396 -0.972,-1.44 -0.792,-1.044 -1.836,-1.836 -1.008,-0.828 -2.844,-1.476 -1.8,-0.648 -3.96,-0.648 -4.752,0 -7.56,2.448 -2.808,2.412 -2.808,5.616 0,1.98 1.26,3.492 1.26,1.476 3.24,2.412 2.016,0.9 4.428,1.728 2.448,0.792 4.86,1.728 2.448,0.9 4.428,2.052 2.016,1.152 3.276,3.096 1.26,1.908 1.26,4.464 0,3.96 -3.78,6.984 -3.744,2.988 -9.72,2.988 -5.724,0 -11.628,-4.392 v -4.824 h 0.36 q 0.18,0.36 0.54,0.936 0.396,0.576 1.656,2.052 1.296,1.476 2.7,2.628 1.44,1.116 3.708,2.052 2.268,0.9 4.68,0.9 3.852,0 6.624,-2.376 2.772,-2.412 2.772,-5.472 0,-2.196 -1.296,-3.852 -1.26,-1.656 -3.312,-2.7 -2.052,-1.08 -4.536,-1.98 -2.448,-0.9 -4.932,-1.8 -2.448,-0.936 -4.5,-2.052 -2.052,-1.152 -3.348,-2.988 -1.26,-1.836 -1.26,-4.212 z"
             id="path5852"
             style="fill:#f9eec8;fill-opacity:1" /><path
             d="M 75.527998,-36 H 100.692 v 4.86 h -0.36 q 0,-0.036 0,-0.036 0.036,-0.036 0.036,-0.108 0,-1.836 -3.060002,-3.096 -3.06,-1.26 -7.668,-1.26 v 25.632 q 0,0.144 0,0.468 0,3.096 0.036,4.392 0.072,1.26 0.324,2.628 0.288,1.368 0.9,1.764 0.648,0.396 1.764,0.396 V 0 h -9.396 v -0.36 q 2.196,0 2.736,-1.944 0.576,-1.944 0.576,-7.704 V -35.64 q -4.608,0 -7.668,1.26 -3.06,1.26 -3.06,3.096 0,0.072 0,0.108 0.036,0 0.036,0.036 h -0.36 z"
             id="path5854"
             style="fill:#f9eec8;fill-opacity:1" /><path
             d="m 129.168,-4.608 q -4.608,5.328 -11.376,5.328 -6.768,0 -11.412,-5.328 -4.608,-5.364 -4.608,-13.392 0,-8.028 4.608,-13.356 4.644,-5.364 11.412,-5.364 6.768,0 11.376,5.364 4.644,5.328 4.644,13.356 0,8.028 -4.644,13.392 z m -2.196,-26.496 q -3.6,-5.184 -9.18,-5.184 -5.58,0 -9.18,5.184 -3.6,5.184 -3.6,13.104 0,7.776 3.744,13.032 3.744,5.256 9.036,5.256 5.292,0 9.036,-5.256 3.744,-5.256 3.744,-13.032 0,-7.92 -3.6,-13.104 z"
             id="path5856"
             style="fill:#f9eec8;fill-opacity:1" /><path
             d="m 137.052,0 v -0.36 q 2.196,0 2.736,-1.944 0.576,-1.944 0.576,-7.704 v -15.984 q 0,-5.76 -0.576,-7.704 -0.54,-1.944 -2.736,-1.944 V -36 h 4.32 q 1.944,0 5.256,-0.36 3.312,-0.36 5.436,-0.36 5.616,0 8.784,2.808 3.168,2.808 3.168,7.308 0,3.852 -2.88,6.624 -2.88,2.772 -7.416,2.772 -1.908,0 -4.284,-1.152 -2.376,-1.152 -2.916,-1.152 -1.044,0 -1.044,0.936 0,0.792 1.26,1.548 1.26,0.72 2.88,1.332 1.656,0.576 3.528,1.8 1.872,1.188 2.844,2.7 0.36,0.576 1.224,1.98 0.864,1.368 1.368,2.16 0.504,0.756 1.332,1.98 0.828,1.188 1.512,1.908 0.684,0.684 1.512,1.404 0.828,0.72 1.656,1.08 0.828,0.324 1.692,0.324 V 0 h -5.508 q -0.288,0 -0.54,-0.072 -0.252,-0.072 -0.54,-0.288 -0.288,-0.252 -0.576,-0.504 -0.252,-0.288 -0.648,-0.828 -0.396,-0.54 -0.756,-1.08 -0.36,-0.54 -0.972,-1.44 -0.612,-0.936 -1.152,-1.764 -0.54,-0.864 -1.44,-2.196 -0.9,-1.368 -1.728,-2.628 -1.152,-1.728 -2.592,-3.06 -1.44,-1.368 -2.412,-1.944 -0.936,-0.576 -1.62,-1.296 -0.684,-0.72 -0.684,-1.548 0,-1.224 1.26,-1.224 0.9,0 3.096,1.044 2.196,1.008 4.032,1.008 3.24,0 5.328,-2.664 2.088,-2.664 2.088,-6.084 0,-4.464 -2.952,-7.056 -2.916,-2.592 -7.956,-2.592 -3.384,0 -6.588,1.152 v 25.056 q 0,5.76 0.54,7.704 0.576,1.944 2.772,1.944 V 0 Z"
             id="path5858"
             style="fill:#f9eec8;fill-opacity:1" /><path
             d="M 168.444,-35.64 V -36 h 9.72 v 0.36 q -2.196,0 -2.772,1.944 -0.54,1.944 -0.54,7.704 v 15.984 q 0,5.76 0.54,7.704 0.576,1.944 2.772,1.944 V 0 h -9.72 v -0.36 q 2.196,0 2.736,-1.944 0.576,-1.944 0.576,-7.704 v -15.984 q 0,-5.76 -0.576,-7.704 -0.54,-1.944 -2.736,-1.944 z"
             id="path5860"
             style="fill:#f9eec8;fill-opacity:1" /><path
             d="m 180.324,-6.3 q 0,-2.088 1.044,-3.996 1.08,-1.908 2.664,-3.24 1.62,-1.368 3.492,-2.664 1.872,-1.296 3.456,-2.232 1.62,-0.972 2.664,-1.98 1.08,-1.008 1.08,-1.872 0,-0.972 -0.864,-0.972 -0.576,0 -1.224,0.612 -0.612,0.576 -1.08,1.296 -0.468,0.684 -1.188,1.296 -0.684,0.576 -1.368,0.576 -0.72,0 -0.936,-0.576 -0.216,-0.612 0.108,-1.332 0.972,-2.592 2.772,-7.344 1.8,-4.788 3.024,-7.992 h 0.36 l 11.52,30.42 q 1.296,3.204 2.34,4.572 1.044,1.368 2.592,1.368 V 0 h -11.808 v -0.36 q 1.836,0 2.88,-0.468 1.044,-0.504 1.296,-1.44 0.252,-0.972 0.072,-2.052 -0.144,-1.08 -0.72,-2.592 l -4.464,-11.772 q 0.216,1.728 0.216,4.32 0,6.696 -3.06,10.908 -3.06,4.176 -8.316,4.176 -3.024,0 -4.788,-2.016 -1.764,-2.052 -1.764,-5.004 z m 3.06,-0.684 q 0,2.592 1.512,4.284 1.548,1.692 4.14,1.692 2.844,0 4.932,-2.124 2.088,-2.16 2.988,-5.076 0.936,-2.952 0.936,-6.084 0,-4.284 -0.756,-6.768 l -4.356,-11.484 -4.14,11.016 q -0.612,1.692 0.396,1.692 0.684,0 1.512,-0.936 0.828,-0.972 1.692,-1.908 0.9,-0.936 1.692,-0.936 1.188,0 1.188,1.404 0,0.972 -0.648,1.908 -0.648,0.9 -1.692,1.692 -1.008,0.756 -2.268,1.62 -1.26,0.828 -2.52,1.836 -1.26,0.972 -2.304,2.124 -1.008,1.116 -1.656,2.7 -0.648,1.548 -0.648,3.348 z"
             id="path5862"
             style="fill:#f9eec8;fill-opacity:1" /></g></g></g></g></svg>
