<?xml version="1.0" encoding="utf-8"?>
<!-- Generator: Adobe Illustrator 23.0.2, SVG Export Plug-In . SVG Version: 6.00 Build 0)  -->
<svg version="1.1"
	 id="svg1" xmlns:inkscape="http://www.inkscape.org/namespaces/inkscape" xmlns:sodipodi="http://sodipodi.sourceforge.net/DTD/sodipodi-0.dtd" xmlns:svg="http://www.w3.org/2000/svg"
	 xmlns="http://www.w3.org/2000/svg" xmlns:xlink="http://www.w3.org/1999/xlink" x="0px" y="0px" viewBox="0 0 320 100"
	 style="enable-background:new 0 0 320 100;" xml:space="preserve">
<style type="text/css">
	.st0{enable-background:new    ;}
	.st1{fill:#AAB589;}
</style>
<sodipodi:namedview  bordercolor="#000000" borderopacity="0.25" id="namedview1" inkscape:current-layer="layer1" inkscape:cx="166.05774" inkscape:cy="120.43479" inkscape:deskcolor="#d1d1d1" inkscape:document-units="mm" inkscape:pagecheckerboard="0" inkscape:pageopacity="0.0" inkscape:showpageshadow="2" inkscape:window-height="1006" inkscape:window-maximized="1" inkscape:window-width="1920" inkscape:window-x="0" inkscape:window-y="0" inkscape:zoom="2.0384476" pagecolor="#ffffff">
	</sodipodi:namedview>
<g class="st0">
	<path class="st1" d="M38.3,70.7v-0.4c3.2,0,3.4-2.7,3.4-10V43.7c0-7.4-0.2-10-3.4-10v-0.4h10.1v0.4c-3.2,0-3.4,2.7-3.4,10v6.5
		c0.4-1,2.1-2.2,4.3-2.2c3.7,0,6.8,2.3,10.1,2.3c1.4,0,2.8-0.8,2.8-2.1h0.4c0,2.2-1.8,4.1-4.8,4.1c-4.6,0-7.5-3.3-10.2-3.3
		c-1.9,0-2.6,1.5-2.6,3.3v8c0,7.4,0.2,10,3.4,10v0.4H38.3z M60.2,33.4h10.1v0.4c-3.2,0-3.4,2.7-3.4,10v16.6c0,7.4,0.2,10,3.4,10v0.4
		H60.2v-0.4c3.2,0,3.4-2.7,3.4-10V43.7c0-7.4-0.2-10-3.4-10V33.4z"/>
	<path class="st1" d="M73.6,52c0-11.2,7.3-19.4,16.6-19.4c9.3,0,16.6,8.2,16.6,19.4c0,11.2-7.3,19.4-16.6,19.4
		C81,71.4,73.6,63.2,73.6,52z M77,52c0,10.9,6,19,13.3,19c7.2,0,13.3-8.1,13.3-19c0-10.9-5.5-19-13.3-19S77,41.1,77,52z"/>
	<path class="st1" d="M110.2,70.3c3.2,0,3.4-2.7,3.4-10V43.7c0-7.4-0.2-10-3.4-10v-0.4h4.5c4.1,0,6.8-0.7,11.1-0.7
		c8,0,12.4,4.4,12.4,10.5c0,5.1-4.2,9.7-10.7,9.7c-3.5,0-5.9-2.4-7.5-2.4c-0.4,0-1.1,0.1-1.1,1c0,2.4,7.9,3,10.9,7.7
		c2.9,4.6,6.4,11.2,10.7,11.2v0.4h-5.7c-1.7,0-2.8-2.4-8.7-11.2c-3.6-5.5-7.6-5.6-7.6-8.1c0-0.9,0.6-1.3,1.3-1.3
		c2.2,0,3.9,2.1,7.4,2.1c4.7,0,7.7-4.6,7.7-9.1c0-6.2-4.4-10-11.3-10c-2.8,0-4.6,0.4-6.8,1.2v26c0,7.4,0.2,10,3.4,10v0.4h-10V70.3z"
		/>
	<path class="st1" d="M156.6,47.6c0-0.7-0.4-1-0.9-1c-1.8,0-2.9,3.9-5,3.9c-1,0-1.2-1-0.9-2c2.3-6,3.7-9.7,6-15.9h0.4l11.9,31.6
		c1.6,4.1,2.8,6.2,5.1,6.2v0.4H161v-0.4c5.3,0,5.1-3,3.7-6.8L160,51.3c0.1,1.2,0.2,2.7,0.2,4.5c0,9.1-4.4,15.6-11.8,15.6
		c-4.3,0-6.8-3.4-6.8-7.3C141.7,55,156.6,51.5,156.6,47.6z M150.7,69.6c6.2,0,9.2-7.7,9.2-13.8c0-2.8-0.1-4.8-0.8-7l-4.5-11.9
		l-4.3,11.4c-0.5,1.3-0.2,1.8,0.4,1.8c1.7,0,3.1-3.9,5.1-3.9c0.7,0,1.2,0.5,1.2,1.5c0,5-12.2,6.6-12.2,15.8
		C144.8,67,147,69.6,150.7,69.6z"/>
	<path class="st1" d="M174.4,70.3c3.2,0,3.4-2.7,3.4-10V43.7c0-7.4-0.2-10-3.4-10v-0.4h4.5c4.1,0,6.8-0.7,11.1-0.7
		c8,0,12.4,4.4,12.4,10.5c0,5.1-4.2,9.7-10.7,9.7c-3.5,0-5.9-2.4-7.5-2.4c-0.4,0-1.1,0.1-1.1,1c0,2.4,7.9,3,10.9,7.7
		c3,4.6,6.4,11.2,10.7,11.2v0.4H199c-1.7,0-2.8-2.4-8.7-11.2c-3.6-5.5-7.6-5.6-7.6-8.1c0-0.9,0.6-1.3,1.3-1.3c2.2,0,3.9,2.1,7.4,2.1
		c4.7,0,7.7-4.6,7.7-9.1c0-6.2-4.4-10-11.3-10c-2.8,0-4.6,0.4-6.8,1.2v26c0,7.4,0.2,10,3.4,10v0.4h-10V70.3z"/>
	<path class="st1" d="M206.9,33.4H217v0.4c-3.2,0-3.4,2.7-3.4,10v16.6c0,7.4,0.2,10,3.4,10v0.4h-10.1v-0.4c3.2,0,3.4-2.7,3.4-10
		V43.7c0-7.4-0.2-10-3.4-10V33.4z"/>
	<path class="st1" d="M220.4,52c0-11.2,7.3-19.4,16.6-19.4s16.6,8.2,16.6,19.4c0,11.2-7.3,19.4-16.6,19.4S220.4,63.2,220.4,52z
		 M223.7,52c0,10.9,6,19,13.3,19c7.2,0,13.3-8.1,13.3-19c0-10.9-5.5-19-13.3-19S223.7,41.1,223.7,52z"/>
	<path class="st1" d="M271.4,32.6c4.6,0,7.8,0.7,10.6,1.7v5h-0.4c0,0-2.3-6.3-10.3-6.3c-6.9,0-10.8,4.2-10.8,8.4
		c0,10.2,23.6,6.6,23.6,19.7c0,5.2-5.4,10.3-14,10.3c-4.9,0-9.3-2.5-12.1-4.6v-5h0.4c0,0,4.9,8.9,13.8,8.9c5.5,0,9.7-4,9.7-8.1
		c0-11.2-24-8.1-24-20.3C258.1,37.1,262.8,32.6,271.4,32.6z"/>
</g>
</svg>
