<?xml version="1.0" encoding="UTF-8" standalone="no"?>
<!-- Generator: Adobe Illustrator 23.0.2, SVG Export Plug-In . SVG Version: 6.00 Build 0)  -->

<svg
   version="1.1"
   x="0px"
   y="0px"
   viewBox="0 0 1080 1080"
   style="enable-background:new 0 0 1080 1080;"
   xml:space="preserve"
   id="svg48"
   sodipodi:docname="ICON-4.svg"
   inkscape:version="1.3.2 (091e20e, 2023-11-25)"
   xmlns:inkscape="http://www.inkscape.org/namespaces/inkscape"
   xmlns:sodipodi="http://sodipodi.sourceforge.net/DTD/sodipodi-0.dtd"
   xmlns="http://www.w3.org/2000/svg"
   xmlns:svg="http://www.w3.org/2000/svg"><defs
   id="defs48" /><sodipodi:namedview
   id="namedview48"
   pagecolor="#ffffff"
   bordercolor="#000000"
   borderopacity="0.25"
   inkscape:showpageshadow="2"
   inkscape:pageopacity="0.0"
   inkscape:pagecheckerboard="0"
   inkscape:deskcolor="#d1d1d1"
   inkscape:zoom="0.74537037"
   inkscape:cx="539.32919"
   inkscape:cy="540"
   inkscape:window-width="1920"
   inkscape:window-height="1011"
   inkscape:window-x="0"
   inkscape:window-y="0"
   inkscape:window-maximized="1"
   inkscape:current-layer="svg48" />
<style
   type="text/css"
   id="style1">
	.st0{display:none;}
	.st1{display:inline;}
</style>
<g
   id="Capa_1"
   class="st0">
	<g
   class="st1"
   id="g8">
		<path
   d="M80.87,462.11c5.33-55.41,21.57-109.53,48.26-161.08c33.96-65.6,84.28-122.12,145.46-163.52    c59.13-40.02,127.68-65.69,198.5-74.59c71.47-9,144.88-0.74,212.31,24.73c18.39,6.95,36.31,15.16,53.6,24.54    c5.04,2.72,48.72,32.71,50.14,31.73c-23.41,16.13-46.44,31.98-71.38,49.14c-109.41-61.01-223.63-70.9-340.83-18.59    c-59.76,26.66-107.97,67.31-150.15,126.14c111.87-27.94,184.58,25.33,251.89,96.91c62.11,66.06,128.01,128.56,192.16,192.71    c48.9,48.88,104.28,60.6,157.1,33.07c50.33-26.24,76.43-86.77,65.15-150.46c-2.58-14.58-4.28-29.34-6.34-43.67    c24.52-11.99,48.12-23.52,71.71-35.05c40.21,109.66,19.81,308.94-129.03,443.61c-148.95,134.79-361.49,144.53-504.21,64.83    c9.49-23.75,19.16-47.9,29.66-74.12c103.64,50.98,207.87,57.93,313.63,14.81c64.23-26.2,116.08-68.43,160.45-129.44    c-32.66,5.16-60.69,8.78-88.42,4.19c-49.49-8.16-90.86-31.96-126.17-67.45c-77.1-77.47-154.53-154.59-232-231.67    c-43.3-43.07-94.88-54.99-144.74-34.05c-48.19,20.24-74.82,65.46-74.29,126.17c0.65,76.63,14.55,116.99,76.34,221.37    c-11.79,25.27-23.76,50.97-35.84,76.82c1.98-4.25-14.3-21.25-16.6-24.18c-20.04-25.61-41.68-49.02-58.15-77.36    C86.45,634.25,72.8,545.97,80.87,462.11"
   id="path1" />
		<path
   d="M221.21,608.44c8.58-79.29,60.02-128.36,126.12-167.36c19.9,53.23,27.06,110.6,22.94,174.01    c28.85-26.13,49.93-53.37,80.35-73.41c8.81,9.48,17.74,19.09,27.22,29.31c-110.5,131.26-192.13,276.67-217.66,453.26h-38.19    h-42.93c3.55-58.22,19.6-111.41,40.91-163.31c28.06-68.34,66.38-130.75,108.67-191.18c31.03-44.32,31.57-93.56,14.88-148.2    C307.42,563.84,269.11,596.59,221.21,608.44"
   id="path2" />
		<path
   d="M591.3,436.15c16.22-129.44,35.84-159.66,120.68-182.24c-25.52,32.35-30.19,68.87-39.66,104.04    C661.47,398.15,631.82,421.65,591.3,436.15"
   id="path3" />
		<path
   d="M721.46,350.24c5.19-82.22,14.32-160.75,118.61-180.3c-26.03,31.4-29.56,69.06-39.8,104.65    C788.79,314.4,759.18,336.95,721.46,350.24"
   id="path4" />
		<path
   d="M885.58,381.42c-26.66,29.85-55.41,55.92-97.55,59.53c-39.45,3.4-73.89-19.39-112.64-21.94    c18.92-31.92,62.62-52.04,100.93-46.61c18.31,2.58,36.38,7.11,54.74,8.69C848.62,382.59,866.4,381.42,885.58,381.42"
   id="path5" />
		<path
   d="M802.24,331.8c55.46-64.02,137.3-26.78,199.76-58.07C997.45,344.97,941.33,361.53,802.24,331.8"
   id="path6" />
		<path
   d="M969.7,149.03c-15.6,18.8-22.5,38.63-29.35,58.58c-15.11,44.16-40.44,57.18-87.35,45.63    C848.04,177.46,889.11,139.17,969.7,149.03"
   id="path7" />
		<path
   d="M608.67,467.97c64.2-39.21,117.87,21.67,178.82,12.76C755.96,532.06,646.42,523.96,608.67,467.97"
   id="path8" />
	</g>
</g>
<g
   id="Capa_2"
   class="st0">
	<g
   class="st1"
   id="g12">
		<path
   d="M524.8,626.43c3.4-0.53,5.67-3.9,7.28-7c29.61-57.31,41.39-122.7,67.32-181.72c22.05-50.2,42.49-100.33,71.14-147.32    c15.6-25.56,29.63-52.3,48.79-75.49c9.23-11.18,18.19-20.74,29.33-29.72c8.55-6.88,16.24-14.45,18.63-25.7    c-36.83,4.31-67.09,26.91-90.27,54.69c-11.57,13.88-21.59,28.99-30.82,44.49c-8.21,13.8-18.78,28.53-22.18,44.44    c-5.58-21.33-5.69-42.9-3.31-64.76c9.36-85.6,82.16-139.55,163.47-152.2c47.24-7.36,93.45-20.23,140.72-27.25    c1.93-0.28,4.07-0.53,5.69,0.57c2.61,1.72,2.31,5.6,1.68,8.66c-9.08,45.72-12.84,92.6-26.25,137.36    c-12.06,40.35-40.18,68.98-77.58,88.06c-30.06,15.34-63.34,23.37-96.62,28.97c-8.7,1.47-17.7,2.89-25.13,7.64    c-7.09,4.52-12.06,11.65-16.6,18.74c-43.55,68.03-66.22,152.86-88.04,229.97c-15.37,54.36-21.08,109.94-31.82,164.83    c-1.23,6.32-2.33,12.67-3.78,18.95c-5.58,24.11-12.93,29.55-39.75,29.71c-30.88,0.17-31.46-1.76-39.8-27.7    c-16.41-51.05-23.79-104.3-38.88-155.55c-24.92-84.64-49.05-169.84-83.37-251.11c-34.7-82.12-82.56-157-142.39-224.05    c-16.05-17.98-36.27-32.6-50-56.37c30.39,4.86,52.19,21.48,73.99,36.63c30.78,21.37,56.94,48.48,82.48,75.67    c45.61,48.56,76.81,105.59,101.54,167.53c17.91,44.85,32.54,90.93,46.27,137.24c10.55,35.62,20.35,71.48,30.18,107.33    c2.25,8.19,4.86,16.94,11.53,22.2C520.02,625.56,522.19,626.67,524.8,626.43"
   id="path9" />
		<polygon
   points="158.73,986.91 120.82,897.86 89.64,897.86 143.44,1022.53 171.93,1022.53 225.9,897.86 197.23,897.86   "
   id="polygon9" />
		<polygon
   points="282.71,970.53 340.61,970.53 340.61,948.08 282.71,948.08 282.71,921.01 348.27,921.01 348.27,897.86     254.04,897.86 254.04,1022.53 350.57,1022.53 350.57,999.36 282.71,999.36   "
   id="polygon10" />
		<path
   d="M424.03,931.34c3.61-3.55,7.94-6.3,12.93-8.21c4.97-1.89,10.49-2.84,16.57-2.84c6.28,0,12.08,1.17,17.43,3.48    c5.35,2.31,10.27,5.84,14.79,10.59l18.51-17.09c-6.05-7-13.5-12.35-22.33-16.04c-8.85-3.67-18.81-5.52-29.86-5.52    c-9.96,0-19.1,1.57-27.42,4.71c-8.3,3.16-15.54,7.66-21.73,13.46c-6.16,5.82-10.95,12.63-14.33,20.48    c-3.39,7.83-5.09,16.43-5.09,25.81c0,9.38,1.7,18,5.09,25.85c3.39,7.83,8.13,14.65,14.26,20.48c6.11,5.81,13.29,10.31,21.56,13.44    c8.23,3.14,17.3,4.73,27.13,4.73c8.92,0,17.83-1.38,26.81-4.1c8.96-2.74,16.83-6.66,23.6-11.76v-50.58h-26.34v36.4    c-1.93,1-3.84,2.02-5.81,2.69c-5.41,1.85-10.95,2.78-16.66,2.78c-5.92,0-11.36-0.96-16.28-2.87c-4.93-1.87-9.23-4.65-12.84-8.26    c-3.61-3.63-6.41-7.87-8.36-12.74c-1.97-4.86-2.95-10.21-2.95-16.03c0-5.92,0.98-11.33,2.95-16.19    C417.62,939.11,420.42,934.9,424.03,931.34"
   id="path10" />
		<path
   d="M585.63,897.87l-55.56,124.65h29.56l11.12-26.72h57.79l11.08,26.72h30.25l-55.72-124.65H585.63z M579.87,973.91    l19.83-47.71l19.78,47.71H579.87z"
   id="path11" />
		<polygon
   points="786.55,973.5 724.58,897.86 700.72,897.86 700.72,1022.53 729.22,1022.53 729.22,946.85 791.37,1022.53     815.05,1022.53 815.05,897.86 786.55,897.86   "
   id="polygon11" />
		<path
   d="M985.84,934.46c-3.44-7.77-8.23-14.58-14.33-20.4c-6.11-5.8-13.29-10.32-21.56-13.54c-8.24-3.2-17.3-4.8-27.15-4.8    c-9.74,0-18.76,1.61-27.08,4.8c-8.3,3.21-15.54,7.73-21.73,13.54c-6.16,5.82-10.95,12.65-14.33,20.48    c-3.39,7.85-5.09,16.39-5.09,25.66c0,9.27,1.7,17.81,5.09,25.64c3.39,7.85,8.13,14.65,14.26,20.48    c6.11,5.82,13.35,10.34,21.71,13.54c8.4,3.21,17.49,4.82,27.36,4.82c9.72,0,18.72-1.61,26.96-4.82    c8.26-3.2,15.45-7.68,21.56-13.44c6.11-5.77,10.89-12.57,14.33-20.48c3.44-7.9,5.16-16.47,5.16-25.74    C991,950.8,989.28,942.23,985.84,934.46 M958.86,976.4c-1.97,4.88-4.71,9.08-8.26,12.65c-3.57,3.55-7.72,6.3-12.4,8.19    c-4.69,1.89-9.81,2.86-15.39,2.86s-10.76-0.96-15.51-2.86c-4.75-1.89-8.87-4.63-12.37-8.19c-3.5-3.57-6.24-7.81-8.19-12.74    c-1.97-4.94-2.95-10.31-2.95-16.11c0-5.94,0.98-11.35,2.95-16.2c1.95-4.88,4.73-9.08,8.28-12.65c3.55-3.55,7.68-6.3,12.37-8.19    c4.69-1.91,9.83-2.86,15.41-2.86s10.74,0.95,15.49,2.86c4.75,1.89,8.89,4.63,12.38,8.19c3.5,3.57,6.22,7.77,8.19,12.65    c1.97,4.86,2.93,10.27,2.93,16.2S960.82,971.52,958.86,976.4"
   id="path12" />
	</g>
</g>
<g
   id="Capa_3"
   class="st0">
	<path
   class="st1"
   d="M64.74,567.23c-0.97-7.75-0.55-15.02,1.16-21.99c1.7-6.86,4.58-13.06,8.67-18.47   c4.06-5.41,9.1-9.88,15.05-13.35c5.93-3.49,12.66-5.73,20.13-6.55c7.52-0.93,14.62-0.41,21.22,1.5c6.6,1.98,12.59,5.1,17.84,9.42   c5.19,4.32,9.54,9.62,12.79,15.86c3.38,6.28,5.51,13.35,6.45,21.1c1.09,8.68,0.46,16.69-1.61,24.02   c-2.14,7.38-5.85,13.78-11.09,19.19l-15.51-13.11c3.51-3.9,5.97-8.12,7.41-12.48c1.45-4.47,1.87-9.14,1.24-14.04   c-0.63-4.67-1.87-8.88-3.81-12.57c-2.01-3.75-4.61-6.88-7.78-9.37c-3.28-2.5-6.92-4.3-10.99-5.41c-4.09-1.09-8.5-1.3-13.23-0.78   c-4.79,0.58-9,1.93-12.77,4.01c-3.66,2.02-6.78,4.58-9.33,7.79c-2.45,3.23-4.24,6.86-5.31,10.98c-1.04,4.04-1.24,8.47-0.72,13.09   c0.61,4.99,2.17,9.42,4.59,13.37c2.46,3.95,5.91,7.38,10.32,10.29l-11.88,16.54c-6.39-4.06-11.51-9.36-15.4-16.02   C68.27,583.66,65.78,575.96,64.74,567.23"
   id="path13" />
	<g
   class="st1"
   id="g25">
		<path
   d="M301.58,285.36c9.84,13.78,18.76,26.87,29.25,38.95c-9.83,11.35-18.11,24.02-26.35,36.95    c-78.98,123.94-31.31,295.11,90.48,370.78c79.39,49.34,192.66,56.96,275.17,10.67c12.39-6.95,24.18-14.62,35.81-22.72    c14.65-10.18,27.29-22.45,39.26-35.39c11.19-12.08,20.43-25.77,29.71-39.43c36.76-54.17,48.43-125.73,37.85-189.69    c-10.53-63.84-44.04-124.1-93.63-165.8c-63.27-53.19-135.54-63.5-215.13-63.5c-8.24-13.31-14.26-27.9-25.39-39.57    c1.71-3.37,5.18-4.07,7.76-4.36c106.59-11.51,212.9,16.58,288.28,95.62C879.19,387.52,891,551.49,808.8,677.07    c-81.37,124.32-239.92,174.47-379.69,124.35c-11.48-4.12-22.66-9.31-33.5-14.94c-13.75-7.14-26.74-15.57-39.64-24.27    c-20.26-13.64-37.19-30.64-53.81-48.05c-7.98-8.38-15.27-17.49-21.96-27.12c-4.16-6-8.53-12.1-12.23-18.25    c-8.94-14.88-17.7-30.13-24.04-46.23c-4.95-12.57-8.65-25.89-12.46-39.03c-20.63-70.76-12.65-148.83,16.9-215.82    c8.76-19.83,19.97-38.33,32.28-56.09C286.88,302.6,294.29,294.41,301.58,285.36"
   id="path14" />
		<path
   d="M302.27,129.12c4.36,46.67,11.99,92.19,26.7,136.43c-2.22-3.98-6.09-6.57-8.54-10.35c-8.65-13.38-15.8-28.22-23.38-42.31    c-14.93-27.75-24.01-59.47-29.89-90.19c-1.41-7.29-2.62-14.84-1-22.06c6.29-28.08,40.26-11.88,55.43-1.87    c2.04,1.35,4.36,2.54,6.34,3.49c12.74,6.09,24.25,14.26,36.53,21.02c15.07,8.3,28.7,18.71,41.57,29.55    c14.06,11.84,27.47,24.88,38.79,39.83c5.3,7.01,11.45,13.46,16.11,20.98c10.27,16.55,20.12,33.18,27.78,51.34    c8.12,19.2,14.79,38.74,21.5,58.38c2.17,6.4,4.75,12.72,7.03,19.14c5.11,14.35,16.83,20.43,30.93,22.63    c16.67,2.6,34.1,4.43,50.36,9.57c19.98,6.32,36.93,18.97,52.7,32.35c17.58,14.88,32.98,32.06,49.08,48.48    c12.71,12.97,22.31,28.69,32.51,43.76c6.57,9.71,11.38,20.27,14.36,31.54c2.25,8.44,1.96,17.3,0.28,25.75    c-1.32,6.58-4.52,12.74-7.29,18.99c-9.48,21.33-32.89,35.02-54.14,41.33c-0.49,0.15-1,0.31-1.5,0.46    c-20.2,6-41.34,4.41-61.86,10.06c0.4,38.54-8.36,74.63-20.98,110.51c-3.18,9.02-23.87,6.81-31.31,7.75    c-14.53,1.84-7.41-8.67-4.38-18.18c5.41-16.95,11.58-33.61,14.71-51.26c3.74-20.98,12.88-51.37-5.86-67.07    c-10.34-8.65-21.24-16.58-32.51-23.95c-5.59-3.67-11.28-7.2-17.03-10.63c-4.32-2.57-12.46-9.6-17.41-10.01    c8.01,0.66,15.37,2.53,22.78,5.27c14.33,5.31,27.99,12.31,42.74,16.69c12.57,3.74,25.08,7.07,38.34,5.88    c5.86-0.54,11.48-2.91,16.77-4.81c12.22-4.36,24.5-3.72,36.9-4.09c11.28-0.34,20.2-4.06,29.29-11.38    c6.98-5.59,13.86-12.23,15.96-20.93c1.5-6.26,0.29-12.92-2.19-18.86c-6.19-14.81-17.55-29.48-27.64-41.83    c-16-19.58-34.74-36.43-52.58-54.14c-12.85-12.74-28.08-22.77-45.75-27.27c-19.97-5.07-40.73-4.3-59.84-13.08    c-11.81-5.44-20.92-10-28.63-20.78c-13.72-19.17-17.38-42.08-26.4-63.41c-9.22-21.82-17.03-43.46-29.26-63.96    c-12.51-20.95-27.65-40.38-45.58-56.96c-13.98-12.94-29.23-24.47-44.93-35.26c-7.89-5.42-15.89-10.64-23.95-15.79    c-4.01-2.54-8.02-5.07-12.05-7.58C311.83,132.27,302.04,126.74,302.27,129.12"
   id="path15" />
		<path
   d="M377.92,301.95c15.27,11.88,28.69,25.74,45.46,36.55c-0.8-0.54,0.15-13.43-0.05-15.08c-1.18-10.08-1.85-20.37-3.7-30.33    c-3.28-17.82-9.3-35.02-14.12-52.49c-1.06-3.86-2.05-8.07-0.57-11.79c8.19,12.28,16.81,24.28,22.72,37.88    c5.8,13.34,11.97,26.58,16.25,40.62c4.41,14.47,7.89,29.09,11.21,43.84c3.32,14.73,4.62,29.52,6.86,45.45    c-7.87-1.94-12.86-6.26-17.81-10.2C415.39,363.58,392.38,336.13,377.92,301.95"
   id="path16" />
		<path
   d="M617.47,442.59c-5.47-9.16-14.16-12.08-22.71-10.72c-8.19,1.3-17.58,4.2-22.29,11.58c-3.67,5.77-5.76,18.31-2.92,24.87    c4.1,9.54,12.97,12.8,21.24,15.79c8.1,2.92,16.06,5.37,24.81,4.72c8.31-0.63,11.39-9.86,11.48-17.12    C627.21,460.71,622.96,451.75,617.47,442.59 M595.81,460.94c-3.46,0.32-6.84-0.92-8.51-4.47c-5.34-11.65,14.71-20.76,18.79-7.23    C607.87,455.24,601.72,460.37,595.81,460.94"
   id="path17" />
		<path
   d="M197.05,659.99l-17.72-39.78l-91.87,41.02l9.46,21.27l25.62-11.39l8.28,18.47c0.15,0.35,0.41,0.49,0.57,0.83l-17.84,29.23    l10.24,23.03l20.33-33.76c0.06,0.06,0.09,0.17,0.15,0.23c5.25,4.78,11.07,7.64,17.5,8.68c6.37,0.98,12.97,0.05,19.8-3.02    c6.89-3.06,12.14-7.38,15.68-12.85c3.54-5.51,5.3-11.81,5.33-18.93C202.62,675.9,200.77,668.2,197.05,659.99 M181.62,683.12    c-1.35,4.47-4.58,7.9-9.62,10.14c-4.99,2.19-9.62,2.34-13.93,0.37c-4.32-1.98-7.9-6.25-10.87-12.79l-7.72-17.3l32.03-14.32    l7.72,17.36C182.17,673.1,182.96,678.61,181.62,683.12"
   id="path18" />
		<path
   d="M275.36,773.49l-41.31,37.07c-7.15,6.34-13.54,9.51-19.34,9.46c-5.77-0.15-10.99-2.86-15.76-8.16    c-4.73-5.25-6.83-10.76-6.29-16.54c0.47-5.67,4.27-11.74,11.47-18.19l41.28-37.02l-15.57-17.36l-41.92,37.64    c-10.98,9.88-16.8,20.44-17.29,31.73c-0.55,11.33,3.97,22.29,13.49,32.95c9.51,10.57,19.97,16.23,31.27,16.95    c11.26,0.67,22.42-3.89,33.41-13.72l41.91-37.64L275.36,773.49z"
   id="path19" />
		<polygon
   points="371.86,864.99 381.47,848.98 316.27,809.89 264.55,896.18 331.36,936.23 340.97,920.21 293.98,892.03     305.95,872.04 346.07,896.09 355.32,880.54 315.28,856.5 326.52,837.75   "
   id="polygon19" />
		<polygon
   points="411,945.42 433.18,866.86 410.79,860.52 383.44,957.34 454.41,977.35 459.56,959.1   "
   id="polygon20" />
		<polygon
   points="486.18,881.37 485.54,900.34 517.7,901.49 514.73,983.12 538.02,983.95 540.99,902.32 573.17,903.51     573.85,884.54   "
   id="polygon21" />
		<polygon
   points="699.79,859.24 677.78,865.44 663.99,915.72 626.06,880.05 602.22,886.74 657.34,938.45 667.05,972.99     689.51,966.73 679.81,932.34   "
   id="polygon22" />
		<polygon
   points="843.16,833.9 831.83,818.97 794.79,847.25 778.64,826.11 820.59,794.07 809.32,779.25 748.86,825.37     809.83,905.39 828.34,891.24 806.14,862.14   "
   id="polygon23" />
		<path
   d="M912.31,767.28l34.24,1.01l14.84-20.33l-39.31-0.87c0.01-0.06,0.09-0.14,0.11-0.21c1.49-6.97,1.09-13.52-1.16-19.55    c-2.27-6.03-6.37-11.28-12.43-15.7c-6.11-4.47-12.4-6.86-18.9-7.29c-6.56-0.35-12.89,1.26-19.11,4.79    c-6.19,3.54-11.99,8.88-17.24,16.17l-25.78,35.2l81.21,59.36l13.72-18.77l-22.6-16.57l11.97-16.34    C912.1,767.88,912.1,767.58,912.31,767.28 M896.14,758.31l-11.21,15.28l-28.3-20.69l11.22-15.34c4.26-5.82,8.62-9.2,13.2-10.29    c4.58-1.04,9.16,0.11,13.63,3.38c4.41,3.22,6.81,7.17,7.2,11.85C902.33,747.23,900.35,752.49,896.14,758.31"
   id="path23" />
		<polygon
   points="994.56,618.45 976.08,670.02 954.17,662.18 969.93,618.19 952.87,612.05 937.13,656.08 916.52,648.7     934.36,598.89 916.84,592.6 891.15,664.2 985.88,698.15 1012.19,624.79   "
   id="polygon24" />
		<polygon
   points="1009.3,488.57 1005.98,543.22 982.72,541.79 985.57,495.23 967.47,494.08 964.67,540.69 942.86,539.36     946.03,486.59 927.37,485.51 922.82,561.36 1023.16,567.49 1028,489.72   "
   id="polygon25" />
	</g>
</g>
<g
   id="Capa_4"
   class="st0">
	<g
   class="st1"
   id="g30">
		<path
   d="M408.31,99.58c3.72-2.14,6.44-1.39,9.03-1.39c82.29-0.05,164.58-0.22,246.87,0.05c25.22,0.07,48.83,6.41,69.55,21.6    c11.99,8.78,20.75,20.12,27.32,33.32c11.99,24.03,24.17,47.97,35.94,72.1c2.59,5.34,4.76,5.78,10.16,3.32    c14.15-6.45,27.86-13.93,42.66-18.91c8.28-2.79,11.35-0.41,11.74,8.42c0.32,7.57-2.24,14.2-5.99,20.53    c-29.3,49.45-59.05,98.64-87.63,148.49c-6,10.48-12.3,12.74-23.47,11.72c-51.88-4.73-103.84-8.61-155.77-12.82    c-9.1-0.73-18.2-1.56-27.28-2.47c-5.6-0.54-10.75-1.89-11.72-8.74c-1-7.16,2.89-10.68,9-13.34c9.59-4.15,18.86-9.07,28.42-13.34    c3.79-1.68,4.69-3.57,2.81-7.3c-28.73-57.03-51.5-117.12-87.26-170.52c-16.87-25.22-36.06-48.39-65.76-59.74    C427.7,107.03,418.48,103.48,408.31,99.58"
   id="path25" />
		<path
   d="M228.13,853.97c-8.28-14.36-16.6-28.68-24.83-43.05c-36.69-64.12-73.14-128.4-110.13-192.36    c-14.41-24.9-14.85-49.12-0.46-73.99c14.68-25.38,31.38-49.45,46.98-74.24c3.03-4.8,3.71-7.16-2.02-10.31    c-11.77-6.46-23.12-13.69-34.55-20.77c-5.24-3.23-11-6.24-8.57-14.36c2.35-7.79,8.42-9.13,15.14-9.3    c30.38-0.73,60.76-1.36,91.14-2.01c33.07-0.68,66.13-1.21,99.2-2.14c6.12-0.19,9.46,1.48,12.45,7.19    c27.85,53.02,56.06,105.86,84.21,158.73c2.54,4.76,5.07,9.54,6.21,14.83c0.85,3.95,1.57,8.33-2.57,10.99    c-3.67,2.36-7.65,1.94-11.4-0.36c-10.31-6.33-20.73-12.47-30.9-19c-4.15-2.65-6.4-2.94-9.42,1.87    c-33.85,53.65-67.88,107.17-102.05,160.6c-19.53,30.53-24.82,63.55-18.51,98.82c0.51,2.81,0.73,5.66,1.09,8.5L228.13,853.97z"
   id="path26" />
		<path
   d="M994.01,630.52c-12.52,22.79-25,45.6-37.56,68.38c-33.15,60.25-66.44,120.44-99.44,180.77    c-12.66,23.1-32.37,34.46-58.03,36.09c-29.27,1.84-58.61,0.61-87.92,0.63c-6.74,0.02-8.74,1.92-8.5,8.62    c0.49,13.96,0.03,27.96,0.2,41.94c0.07,4.97-0.87,9.29-5.82,11.31c-5.32,2.19-10.46,1.8-14.95-2.47c-3.93-3.74-6.9-8.2-9.83-12.71    c-32.67-50.24-65.31-100.49-98.14-150.63c-2.55-3.9-2.64-6.62-0.27-10.7c31.38-54.16,62.54-108.43,93.75-162.67    c0.41-0.7,0.77-1.43,1.16-2.13c2.82-4.88,6.92-7.69,12.66-6.53c5.44,1.09,6.6,5.78,7.33,10.41c1.68,10.7,1.22,21.48,0.88,32.22    c-0.21,6.46,1.39,8.76,8.37,8.71c56.22-0.44,112.41-0.08,168.61-0.82c23.34-0.31,46.62-2.53,68.77-11.36    c18.52-7.38,34.7-18.17,48.75-32.16c2.82-2.81,4.83-6.43,7.19-9.68L994.01,630.52z"
   id="path27" />
		<path
   d="M414.95,914.07c-31.47,0-62.92,0.02-94.38,0c-36.76-0.02-54.85-16.79-61.59-53.15c-9.03-48.8,4.61-91.22,32.45-130.53    c8.69-12.26,17.08-24.77,25.38-37.32c2.48-3.74,5.32-5.22,9.92-5.22c65.33,0.15,130.66,0.19,196.01-0.02    c6.11-0.02,7.67,1.82,7.66,7.77c-0.19,70.18-0.21,140.34,0.02,210.52c0.02,6.43-1.85,8.13-8.18,8.08    C486.48,913.92,450.72,914.07,414.95,914.07"
   id="path28" />
		<path
   d="M381.2,122.91c22.89-0.77,41.62,9.03,58.37,23.44c18.98,16.31,33.24,36.5,46.06,57.75c10.84,17.94,20.1,36.72,28.86,55.77    c2.13,4.59,2.19,8.16-0.68,12.59c-34.94,53.87-69.77,107.79-104.32,161.91c-3.9,6.09-6.46,6.19-12.18,2.33    c-56.98-38.56-114.1-76.9-171.38-114.96c-6.07-4.03-5.94-6.67-2.36-12.31c34.09-54.09,67.9-108.33,101.73-162.57    c7.64-12.25,19.2-18.45,32.67-21.6C365.57,123.45,373.36,122.6,381.2,122.91"
   id="path29" />
		<path
   d="M851.2,649.78c-18.64,0-33.97-0.14-49.29,0.09c-4.49,0.05-7.3-1.16-9.75-5.24c-34.15-56.9-68.5-113.69-102.8-170.5    c-5.43-9-5.46-9.07,3.83-14.49c59.17-34.51,118.38-68.97,177.49-103.59c3.9-2.28,5.68-1.89,8.18,1.97    c36.5,56.08,73.38,111.92,109.72,168.08c12.79,19.75,12.28,41.11,0.14,60.35c-20.77,32.95-50.48,54.85-89.28,62.13    C882.53,651.77,865.09,649.42,851.2,649.78"
   id="path30" />
	</g>
</g>
<g
   id="Capa_5"
   style="fill:#ba9571;fill-opacity:1">
	<g
   id="g48"
   style="fill:#ba9571;fill-opacity:1">
		<path
   d="M144.69,541.49c-0.17,8.28-7.03,14.85-15.31,14.68c-8.28-0.17-14.85-7.03-14.68-15.31c0.17-8.28,7.03-14.85,15.31-14.68    C138.3,526.36,144.87,533.21,144.69,541.49"
   id="path31"
   style="fill:#ba9571;fill-opacity:1" />
		<path
   d="M977.07,574.15c-0.17,8.28-7.03,14.85-15.31,14.68c-8.28-0.17-14.85-7.03-14.68-15.31c0.17-8.28,7.03-14.85,15.31-14.68    C970.67,559.01,977.24,565.86,977.07,574.15"
   id="path32"
   style="fill:#ba9571;fill-opacity:1" />
		<path
   d="M194.95,448.02L99.48,410.4l17.09-43.36c4.09-10.35,9.66-18.72,16.71-25.06c7.1-6.36,15.06-10.38,23.91-12.04    c8.84-1.63,18.12-0.56,27.82,3.25c9.68,3.79,17.13,9.35,22.51,16.6c5.4,7.27,8.51,15.62,9.35,25.13    c0.82,9.44-0.77,19.35-4.86,29.73L194.95,448.02z M185.52,418.77l7.99-20.19c2.48-6.34,3.41-12.32,2.88-17.98    c-0.56-5.61-2.55-10.64-6.01-14.96c-3.43-4.35-8.15-7.71-14.14-10.07c-6.12-2.39-11.83-3.16-17.28-2.34    c-5.45,0.87-10.28,3.16-14.56,6.89c-4.23,3.76-7.62,8.77-10.12,15.17l-7.94,20.17L185.52,418.77z"
   id="path33"
   style="fill:#ba9571;fill-opacity:1" />
		<path
   d="M273.85,303.8c-5.21,6.22-11.06,11.1-17.51,14.7c-6.45,3.57-13.14,5.71-20.04,6.48c-6.92,0.77-13.7,0.16-20.45-1.87    c-6.73-2.03-13-5.49-18.82-10.36c-5.82-4.93-10.31-10.5-13.44-16.79c-3.14-6.27-4.91-12.9-5.35-19.87    c-0.37-6.96,0.63-13.95,3.03-20.85c2.36-6.96,6.12-13.47,11.27-19.59c5.23-6.2,11.05-11.06,17.43-14.56s13.04-5.64,19.91-6.41    c6.92-0.77,13.73-0.17,20.45,1.77c6.73,1.96,13.04,5.42,18.96,10.36c5.84,4.93,10.3,10.54,13.46,16.9    c3.16,6.34,4.93,12.97,5.31,19.87c0.37,6.92-0.6,13.81-2.92,20.69C282.76,291.17,279,297.68,273.85,303.8 M258.26,290.9    c2.95-3.53,5.08-7.25,6.34-11.2c1.33-3.95,1.77-8.02,1.43-12.13c-0.37-4.12-1.56-8.13-3.58-11.9c-2.03-3.83-4.93-7.32-8.65-10.49    c-3.76-3.13-7.67-5.35-11.76-6.71c-4.12-1.33-8.21-1.83-12.3-1.54c-4.09,0.35-8.02,1.47-11.71,3.46    c-3.76,1.99-7.04,4.72-10.03,8.25c-2.97,3.5-5.07,7.25-6.36,11.2c-1.22,3.98-1.73,8.02-1.4,12.15c0.37,4.11,1.54,8.11,3.6,11.92    c1.99,3.79,4.89,7.29,8.63,10.45c3.67,3.06,7.59,5.28,11.71,6.68c4.12,1.36,8.28,1.91,12.37,1.57c4.12-0.31,7.97-1.47,11.73-3.43    C251.99,297.16,255.34,294.43,258.26,290.9"
   id="path34"
   style="fill:#ba9571;fill-opacity:1" />
		<polygon
   points="320.07,251.74 266.31,164.41 283.03,154.1 373.26,185.28 365.15,190.28 326.44,127.36 346.44,115.06     400.16,202.44 383.59,212.64 293.2,181.55 301.35,176.57 340.04,239.47   "
   id="polygon34"
   style="fill:#ba9571;fill-opacity:1" />
		<path
   d="M396.27,142.03l-2.69-36.37l7.51,11.46c-3.97,1.4-7.62,1.4-10.97-0.07c-3.36-1.42-5.79-4.18-7.22-8.23    c-1.43-3.97-1.26-7.62,0.44-10.98c1.73-3.36,4.46-5.71,8.22-7.03c3.88-1.4,7.48-1.29,10.84,0.28c3.36,1.52,5.75,4.28,7.15,8.23    c0.44,1.21,0.8,2.39,1.07,3.6c0.26,1.19,0.44,2.66,0.45,4.42c0.07,1.73,0,4.09-0.16,7.08l-0.96,22.7L396.27,142.03z"
   id="path35"
   style="fill:#ba9571;fill-opacity:1" />
		<polygon
   points="481.51,179.76 468.61,97.52 436.19,102.6 433.2,83.49 521.51,69.64 524.5,88.76 492.08,93.85 504.94,176.07   "
   id="polygon35"
   style="fill:#ba9571;fill-opacity:1" />
		<path
   d="M588.72,173.21l22.35-100.1l43.34,9.72c8.95,1.99,16.32,5.17,22.14,9.51c5.89,4.39,9.91,9.63,12.23,15.85    c2.34,6.26,2.64,13.14,0.98,20.64c-1.71,7.46-4.86,13.51-9.61,18.16c-4.75,4.63-10.71,7.69-17.83,9.14    c-7.11,1.47-15.15,1.21-24.1-0.79l-30.5-6.82l12.64-8.14l-8.48,38.03L588.72,173.21z M619.78,142.96l-7.81-13.33l29.18,6.52    c7.15,1.59,12.81,1.26,17.02-1c4.19-2.25,6.92-6.12,8.11-11.53c1.28-5.56,0.44-10.24-2.41-14.07c-2.83-3.86-7.83-6.59-14.96-8.18    l-29.2-6.48l12.81-8.7L619.78,142.96z"
   id="path36"
   style="fill:#ba9571;fill-opacity:1" />
		<path
   d="M671.98,189.83l89.16-68.31l20.6,11.17l-8.67,112.04l-21.88-11.87l10.24-97.52l8.25,4.49l-76.34,61.6L671.98,189.83z     M702.56,181.43l14.12-12.83l46.38,25.17l-2.92,18.91L702.56,181.43z"
   id="path37"
   style="fill:#ba9571;fill-opacity:1" />
		<polygon
   points="777.03,249.78 850.68,178.34 864.34,192.42 853.47,287.32 846.85,280.47 899.84,229.03 916.19,245.88     842.53,317.31 828.95,303.31 839.77,208.32 846.38,215.18 793.39,266.61   "
   id="polygon37"
   style="fill:#ba9571;fill-opacity:1" />
		<polygon
   points="853.43,337.81 941.09,284.55 953.46,304.84 865.73,358.12   "
   id="polygon38"
   style="fill:#ba9571;fill-opacity:1" />
		<path
   d="M892.76,424.09c-2.66-7.48-3.83-14.85-3.62-22.11c0.19-7.25,1.75-14.07,4.61-20.31c2.9-6.33,6.89-11.85,12.08-16.57    c5.17-4.79,11.39-8.41,18.72-10.97c7.23-2.52,14.38-3.55,21.41-3.06c7.01,0.51,13.6,2.34,19.78,5.52    c6.15,3.16,11.57,7.51,16.25,13.04c4.65,5.49,8.32,12.04,10.94,19.61c2.95,8.39,4.16,16.5,3.62,24.27    c-0.56,7.78-2.83,14.99-6.85,21.55l-18.32-9.75c2.62-4.65,4.19-9.33,4.65-14.02c0.47-4.74-0.12-9.49-1.78-14.28    c-1.61-4.51-3.79-8.41-6.59-11.69c-2.79-3.27-6.05-5.78-9.8-7.58c-3.72-1.8-7.72-2.83-12.01-3.02c-4.32-0.19-8.81,0.51-13.42,2.13    c-4.6,1.59-8.53,3.83-11.78,6.68c-3.25,2.83-5.79,6.12-7.58,9.87c-1.78,3.72-2.76,7.74-2.92,12.01c-0.17,4.32,0.52,8.7,2.1,13.26    c1.69,4.79,4.17,8.88,7.51,12.27c3.32,3.43,7.48,6.08,12.49,8.07l-8.28,19.01c-7.2-2.66-13.49-6.85-18.8-12.6    C899.84,439.68,895.68,432.56,892.76,424.09"
   id="path38"
   style="fill:#ba9571;fill-opacity:1" />
		<polygon
   points="87.14,664.46 185.29,634.57 192.19,657.27 94.06,687.19   "
   id="polygon39"
   style="fill:#ba9571;fill-opacity:1" />
		<polygon
   points="117.6,744.98 191.54,706.81 176.51,677.66 193.67,668.78 234.65,748.23 217.47,757.07 202.44,727.92     128.47,766.09   "
   id="polygon40"
   style="fill:#ba9571;fill-opacity:1" />
		<path
   d="M207.96,779.89l33.85-13.6l-8.68,10.64c-2.52-3.34-3.65-6.85-3.29-10.49c0.37-3.65,2.25-6.75,5.68-9.37    c3.32-2.55,6.85-3.53,10.61-2.92c3.69,0.63,6.75,2.52,9.18,5.71c2.5,3.25,3.53,6.71,3.02,10.36c-0.44,3.69-2.33,6.78-5.68,9.31    c-0.99,0.8-2.06,1.5-3.09,2.1c-1.06,0.63-2.43,1.22-4.05,1.82c-1.66,0.58-3.93,1.24-6.82,1.97l-21.95,6.01L207.96,779.89z"
   id="path40"
   style="fill:#ba9571;fill-opacity:1" />
		<path
   d="M221.96,888.77c-6.01-5.59-11.05-11.74-15.07-18.49c-4.06-6.71-6.54-12.93-7.52-18.61l18.05-7.65    c1.13,5.3,3.2,10.71,6.26,16.27c3.02,5.54,6.81,10.4,11.34,14.59c3.43,3.18,6.5,5.42,9.26,6.68c2.76,1.29,5.19,1.8,7.32,1.5    c2.17-0.3,3.91-1.24,5.38-2.8c1.91-1.99,2.57-4.32,2.1-6.99c-0.51-2.66-1.7-5.51-3.57-8.67c-1.89-3.16-4.09-6.52-6.53-10.07    c-2.5-3.6-4.86-7.32-7.03-11.18c-2.22-3.88-3.84-7.85-4.98-11.8c-1.1-3.95-1.29-7.99-0.51-12.08c0.77-4.05,3.04-8.11,6.76-12.13    c3.95-4.28,8.74-7.15,14.35-8.55c5.63-1.4,11.78-0.96,18.46,1.29c6.62,2.2,13.53,6.62,20.62,13.21    c4.72,4.35,8.88,9.25,12.43,14.63c3.56,5.31,6.08,10.77,7.51,16.22l-17.61,8.25c-1.66-5.26-3.79-10.01-6.4-14.19    c-2.66-4.26-5.61-7.92-9-11.05c-3.39-3.09-6.49-5.26-9.35-6.48c-2.92-1.21-5.42-1.59-7.5-1.22c-2.06,0.42-3.9,1.42-5.44,3.06    c-1.78,1.96-2.45,4.25-1.96,6.87c0.47,2.67,1.66,5.52,3.6,8.65c1.92,3.13,4.12,6.45,6.57,10.05c2.46,3.62,4.79,7.31,7.06,11.13    c2.25,3.83,3.95,7.71,5.09,11.69c1.08,3.97,1.29,7.99,0.49,12.08c-0.79,4.05-2.99,8.07-6.64,12.04c-3.93,4.21-8.68,6.97-14.3,8.3    c-5.63,1.29-11.78,0.91-18.49-1.33C236.08,899.81,229.14,895.39,221.96,888.77"
   id="path41"
   style="fill:#ba9571;fill-opacity:1" />
		<path
   d="M378.88,986.27c-7.59-2.85-14.14-6.75-19.63-11.69c-5.47-4.89-9.77-10.49-12.76-16.72c-2.99-6.29-4.65-12.93-4.96-19.96    c-0.33-7.01,0.87-14.05,3.57-21.16c2.73-7.15,6.52-13.25,11.41-18.26c4.88-5.05,10.57-8.91,17.02-11.6    c6.41-2.66,13.32-4.02,20.67-4.05c7.34-0.03,14.73,1.36,22.21,4.23c7.57,2.88,14.09,6.75,19.5,11.64    c5.42,4.84,9.61,10.43,12.64,16.72c2.99,6.24,4.68,12.86,5.05,19.84c0.37,6.99-0.79,14.1-3.55,21.32    c-2.66,7.15-6.52,13.23-11.48,18.28c-4.95,5.05-10.59,8.95-17.02,11.57c-6.38,2.66-13.23,3.98-20.5,4.05    C393.77,990.54,386.39,989.14,378.88,986.27 M385.96,967.33c4.28,1.63,8.51,2.39,12.67,2.32c4.16-0.1,8.14-1,11.9-2.69    c3.79-1.73,7.15-4.16,10.07-7.34c2.94-3.16,5.26-7.03,6.99-11.6c1.73-4.56,2.55-9.02,2.5-13.3c-0.07-4.35-0.98-8.39-2.6-12.15    c-1.66-3.76-4.06-7.04-7.15-9.89c-3.09-2.87-6.78-5.1-11.06-6.73c-4.33-1.63-8.55-2.43-12.71-2.32c-4.19,0.1-8.11,1-11.94,2.69    c-3.79,1.7-7.11,4.16-10.05,7.32c-2.92,3.18-5.28,7.04-7.01,11.6c-1.7,4.47-2.53,8.9-2.43,13.26c0.07,4.35,0.91,8.41,2.57,12.2    c1.66,3.76,4.02,7.04,7.15,9.91C377.95,963.43,381.67,965.7,385.96,967.33"
   id="path42"
   style="fill:#ba9571;fill-opacity:1" />
		<path
   d="M474.12,1011.6l7.22-102.32l44.25,3.13c9.18,0.63,16.99,2.69,23.4,6.12c6.41,3.43,11.24,8.04,14.44,13.86    c3.25,5.82,4.54,12.57,4.02,20.25c-0.52,7.6-2.8,14.02-6.78,19.28c-3.98,5.26-9.4,9.11-16.25,11.6    c-6.82,2.43-14.84,3.36-23.98,2.69l-31.14-2.17l11.27-9.63l-2.73,38.87L474.12,1011.6z M500.36,977.04l-9.77-11.87l29.85,2.1    c7.32,0.52,12.9-0.66,16.73-3.6c3.83-2.92,5.94-7.15,6.31-12.71c0.4-5.64-1.08-10.17-4.48-13.53c-3.39-3.39-8.76-5.35-16.06-5.85    l-29.83-2.08l11.34-10.52L500.36,977.04z M539.19,1016.16l-22.97-38.9l25.29,1.77l23.28,38.97L539.19,1016.16z"
   id="path43"
   style="fill:#ba9571;fill-opacity:1" />
		<path
   d="M653.68,1006.29c-7.93,1.66-15.48,1.89-22.6,0.77c-7.22-1.17-13.73-3.57-19.66-7.22c-5.91-3.67-10.87-8.35-14.89-14.1    c-4.09-5.75-6.89-12.39-8.44-19.94c-1.59-7.55-1.66-14.8-0.26-21.69c1.4-6.87,4.09-13.16,8.11-18.87    c3.99-5.71,9.07-10.57,15.26-14.51c6.15-3.91,13.27-6.71,21.27-8.41c8.91-1.85,17.23-2.03,24.97-0.56    c7.72,1.49,14.63,4.53,20.67,9.14l-12.02,16.88c-4.46-3.02-8.98-5.05-13.7-6.01c-4.68-0.96-9.58-0.93-14.63,0.14    c-4.89,1-9.14,2.69-12.86,5.05c-3.69,2.36-6.69,5.28-9.02,8.77c-2.29,3.46-3.84,7.34-4.61,11.57c-0.77,4.26-0.63,8.77,0.37,13.56    c0.96,4.68,2.66,8.84,5.05,12.44c2.4,3.58,5.35,6.54,8.88,8.84c3.53,2.32,7.45,3.81,11.73,4.51c4.26,0.7,8.79,0.58,13.56-0.42    c4.6-0.96,8.91-2.64,12.95-5.05c4.05-2.38,7.78-5.77,11.13-10.19l16.73,14.07c-4.6,5.23-10.28,9.72-17.02,13.4    C667.86,1002.21,660.87,1004.79,653.68,1006.29 M669.78,986.48l-7.88-37.73l21.25-4.42l8.51,40.75L669.78,986.48z"
   id="path44"
   style="fill:#ba9571;fill-opacity:1" />
		<path
   d="M726,986.04l-8.28-112.01l20.67-11.1l88.94,68.68L805.4,943.4l-75.9-62.04l8.26-4.42l9.72,97.6L726,986.04z     M735.77,955.86L732.78,937l46.47-24.96l14.17,12.83L735.77,955.86z"
   id="path45"
   style="fill:#ba9571;fill-opacity:1" />
		<polygon
   points="854.73,909.38 782.41,836.61 796.34,822.77 891.36,832.52 884.61,839.23 832.55,786.84 849.13,770.3     921.49,843.09 907.66,856.81 812.54,847.18 819.28,840.45 871.38,892.86   "
   id="polygon45"
   style="fill:#ba9571;fill-opacity:1" />
		<polygon
   points="946.09,806.91 860.09,751.03 873.05,731.12 959.02,786.99   "
   id="polygon46"
   style="fill:#ba9571;fill-opacity:1" />
		<path
   d="M1000.41,706.71c-2.92,7.34-6.85,13.7-11.76,19.05c-4.93,5.35-10.54,9.47-16.79,12.34c-6.29,2.85-12.97,4.39-20.01,4.61    c-6.99,0.21-14.07-1.12-21.22-3.98c-7.22-2.87-13.27-6.78-18.23-11.74c-4.98-4.95-8.74-10.66-11.33-17.11    c-2.6-6.41-3.86-13.26-3.76-20.48c0.07-7.22,1.59-14.56,4.54-22c3.3-8.28,7.69-15.17,13.21-20.73c5.5-5.51,11.94-9.47,19.28-11.8    l7.45,19.38c-5.02,1.77-9.25,4.28-12.71,7.55c-3.41,3.25-6.12,7.25-7.97,11.97c-1.8,4.46-2.69,8.84-2.69,13.12    c-0.04,4.3,0.77,8.35,2.39,12.16c1.63,3.79,4.02,7.18,7.15,10.15c3.16,2.99,6.97,5.38,11.5,7.18c4.56,1.78,8.95,2.69,13.27,2.69    c4.35-0.03,8.37-0.87,12.2-2.5c3.79-1.63,7.18-4.02,10.12-7.18c2.92-3.13,5.24-6.92,7.04-11.38c1.85-4.75,2.66-9.47,2.4-14.19    c-0.26-4.75-1.66-9.51-4.19-14.3l18.72-8.95c3.76,6.76,5.75,14,6.03,21.85C1005.27,690.25,1003.7,698.38,1000.41,706.71"
   id="path46"
   style="fill:#ba9571;fill-opacity:1" />
		<path
   d="M673.78,447.23c-7.69,1.35-14.82,4.07-21.74,7.31c-49.02,22.89-84.59,59.65-109.7,107.02    c-20.13,38.01-31.53,78.71-36.66,121.27c-1.24,10.17-2.24,20.38-3.46,30.55c-0.23,1.89,0.37,4.67-1.75,5.35    c-1.99,0.63-3.51-1.68-4.86-3.04c-12.27-12.32-20.92-27.05-25.9-43.5c-22.32-73.71-8.7-141.72,51.5-196.03    c35.18-31.75,76.3-53.48,119.89-70.99c46.72-18.75,95.05-31.79,144.57-40.61c1.34-0.24,2.73-0.77,4.42,0.19    c-37.19,18.91-52.36,52.8-62.21,90.23c-8.02,30.53-11.41,61.83-15.2,93.08c-4.72,39.04-8.37,78.33-20.97,115.94    c-7.55,22.51-18.14,43.24-36.91,58.81c-17.51,14.54-38.2,21.16-60.31,24.22c-11.32,1.57-22.63,1.45-33.97,0.1    c-7.03-0.82-7.04-0.65-6.41-7.58c2.66-28.99,4.68-58.06,8.11-86.96c6.33-53.62,21.77-104.21,53.21-148.92    c15.33-21.79,33.57-40.67,56.31-54.89C672.43,448.31,673.09,447.73,673.78,447.23"
   id="path47"
   style="fill:#ba9571;fill-opacity:1" />
		<path
   d="M358.6,574.86c28.03,56.54,57.92,111.94,100.19,160.48c-10.31,1.45-19.89,0.59-29.36-1.35    c-28.1-5.75-48.92-22.44-65.69-44.74c-19.43-25.83-31.13-55.4-40.16-86.11c-9.07-30.83-14.38-62.41-17.76-94.32    c-0.16-1.59-0.02-3.23-0.02-5.33c15.07,4.04,29.38,9.02,43.5,14.52c34.55,13.46,66.71,30.99,94.62,55.75    c2.34,2.08,3.3,3.9,2.94,7.41c-3.56,34.67-1.64,68.73,12.62,101.2c1.89,4.32,4.21,8.46,6.08,12.88    C429.72,655.36,393.02,616.21,358.6,574.86"
   id="path48"
   style="fill:#ba9571;fill-opacity:1" />
	</g>
</g>
</svg>
